<svg width="565" height="600" xmlns="http://www.w3.org/2000/svg">
    <g fill-rule="nonzero" fill="none">
        <path d="M136.82 494.875c-20.278-3.323-37.22-9.379-59.923-21.752-22.703-12.372-50.541-32.929-60.83-19.032-18.357 24.791 40.855 60.722 120.752 40.784z" fill="#162076"/>
        <path d="M69.034 471.296s.969 7.26 2.406 17.171c.5 3.462 1.06 7.248 1.652 11.163.055.347.106.695.16 1.042 2.116 13.909 4.658 29.195 6.674 37.183.1.395.197.773.294 1.13 4.243 15.706 52.362-2.722 53.27-13.296a745.239 745.239 0 0 1 1.916-19.455c.084-.766.168-1.493.251-2.181.693-5.976 1.162-9.178 1.162-9.178l-67.785-23.58z" fill="#F4ADA2"/>
        <path d="M435.28 573.246c-.966-29.733-7.73-42.635-14.282-59.641-3.026-7.855-28.031-44.137-12.106-56.795 16.343-12.99 56.897 27.491 26.388 116.436z" fill="#162076"/>
        <path d="m420.998 513.605 14.282 59.64s9.657-4.368 21.46-9.917c14.756-6.936 32.863-15.722 39.615-20.117 13.922-9.063-14.487-43.669-30.566-38.971a299.107 299.107 0 0 1-23.104 5.746 305.303 305.303 0 0 1-7.405 1.44c-8.795 1.599-14.282 2.179-14.282 2.179z" fill="#F4ADA2"/>
        <path d="M560.962 594.892c3.46-5.17 5.484-17.204-.738-35.302l-30.262-88.02c-29.067 14.846-49.647 25.722-64.173 32.67 5.75 10.271 13.197 8.636 18.648 16.585 6.315 9.208 4.16 12.437 20.022 34.268.256.352.486.716.728 1.071.069.1.133.197.2.293a112.604 112.604 0 0 0 14.103 16.845c20.295 19.747 39.393 21.455 41.313 21.582a.003.003 0 0 0 .004.002c.044.003.081.003.106.004l.05.002z" fill="#FFF"/>
        <path d="M560.959 595.647c.253 0 .49-.126.632-.336 3.741-5.589 5.534-17.975-.652-35.966l-30.262-88.02a.756.756 0 0 0-1.043-.437c-9.91 4.743-19.65 9.935-29.07 14.958-12.469 6.646-24.244 12.924-35.222 17.547a.755.755 0 1 0 .588 1.392c11.042-4.65 22.847-10.944 35.347-17.607 9.162-4.885 18.629-9.931 28.245-14.56l29.985 87.217c5.873 17.083 4.434 28.817 1.06 34.275-3.239-.27-22.175-2.613-41.449-21.366a112.429 112.429 0 0 1-14.007-16.732l-.198-.292c-.081-.118-.162-.241-.242-.362a20.258 20.258 0 0 0-.498-.725c-3.31-4.555-7.615-11.26-9.092-14.597a.757.757 0 0 0-1.384.61c1.575 3.559 5.941 10.319 9.25 14.873.162.222.313.45.463.676l.253.378.202.297a113.975 113.975 0 0 0 14.197 16.956c20.211 19.667 40.188 21.639 42.642 21.81a.598.598 0 0 0 .057.005l.12.006h.078z" fill="#131B5F"/>
        <path d="M494.791 523.854a.758.758 0 0 0 .742-.906c-1.773-8.61-.857-11.302.966-16.666a116.24 116.24 0 0 0 1.61-5.006c2.743-9.38 1.005-12.927.93-13.074a.757.757 0 0 0-1.35.682c.032.071 1.49 3.343-1.033 11.968a115.2 115.2 0 0 1-1.59 4.945c-1.85 5.444-2.87 8.443-1.015 17.455.072.35.382.602.74.602zM555.123 594.714a.756.756 0 0 0 .726-.543c3.387-11.528 2.48-23.469-2.698-35.491-3.369-7.824-8.58-15.695-15.487-23.396-4.233-4.718-4.824-8.348-5.395-11.858-.487-2.99-.99-6.082-3.668-9.646-2.113-2.81-4.481-4.327-6.772-5.795-3.036-1.945-5.903-3.782-8.286-8.524-5.25-10.449-.46-18.581-.412-18.662a.758.758 0 0 0-1.293-.785c-.219.357-5.288 8.898.353 20.124 2.568 5.112 5.747 7.149 8.821 9.118 2.278 1.46 4.43 2.838 6.378 5.43 2.455 3.267 2.905 6.042 3.385 8.982.605 3.724 1.234 7.576 5.761 12.623 6.799 7.578 11.92 15.312 15.225 22.985 5.034 11.691 5.921 23.288 2.636 34.47a.755.755 0 0 0 .726.968z" fill="#131B5F"/>
        <path d="M527.864 504.4c.491.002.979-.079 1.443-.238 1.773-.607 3.026-2.292 3.524-4.743.471-2.308.22-5.06-.704-7.749-.924-2.688-2.42-5.015-4.21-6.547-1.903-1.629-3.927-2.191-5.7-1.584-1.773.608-3.025 2.292-3.525 4.743-.47 2.308-.22 5.06.704 7.75.925 2.688 2.422 5.014 4.211 6.547 1.403 1.2 2.872 1.822 4.257 1.822zm-4.208-19.587c1.024 0 2.156.497 3.275 1.456 1.59 1.36 2.927 3.453 3.765 5.891.838 2.438 1.07 4.91.653 6.957-.389 1.905-1.288 3.19-2.533 3.616-1.245.427-2.745-.035-4.224-1.3-1.59-1.362-2.926-3.454-3.764-5.892-.839-2.438-1.07-4.909-.653-6.958.388-1.905 1.288-3.189 2.533-3.615a2.91 2.91 0 0 1 .947-.155h.001z" fill="#131B5F"/>
        <path d="M506.52 561.692h.044a2.272 2.272 0 0 0 2.226-2.31c-.293-15.161 8.5-23.359 8.589-23.44a2.263 2.263 0 0 0-.838-3.846 2.273 2.273 0 0 0-2.224.5c-.424.388-10.398 9.684-10.066 26.874a2.268 2.268 0 0 0 2.269 2.222zM515.293 571.666a2.267 2.267 0 0 0 2.26-2.495c-1.47-14.418 7.64-23.95 7.731-24.044a2.263 2.263 0 0 0-.044-3.204 2.273 2.273 0 0 0-3.21.044c-.436.448-10.675 11.164-8.994 27.662a2.268 2.268 0 0 0 2.257 2.037zM524.387 580.198a2.267 2.267 0 0 0 2.257-2.522c-1.467-12.847 6.153-21.301 6.23-21.385.82-.922.751-2.328-.155-3.166a2.273 2.273 0 0 0-3.174.087c-.373.4-9.12 9.994-7.41 24.976a2.268 2.268 0 0 0 2.252 2.01z" fill="#FFDD0F"/>
        <path d="M8.197 584.357c3.848 5.022 14.797 10.93 34.33 10.93h94.996c-1.914-16.73-5.849-40.596-4.033-69.598-9.855 2.019-10.798 9.175-20.277 11.782-10.979 3.02-21.574-2.188-47.9 5.825-.423.13-.852.23-1.275.345-.118.033-.234.062-.35.095a115.284 115.284 0 0 0-20.928 7.97c-25.78 12.951-33.744 30.703-34.504 32.502a1.583 1.583 0 0 0-.041.103l-.018.046z" fill="#FFF"/>
        <path d="M42.526 596.044h94.997a.757.757 0 0 0 .751-.844l-.076-.649c-3.032-25.785-5.896-50.14-3.805-68.626a.755.755 0 0 0-1.054-.777.755.755 0 0 0-.45.607c-2.104 18.612.75 42.976 3.784 68.778H42.526c-18.448 0-29.307-5.255-33.458-10.295 1.323-3.003 9.849-20.407 34.347-32.714a115.104 115.104 0 0 1 20.792-7.917l.347-.094c.14-.039.284-.076.427-.113.29-.075.58-.151.868-.239 5.809-1.768 13.487-3.277 17.014-3.578a.757.757 0 0 0 .556-1.184.757.757 0 0 0-.685-.321c-3.604.307-11.426 1.843-17.326 3.638-.269.082-.54.151-.808.222-.149.039-.298.077-.446.118l-.355.096a116.606 116.606 0 0 0-21.064 8.022c-25.684 12.903-34.191 31.422-35.159 33.7a2.227 2.227 0 0 0-.065.16l-.017.049a.76.76 0 0 0 .102.735c4.158 5.426 15.52 11.226 34.93 11.226z" fill="#131B5F"/>
        <path d="M133.215 560.18c.3 0 .475-.013.515-.016a.756.756 0 1 0-.134-1.505c-.08.006-5.726.393-13.337-4.955a117.37 117.37 0 0 1-4.249-3.154c-4.642-3.569-7.2-5.534-16.51-6.726a.756.756 0 0 0-.193 1.499c8.904 1.14 11.202 2.905 15.78 6.423 1.22.937 2.603 2 4.301 3.194 6.866 4.824 12.192 5.24 13.827 5.24zM40.89 588.98a64.75 64.75 0 0 0 4.852-.186c8.667-.651 17.99-3.05 27.708-7.137 5.96-2.505 9.662-1.873 13.243-1.265 3.046.519 6.196 1.055 10.519-.337 3.409-1.098 5.656-2.868 7.83-4.58 2.884-2.271 5.607-4.417 10.978-5.139 11.83-1.59 18.108 5.69 18.17 5.763a.758.758 0 0 0 1.051.08.754.754 0 0 0 .111-1.047c-.272-.327-6.835-8-19.534-6.291-5.78.777-8.797 3.152-11.712 5.45-2.164 1.704-4.207 3.314-7.358 4.328-3.97 1.278-6.8.796-9.799.285-3.795-.645-7.719-1.313-14.085 1.362-9.567 4.022-18.73 6.384-27.234 7.023-12.958.975-24.451-2-34.163-8.84a.757.757 0 0 0-1.054.183c-.241.34-.16.812.182 1.052 8.772 6.177 18.945 9.295 30.294 9.295z" fill="#131B5F"/>
        <path d="M117.4 590.726c6.231 0 11.113-2.99 11.113-6.81 0-3.821-4.882-6.812-11.114-6.812-6.232 0-11.115 2.99-11.115 6.811 0 3.82 4.883 6.811 11.115 6.811zm0-12.112c5.205 0 9.6 2.428 9.6 5.301s-4.397 5.3-9.6 5.3c-5.205 0-9.602-2.427-9.602-5.3 0-2.873 4.396-5.3 9.601-5.3z" fill="#131B5F"/>
        <path d="M81.655 563.345a2.27 2.27 0 0 0 1.895-1.024 2.262 2.262 0 0 0 .184-2.143c-.233-.535-5.904-13.149-22.593-18.491a2.273 2.273 0 0 0-2.233.468 2.263 2.263 0 0 0 .847 3.847c14.653 4.691 19.77 15.88 19.82 15.992a2.276 2.276 0 0 0 2.08 1.35zM70.114 567.777a2.27 2.27 0 0 0 1.93-1.081c.413-.67.447-1.506.09-2.208-.287-.566-7.239-13.901-23.704-17.724a2.272 2.272 0 0 0-2.172.658 2.263 2.263 0 0 0 1.143 3.755c14.345 3.331 20.626 15.248 20.688 15.368a2.275 2.275 0 0 0 2.025 1.232zM56.796 571.325a2.27 2.27 0 0 0 1.947-1.104c.409-.684.428-1.533.05-2.234-.263-.49-6.623-12.026-21.636-15.32a2.272 2.272 0 0 0-2.184.672 2.263 2.263 0 0 0 1.21 3.753c12.997 2.853 18.557 12.937 18.612 13.039a2.27 2.27 0 0 0 2 1.194z" fill="#FFDD0F"/>
        <path d="M291.077 136.8c11.891 10.96 36.103 19.721 59.709 13.075 29.384-8.273 53.567-2.114 63.554 25.377 5.782 15.917 13.564 26.071 26.632 33.835 25.422 15.105 22.395 51.357-6.053 72.504-17.553-8.459-143.638-81.114-143.638-81.114l-19.006-58.274 18.802-5.404z" fill="#131B5F"/>
        <path d="M233.967 326c23.606 17.22 54.519 32.394 91.712 37.118 36.002 4.572 66.578-3.59 72.016 8.5 6.658 14.802-77.173 35.043-163.728-45.618z" fill="#162076"/>
        <path d="M361.266 364.82c6.165 37.008-1.099 82.323-26.218 144.858 0 0 37.83-18.73 73.844-52.868-18.158 18.428 16.521 49.167 23.606 86.703 3.935 20.845 2.782 29.733 2.782 29.733s-126.516 53.515-163.007 9.172c-36.49-44.343-27.411-149.474-27.411-149.474s-62.041-14.803-95.03-35.27c-.302 19.863-8.473 63.667-13.013 97.2 0 0-31.251.555-60.528-19.032-28.448-19.032-50.54-33.835-60.225-21.75 0 0 31.172-40.482 56.896-91.538C91.984 324.802 113.516 295.79 233.967 326c122.001 30.6 127.3 38.82 127.3 38.82z" fill="#131B5F"/>
        <g fill="#162076">
            <path d="M309.324 521.46a.603.603 0 0 0 .21-.038c.164-.06 16.54-6.15 28.559-13.65a.605.605 0 1 0-.642-1.024c-11.912 7.432-28.176 13.48-28.337 13.54a.604.604 0 0 0 .21 1.172zM150.438 400.62c.33 0 .6-.264.606-.593a199.2 199.2 0 0 0-1.52-28.495.604.604 0 1 0-1.198.17 197.97 197.97 0 0 1 1.507 28.301.604.604 0 0 0 .594.616h.011zM244.142 434.528c.32 0 .583-.248.604-.566l.133-2.094c1.624-25.593 2.518-39.691 6.851-63.878a.604.604 0 0 0-1.191-.213c-4.345 24.255-5.242 38.377-6.869 64.016l-.132 2.093a.604.604 0 0 0 .565.642h.04z"/>
        </g>
        <path d="M208.242 296.998c-16.645-14.198-23.535-34.097-28.145-46.523-9.08-24.47-19.37-35.95-30.264-35.95-15.541 0 .908 66.16 58.41 82.473z" fill="#162076"/>
        <path d="M55.712 186.127c23.303 31.117 22.806 68.48 52.962 102.413 33.29 37.46 65.673 26.282 99.568 8.458l-36.922-65.555c-3.017 1.882-6.715 4.443-10.008 6.797a434.005 434.005 0 0 0-8.453 6.193s-25.724-55.587-62.949-93.651c-40.511-41.425-30.87-18.127-30.87-18.127-47.816-33.835-21.79-3.625-21.79-3.625-28.248-16.235-5.95 7.77-5.95 7.77-22.649-9.35 1.668 12.112 2.192 12.574-18.866-9.245 2.342 10.21 22.22 36.753z" fill="#F4ADA2"/>
        <g fill="#131B5F">
            <path d="M159.668 262.861a.758.758 0 0 0 .738-.922 115.865 115.865 0 0 0-7.01-20.086.756.756 0 1 0-1.376.628 114.168 114.168 0 0 1 6.91 19.79.756.756 0 0 0 .738.59zM70.39 167.397a.756.756 0 0 0 .686-1.073c-2.492-5.369-3.98-10.553-5.42-15.566-1.866-6.503-3.796-13.228-7.925-20.441a.757.757 0 0 0-1.314.75c4.038 7.054 5.943 13.69 7.785 20.107 1.455 5.069 2.96 10.31 5.501 15.785a.757.757 0 0 0 .687.438zM52.231 144.437a.756.756 0 0 0 .484-1.335c-.126-.105-12.729-10.61-18.373-17.133a.757.757 0 0 0-1.298.239.754.754 0 0 0 .154.748c5.724 6.616 18.421 17.2 18.549 17.306a.756.756 0 0 0 .484.175zM46.783 151.386a.757.757 0 0 0 .447-1.365c-.112-.082-11.228-8.206-18.361-15.623a.758.758 0 0 0-1.273.313.754.754 0 0 0 .181.733c7.226 7.514 18.448 15.715 18.56 15.797.13.094.286.145.446.145zM43.757 158.636a.756.756 0 0 0 .42-1.383c-.081-.055-8.197-5.472-14.137-10.81a.758.758 0 0 0-1.253.403.754.754 0 0 0 .24.72c6.023 5.413 14.229 10.889 14.31 10.943.125.083.27.127.42.127z"/>
        </g>
        <path d="M253.178 190.04c-10.117-10.66-26.475 3.64-47.66 13.61-21.184 9.969-55.685 10.875-55.685 10.875s16.948-1.209 30.264 35.95c14.056 39.225 28.145 46.523 28.145 46.523 14.224-7.854 37.528-25.074 37.528-25.074C241.835 297.603 233.967 326 233.967 326c19.066 12.99 38.435 28.398 88.976 36.554 36.505 5.891 68.094-3.323 74.752 9.063-14.224-32.022-28.146-69.785-34.501-87.609-3.632-3.927-9.987-9.063-9.987-9.063s28.622-11.49 42.974-30.814c13.014-17.522 13.922-34.742 30.87-36.252-9.08-1.813-23.606-1.209-57.502-17.22-42.942-20.285-63.251-25.075-70.817-7.25l-45.554 6.63z" fill="#0057FC"/>
        <g fill="#131B5F">
            <path d="M244.257 277.06a.605.605 0 0 0 .594-.494c.1-.538 9.995-54.199 9.695-85.913a.594.594 0 0 0-.61-.599.607.607 0 0 0-.6.61c.298 31.6-9.575 85.144-9.675 85.682a.604.604 0 0 0 .596.714zM355.627 276.758a.605.605 0 0 0 .382-1.074c-14.191-11.497-28.282-26.894-39.681-43.356a.606.606 0 0 0-.996.687c11.46 16.554 25.636 32.04 39.914 43.608a.604.604 0 0 0 .381.135zM300.548 207.274a.605.605 0 0 0 .52-.91c-.076-.13-7.612-13.177-.89-26.306a.606.606 0 0 0-1.078-.55c-7.03 13.732.846 27.334.926 27.47a.606.606 0 0 0 .522.296z"/>
        </g>
        <path d="m149.833 214.525.136-.004c-.088 0-.136.004-.136.004z" fill="#FFCF2D"/>
        <g>
            <path d="M221.322 151.549c3.02 3.003 14.666 4.13 20.398 4.084.076.032.15.069.221.109 7.702 3.523 10.577 22.497 11.237 34.298.109 1.945.158 3.697.158 5.15 6.658 5.438 25.119 12.387 45.396-11.782 0 0-18.461-16.917-22.396-34.44v-.002c-.13-.722 1.516-8.045 2.64-12.555.514-2.052.916-3.523.995-3.523h.003c1.235.492 2.348.921 3.35 1.3.14.05.276.105.412.156l.3.109c.172.066.341.127.508.19.375.136.732.27 1.077.393.136.048.26.097.388.139h.003a97.248 97.248 0 0 0 3.28 1.115c.133.045.263.084.387.127.073.024.146.045.215.066.052.015.1.033.151.048a.09.09 0 0 1 .024.006.18.18 0 0 0 .037.013c.097.03.188.06.281.087.115.036.224.07.333.106l-.003-.042-.066-.671-.179-1.798-.103-1.05-5.036-50.944-.384-.203c-.127-.066-.258-.139-.387-.205-.016-.006-.034-.018-.052-.024a39.863 39.863 0 0 0-12.832-4.148 32.304 32.304 0 0 0-14.412 1.338c-.5.163-.995.336-1.486.523a34.208 34.208 0 0 0-4.558 2.12 35.63 35.63 0 0 0-5.066 3.402c-.209.166-.417.336-.623.51a33.85 33.85 0 0 0-1.22 1.064c-.212.19-.417.384-.623.58-.091.088-.182.172-.27.26-.214.202-.423.41-.632.622-.154.154-.309.309-.46.463l-.454.47a49.946 49.946 0 0 0-1.755 1.933c-.143.164-.285.328-.424.497-.142.163-.281.332-.42.498a88.336 88.336 0 0 0-.827 1.015 75.659 75.659 0 0 0-2.364 3.124 50.083 50.083 0 0 0-2.082 3.187c0 .003-.003.006-.006.01a.118.118 0 0 1-.015.023v.003c-.663 1.097-1.292 2.215-1.922 3.333l-.626 1.114v.003a104.17 104.17 0 0 1-1.852 3.17c-.836 1.362-1.822 3.03-3.039 4.108-1.198 1.066-2.775 1.495-4.312 1.819-3.3.625-1.61 5.132.281 6.987-1.86 5.9-8.61 24.35-1.189 31.715z" fill="#F4ADA2"/>
            <path d="M231.43 103.749c19.233 18.211 40.843 25.963 40.843 25.963l-26.71-21.253-10.795-8.59-.764-.606-.022.037c-.884 1.464-1.71 2.96-2.551 4.449z" fill="#9B3C82"/>
            <path d="M247.199 111.276c3.26 3.056 3.792 7.356 2.12 8.729-1.67 1.373-5.53-.154-8.173-3.758-2.715-3.704-3.686-7.56-2.12-8.73 1.623-1.21 4.937.727 8.173 3.76zM225.028 134.749c.393.465.883.84 1.435 1.098.536.254 1.11.423 1.698.5a6.305 6.305 0 0 0 3.501-.497 6.384 6.384 0 0 0 1.494-1.005c.444-.408.821-.881 1.12-1.404a4.94 4.94 0 0 0 .606-3.45.68.68 0 0 0-1.34.06l-.004.04a4.862 4.862 0 0 1-1.76 3.194 4.76 4.76 0 0 1-1.028.659c-.76.339-1.586.501-2.417.475a4.743 4.743 0 0 1-2.386-.649l-.037-.023a.677.677 0 0 0-.886 1.003l.004-.001zM240.285 119.156c-1.19-1.49-4.128-5-5.997-9.284a1.18 1.18 0 0 0-1.565-.608c-1.549.686-3.853 2.234-2.204 4.99 2.025 3.385 7.398 6.294 9.43 5.872a.605.605 0 0 0 .336-.97z" fill="#131B5F"/>
            <path d="M288.01 138.275c.255.141.563.293.922.453 9.15 4.169 50.927 15.325 56.2 3.873 4.212-9.146-22.54-21.963-35.149-27.405-.49-.213-.957-.41-1.401-.6-2.762-1.17-4.598-1.888-4.876-1.999a.336.336 0 0 0-.037-.012l-15.66 25.69z" fill="#FF1F25"/>
            <path d="M288.01 138.275c.255.141.563.293.922.453 4.459-.8 17.803-5.789 21.052-23.532-.49-.213-.957-.41-1.401-.6-2.762-1.17-4.597-1.888-4.876-1.999a.336.336 0 0 0-.037-.012s-5.912 18.733-15.66 25.69z" fill="#131B5F"/>
            <path d="M233.982 99.3a66.686 66.686 0 0 0 3.323 3.797.14.14 0 0 0 .035.04c1.848 1.948 4.142 4.18 6.715 6.512.216.195.413.37.587.529l.014.014c8.444 7.59 19.617 16.118 27.617 19.52a358.54 358.54 0 0 0 7.7 3.175c1.236.493 2.348.923 3.351 1.299.14.052.276.105.413.157l.297.11.51.188c.374.139.732.27 1.076.393l.39.14c1.311.467 2.38.824 3.282 1.116.132.043.26.085.386.124.126.04.246.075.366.114.12.039.76.183 1.033.27 18.476-13.672 17.319-42.165-5.744-54.562a73.966 73.966 0 0 0-.771-.405c-.018-.008-.035-.019-.052-.026a39.864 39.864 0 0 0-12.832-4.147c-10.09-1.354-19.904 2.159-27.366 8.957-.522.476-1.03.963-1.525 1.462a63.625 63.625 0 0 0-6.7 8 48.085 48.085 0 0 0-2.105 3.223z" fill="#FF1F25"/>
            <path d="M272.273 129.712s9.152-4.227 16.153 1.266c6.604 5.182 1.652 16.33-13.837 18.254-3.14.313-6.31.115-9.386-.59l7.07-18.93z" fill="#F4ADA2"/>
            <g fill="#131B5F">
                <path d="M241.72 155.633c.076.033.15.07.22.11 2.316 2.893 4.435 6.518 6.68 10.84 8.556-3.6 12.53-10.86 10.863-12.814-1.269-1.486-4.602-.423-6.694.074-4.212.998-7.31 1.583-11.068 1.79zM275.568 150.529a19.249 19.249 0 0 0 11.357-3.631.754.754 0 0 0 .171-1.052.757.757 0 0 0-1.053-.175c-7.737 5.539-16.165 2.472-16.249 2.44a.755.755 0 0 0-.536 1.413 19.205 19.205 0 0 0 6.31 1.005z"/>
            </g>
            <path d="M268.9 141.406c.19 0 .374-.071.514-.201 6.854-6.342 13.432-3.386 13.71-3.257a.755.755 0 0 0 .645-1.365c-.314-.148-7.756-3.544-15.384 3.515a.754.754 0 0 0 .514 1.31v-.002zM233.982 99.3a66.686 66.686 0 0 0 3.323 3.797.14.14 0 0 0 .035.04c1.848 1.948 4.142 4.18 6.715 6.512.216.195.413.37.587.529 2.579-2.09 5.496-6.983 5.305-11.213-.191-4.231-2.53-8.068-7.16-10.888a63.625 63.625 0 0 0-6.7 8 48.085 48.085 0 0 0-2.105 3.223z" fill="#131B5F"/>
        </g>
        <path d="M220.65 335.667c-3.026 2.72-8.473 6.647-17.25 16.314-16.043 17.673 5.087 7.722 5.445 7.555-13.253 17.667 19.674-3.326 19.674-3.326-25.422 26.28 13.912.91 48.262-5.703h.01c26.695-5.136 69.93 6.265 110.46-2.556 11.624-2.529 23.024-6.722 33.747-13.444 38.142-23.905 11.876-72.147-4.915-96.883v-.004c-3.656-5.383-6.864-9.655-8.858-12.316-2.921 5.6-6.053 12.039-10.826 18.528-.072.102-.145.202-.218.299a66.726 66.726 0 0 1-8.55 9.344c-.241.223-.486.444-.731.664a94.564 94.564 0 0 1-6.256 5.112 53.5 53.5 0 0 1-.79.589c-.297.22-.596.438-.893.653a120.328 120.328 0 0 1-3.508 2.435 113.973 113.973 0 0 1-1.833 1.202c-.294.19-.587.374-.878.559-.16.102-.318.202-.475.299-.285.178-.57.356-.854.529-.284.172-.565.347-.844.516-.278.17-.557.335-.835.502-.24.142-.472.28-.705.416l-.993.58c-.224.13-.448.257-.672.384-.348.2-.692.393-1.032.58a145.273 145.273 0 0 1-6.988 3.658l-.457.224a122.013 122.013 0 0 1-4.1 1.897c-.887.387-1.432.61-1.553.659-.003.003-.003.003-.006.003a.051.051 0 0 1-.015.006l-.006.003.018.015.02.018h.004l8.283 7.523 1.662 1.507c-.1.003-.2.003-.303.006h-.021c-27.822.538-86.22 16.229-126.413 32.83a.91.91 0 0 1-.09-.007c-5.179-.211-9.879-1.108-14.809-2.015-11.5-2.114-12.408.303-.908 9.063l.004.003c-10.899 5.133-17.757 9.61-22.232 13.888-18.023 17.226 10.728 3.33 22.228-2.109z" fill="#F4ADA2"/>
        <g fill="#131B5F">
            <path d="M204.762 363.159a.755.755 0 0 0 .524-.212c7.89-7.572 15.34-14.724 22.866-19.231a.755.755 0 1 0-.779-1.295c-7.671 4.595-15.183 11.804-23.136 19.437a.754.754 0 0 0 .525 1.3zM222.92 361.346a.757.757 0 0 0 .587-.279c3.816-4.688 10.653-9.164 10.721-9.209a.754.754 0 0 0-.826-1.265c-.289.188-7.105 4.652-11.07 9.522a.754.754 0 0 0 .588 1.231zM218.381 324.792a.752.752 0 0 0 .313-.068c.1-.046 10.093-4.578 19.662-8.757a.755.755 0 0 0-.606-1.384c-9.579 4.184-19.58 8.72-19.681 8.766a.755.755 0 0 0 .314 1.443h-.002zM210.513 343.522a.752.752 0 0 0 .433-.137c8.89-6.211 16.708-9.248 16.785-9.279a.756.756 0 1 0-.543-1.41c-.08.031-8.06 3.128-17.11 9.452a.755.755 0 0 0 .435 1.374z"/>
        </g>
        <path d="M363.194 284.008c-.1.003 18.497.3 18.59.302h.022a.757.757 0 0 0 .671-1.124.757.757 0 0 0-.65-.386c-.1-.003-9.684-.281-20.295-.3l1.662 1.508z" fill="#131B5F"/>
        <g>
            <path d="M224.163 449.36c-13.523 4.746-29.517 23.584-28.913 44.205 19.236-7.32 30.486-29.338 29.693-43.682a.588.588 0 0 0-.78-.523zM164.4 476.805c13.553 4.665 29.66 23.59 29.03 44.296-19.307-7.371-30.545-29.554-29.633-43.893a.46.46 0 0 1 .603-.403z" fill="#0057FC"/>
            <path d="M193.707 564.574h.034a.773.773 0 0 0 .737-.806c-.024-.571-2.406-57.267 2.43-71.814a.77.77 0 0 0-1.464-.49c-2.073 6.24-3.125 20.323-3.125 41.861 0 15.999.612 30.367.617 30.51a.772.772 0 0 0 .771.74z" fill="#0057FC"/>
            <path d="M193.862 563.337c10.28.026 24.412 25.237 27.896 31.759a1.039 1.039 0 0 1-.913 1.526h-54.264a1.039 1.039 0 0 1-.91-1.53c3.538-6.538 17.87-31.782 28.19-31.755z" fill="#131B5F"/>
        </g>
        <g>
            <path d="M41.515 16.305c11.886 7.15 23.36 28.128 18.758 47.537-16.796-10.707-23.153-33.766-19.6-47.195a.568.568 0 0 1 .842-.342zM94.57 44.454C80.817 46.21 61.858 60.969 58.41 80.7c19.733-3.19 34.716-21.99 36.652-35.747a.444.444 0 0 0-.492-.5z" fill="#0057FC"/>
            <path d="M51.501 139.052c.368 0 .68-.269.737-.633.402-2.59 9.832-63.63 8.064-78.592a.748.748 0 0 0-1.19-.518.749.749 0 0 0-.292.693c1.744 14.76-7.959 77.555-8.057 78.187a.75.75 0 0 0 .738.863z" fill="#0057FC"/>
            <path d="M48.539 165.33c.357.06.717.094 1.08.1 4.045.084 7.28-2.692 8.266-7.634 1.729-8.652 4.326-26.746 6.373-41.75l-.111-.442-16.603-2.736-.271.326c-2.126 14.98-4.626 33.114-5.576 41.923-.594 5.5 2.37 9.475 6.842 10.213z" fill="#131B5F"/>
        </g>
        <g fill="#FFDD0F">
            <path d="M119.317 98.317a.781.781 0 0 0 .467-1.413L99.482 81.982a.788.788 0 0 0-1.258.54.782.782 0 0 0 .325.72l20.302 14.922c.135.1.298.153.466.153zM77.243 25.13a.785.785 0 0 0 .736-.51l8.806-23.557a.78.78 0 0 0-.126-.777.787.787 0 0 0-1.346.23l-8.806 23.557a.78.78 0 0 0 .736 1.057zM.783 63.15a.777.777 0 0 0 .1-.006l25.023-3.184a.783.783 0 1 0-.199-1.553L.684 61.59a.784.784 0 0 0 .099 1.56z"/>
        </g>
        <g fill="#F4ADA2">
            <path d="M90.33 151.56c-40.853-41.777-31.13-18.28-31.13-18.28l.159.381c3.176 6.249 4.87 12.147 6.513 17.875 1.451 5.057 2.952 10.284 5.465 15.699"/>
        </g>
    </g>
</svg>
