<svg width="568" height="414" xmlns="http://www.w3.org/2000/svg">
    <g fill-rule="nonzero" fill="none">
        <path fill="#FFDD0F" d="m225.507 165.728-17.135-128.91-.018-.14-.263-.137-46.713-22.839L179.36 154.93z"/>
        <path d="M225.504 168.26a2.548 2.548 0 0 0 2.023-.992 2.52 2.52 0 0 0 .503-1.872L210.875 36.348a2.531 2.531 0 0 0-1.346-1.915l-.263-.135-46.548-24.024a2.557 2.557 0 0 0-2.626.168 2.525 2.525 0 0 0-1.072 2.391l17.813 142.409c.101.907.685 1.689 1.529 2.048a2.556 2.556 0 0 0 2.544-.315 2.525 2.525 0 0 0 .978-2.358L164.669 16.984l41.334 21.332 16.982 127.744a2.54 2.54 0 0 0 2.519 2.2z" fill="#131B5F"/>
        <path d="M180.883 150.373c-2.15 0-3.96 1.6-4.212 3.723a4.22 4.22 0 0 0 3.224 4.597l139.172 33.29a4.257 4.257 0 0 0 4.068-1.197 4.202 4.202 0 0 0 .991-4.102 4.232 4.232 0 0 0-3.076-2.905l-139.171-33.29a4.273 4.273 0 0 0-.996-.117m0-1.687c.469 0 .936.055 1.391.164l139.173 33.29c2.927.699 4.865 3.465 4.511 6.437-.353 2.973-2.887 5.212-5.897 5.212-.469 0-.936-.056-1.391-.165l-139.172-33.29c-2.926-.698-4.864-3.463-4.511-6.435.353-2.972 2.886-5.212 5.896-5.212v-.001z" fill="#FFF"/>
        <path d="M320.061 192.1a4.233 4.233 0 0 0 4.218-3.723 4.22 4.22 0 0 0-3.229-4.598l-139.171-33.29a4.256 4.256 0 0 0-4.068 1.197 4.202 4.202 0 0 0-.991 4.101 4.232 4.232 0 0 0 3.075 2.905l139.172 33.29c.325.079.66.118.994.118z" fill="#131B5F"/>
        <g transform="matrix(-1 0 0 1 204.476 154.423)">
            <ellipse fill="#FFDD0F" cx="18.499" cy="1.519" rx="1.527" ry="1.519"/>
            <path fill="#5B2448" d="M11.544 3.037 1.364 5.4"/>
            <path d="M1.363 6.75A1.355 1.355 0 0 1 .009 5.553a1.35 1.35 0 0 1 1.047-1.47l10.18-2.362c.73-.169 1.459.282 1.63 1.008a1.35 1.35 0 0 1-1.014 1.622L1.672 6.713a1.376 1.376 0 0 1-.31.037z" fill="#FFDD0F"/>
        </g>
        <g>
            <path d="M460.782 56.28s7.459 18.539 23.33 31.236c7.586 6.07 13.332 11.427 33.69 17.483 28.6 8.507 39.316 29.496 35.19 56.478-2.936 19.2 2.735 30.047 8.57 40.314 17.141 30.155 0 71.104-50.787 80.627 0 0-9.216-28.387-31.742-64.756-29.707-47.964-50.567-131.092-38.148-153.392l19.897-7.99z" fill="#131B5F"/>
            <path d="M387.827 69.541c2.723 3.244 14.143 5.402 19.817 5.868 13.937 8.616 12.35 34.963 12.033 45.755 0 0 37.29 12.378 47.93-3.809 0 0-17.775-33.965-20.769-61.427.232.12.462.236.683.348 1.18.598 2.242 1.124 3.2 1.587.134.063.264.128.395.192l.283.136.487.231c.36.171.702.333 1.03.486.128.061.251.117.374.174 1.256.58 2.28 1.028 3.148 1.399.127.054.25.104.37.158.12.054.237.096.352.146.115.05.225.095.332.138.107.043.214.089.317.133.155.064.305.121.448.182.003 0 .003.003.006 0 .076.031.152.063.225.095.295.122.568.234.83.345 15.907-11.936 19.741-40.78-1.968-55.125-.24-.158-.483-.315-.727-.47-.017-.01-.032-.022-.05-.032A39.554 39.554 0 0 0 444.25.796c-9.86-2.242-19.885.364-27.874 6.437a60.064 60.064 0 0 0-8.985 8.644 47.19 47.19 0 0 0-2.344 2.972c-.009.01-.017.024-.025.035-1.005 1.372-1.957 2.781-2.922 4.182a100.091 100.091 0 0 1-2.112 2.977c-.948 1.276-2.075 2.84-3.373 3.803-1.283.95-2.88 1.235-4.431 1.416-3.32.328-2.05 4.944-.343 6.952-2.372 5.682-10.696 23.366-4.014 31.327z" fill="#F4ADA2"/>
            <path d="M394.024 52.307c.677.47 1.464.756 2.285.828.81.095 1.632.008 2.404-.258a4.686 4.686 0 0 0 1.062-.552c.334-.225.639-.49.907-.79a4.888 4.888 0 0 0 1.115-2.174l.01-.044a.713.713 0 0 1 1.403.067 4.939 4.939 0 0 1-.902 3.399 5.875 5.875 0 0 1-1.244 1.305 6.386 6.386 0 0 1-1.582.87 6.281 6.281 0 0 1-3.538.18 5.675 5.675 0 0 1-1.647-.658 4.21 4.21 0 0 1-1.328-1.234.713.713 0 0 1 1.014-.97l.04.031zM409.483 39.126c-1.044-1.583-3.637-5.324-5.104-9.736a1.174 1.174 0 0 0-1.494-.742c-1.593.542-4.011 1.871-2.626 4.75 1.701 3.535 6.757 6.897 8.805 6.66a.603.603 0 0 0 .419-.932z" fill="#131B5F"/>
            <path d="M515.715 68.934c-3.025 9.031-46.787-4.082-56.897-7.243-1.073-.337-1.765-.562-1.99-.632-.054-.02-.083-.029-.083-.029a.068.068 0 0 0 .019-.025l.08-.12.723-1.372 13.214-25.007s4.454 2.749 7.637 4.657c11.977 7.18 39.126 24.318 37.297 29.771z" fill="#FF1F25"/>
            <path d="M478.418 39.163c-3.247 14.17-13.563 20.928-19.6 22.528-.807.227-1.638.355-2.476.38l.486-1.012.74-1.546 13.213-25.007s4.454 2.749 7.637 4.657z" fill="#131B5F"/>
            <path d="M405.022 18.884a66.245 66.245 0 0 0 2.948 4.06c.008.016.018.03.031.043 1.655 2.095 3.724 4.513 6.063 7.053.197.213.376.404.534.577l.012.014c7.675 8.277 17.969 17.726 25.58 21.811a356.63 356.63 0 0 0 7.333 3.834c1.18.598 2.242 1.124 3.2 1.587.134.063.264.128.394.192l.284.136.487.231c.36.171.702.333 1.03.486.127.057.251.117.374.174 1.256.58 2.28 1.028 3.148 1.399l.37.158c.121.051.237.096.352.146.115.05.225.095.332.138.107.043.649.455.91.565 18.017-11.618 20.657-40.59-1.053-54.935-.24-.158-.483-.315-.727-.47-.016-.01-.031-.022-.048-.032A39.554 39.554 0 0 0 444.252.796c-9.86-2.242-19.885.364-27.874 6.437-.56.425-1.107.862-1.64 1.313a63.322 63.322 0 0 0-7.345 7.332 47.39 47.39 0 0 0-2.371 3.006z" fill="#FF1F25"/>
            <path d="M440.188 52.442s9.432-3.373 15.868 2.695c6.07 5.724.174 16.333-15.321 16.858a28.87 28.87 0 0 1-9.233-1.42l8.686-18.133z" fill="#F4ADA2"/>
            <g fill="#131B5F">
                <path d="M442.528 73.124c-4.196 0-6.789-1.129-6.966-1.209a.794.794 0 0 1 .649-1.448c.066.03 6.826 2.934 16.246-1.063a.794.794 0 1 1 .62 1.46 26.923 26.923 0 0 1-10.549 2.26zM407.644 75.409c1.987 1.106 4.98 4.932 8.142 10.394 8.012-2.793 11.656-9.45 10.322-11.406-1.235-1.81-4.737-.61-6.825-.15-4.167.927-7.4 1.392-11.639 1.162z"/>
            </g>
            <path d="M435.872 63.777a.794.794 0 0 1-.485-1.422c8.2-6.333 15.283-2.29 15.58-2.115a.794.794 0 0 1-.804 1.368c-.268-.156-6.486-3.65-13.806 2.003a.79.79 0 0 1-.485.166zM405.022 18.884a66.245 66.245 0 0 0 2.948 4.06c.008.016.018.03.031.043 1.655 2.095 3.724 4.513 6.063 7.053.197.213.376.404.534.577 2.738-1.841 6.063-6.431 6.25-10.641.188-4.21-1.782-8.222-6.11-11.43a63.322 63.322 0 0 0-7.345 7.333c-.837.969-1.62 1.977-2.371 3.005z" fill="#131B5F"/>
            <path d="M454.91 262.737c25.483 1.803 72.273-3.23 80.307 11.745 6.984 13.015-40.63 21.585-97.999-3.527 0 0 12.465-8.587 17.692-8.218z" fill="#16217B"/>
            <path d="M118.048 408.31c-4.447-.25-8.648-.49-12.604-.717l-2.092-.12c-.241-.013-.483-.03-.72-.042-1.715-.098-3.376-.196-4.984-.292-19.49-1.136-30.942-1.876-30.942-1.876s-20.2-7.374-14.602-49.202c0 0 19.071-1.285 39.96-3.504h.004a767.61 767.61 0 0 0 13.68-1.574l12.3 57.327z" fill="#F4ADA2"/>
            <path d="M498.376 253.119c25.414 49.614 34.491 82.63 7.575 121.99-26.917 39.36-79.926 35.552-98.02 29.204-67.927 5.396-114.27-22.855-144.108-17.459-29.837 5.396-75.546 26.347-145.776 21.458 0 0-9.442-35.425-12.299-57.328l109.51-13.014 17.458-14.285s-34.916-5.396-54.279-29.203c0 0 61.58-99.356 114.906-94.594 52.013 4.644 130.142 69.517 130.142 69.517l74.891-16.286z" fill="#131B5F"/>
            <g fill="#232B6F">
                <path d="M292.65 357.077a.634.634 0 0 1-.631-.574c-.789-8.152-.902-24.847.714-42.237 1.393-14.988 4.57-35.813 11.79-49.911a.635.635 0 1 1 1.13.579c-7.129 13.918-10.273 34.573-11.655 49.45-1.609 17.307-1.499 33.903-.715 41.997a.635.635 0 0 1-.633.696z"/>
                <path d="M410.79 406.533a.633.633 0 0 1-.185-.028c-20.611-6.253-45.393-21.866-69.782-43.96-20.569-18.633-38.611-39.855-47.084-55.381a.635.635 0 0 1 1.114-.609c8.282 15.177 26.66 36.785 46.823 55.05 24.25 21.97 48.862 37.484 69.297 43.685a.635.635 0 0 1-.184 1.243zM261.602 388.757a.635.635 0 0 1-.173-1.246c23.152-6.571 35.174-8.887 47.066-10.494a.635.635 0 1 1 .17 1.258c-11.837 1.6-23.81 3.907-46.89 10.457a.632.632 0 0 1-.173.025z"/>
            </g>
            <path d="M11.131 283.786c-4.75 3.632-10.337 13.97-10.337 32.41v89.689c18.617-2.526 40.836-1.573 66.28-.881-1.32-12.437-8.938-16.881-10.525-27.991-2.14-14.983.996-14.448-6.582-39.303-.122-.4-.218-.804-.327-1.204-.032-.112-.059-.22-.09-.33a108.713 108.713 0 0 0-7.537-19.759c-12.25-24.339-29.038-31.86-30.74-32.576a.003.003 0 0 0-.002-.002c-.04-.017-.073-.028-.095-.037l-.045-.016z" fill="#FFF"/>
            <path d="M.794 406.678a.794.794 0 0 1-.794-.793v-89.689c0-18.356 5.501-29.104 10.65-33.04a.794.794 0 0 1 .777-.107l.032.012.124.048a.546.546 0 0 1 .04.018c2.167.92 19.696 8.962 31.909 33.23a110.074 110.074 0 0 1 7.593 19.903l.09.33c.04.144.076.284.112.425.066.254.132.508.21.762 1.632 5.352 3.61 14.512 3.921 18.15a.794.794 0 0 1-1.581.134c-.303-3.555-2.25-12.548-3.859-17.822-.083-.274-.155-.55-.227-.825l-.106-.403-.088-.323a108.474 108.474 0 0 0-7.483-19.617c-11.57-22.993-27.901-31.063-30.856-32.372-4.741 3.93-9.67 14.153-9.67 31.497v88.813c21.373-2.097 36.082-1.663 53.08-1.162 3.83.113 7.793.23 11.946.32.438.01.785.373.776.81a.803.803 0 0 1-.81.777c-4.159-.09-8.126-.207-11.96-.32-17.172-.506-32.002-.944-53.747 1.241a1.114 1.114 0 0 1-.08.003z" fill="#131B5F"/>
            <path d="M34.805 404.946a.794.794 0 0 1-.788-.712c-.025-.237-.545-5.915 4.872-13.613a111.893 111.893 0 0 1 3.022-4.063c3.319-4.31 4.984-6.476 6.06-14.86a.794.794 0 0 1 1.574.202c-1.13 8.811-2.993 11.232-6.376 15.626-.878 1.14-1.873 2.431-2.982 4.009-5.079 7.217-4.597 12.483-4.592 12.535a.794.794 0 0 1-.79.876zM18.618 405.263a.794.794 0 0 1-.531-1.384c.115-.105 7.726-7.158 6.227-18.286-.68-5.049-2.702-7.612-4.844-10.326-1.623-2.058-3.301-4.185-4.344-7.418-1.323-4.1-.814-7.083-.322-9.967.575-3.37 1.17-6.854-1.191-12.46-3.867-9.182-6.14-17.993-6.757-26.182-.947-12.593 1.957-23.776 8.634-33.238a.794.794 0 1 1 1.297.915c-6.457 9.154-9.265 19.989-8.346 32.203.603 8.02 2.836 16.662 6.636 25.687 2.54 6.03 1.906 9.748 1.293 13.342-.48 2.82-.935 5.485.268 9.214.955 2.96 2.473 4.884 4.08 6.92 2.18 2.761 4.433 5.618 5.17 11.098 1.62 12.01-6.397 19.37-6.739 19.678a.792.792 0 0 1-.531.204z" fill="#131B5F"/>
            <path d="M11.55 397.458c-3.656 0-6.521-4.644-6.521-10.573 0-5.928 2.865-10.572 6.521-10.572 3.657 0 6.521 4.644 6.521 10.572 0 5.93-2.864 10.573-6.52 10.573zm0-19.558c-2.674 0-4.934 4.115-4.934 8.985 0 4.871 2.26 8.986 4.934 8.986 2.675 0 4.934-4.115 4.934-8.986 0-4.87-2.26-8.984-4.934-8.984v-.001z" fill="#131B5F"/>
            <path d="M33.146 355.518a2.38 2.38 0 0 1-.952-4.564c.018-.008 2.684-1.21 5.853-4.101 4.217-3.848 7.29-8.714 9.134-14.463a2.38 2.38 0 1 1 4.534 1.454c-5.085 15.857-17.109 21.253-17.62 21.475a2.37 2.37 0 0 1-.95.199zM28.956 344.621a2.38 2.38 0 0 1-1.08-4.504c.107-.055 11.282-5.943 14.406-19.372a2.38 2.38 0 1 1 4.637 1.08c-3.64 15.652-16.347 22.264-16.887 22.537-.333.17-.702.26-1.076.26zM25.603 332.048a2.38 2.38 0 0 1-1.129-4.478c.089-.049 9.558-5.34 12.213-17.414a2.38 2.38 0 1 1 4.65 1.023c-3.14 14.278-14.142 20.334-14.609 20.585a2.372 2.372 0 0 1-1.125.284z" fill="#FFDD0F"/>
            <path d="M385.078 207.187c18.093 13.967 39.95 26.153 62.85 32.695 13.33 3.81 46.66 11.428 40.946 24.442-6.222 14.175-51.74 6.666-103.796-57.137z" fill="#16217B"/>
            <path d="M465.385 244.752a153.12 153.12 0 0 1-4.767 14.647c-.156.396-.312.79-.47 1.18-42.376 104.689-158.091-12.255-183.627-29.584-20.855-14.154-35.551-11.427-51.105-16.506-15.553-5.08-11.744-12.38-11.744-12.38-4.762-8.253-1.588-10.793-1.588-10.793-6.03-7.618-3.809-13.65-3.809-13.65a73.934 73.934 0 0 1-6.03-7.618c-12.021-18.03 4.443-5.396 11.744-2.222-9.523-11.427.819-5.415 19.363-2.539 18.41 2.857 35.58 8.77 48.247 12.697 40.947 12.697 99.987 41.584 99.987 41.584s1.27-4.127 2.54-8.571l81.26 33.755z" fill="#F4ADA2"/>
            <g fill="#131B5F">
                <path d="M397.298 230.994a.79.79 0 0 1-.53-.204c-.064-.056-6.418-5.74-16.276-11.76a.794.794 0 0 1 .827-1.354c9.992 6.101 16.447 11.877 16.51 11.936a.794.794 0 0 1-.53 1.383zM223.077 187.792a.789.789 0 0 1-.298-.059c-3.293-1.338-11.46-4.925-16.157-9.33a.794.794 0 0 1 1.086-1.157c3.124 2.93 8.983 6.3 15.669 9.017a.794.794 0 0 1-.3 1.529zM222.994 198.651a.795.795 0 0 1-.268-.046c-3.706-1.332-10.404-4.127-13.625-7.883a.794.794 0 0 1 1.207-1.033c2.983 3.48 9.397 6.144 12.956 7.422a.794.794 0 0 1-.269 1.54zM223.267 208.247a.78.78 0 0 1-.213-.03c-3.145-.88-7.66-2.577-11.322-5.66a.794.794 0 0 1 1.022-1.214c3.444 2.9 7.734 4.508 10.727 5.347a.794.794 0 0 1-.214 1.557zM233.945 173.967c-.018 0-.037 0-.056-.002-7.19-.503-17.1-4.115-25.866-9.427a.794.794 0 0 1 .822-1.358c10.236 6.204 19.705 8.821 25.155 9.202a.794.794 0 0 1-.055 1.585z"/>
            </g>
            <path d="M419.677 121.163c11.058-13.877 25.71-25.711 42.534-5.079l5.396 1.27c28.25 52.376 42.217 121.258 67.61 157.128-5.078-7.3-32.694-9.523-46.343-10.158 2.857-10.792-14.61-14.338-43.804-23.807-35.233-11.428-60.944-29.521-60.944-29.521s19.362-69.517 35.55-89.833z" fill="#0057FC"/>
            <path d="M488.24 260.832a.635.635 0 0 1-.604-.435c-6.541-19.763-8.33-43.756-10.062-66.959-2.28-30.59-4.436-59.483-16.541-79.244a.635.635 0 0 1 1.082-.664c12.267 20.024 14.433 49.066 16.726 79.814 1.724 23.126 3.507 47.04 9.998 66.654a.635.635 0 0 1-.603.834h.003z" fill="#131B5F"/>
            <path d="M178.438 294.48c19.68 22.855 45.391 27.299 54.279 29.204 8.887 1.904 77.74 18.916 56.562 41.317-20.06 21.216-85.765-25.763-110.841-70.521z" fill="#16217B"/>
            <path d="M232.717 323.684c-1.803 1.403-6.825 5.84-12.072 10.557a1832.942 1832.942 0 0 0-8.83 7.996v.004c-7.403 6.748-13.834 12.687-13.834 12.687-18.127 3.793-30.897-3.298-38.648-10.313a344.68 344.68 0 0 1-11.05-10.456s11.046-14.094 21.486-27.972l1.083-1.444c2.66-3.55 5.256-7.05 7.586-10.263 19.68 21.903 43.486 26.664 54.279 29.204z" fill="#F4ADA2"/>
            <g>
                <path d="M71.965 321.416c-.536 6.097 3.415 17.458 17.347 30.196l67.825 62.004c11.461-17.24 23.84-33.746 40.981-58.506-12.062-8.888-22.967-3.904-31.107-9.84-7.862-5.734-17.761-10.47-27.482-15.953-.374-.21-.759-.391-1.136-.585-.105-.054-.207-.108-.31-.158a111.277 111.277 0 0 0-20.135-7.952c-26.849-7.555-44.127-.066-45.842.726a.003.003 0 0 0-.004 0c-.04.018-.072.035-.093.046l-.044.022z" fill="#FFF"/>
                <path d="M156.84 414a.794.794 0 0 1-.535-.208l-67.528-61.594c-13.864-12.675-18.184-24.248-17.603-30.852a.794.794 0 0 1 .449-.647l.005.01.032-.021-.003-.006c.032-.016.07-.036.116-.057a.988.988 0 0 1 .042-.018c2.187-1 20.369-8.69 47.133-1.158 5.31 1.497 23.347 10.613 29.875 14.173a.794.794 0 0 1-.76 1.393c-6.29-3.428-24.43-12.596-29.545-14.038-25.396-7.147-42.788-.357-45.792.961-.312 6.3 4.005 17.096 17.122 29.088l66.842 60.968c8.513-12.87 16.546-23.81 25.82-36.44 4.701-6.404 9.563-13.025 15.124-20.75a.794.794 0 1 1 1.288.928c-5.565 7.73-10.43 14.355-15.133 20.76-9.447 12.868-17.605 23.978-26.285 37.151a.794.794 0 0 1-.663.357zm-84.983-92.88.152.272-.152-.272z" fill="#131B5F"/>
                <path d="M178.596 382.408a.789.789 0 0 1-.384-.1c-.38-.21-9.314-5.26-10.874-14.85-1.498-9.218-2.2-12.156-8.28-18.458a.794.794 0 0 1 1.143-1.102c6.39 6.624 7.177 9.912 8.705 19.305 1.433 8.817 9.99 13.67 10.077 13.718a.794.794 0 0 1-.387 1.487zM168.122 397.327a.794.794 0 0 1-.794-.793c0-.145-.183-8.292-9.336-14.784-4.265-3.026-7.613-3.255-11.158-3.498-2.675-.183-5.44-.373-8.59-1.812-4.007-1.83-5.908-4.274-7.745-6.636-2.15-2.764-4.375-5.621-10.245-7.712-9.606-3.42-17.83-7.786-24.443-12.977-10.164-7.977-16.604-17.891-19.142-29.466a.794.794 0 0 1 1.55-.34c2.457 11.205 8.705 20.814 18.572 28.558 6.478 5.084 14.55 9.367 23.997 12.729 6.306 2.245 8.674 5.289 10.964 8.232 1.8 2.313 3.5 4.498 7.154 6.167 2.886 1.32 5.389 1.49 8.038 1.672 3.609.247 7.34.503 11.969 3.787 9.891 7.015 10.005 15.711 10.005 16.078a.796.796 0 0 1-.796.795z" fill="#131B5F"/>
                <path d="M154.228 401.134c-2.607 0-5.784-1.365-8.57-3.913-4.471-4.088-6.001-9.448-3.483-12.203 2.52-2.755 7.994-1.712 12.465 2.376 4.472 4.088 6.002 9.448 3.483 12.203-.95 1.038-2.318 1.537-3.895 1.537zm-8.189-16.054c-1.122 0-2.07.324-2.695 1.009-1.854 2.028-.305 6.59 3.382 9.96 3.688 3.37 8.37 4.506 10.224 2.476 1.854-2.03.305-6.59-3.383-9.96-2.442-2.233-5.322-3.485-7.527-3.485h-.001z" fill="#131B5F"/>
                <path d="M135.062 352.95a2.38 2.38 0 0 1-2.254-3.151c.035-.105 3.664-11.364-3.679-24.192a2.38 2.38 0 0 1 4.133-2.366c8.455 14.773 4.235 27.562 4.05 28.1a2.38 2.38 0 0 1-2.25 1.61zM123.936 348.592a2.38 2.38 0 0 1-2.295-3.018c.032-.12 3.31-12.653-4.694-24.31a2.38 2.38 0 0 1 3.925-2.696c9.296 13.54 5.523 27.684 5.357 28.28a2.38 2.38 0 0 1-2.293 1.744zM112.122 342.44a2.38 2.38 0 0 1-2.31-2.964c.025-.1 2.574-10.933-4.73-21.3a2.38 2.38 0 0 1 3.893-2.742c8.604 12.214 5.586 24.685 5.453 25.21a2.38 2.38 0 0 1-2.306 1.797z" fill="#FFDD0F"/>
            </g>
        </g>
        <g fill="#FFDD0F">
            <path d="M309.273 145.912a.904.904 0 0 1-1.162-.49l-11.316-26.74a.904.904 0 1 1 1.663-.705l11.318 26.74c.194.46-.02.99-.48 1.185l-.023.01zM295.571 160.545a.896.896 0 0 1-.62.014l-27.47-9.336a.905.905 0 0 1-.562-1.146.902.902 0 0 1 1.141-.566l27.47 9.336a.905.905 0 0 1 .041 1.698z"/>
        </g>
    </g>
</svg>
