<svg width="49" height="48" xmlns="http://www.w3.org/2000/svg">
    <g fill="#0057FC" fill-rule="nonzero">
        <path d="M15.992 37a.996.996 0 0 1-1-1v-7c-7.698-.022-13.978-6.302-14-13.998C.992 7.01 7.534 0 14.992 0h16c7.458 0 14 7.01 14 15 .002 1.858-.36 3.67-1.078 5.386a.996.996 0 0 1-1.306.536.993.993 0 0 1-.54-.544.997.997 0 0 1 .002-.766c.614-1.468.926-3.02.922-4.612 0-6.924-5.608-13-12-13h-16c-6.392 0-12 6.074-12 13 .02 6.596 5.404 11.98 12.002 12h.998a1 1 0 0 1 1 1v5.586l2.292-2.292a.999.999 0 1 1 1.416 1.412l-4 4a.992.992 0 0 1-.708.294z"/>
        <path d="M35.992 48c-7.168 0-13-5.832-13-13s5.832-13 13-13 13 5.832 13 13-5.832 13-13 13zm0-24c-6.066 0-11 4.934-11 11s4.934 11 11 11 11-4.934 11-11-4.934-11-11-11z"/>
        <path d="M34.326 40.858a2.484 2.484 0 0 1-1.766-.732l-3-3a1 1 0 0 1 .708-1.706c.268 0 .518.104.708.292l3 3c.016.016.034.03.052.044a.498.498 0 0 0 .704-.098l5.81-7.746c.188-.25.486-.4.8-.4.218 0 .424.068.6.2.214.16.354.394.392.66a.996.996 0 0 1-.19.742l-5.81 7.748c-.402.536-.988.88-1.65.976-.122.012-.24.02-.358.02z"/>
    </g>
</svg>
