<svg width="49" height="48" xmlns="http://www.w3.org/2000/svg">
    <g fill="#0057FC" fill-rule="nonzero">
        <path d="M25.992 26c-.226 0-.448-.078-.624-.218L20.642 22H3.992c-1.654 0-3-1.346-3-3V3c0-1.654 1.346-3 3-3h24c1.654 0 3 1.346 3 3v16c0 1.654-1.346 3-3 3h-1v3a1.004 1.004 0 0 1-1 1zm-22-24a1 1 0 0 0-1 1v16a1 1 0 0 0 1 1h17c.226 0 .448.078.624.22l3.376 2.7V21a1 1 0 0 1 1-1h2a1 1 0 0 0 1-1V3a1 1 0 0 0-1-1h-24zM37.992 47a1 1 0 0 1-1-1v-5a1 1 0 0 1 2 0v5a1 1 0 0 1-1 1z"/>
        <path d="M47.992 48a1 1 0 0 1-1-1c0-4.962-4.038-9-9-9s-9 4.038-9 9a1 1 0 0 1-2 0c0-6.066 4.934-11 11-11s11 4.934 11 11a1 1 0 0 1-1 1zM37.992 35c-4.412 0-8-3.588-8-8 0-3.294 2.076-6.298 5.168-7.474l.086-.032a8.295 8.295 0 0 1 1.5-.39l.074-.014c.054-.012.108-.022.164-.03.03-.004.382-.032.382-.032.192-.016.384-.028.576-.03l.05-.002c.03 0 .058.002.086.004a8.564 8.564 0 0 1 .758.044c.27.03.502.064.734.112l.056.012c.254.054.48.112.702.18l.066.022c.242.078.448.152.65.238l.146.064a7.477 7.477 0 0 1 .744.376 6.864 6.864 0 0 1 .71.458l.072.048c.048.032.096.064.142.1.028.02.054.044.082.068.136.11.244.204.35.3l.042.038c.068.06.138.122.202.186.118.114.23.234.342.356 0 0 .132.142.172.19.132.154.258.316.38.48l.07.094a7.938 7.938 0 0 1 1.49 4.636c.004 4.41-3.584 7.998-7.996 7.998zM32.3 25.116A5.903 5.903 0 0 0 31.992 27c0 3.308 2.692 6 6 6a6.009 6.009 0 0 0 5.982-5.536 12.542 12.542 0 0 1-3.636.536 12.794 12.794 0 0 1-8.038-2.884zm.978-1.792A10.726 10.726 0 0 0 40.324 26c1.184 0 2.334-.19 3.434-.566a5.863 5.863 0 0 0-.952-1.998l-.054-.072a5.968 5.968 0 0 0-1.032-1.056c-.078-.062-.158-.12-.24-.18a5.384 5.384 0 0 0-.534-.342l-.164-.092a7.118 7.118 0 0 0-.392-.19l-.112-.05a4.942 4.942 0 0 0-.456-.166l.068-.504-.146.478a5.956 5.956 0 0 0-.502-.13l.032-.504-.098.49a6.342 6.342 0 0 0-.518-.08l-.03-.508-.048.498a5.986 5.986 0 0 0-.504-.026L37.962 21v-.5l-.004.5c-.148 0-.294.012-.438.022 0 0-.15.01-.186.014-.074.008-.146.02-.216.032l-.084.014c-.13.022-.242.04-.352.064-.044.01-.194.05-.194.05-.15.04-.3.082-.448.134 0 0-.094.034-.096.036a6.064 6.064 0 0 0-2.666 1.958zM14.992 48a.994.994 0 0 1-.956-.71.992.992 0 0 1 .076-.762 9.507 9.507 0 0 1 8.408-5.022c1.348 0 2.654.282 3.886.836a1.002 1.002 0 0 1-.412 1.912 1 1 0 0 1-.41-.088 7.419 7.419 0 0 0-3.068-.66 7.511 7.511 0 0 0-6.642 3.966.997.997 0 0 1-.882.528zM22.492 40.95a6.958 6.958 0 0 1-6.95-6.95 6.958 6.958 0 0 1 6.95-6.95 6.958 6.958 0 0 1 6.95 6.95 6.958 6.958 0 0 1-6.95 6.95zm-4.758-8.312a4.955 4.955 0 0 0 4.758 6.312 4.957 4.957 0 0 0 4.916-4.366c-.966.274-1.948.414-2.932.416a10.858 10.858 0 0 1-6.742-2.362zm.97-1.778A8.99 8.99 0 0 0 24.476 33a8.83 8.83 0 0 0 2.732-.432 4.928 4.928 0 0 0-5.35-3.462 4.91 4.91 0 0 0-3.154 1.754zM7.992 8a1 1 0 0 1 0-2h16a1 1 0 0 1 0 2h-16zM7.992 12a1 1 0 0 1 0-2h10a1 1 0 0 1 0 2h-10z"/>
    </g>
</svg>
