<svg width="40" height="48" xmlns="http://www.w3.org/2000/svg">
    <path d="M7.15 48a1.014 1.014 0 0 1-1.026-1c0-.552.46-1 1.026-1h12.315v-8.032c-5.098-.262-9.957-2.506-13.405-6.206l-.016-.012a.682.682 0 0 1-.134-.156A18.649 18.649 0 0 1 .992 19 18.57 18.57 0 0 1 3.96 8.94c.033-.064.072-.114.11-.162C7.654 3.296 13.803 0 20.49 0c6.687 0 12.837 3.296 16.449 8.816a.597.597 0 0 1 .08.122c1.944 3.02 2.97 6.5 2.97 10.062 0 4.646-1.749 9.12-4.924 12.604a.665.665 0 0 1-.121.14l-.02.018c-3.449 3.7-8.307 5.944-13.405 6.206V46h12.315c.566 0 1.026.448 1.026 1s-.462 1-1.029 1H7.15zm.998-17.006C11.448 34.226 15.812 36 20.49 36c4.68 0 9.044-1.774 12.344-5.006-3.04-2.974-7.059-4.734-11.375-4.968-.33-.018-.663-.026-.993-.026A17.656 17.656 0 0 0 8.86 30.33c-.228.198-.464.418-.712.664zM5.02 11.162A16.616 16.616 0 0 0 3.045 19c0 3.802 1.324 7.508 3.736 10.498.248-.244.48-.458.71-.658.225-.196.453-.384.685-.568V16.06c0-.678-.24-1.344-.673-1.874L5.02 11.162zm27.786 17.11c.483.384.95.794 1.396 1.226a16.722 16.722 0 0 0 3.735-10.496c0-2.73-.68-5.424-1.974-7.838l-2.484 3.026a2.955 2.955 0 0 0-.673 1.87v12.212zM9.104 12.938a4.926 4.926 0 0 1 1.125 3.122v10.786A19.659 19.659 0 0 1 20.465 24c.369 0 .74.01 1.112.03a19.812 19.812 0 0 1 9.177 2.808V16.06c0-1.13.398-2.24 1.122-3.122l2.956-3.602C31.56 4.736 26.228 2 20.492 2 14.754 2 9.421 4.736 6.147 9.336l2.956 3.602z" fill="#0057FC" fill-rule="nonzero"/>
</svg>
