<svg width="49" height="48" xmlns="http://www.w3.org/2000/svg">
    <g fill="#0057FC" fill-rule="nonzero">
        <path d="M10.992 12a.999.999 0 0 1-.708-.292 4.541 4.541 0 0 1 0-6.414 2.54 2.54 0 0 0 0-3.586.999.999 0 0 1 .002-1.416.999.999 0 0 1 1.414 0 4.541 4.541 0 0 1 0 6.414 2.54 2.54 0 0 0 0 3.586.999.999 0 0 1-.002 1.416.99.99 0 0 1-.706.292zM19.992 12a.999.999 0 0 1-.708-.292 4.541 4.541 0 0 1 0-6.414 2.54 2.54 0 0 0 0-3.586.999.999 0 0 1 .002-1.416.999.999 0 0 1 1.414 0 4.541 4.541 0 0 1 0 6.414 2.54 2.54 0 0 0 0 3.586.999.999 0 0 1-.002 1.416.99.99 0 0 1-.706.292zM28.992 12a.999.999 0 0 1-.708-.292 4.541 4.541 0 0 1 0-6.414 2.54 2.54 0 0 0 0-3.586.999.999 0 0 1-.292-.708A.999.999 0 0 1 29.7.292a4.541 4.541 0 0 1 0 6.414 2.54 2.54 0 0 0 0 3.586c.188.19.292.44.292.708a.999.999 0 0 1-1 1zM1.992 48a1 1 0 0 1 0-2h10.006c-5.468-2.926-9.006-8.692-9.006-15V18c0-1.102.898-2 2-2h8v-1a1 1 0 0 1 2 0v1h24c5.514 0 10 4.486 10 10s-4.486 10-10 10h-2.756a17.086 17.086 0 0 1-8.25 10h14.006a1 1 0 0 1 0 2h-40zm3-17c0 8.27 6.73 15 15 15s15-6.73 15-15V18h-20v4.102c2.31.468 4 2.5 4 4.898v5c0 1.104-.898 2-2 2h-6c-1.102 0-2-.896-2-2v-5c0-2.398 1.69-4.43 4-4.898V18h-8v13zm34 3c4.412 0 8-3.588 8-8s-3.588-8-8-8h-2v13c0 1-.09 2.006-.268 3h2.268zm-25-10c-1.654 0-3 1.346-3 3v5h6v-5c0-1.654-1.346-3-3-3z"/>
    </g>
</svg>
