<svg width="49" height="48" xmlns="http://www.w3.org/2000/svg">
    <g fill="#0057FC" fill-rule="nonzero">
        <path d="M24.993 36.377a3.636 3.636 0 0 1-3.633-3.632 3.637 3.637 0 0 1 3.633-3.632 3.637 3.637 0 0 1 3.633 3.632 3.636 3.636 0 0 1-3.633 3.632zm0-5.39a1.76 1.76 0 0 0-1.758 1.758c0 .97.789 1.758 1.758 1.758a1.76 1.76 0 0 0 1.758-1.758 1.76 1.76 0 0 0-1.758-1.757zM30.71 27.966a.935.935 0 0 1-.662-.275 7.103 7.103 0 0 0-5.055-2.093c-1.91 0-3.705.744-5.055 2.093a.937.937 0 1 1-1.326-1.325 8.968 8.968 0 0 1 6.38-2.642c2.411 0 4.677.938 6.382 2.642a.937.937 0 0 1-.663 1.6z"/>
        <path d="M34.523 24.155a.935.935 0 0 1-.663-.274 12.459 12.459 0 0 0-8.867-3.672c-3.35 0-6.498 1.304-8.867 3.672a.937.937 0 1 1-1.326-1.326 14.321 14.321 0 0 1 10.193-4.221c3.85 0 7.47 1.499 10.193 4.221a.938.938 0 0 1-.663 1.6z"/>
        <path d="M38.334 20.344a.934.934 0 0 1-.662-.275c-6.991-6.989-18.367-6.989-25.358 0a.937.937 0 0 1-1.325-1.325c7.722-7.72 20.286-7.72 28.008 0a.937.937 0 0 1-.663 1.6zM41.333 8.67a.935.935 0 0 1-.663-.275l-.032-.032a.937.937 0 1 1 1.326-1.325l.032.031a.937.937 0 0 1-.663 1.6z"/>
        <path d="M24.993 48a23.845 23.845 0 0 1-16.971-7.028 23.837 23.837 0 0 1-7.03-16.967c0-6.41 2.497-12.435 7.03-16.967 8.195-8.194 21.057-9.372 30.581-2.802a.937.937 0 1 1-1.064 1.543C28.759-.277 16.903.809 9.348 8.363a21.973 21.973 0 0 0-6.48 15.642 21.973 21.973 0 0 0 6.48 15.641 21.983 21.983 0 0 0 15.645 6.48c5.91 0 11.466-2.302 15.645-6.48 7.383-7.38 8.587-19.06 2.863-27.77a.937.937 0 1 1 1.568-1.03 24.06 24.06 0 0 1 3.812 15.485 24.03 24.03 0 0 1-6.917 14.641A23.845 23.845 0 0 1 24.993 48z"/>
    </g>
</svg>
