<svg width="46" height="48" xmlns="http://www.w3.org/2000/svg">
    <g transform="translate(.992)" fill="#0057FC" fill-rule="nonzero">
        <path d="M28.758 48a.998.998 0 0 1-.991-1.003v-1.002h-23.8v1.002A.998.998 0 0 1 2.975 48a.998.998 0 0 1-.992-1.003v-1.175A3.017 3.017 0 0 1 0 42.987V10.904c0-.046.014-.128.026-.174a.785.785 0 0 1 .117-.327.9.9 0 0 1 .113-.163c.053-.062.109-.102.145-.13a.473.473 0 0 1 .115-.086l17.85-9.9a.986.986 0 0 1 1.346.397c.127.235.157.506.084.764a.992.992 0 0 1-.476.598L4.86 9.902h23.897c1.64 0 2.975 1.35 2.975 3.007v12.035l11.68-8.826a.98.98 0 0 1 1.387.202 1.007 1.007 0 0 1-.202 1.404L31.73 27.449v11.658l11.68-8.827c.173-.13.377-.2.593-.2.312 0 .61.15.796.403.158.214.224.477.186.744a.995.995 0 0 1-.389.66L31.731 41.61v1.378a3.017 3.017 0 0 1-1.983 2.835V47c.002.55-.442 1.001-.99 1.001zM1.983 42.987a.998.998 0 0 0 .992 1.003h25.783c.548 0 .992-.45.992-1.003v-23.06H1.983v23.06zM29.75 17.922V12.91a.998.998 0 0 0-.992-1.002H1.983v6.015H29.75z"/>
        <path d="M4.958 29.953a.998.998 0 0 1-.991-1.002v-6.016a.998.998 0 0 1 .991-1.002h21.817c.547 0 .992.449.992 1.002v6.016a.998.998 0 0 1-.992 1.002H4.958zm20.825-2.005v-4.01H5.95v4.01h19.833zM4.958 41.984a.998.998 0 0 1-.991-1.002v-6.016a.998.998 0 0 1 .991-1.002h21.817c.547 0 .992.449.992 1.002v6.016a.998.998 0 0 1-.992 1.002H4.958zm20.825-2.005v-4.01H5.95v4.01h19.833z"/>
        <ellipse cx="4.958" cy="14.915" rx="1.488" ry="1.504"/>
    </g>
</svg>
