<?xml version="1.0" encoding="UTF-8"?>
<svg width="64px" height="64px" viewBox="0 0 64 64" version="1.1" xmlns="http://www.w3.org/2000/svg" xmlns:xlink="http://www.w3.org/1999/xlink">
    <title>flip</title>
    <g   stroke="none" stroke-width="1" fill="none" fill-rule="evenodd">
        <g id="About-Me---Light" transform="translate(-240.000000, -1248.000000)" fill="#0057FC" fill-rule="nonzero">
            <g id="body" transform="translate(135.000000, 160.000000)">
                <g id="skill" transform="translate(0.000000, 514.000000)">
                    <g id="do" transform="translate(0.000000, 206.000000)">
                        <g id="1" transform="translate(0.000000, 328.000000)">
                            <g id="Group-3" transform="translate(30.000000, 40.000000)">
                                <g id="flip" transform="translate(75.000000, 0.000000)">
                                    <path d="M32,9.732625 C31.48225,9.732625 31.0625,9.313 31.0625,8.795125 L31.0625,0.9375 C31.0625,0.419625 31.48225,8.8817842e-16 32,8.8817842e-16 C32.517875,8.8817842e-16 32.9375,0.419625 32.9375,0.9375 L32.9375,8.795125 C32.9375,9.313 32.517875,9.732625 32,9.732625 Z" id="Path"></path>
                                    <path d="M32,23.299375 C31.48225,23.299375 31.0625,22.87975 31.0625,22.361875 L31.0625,14.504375 C31.0625,13.9865 31.48225,13.566875 32,13.566875 C32.517875,13.566875 32.9375,13.9865 32.9375,14.504375 L32.9375,22.361875 C32.9375,22.87975 32.517875,23.299375 32,23.299375 Z" id="Path"></path>
                                    <path d="M32,36.866375 C31.48225,36.866375 31.0625,36.44675 31.0625,35.928875 L31.0625,28.07125 C31.0625,27.553375 31.48225,27.13375 32,27.13375 C32.517875,27.13375 32.9375,27.553375 32.9375,28.07125 L32.9375,35.928875 C32.9375,36.446625 32.517875,36.866375 32,36.866375 Z" id="Path"></path>
                                    <path d="M32,50.433125 C31.48225,50.433125 31.0625,50.0135 31.0625,49.495625 L31.0625,41.638125 C31.0625,41.12025 31.48225,40.700625 32,40.700625 C32.517875,40.700625 32.9375,41.12025 32.9375,41.638125 L32.9375,49.495625 C32.9375,50.013375 32.517875,50.433125 32,50.433125 Z" id="Path"></path>
                                    <path d="M32,64 C31.48225,64 31.0625,63.580375 31.0625,63.0625 L31.0625,55.204875 C31.0625,54.687 31.48225,54.267375 32,54.267375 C32.517875,54.267375 32.9375,54.687 32.9375,55.204875 L32.9375,63.0625 C32.9375,63.580375 32.517875,64 32,64 Z" id="Path"></path>
                                    <path d="M48.905,45.088375 C48.84525,45.088375 48.78475,45.08275 48.724,45.07075 L38.8455,43.137625 C37.52875,42.879875 36.573,41.719 36.573,40.3775 L36.573,31.491 C36.573,30.973125 36.992625,30.5535 37.5105,30.5535 C38.028375,30.5535 38.448,30.973125 38.448,31.491 L38.448,40.3775 C38.448,40.824625 38.766625,41.211625 39.2055,41.2975 L49.084,43.230625 C49.592125,43.330125 49.9235,43.8225 49.824,44.33075 C49.736625,44.778125 49.344375,45.088375 48.905,45.088375 L48.905,45.088375 Z" id="Path"></path>
                                    <path d="M61.190875,47.45675 C61.01025,47.45675 60.828375,47.43925 60.64725,47.403875 L52.80975,45.870125 C52.30175,45.770625 51.97025,45.27825 52.06975,44.77 C52.16925,44.262 52.661375,43.93 53.169875,44.03 L61.007375,45.56375 C61.283375,45.617875 61.566125,45.546125 61.78325,45.367375 C62.000375,45.188625 62.124875,44.924875 62.124875,44.64375 L62.124875,19.35625 C62.124875,19.075 62.000375,18.81125 61.78325,18.632375 C61.566,18.4535 61.282875,18.381875 61.007375,18.436125 L39.2055,22.702375 C38.7665,22.788375 38.448,23.17525 38.448,23.622375 L38.448,27.405375 C38.448,27.92325 38.028375,28.342875 37.5105,28.342875 C36.992625,28.342875 36.573,27.92325 36.573,27.405375 L36.573,23.6225 C36.573,22.281 37.528625,21.12 38.8455,20.862375 L60.647375,16.596125 C61.4755,16.434 62.32375,16.64875 62.975125,17.185 C63.6265,17.72125 64,18.51275 64,19.356375 L64,44.643875 C64,45.4875 63.6265,46.278875 62.975125,46.815125 C62.466125,47.234 61.83675,47.45675 61.190875,47.45675 L61.190875,47.45675 Z" id="Path"></path>
                                    <path d="M2.809125,47.45675 C2.16325,47.45675 1.533875,47.234125 1.024875,46.815 C0.3735,46.27875 0,45.487375 0,44.64375 L0,19.35625 C0,18.512625 0.3735,17.721125 1.024875,17.184875 C1.67625,16.648625 2.5245,16.434 3.3525,16.596 L8.308375,17.56575 C8.8165,17.665125 9.14775,18.157625 9.048375,18.665875 C8.948875,19.174 8.45625,19.505875 7.94825,19.405875 L2.9925,18.436125 C2.716625,18.38175 2.43375,18.45375 2.216625,18.632375 C1.9995,18.81125 1.875,19.075125 1.875,19.356375 L1.875,44.643875 C1.875,44.925 1.9995,45.18875 2.216625,45.367625 C2.433875,45.546375 2.716625,45.618125 2.992625,45.563875 L24.794625,41.297625 C25.2335,41.211625 25.552,40.824875 25.552,40.377625 L25.552,23.6225 C25.552,23.17525 25.2335,22.788375 24.794625,22.7025 L11.953875,20.18975 C11.44575,20.09025 11.1145,19.597875 11.213875,19.089625 C11.31325,18.5815 11.805625,18.249875 12.314,18.349625 L25.154625,20.862375 C26.471375,21.120125 27.427,22.280875 27.427,23.6225 L27.427,40.377625 C27.427,41.71925 26.471375,42.880125 25.154625,43.13775 L3.352625,47.404 C3.171625,47.439375 2.989625,47.45675 2.809125,47.45675 Z" id="Path"></path>
                                </g>
                            </g>
                        </g>
                    </g>
                </g>
            </g>
        </g>
    </g>
</svg>