<svg width="65" height="64" xmlns="http://www.w3.org/2000/svg">
    <g fill="#0057FC" fill-rule="nonzero">
        <path d="M53.638 33.864a.948.948 0 0 0-.946.95c0 .666-.539 1.207-1.201 1.207a1.205 1.205 0 0 1-1.201-1.207.948.948 0 0 0-.946-.95.948.948 0 0 0-.946.95 3.104 3.104 0 0 0 3.093 3.108 3.104 3.104 0 0 0 3.093-3.108.948.948 0 0 0-.946-.95z"/>
        <path d="m62.517 34.02-2.662-.858a1.117 1.117 0 0 1-.719-.731 17.278 17.278 0 0 0-2.517-5.002 18.332 18.332 0 0 0-1.681-1.993c.393-1.73.606-3.69.578-5.383-.04-2.421-.52-3.842-1.472-4.342-.512-.27-2.071-1.09-10.51 2.79-.2.093-.386.206-.559.335a36.552 36.552 0 0 0-1.735-.423l-.214-.044c.684-1.5 1.083-3.13 1.158-4.813a.947.947 0 1 0-1.89-.085 11.066 11.066 0 0 1-3.216 7.33 10.946 10.946 0 0 1-3.985 2.557 27.305 27.305 0 0 0-7.614 0 10.944 10.944 0 0 1-3.985-2.557 11.025 11.025 0 0 1-3.228-7.829c0-2.957 1.147-5.737 3.228-7.828A10.921 10.921 0 0 1 29.286 1.9c2.943 0 5.71 1.151 7.792 3.243.836.84 1.527 1.799 2.054 2.85a.944.944 0 0 0 1.27.42.952.952 0 0 0 .42-1.275 12.957 12.957 0 0 0-2.406-3.34A12.797 12.797 0 0 0 29.286 0c-3.449 0-6.691 1.35-9.13 3.8a12.918 12.918 0 0 0-3.781 9.172c0 3.465 1.343 6.722 3.781 9.173a12.914 12.914 0 0 0 2.278 1.823h.001c-.588.154-1.172.326-1.749.52a.951.951 0 0 0-.597 1.203.945.945 0 0 0 1.197.6 25.274 25.274 0 0 1 16 0 .94.94 0 0 0 1.197-.6.951.951 0 0 0-.597-1.203 26.519 26.519 0 0 0-1.75-.52h.001a12.91 12.91 0 0 0 3.927-3.857 36.105 36.105 0 0 1 1.788.397c-.01.041-.021.082-.03.124-.461 2.2-.431 4.145.089 5.782.468 1.471 1.312 2.663 2.509 3.543 1.41 1.037 3.113 1.485 4.656 1.485 1.16 0 2.231-.254 3.017-.701.89-.506 1.634-1.573 2.224-3.173.272.32.53.647.774.982A15.373 15.373 0 0 1 57.331 33a3.016 3.016 0 0 0 1.947 1.972l2.662.857c.7.224 1.168.87 1.168 1.607v4.436c0 .737-.469 1.383-1.168 1.608l-4.29 1.38a2.926 2.926 0 0 0-1.635 1.335c-1.685 2.926-4.335 5.347-7.875 7.197a1.488 1.488 0 0 0-.778 1.05l-1.374 7.309a.426.426 0 0 1-.418.347h-4.467a.426.426 0 0 1-.417-.347l-.761-4.04a1.487 1.487 0 0 0-1.69-1.2c-1.925.292-3.907.44-5.893.44a37.54 37.54 0 0 1-4.336-.247 1.5 1.5 0 0 0-1.639 1.209l-.723 3.838a.426.426 0 0 1-.418.347H20.76a.427.427 0 0 1-.418-.35l-1.323-6.904a1.491 1.491 0 0 0-.763-1.037C12.22 50.57 9.03 45.162 9.03 38.168c0-3.535.77-6.66 2.287-9.29 1.417-2.453 3.485-4.482 6.148-6.03a.953.953 0 0 0 .346-1.299.944.944 0 0 0-1.293-.347c-5.164 3.002-8.279 7.632-9.137 13.514l-.273-.026a4.752 4.752 0 0 0-.346-1.896c-.549-1.371-1.676-2.36-2.872-2.52-.943-.127-1.84.275-2.462 1.1-.903 1.199-.756 2.147-.473 2.732.476.986 1.7 1.684 3.733 2.122a3.729 3.729 0 0 1-.184.254C3.302 37.995 1.887 38.329.968 38.36a.996.996 0 0 0-.968.993v.004c0 .533.419.968.95.993.067.003.138.005.212.005 1.162 0 3.028-.431 4.82-2.69.283-.356.514-.732.69-1.12.18.02.35.038.515.053v-.001c-.032.515-.05 1.037-.05 1.57 0 3.957.94 7.485 2.791 10.488 1.708 2.767 4.152 5.034 7.269 6.738l1.286 6.711A2.322 2.322 0 0 0 20.759 64h4.467c1.113 0 2.07-.797 2.277-1.895l.654-3.47c1.357.144 2.763.217 4.185.217 1.95 0 3.897-.136 5.795-.405l.69 3.658A2.322 2.322 0 0 0 41.103 64h4.467c1.112 0 2.07-.797 2.277-1.895l1.337-7.116c3.78-2.008 6.628-4.646 8.469-7.841.132-.23.337-.4.575-.476l4.29-1.38A3.577 3.577 0 0 0 65 41.871v-4.435c0-1.566-.998-2.94-2.483-3.418zm-9.034-11.296c-.365 3.128-1.341 5.804-2.323 6.362-1.115.635-3.69.758-5.624-.663-1.935-1.423-2.58-3.981-1.863-7.399.072-.343.315-.64.65-.794 4.735-2.178 7.465-2.89 8.48-2.89.153 0 .267.016.343.046.304.326.704 2.18.337 5.338zM2.656 33.276c-.098-.203.133-.56.28-.754.232-.308.446-.371.607-.371.035 0 .066.002.096.006.435.059 1.044.54 1.367 1.346.076.19.175.504.198.896-1.31-.273-2.327-.666-2.548-1.123z"/>
        <path d="M30.204 11.883V8.482c1.168.084 1.601.62 2.002.62.5 0 .733-.637.733-.955 0-.821-1.6-1.173-2.735-1.207v-.452c0-.201-.25-.386-.5-.386-.284 0-.484.185-.484.386v.486c-1.584.167-3.168 1.005-3.168 3.116 0 2.145 1.668 2.748 3.168 3.284v3.937c-1.7-.134-2.15-1.307-2.701-1.307-.417 0-.767.553-.767.955 0 .821 1.4 1.944 3.468 1.977v.52c0 .2.2.385.484.385.25 0 .5-.184.5-.385v-.57c1.802-.251 3.036-1.39 3.036-3.451 0-2.279-1.585-3.016-3.036-3.552zm-.884-.319c-.883-.335-1.6-.686-1.6-1.641 0-.872.667-1.29 1.6-1.408v3.05zm.784 5.714v-3.536c.817.352 1.468.821 1.468 1.877 0 .955-.567 1.491-1.468 1.659z"/>
    </g>
</svg>
