<svg width="50" height="64" xmlns="http://www.w3.org/2000/svg">
    <g fill="#0057FC" fill-rule="nonzero">
        <path d="M49.364 12.958 25.23.141a1.202 1.202 0 0 0-1.142.007L.624 12.965c-.385.21-.624.613-.624 1.05v16.743c.014 13.763 8.195 26.214 20.846 31.728l3.257 1.414c.305.133.651.133.956.002l3.67-1.58C41.615 56.928 50 44.356 50 30.426v-16.41c0-.443-.245-.85-.636-1.058zm-1.767 17.468c-.003 12.97-7.81 24.673-19.808 29.693l-.008.004-3.196 1.375-2.777-1.208C10.03 55.158 2.416 43.57 2.402 30.758V14.724L24.674 2.558l22.923 12.175v15.693z"/>
        <path d="M15.81 29.981a1.204 1.204 0 0 0-1.694-.132 1.194 1.194 0 0 0-.134 1.688l6.347 7.407a1.204 1.204 0 0 0 1.671.152L36.78 27.11a1.194 1.194 0 0 0 .174-1.685 1.204 1.204 0 0 0-1.69-.173L21.394 36.5l-5.584-6.518z"/>
    </g>
</svg>
