<svg width="70" height="64" xmlns="http://www.w3.org/2000/svg">
    <g fill="#0057FC" fill-rule="nonzero">
        <path d="M46.932 12.385h-1.977c.349-.601.55-1.298.55-2.04V4.113C45.504 1.845 43.641 0 41.351 0h-37.2C1.862 0 0 1.846 0 4.114v6.231c0 2.269 1.863 4.114 4.152 4.114H6.13a4.058 4.058 0 0 0-.55 2.04v6.232c0 .742.201 1.439.55 2.04H4.152C1.862 24.771 0 26.617 0 28.885v6.231c0 1.793 1.165 3.322 2.785 3.883a4.062 4.062 0 0 0-.693 2.27v6.232c0 .84.256 1.62.693 2.271C1.165 50.333 0 51.862 0 53.655v6.232C0 62.155 1.863 64 4.152 64h31.9c.577 0 1.046-.464 1.046-1.037 0-.572-.469-1.036-1.047-1.036H4.152a2.053 2.053 0 0 1-2.06-2.04v-6.232c0-1.125.924-2.04 2.06-2.04h20.23c.578 0 1.046-.465 1.046-1.037 0-.572-.468-1.036-1.046-1.036H6.245a2.053 2.053 0 0 1-2.06-2.04V41.27c0-1.126.924-2.04 2.06-2.04h16.23c.578 0 1.047-.465 1.047-1.037 0-.573-.469-1.037-1.047-1.037H4.152a2.053 2.053 0 0 1-2.06-2.04v-6.232c0-1.125.924-2.04 2.06-2.04H28.403c.578 0 1.047-.464 1.047-1.037 0-.572-.469-1.036-1.047-1.036H9.732a2.053 2.053 0 0 1-2.06-2.04v-6.232c0-1.125.924-2.04 2.06-2.04h37.2c1.136 0 2.06.915 2.06 2.04v.773c0 .572.468 1.036 1.046 1.036.578 0 1.046-.464 1.046-1.036v-.773c0-2.268-1.863-4.114-4.152-4.114zm-3.52-2.04c0 1.126-.924 2.041-2.06 2.041h-37.2a2.053 2.053 0 0 1-2.06-2.04V4.113c0-1.125.924-2.04 2.06-2.04h37.2c1.136 0 2.06.915 2.06 2.04v6.231z"/>
        <path d="M59.654 22.566a1.052 1.052 0 0 0-1.447.302 1.03 1.03 0 0 0 .305 1.434c5.883 3.798 9.396 10.213 9.396 17.16 0 11.284-9.268 20.465-20.66 20.465s-20.66-9.18-20.66-20.465 9.268-20.466 20.66-20.466c2.99 0 5.876.619 8.574 1.84a1.05 1.05 0 0 0 1.386-.513c.24-.52.008-1.135-.517-1.373a22.751 22.751 0 0 0-9.443-2.027c-12.546 0-22.752 10.11-22.752 22.539C24.496 53.889 34.702 64 47.248 64 59.793 64 70 53.89 70 41.462c0-7.65-3.867-14.714-10.346-18.896z"/>
        <path d="M48.294 40.508v-5.707c1.525.352 2.642 1.453 2.642 2.753 0 .572.468 1.036 1.046 1.036.578 0 1.046-.464 1.046-1.036 0-2.42-2.045-4.439-4.734-4.861v-.61c0-.572-.468-1.036-1.046-1.036-.578 0-1.046.464-1.046 1.036v.61c-2.69.422-4.734 2.44-4.734 4.861 0 2.42 2.045 4.439 4.734 4.861v5.707c-1.525-.352-2.642-1.452-2.642-2.753 0-.572-.468-1.036-1.046-1.036-.578 0-1.046.464-1.046 1.036 0 2.42 2.045 4.439 4.734 4.861v.61c0 .572.468 1.036 1.046 1.036.578 0 1.046-.464 1.046-1.036v-.61c2.69-.422 4.734-2.44 4.734-4.86 0-2.421-2.045-4.44-4.734-4.862zm-2.092-.201c-1.525-.352-2.642-1.453-2.642-2.753s1.117-2.4 2.642-2.753v5.506zm2.092 7.815v-5.506c1.525.352 2.641 1.453 2.641 2.753s-1.116 2.401-2.641 2.753z"/>
    </g>
</svg>
