<svg width="64" height="64" xmlns="http://www.w3.org/2000/svg">
    <g fill="#0057FC" fill-rule="nonzero">
        <path d="M32 9.733a.937.937 0 0 1-.938-.938V.938a.937.937 0 1 1 1.875 0v7.857c0 .518-.42.938-.937.938zM32 23.3a.937.937 0 0 1-.938-.938v-7.858a.937.937 0 1 1 1.875 0v7.858c0 .518-.42.937-.937.937zM32 36.866a.937.937 0 0 1-.938-.937V28.07a.937.937 0 1 1 1.875 0v7.858c0 .518-.42.937-.937.937zM32 50.433a.937.937 0 0 1-.938-.937v-7.858a.937.937 0 1 1 1.875 0v7.858c0 .517-.42.937-.937.937zM32 64a.937.937 0 0 1-.938-.938v-7.857a.937.937 0 1 1 1.875 0v7.858c0 .517-.42.937-.937.937zM48.905 45.088a.933.933 0 0 1-.181-.017l-9.878-1.933a2.818 2.818 0 0 1-2.273-2.76V31.49a.937.937 0 1 1 1.875 0v8.886a.94.94 0 0 0 .758.92l9.878 1.934a.937.937 0 0 1-.179 1.857zM61.19 47.457c-.18 0-.362-.018-.543-.053L52.81 45.87a.938.938 0 0 1 .36-1.84l7.837 1.534a.934.934 0 0 0 .776-.197.934.934 0 0 0 .342-.723V19.356a.935.935 0 0 0-1.118-.92l-21.801 4.266a.94.94 0 0 0-.758.92v3.783a.937.937 0 1 1-1.875 0v-3.783c0-1.341.956-2.502 2.273-2.76l21.801-4.266a2.803 2.803 0 0 1 2.328.589A2.803 2.803 0 0 1 64 19.356v25.288c0 .843-.373 1.635-1.025 2.171a2.803 2.803 0 0 1-1.784.642zM2.81 47.457a2.802 2.802 0 0 1-1.785-.642A2.803 2.803 0 0 1 0 44.644V19.356c0-.843.373-1.635 1.025-2.171.651-.536 1.5-.751 2.328-.589l4.955.97a.937.937 0 1 1-.36 1.84l-4.956-.97a.935.935 0 0 0-1.117.92v25.288a.935.935 0 0 0 1.118.92l21.802-4.266a.94.94 0 0 0 .757-.92V23.622a.94.94 0 0 0-.757-.92L11.954 20.19a.938.938 0 0 1 .36-1.84l12.84 2.512a2.818 2.818 0 0 1 2.273 2.76v16.756a2.818 2.818 0 0 1-2.272 2.76L3.353 47.404a2.833 2.833 0 0 1-.544.053z"/>
    </g>
</svg>
