<svg width="64" height="64" xmlns="http://www.w3.org/2000/svg">
    <path d="M51.259 25.246c.442-1.655.678-3.393.678-5.185C51.937 9 42.966 0 31.937 0 20.91 0 11.939 9 11.939 20.061c0 1.808.241 3.561.69 5.229C5.239 28.24 0 35.487 0 43.939a19.94 19.94 0 0 0 3.926 11.937.932.932 0 0 0 1.306.195.939.939 0 0 0 .194-1.31 18.076 18.076 0 0 1-3.558-10.822c0-7.619 4.694-14.157 11.334-16.86a20.138 20.138 0 0 0 11.477 11.675A20.077 20.077 0 0 0 24 43.94c0 5.859 2.518 11.138 6.524 14.81a18.09 18.09 0 0 1-1.344.877 18.07 18.07 0 0 1-9.18 2.5c-4.426 0-8.69-1.618-12.004-4.557a.932.932 0 0 0-1.318.082.939.939 0 0 0 .081 1.322A19.94 19.94 0 0 0 20 64c3.568 0 7.07-.954 10.128-2.76.651-.383 1.277-.806 1.878-1.259A19.856 19.856 0 0 0 44 64c11.028 0 20-9 20-20.061 0-8.495-5.291-15.773-12.741-18.693zm-36.292 1.219a18.029 18.029 0 0 1 5.941-.691.936.936 0 0 0 .093-1.871 19.882 19.882 0 0 0-6.602.777 18.209 18.209 0 0 1-.593-4.619c0-10.029 8.134-18.188 18.132-18.188 9.998 0 18.132 8.16 18.132 18.188 0 1.583-.203 3.12-.584 4.584A19.891 19.891 0 0 0 44 23.878c-4.495 0-8.649 1.495-11.993 4.017a19.862 19.862 0 0 0-6.832-3.337.937.937 0 0 0-.482 1.81c2.14.573 4.104 1.52 5.833 2.76a20.134 20.134 0 0 0-5.279 7.837 18.26 18.26 0 0 1-10.28-10.5zm17.04 3.846a18.272 18.272 0 0 1 4.962 7.225 18.028 18.028 0 0 1-5.031.713c-1.705 0-3.355-.238-4.92-.681a18.255 18.255 0 0 1 4.989-7.257zm1.48-1.183A17.996 17.996 0 0 1 44 25.751c1.705 0 3.355.238 4.92.681a18.26 18.26 0 0 1-10.186 10.49 20.156 20.156 0 0 0-5.246-7.794zM44 62.126a17.995 17.995 0 0 1-10.514-3.378 20.148 20.148 0 0 0 3.82-4.75.938.938 0 0 0-.338-1.28.932.932 0 0 0-1.277.339 18.277 18.277 0 0 1-3.685 4.51c-3.761-3.336-6.138-8.208-6.138-13.628 0-1.583.203-3.12.584-4.584 1.744.5 3.584.767 5.486.767 1.943 0 3.821-.28 5.599-.8.388 1.482.595 3.03.595 4.617 0 1.926-.3 3.826-.892 5.645a.937.937 0 0 0 .888 1.227.935.935 0 0 0 .888-.646c.653-2.007.983-4.102.983-6.226 0-1.798-.24-3.552-.692-5.228A20.14 20.14 0 0 0 50.69 27.035c6.697 2.676 11.442 9.244 11.442 16.904 0 10.028-8.134 18.187-18.132 18.187z" fill="#0057FC" fill-rule="nonzero"/>
</svg>
