<svg width="70" height="64" xmlns="http://www.w3.org/2000/svg">
    <g fill="#0057FC" fill-rule="nonzero">
        <path d="M55.587 36.617 53.161 22.06l-.191-1.09c-.447-2.886-3-5.002-5.873-5.002-.32 0-.639 0-.958.064l-26.62 4.425c-3.257.513-5.427 3.655-4.916 6.926L17.22 43.03c.447 2.886 2.937 5.002 5.81 5.002.318 0 .638 0 .957-.064l26.685-4.425c3.256-.513 5.426-3.655 4.915-6.926zM19.837 22.51l26.621-4.425c.192-.064.447-.064.639-.064 1.915 0 3.575 1.41 3.83 3.27v.065l-34.345 5.707v-.064c-.32-2.116 1.149-4.104 3.255-4.489zm-2.872 6.67L51.31 23.47l.447 2.565-34.346 5.707-.446-2.565zM50.353 41.49l-26.621 4.425c-2.107.385-4.15-1.154-4.47-3.207l-1.531-8.913 34.345-5.708 1.469 8.85c.319 2.18-1.086 4.168-3.192 4.553z"/>
        <path d="M28.775 35.912a1.127 1.127 0 0 0-1.213-.834l-6.703 1.09c-.575.064-.958.642-.83 1.219.064.513.51.898 1.021.898h.192l6.703-1.155c.574-.064.958-.641.83-1.218zM35.606 34.822c-.128-.578-.639-.962-1.213-.898l-3.767.641c-.574.064-.957.641-.83 1.219.064.513.511.897 1.022.897h.191l3.767-.64c.574-.065.957-.642.83-1.22zM50.289 34.886c-.32-1.988-2.107-3.27-4.086-2.95-1.915.32-3.256 2.18-2.937 4.104.256 1.732 1.724 2.95 3.512 2.95.191 0 .383 0 .574-.064.958-.128 1.724-.641 2.298-1.411.575-.77.766-1.731.639-2.63zm-2.299 1.41c-.255.321-.574.514-.957.578-.83.128-1.532-.45-1.66-1.219a1.446 1.446 0 0 1 1.213-1.667h.255c.703 0 1.341.513 1.469 1.218 0 .321-.128.77-.32 1.09z"/>
        <path d="M65.738 33.731c-.639-.064-1.15.385-1.213 1.027C63.12 50.148 50.48 61.756 35.03 61.756c-14.364 0-26.62-10.39-29.11-24.433l2.744 1.667c.511.32 1.213.128 1.533-.385.319-.513.127-1.218-.383-1.539l-5.363-3.27c-.255-.193-.575-.193-.894-.129-.319.064-.574.321-.702.577L.111 39.952c-.255.577-.064 1.218.51 1.539.128.064.32.128.511.128.447 0 .83-.256 1.022-.641l1.532-3.335C6.367 52.778 19.518 64 35.031 64 51.63 64 65.227 51.495 66.76 34.95c.064-.641-.383-1.154-1.021-1.219zM69.44 22.509c-.51-.32-1.212-.192-1.532.385l-1.66 2.693a33.407 33.407 0 0 0-4.532-11.158s0-.064-.064-.064c-1.149-1.796-2.553-3.463-4.086-5.002a31.46 31.46 0 0 0-7.213-5.451h-.064A31.782 31.782 0 0 0 35.03 0C18.624 0 5.027 12.377 3.367 28.73c-.064.64.383 1.154 1.021 1.218h.128c.574 0 1.085-.449 1.149-1.026C7.197 13.723 19.837 2.244 35.095 2.244A29.77 29.77 0 0 1 49.33 5.9h.064a29.635 29.635 0 0 1 6.64 5.002c1.34 1.346 2.489 2.757 3.574 4.296 0 0 0 .065.064.065v.064a28.581 28.581 0 0 1 4.469 10.901l-2.873-2.18c-.51-.385-1.213-.256-1.596.257s-.255 1.218.255 1.603l5.044 3.783c.191.129.447.257.702.257h.192c.319-.064.574-.257.766-.513l3.255-5.387c.256-.513.064-1.218-.446-1.539z"/>
    </g>
</svg>
