<svg width="76" height="64" xmlns="http://www.w3.org/2000/svg">
    <g fill="#0057FC" fill-rule="nonzero">
        <path d="M75.84 32.005a1.112 1.112 0 0 0-.812-.919c-.072-.019-6.684-1.806-15.308-5.226 9.252-4.122 15.49-7.837 15.592-7.899a1.111 1.111 0 0 0-.284-2.026c-.201-.054-20.344-5.527-36.508-15.763a1.11 1.11 0 0 0-1.188 0c-6.548 4.147-14.447 7.99-23.48 11.423a1.111 1.111 0 0 0 .79 2.077c8.9-3.383 16.73-7.166 23.284-11.249 12.906 8.036 28.07 13.109 33.986 14.916-5.21 2.878-18.796 9.921-33.986 14.096C22.74 27.261 9.159 20.222 3.946 17.342a160.738 160.738 0 0 0 5.796-1.89c1.373-.53.679-2.534-.727-2.1-4.89 1.693-8.16 2.575-8.192 2.584a1.111 1.111 0 0 0-.284 2.026c.103.061 6.34 3.776 15.593 7.898C7.514 29.277.895 31.067.823 31.086a1.111 1.111 0 0 0-.284 2.026c.103.062 6.34 3.777 15.593 7.899C7.514 44.428.895 46.218.823 46.237a1.111 1.111 0 0 0-.284 2.026c.137.082 3.404 2.036 8.78 4.704a1.112 1.112 0 0 0 .987-1.991 161.36 161.36 0 0 1-6.367-3.333 172.27 172.27 0 0 0 15.049-5.39c5.541 2.354 11.944 4.734 18.646 6.557.191.052.392.052.584 0 1.267-.345 2.568-.722 3.865-1.12 1.391-.48.768-2.507-.652-2.124-1.175.36-2.353.703-3.505 1.02C22.738 42.41 9.155 35.37 3.942 32.49a172.29 172.29 0 0 0 15.046-5.388c5.542 2.353 11.944 4.733 18.646 6.556.191.052.393.052.584 0 6.702-1.823 13.104-4.203 18.646-6.556a172.273 172.273 0 0 0 15.047 5.388c-4.234 2.341-13.997 7.434-25.638 11.488-1.378.536-.667 2.535.73 2.098a159.527 159.527 0 0 0 9.869-3.82 172.322 172.322 0 0 0 15.04 5.385 173.966 173.966 0 0 1-15.003 7.336c-1.335.634-.483 2.577.88 2.04 10.284-4.432 17.452-8.712 17.524-8.755a1.111 1.111 0 0 0-.284-2.026c-.072-.02-6.687-1.808-15.302-5.223 9.248-4.123 15.498-7.85 15.586-7.902.381-.23.59-.665.528-1.107z"/>
        <path d="M52.405 56.843c-4.971 1.973-9.84 3.619-14.48 4.894-7.446-2.046-15.32-4.986-23.406-8.739a1.111 1.111 0 0 0-.936 2.016c8.306 3.855 16.398 6.865 24.051 8.947.191.052.392.052.584 0 4.806-1.308 9.855-3.007 15.007-5.052a1.111 1.111 0 1 0-.82-2.066z"/>
    </g>
</svg>
