<svg width="82" height="64" xmlns="http://www.w3.org/2000/svg">
    <g fill="#0057FC" fill-rule="nonzero">
        <path d="m79.465 52.962-5.795-4.77A28.226 28.226 0 0 0 82 28.205C82 12.653 69.312 0 53.717 0a28.33 28.33 0 0 0-24.05 13.36 18.546 18.546 0 0 0-8.104-3.432 1.198 1.198 0 1 0-.384 2.364c7.855 1.27 13.555 7.962 13.555 15.913 0 8.89-7.252 16.122-16.165 16.122-8.915 0-16.167-7.232-16.167-16.122 0-7.951 5.701-14.643 13.557-15.913a1.198 1.198 0 1 0-.384-2.364 18.585 18.585 0 0 0-11.1 6.22A18.487 18.487 0 0 0 0 28.205c0 10.21 8.33 18.517 18.569 18.517 4.156 0 7.996-1.368 11.094-3.677a28.54 28.54 0 0 0 7.806 8.25 1.2 1.2 0 0 0 1.673-.291 1.196 1.196 0 0 0-.292-1.669 26.113 26.113 0 0 1-7.339-7.867c3.468-3.366 5.625-8.068 5.625-13.263a18.487 18.487 0 0 0-5.621-13.272A25.927 25.927 0 0 1 53.716 2.395c14.272 0 25.882 11.578 25.882 25.81a25.828 25.828 0 0 1-7.79 18.454l-5.7-4.693a2.774 2.774 0 0 0-3.131-.283 2.759 2.759 0 0 0-1.403 2.805l1.097 7.939a25.84 25.84 0 0 1-8.954 1.587c-3.506 0-6.906-.686-10.107-2.04a1.203 1.203 0 0 0-1.575.634c-.259.609.026 1.312.637 1.57a28.19 28.19 0 0 0 11.045 2.232c3.191 0 6.309-.525 9.289-1.558l.932 6.747a2.757 2.757 0 0 0 1.912 2.267 2.766 2.766 0 0 0 2.876-.742l3.836-4.067a.382.382 0 0 1 .203-.112l5.484-1.12a2.76 2.76 0 0 0 2.145-2.05 2.75 2.75 0 0 0-.93-2.813zm-1.401 2.235a.368.368 0 0 1-.296.282l-5.484 1.12a2.772 2.772 0 0 0-1.47.817l-3.837 4.066a.37.37 0 0 1-.397.102.367.367 0 0 1-.263-.312l-2.364-17.11a.359.359 0 0 1 .193-.387.36.36 0 0 1 .432.039l13.357 10.995c.163.134.15.3.129.388z"/>
        <path d="M6.638 26.927a1.171 1.171 0 1 0 0 2.341h4.686a1.171 1.171 0 1 0 0-2.341H6.638zM30.848 29.268a1.171 1.171 0 1 0 0-2.341h-4.686a1.171 1.171 0 1 0 0 2.341h4.686zM15.229 28.098c0 .646.524 1.17 1.171 1.17h4.686a1.171 1.171 0 1 0 0-2.341H16.4c-.647 0-1.171.524-1.171 1.17zM75.336 29.268c.661 0 1.197-.524 1.197-1.17 0-.647-.536-1.171-1.197-1.171h-4.79c-.661 0-1.197.524-1.197 1.17 0 .647.536 1.171 1.197 1.171h4.79zM65.756 29.268c.662 0 1.198-.524 1.198-1.17 0-.647-.536-1.171-1.198-1.171h-4.79c-.661 0-1.197.524-1.197 1.17 0 .647.536 1.171 1.197 1.171h4.79zM56.177 29.268c.661 0 1.197-.524 1.197-1.17 0-.647-.536-1.171-1.197-1.171h-4.79c-.662 0-1.198.524-1.198 1.17 0 .647.536 1.171 1.198 1.171h4.79zM47.794 28.098c0-.647-.536-1.171-1.197-1.171h-4.79c-.661 0-1.197.524-1.197 1.17 0 .647.536 1.171 1.197 1.171h4.79c.661 0 1.197-.524 1.197-1.17z"/>
    </g>
</svg>
