<svg width="77" height="84" viewBox="0 0 77 84" xmlns="http://www.w3.org/2000/svg">
    <path d="M67.213 22.876h-9.176c2.83-2.292 4.632-5.921 4.632-9.902C62.669 5.812 56.842 0 49.68 0 44.71 0 40.383 2.816 38.2 6.93 36.017 2.815 31.692.01 26.72.01c-7.162 0-12.989 5.799-12.989 12.96 0 3.982 1.803 7.613 4.632 9.905H9.149C4.093 22.876 0 27.02 0 32.075c0 3.983 2.696 7.41 6.134 8.672v35.677A7.559 7.559 0 0 0 13.732 84H62.63c4.213 0 7.684-3.365 7.684-7.576V40.747c3.438-1.262 6.09-4.688 6.09-8.672 0-5.056-4.135-9.199-9.19-9.199zM36.696 80.944H13.732c-2.528 0-4.542-1.995-4.542-4.52v-35.21h27.506v39.73zm0-42.787H9.149a6.12 6.12 0 0 1-6.114-6.112 6.12 6.12 0 0 1 6.114-6.112H36.696v12.224zm0-15.28H26.72c-5.477 0-9.932-4.426-9.932-9.903s4.477-9.918 9.954-9.918 9.954 4.471 9.954 9.948v9.872zm3.056-9.873c0-5.477 4.453-9.933 9.93-9.933 5.477 0 9.932 4.426 9.932 9.903s-4.457 9.902-9.934 9.902h-9.928v-9.872zm27.506 63.42c0 2.525-2.1 4.52-4.628 4.52H39.752v-39.73h27.506v35.21zm-.045-38.267H39.752V25.933H67.213a6.12 6.12 0 0 1 6.114 6.112 6.12 6.12 0 0 1-6.114 6.112z" fill="#FFF" fill-rule="nonzero"/>
</svg>
