<svg width="65" height="84" viewBox="0 0 65 84" xmlns="http://www.w3.org/2000/svg">
    <g fill="#FFF" fill-rule="nonzero">
        <path d="m64.206 17.65-1.114-1.116L48.51 1.914 47.397.796A2.728 2.728 0 0 0 45.478 0H3.558C1.845 0 0 1.327 0 4.238v76.865c0 1.213 1.216 2.394 2.655 2.767.072.018.141.046.217.06.225.045.455.07.686.07h57.884c.231 0 .461-.025.686-.07.076-.014.145-.042.217-.06C63.784 83.497 65 82.316 65 81.103V20.244c0-1.11-.133-1.93-.794-2.594zm-4.355-.27H47.667V5.162L59.85 17.38zM3.558 81.102c-.103 0-.195-.037-.286-.07a.663.663 0 0 1-.383-.6V59.379H62.11v21.054a.665.665 0 0 1-.383.6c-.09.033-.183.07-.286.07H3.558zm-.67-24.62V4.238c0-.315.049-1.341.67-1.341h41.304c-.048.182-.084.37-.084.566v16.813h16.768c.195 0 .382-.036.564-.084l.001.052v36.239H2.89z"/>
        <path d="M22.434 64.22a4.748 4.748 0 0 0-1.583-.915A5.41 5.41 0 0 0 19.067 63H15v15h2.303v-5.414h1.708a5.74 5.74 0 0 0 2.033-.346 4.534 4.534 0 0 0 1.574-.976 4.35 4.35 0 0 0 1.017-1.557c.243-.618.365-1.306.365-2.067 0-.719-.145-1.366-.432-1.944a4.74 4.74 0 0 0-1.134-1.475zm-.873 4.957c-.142.413-.326.735-.556.966-.23.23-.483.397-.758.498a2.407 2.407 0 0 1-.835.154h-2.11v-5.943h1.726c.588 0 1.06.098 1.42.295.358.196.636.44.835.732.198.292.328.597.393.916.063.318.095.6.095.844 0 .612-.07 1.124-.21 1.538zM37.134 65.197c-.625-.664-1.412-1.198-2.36-1.597-.949-.399-2.048-.6-3.297-.6H27v15h5.626c.187 0 .477-.024.867-.071.39-.048.82-.155 1.291-.326a6.74 6.74 0 0 0 1.462-.764c.504-.34.957-.804 1.361-1.395.405-.591.737-1.324 1-2.199.262-.875.393-1.93.393-3.165 0-.896-.155-1.768-.463-2.615a6.614 6.614 0 0 0-1.403-2.268zm-1.764 9.424c-.726 1.058-1.909 1.587-3.55 1.587h-2.4V64.85h1.412c1.157 0 2.098.154 2.824.459.725.305 1.3.706 1.724 1.201.423.496.708 1.048.857 1.659a7.86 7.86 0 0 1 .221 1.852c0 2.008-.362 3.543-1.088 4.6zM42 78h2.382v-6.757h6.014v-1.669h-6.014v-4.722H51V63h-9zM45.61 33.657c-1.315 0-2.927.173-4.802.515-2.616-2.794-5.347-6.873-7.274-10.878 1.911-8.098.955-9.244.533-9.785-.45-.575-1.083-1.509-1.803-1.509-.302 0-1.125.138-1.453.247-.823.277-1.267.915-1.621 1.748-1.011 2.378.376 6.432 1.803 9.556-1.22 4.881-3.266 10.723-5.416 15.464-5.419 2.498-8.297 4.95-8.557 7.29-.095.852.105 2.103 1.594 3.226.407.306.885.469 1.382.469 1.252 0 2.515-.964 3.978-3.031 1.067-1.508 2.212-3.563 3.407-6.115 3.83-1.685 8.566-3.207 12.622-4.06 2.26 2.183 4.282 3.287 6.021 3.287 1.281 0 2.38-.592 3.174-1.713.828-1.167 1.017-2.21.558-3.107-.55-1.078-1.908-1.604-4.147-1.604zM20.027 47.572c-.67-.517-.63-.865-.616-.996.088-.8 1.334-2.22 4.39-3.947-2.317 4.304-3.561 4.875-3.774 4.943zm11.724-32.974c.062-.02 1.494 1.584.137 4.626-2.039-2.099-.277-4.579-.137-4.626zm-2.955 23.054c1.45-3.48 2.8-7.322 3.823-10.881 1.606 2.903 3.534 5.72 5.464 7.975-3.05.72-6.3 1.738-9.287 2.906zm18.445-.69c-.44.62-1.395.635-1.73.635-.762 0-1.046-.456-2.212-1.358.961-.124 1.868-.155 2.59-.155 1.27 0 1.504.188 1.68.283-.032.102-.115.295-.328.596z"/>
    </g>
</svg>
