<svg xmlns="http://www.w3.org/2000/svg" xmlns:xlink="http://www.w3.org/1999/xlink" width="102px" height="13px" viewBox="0 0 102 13"><title>svgexport-1 (1)</title><g   stroke="none" stroke-width="1" fill="none" fill-rule="evenodd"><g id="Home-ICO-Crypto-Light" transform="translate(-1169.000000, -5754.000000)" fill="#3375BB" fill-rule="nonzero"><g id="body" transform="translate(-0.111111, 1161.000000)"><g id="partner" transform="translate(135.111111, 4395.000000)"><g id="lg-1" transform="translate(1000.000000, 144.000000)"><g id="svgexport-1-(1)" transform="translate(34.000000, 54.000000)"><path d="M4.01855436,3.015997 L0,3.015997 L0,0.727676255 L10.9430176,0.727676255 L10.9430176,3.015997 L6.92446324,3.015997 L6.92446324,12.8613593 L4.01855436,12.8613593 L4.01855436,3.015997 Z M13.6961268,4.76661671 C14.0308124,4.31584712 14.4795161,3.97486597 15.0414621,3.74367326 C15.6154305,3.51285525 16.2731673,3.39707154 17.0146724,3.39707154 L17.0146724,5.89335332 C16.7040314,5.87012163 16.4946105,5.85850579 16.3867975,5.85850579 C15.5855687,5.85850579 14.9576938,6.07808267 14.5031729,6.51723641 C14.048652,6.94477431 13.8213915,7.59188909 13.8213915,8.45858073 L13.8213915,12.8613593 L11.0229078,12.8613593 L11.0229078,3.53571223 L13.6961268,3.53571223 L13.6961268,4.76661671 Z M27.3961317,3.53571223 L27.3961317,12.8613593 L24.7407523,12.8613593 L24.7407523,11.7518591 C24.3699997,12.1561653 23.9275011,12.4682942 23.4132565,12.6878711 C22.8990118,12.8958321 22.342883,13 21.74487,13 C20.4770979,13 19.4726532,12.647403 18.7311481,11.9425837 C17.989643,11.2377645 17.6188905,10.191964 17.6188905,8.80518245 L17.6188905,3.53571223 L20.4173742,3.53571223 L20.4173742,8.4064968 C20.4173742,9.90868738 21.0692937,10.65997 22.3727449,10.65997 C23.0425039,10.65997 23.5807932,10.452009 23.9876127,10.0357122 C24.3940444,9.60817432 24.5972602,8.97867066 24.5972602,8.14645184 L24.5972602,3.53571223 L27.3961317,3.53571223 Z M32.1596815,13 C31.3580649,13 30.5746756,12.907448 29.8095137,12.7227186 C29.0439639,12.5259987 28.4339286,12.2835649 27.9794077,11.9946677 L28.9124942,10.0533233 C29.3429704,10.3189889 29.8630323,10.5385657 30.4730677,10.7116793 C31.083103,10.8735516 31.681116,10.9544878 32.2671067,10.9544878 C33.4511104,10.9544878 34.0433062,10.6715859 34.0433062,10.1050326 C34.0433062,9.83936704 33.8815867,9.64864242 33.5589234,9.53323341 C33.2358723,9.41782441 32.7394672,9.31927711 32.0697081,9.23834092 C31.2805016,9.12293192 30.6285821,8.9899118 30.1143374,8.84002998 C29.6000928,8.68977345 29.1517769,8.42373321 28.7690021,8.04265867 C28.3982495,7.66120943 28.2128732,7.11826252 28.2128732,6.41306854 C28.2128732,5.82403297 28.3862272,5.30394304 28.7329351,4.85317346 C29.0916654,4.39078803 29.60591,4.03257047 30.2756691,3.77852078 C30.9574504,3.52447109 31.7586793,3.39707154 32.6797434,3.39707154 C33.3615248,3.39707154 34.0371011,3.47238716 34.7068602,3.62264368 C35.3886415,3.76128437 35.9509754,3.95762956 36.393474,4.21167925 L35.4603876,6.13578717 C34.6114573,5.67377645 33.6845759,5.44258373 32.6797434,5.44258373 C32.0817304,5.44258373 31.6334146,5.52351992 31.3344081,5.68501758 C31.0354016,5.84688995 30.8857044,6.05485098 30.8857044,6.30927538 C30.8857044,6.59817259 31.0474239,6.80013835 31.3700872,6.91592206 C31.6931383,7.03133107 32.207383,7.1411195 32.9128211,7.24528737 C33.7024155,7.37231222 34.3481299,7.5109529 34.8503523,7.66120943 C35.3529624,7.79985012 35.789256,8.05989508 36.1600085,8.44134432 C36.5307611,8.82241886 36.7161373,9.35412463 36.7161373,10.0357122 C36.7161373,10.6135067 36.5369661,11.127976 36.1782359,11.5783709 C35.8191178,12.0291405 35.2928509,12.3817375 34.599435,12.6357872 C33.9176536,12.8785957 33.1044025,13 32.1596815,13 Z M43.5917357,12.4105897 C43.3167738,12.6069349 42.9758831,12.7571914 42.5690637,12.8613593 C42.1746543,12.9535366 41.7558125,13 41.3133139,13 C40.1653771,13 39.2741748,12.7167234 38.6404827,12.1505448 C38.0184251,11.5843662 37.7073963,10.7521473 37.7073963,9.65463769 L37.7073963,5.82403297 L36.2185688,5.82403297 L36.2185688,3.74367326 L37.7073963,3.74367326 L37.7073963,1.47333833 L40.50588,1.47333833 L40.50588,3.74367326 L42.9099543,3.74367326 L42.9099543,5.82403297 L40.50588,5.82403297 L40.50588,9.61979017 C40.50588,10.0128552 40.6078757,10.3189889 40.8110916,10.5385657 C41.0263297,10.7465268 41.3253362,10.8506946 41.7081111,10.8506946 C42.1506097,10.8506946 42.5271795,10.7349109 42.8382083,10.5037182 L43.5917357,12.4105897 Z M67.2683196,0.727676255 L63.1601796,12.8613593 L60.0386448,12.8613593 L57.2758402,4.64521243 L54.42345,12.8613593 L51.3197547,12.8613593 L47.1937752,0.727676255 L50.207497,0.727676255 L53.0420477,9.25595204 L56.0022509,0.727676255 L58.6929216,0.727676255 L61.5635392,9.32527238 L64.4876754,0.727676255 L67.2683196,0.727676255 Z M70.7916323,3.39707154 C72.2866648,3.39707154 73.4349894,3.74367326 74.2362183,4.4372514 C75.0374471,5.11883899 75.4380615,6.15302358 75.4380615,7.53980515 L75.4380615,12.8613593 L72.818749,12.8613593 L72.818749,11.6997752 C72.2928699,12.5664668 71.312082,13 69.8767732,13 C69.1352681,13 68.4895537,12.8785957 67.9392421,12.6357872 C67.4009528,12.3933533 66.9883161,12.0579927 66.7013319,11.6304548 C66.4143477,11.2029169 66.2708556,10.7176745 66.2708556,10.1743529 C66.2708556,9.30803597 66.605929,8.62607367 67.2756881,8.12921543 C67.9570816,7.63235718 69.0037983,7.38392806 70.4150625,7.38392806 L72.6395778,7.38392806 C72.6395778,6.79451778 72.4542015,6.3437482 72.083449,6.031994 C71.7126964,5.70824926 71.1565676,5.5463769 70.4150625,5.5463769 C69.9008178,5.5463769 69.3923904,5.62731308 68.8901681,5.78918545 C68.3995802,5.93944198 67.9811263,6.14740301 67.6344183,6.41306854 L66.6295858,4.52380815 C67.1558528,4.16559059 67.7837277,3.88830922 68.5132105,3.69196403 C69.2547156,3.49524413 70.0144481,3.39707154 70.7916323,3.39707154 Z M70.5763941,11.1796852 C71.0549597,11.1796852 71.4796187,11.0758921 71.8503713,10.8679311 C72.2211238,10.6483542 72.4840634,10.3306047 72.6395778,9.91468265 L72.6395778,8.96105955 L70.7198862,8.96105955 C69.5719495,8.96105955 68.9975933,9.32527238 68.9975933,10.0533233 C68.9975933,10.3999251 69.1352681,10.6772064 69.41023,10.8851675 C69.6972142,11.0815127 70.0861941,11.1796852 70.5763941,11.1796852 Z M76.8947002,0 L79.6931839,0 L79.6931839,12.8613593 L76.8947002,12.8613593 L76.8947002,0 Z M81.2142002,0 L84.0130717,0 L84.0130717,12.8613593 L81.2142002,12.8613593 L81.2142002,0 Z M94.9882781,8.23300859 C94.9882781,8.26785611 94.9704385,8.51066467 94.9343716,8.96105955 L87.6329507,8.96105955 C87.7644205,9.53885398 88.0754493,9.99524413 88.5656493,10.3306047 C89.0562372,10.6655906 89.6658847,10.8330835 90.3957553,10.8330835 C90.8979777,10.8330835 91.3404763,10.7637632 91.7232511,10.6251225 C92.1176605,10.474866 92.4825958,10.244048 92.8172814,9.93191906 L94.3064967,11.4918141 C93.3974549,12.4971465 92.0699591,13 90.3240093,13 C89.2354084,13 88.2728479,12.7976595 87.4355521,12.3933533 C86.5982563,11.9770566 85.9525419,11.4052574 85.498021,10.6772064 C85.0435001,9.94915547 84.8162396,9.12293192 84.8162396,8.19853577 C84.8162396,7.28575546 85.0376828,6.46515248 85.4801814,5.73710152 C85.9347024,4.99780942 86.5505549,4.42563556 87.3277391,4.02132934 C88.1173335,3.60503257 88.9961256,3.39707154 89.9648912,3.39707154 C90.91,3.39707154 91.7651353,3.59379143 92.5302972,3.98648181 C93.2958469,4.3795469 93.89386,4.94572549 94.3243362,5.68501758 C94.7668348,6.41306854 94.9882781,7.26252378 94.9882781,8.23300859 Z M89.9831186,5.44258373 C89.3490386,5.44258373 88.8169544,5.61569724 88.3864781,5.96267366 C87.955614,6.30927538 87.6926745,6.78290194 87.5968838,7.38392806 L92.351126,7.38392806 C92.2553353,6.79451778 91.9923958,6.32651179 91.5615316,5.97991007 C91.1310554,5.62169251 90.6047884,5.44258373 89.9831186,5.44258373 Z M102,12.4105897 C101.725038,12.6069349 101.384147,12.7571914 100.977716,12.8613593 C100.582919,12.9535366 100.164465,13 99.721966,13 C98.5736414,13 97.682827,12.7167234 97.048747,12.1505448 C96.4266894,11.5843662 96.1160484,10.7521473 96.1160484,9.65463769 L96.1160484,5.82403297 L94.6268331,5.82403297 L94.6268331,3.74367326 L96.1160484,3.74367326 L96.1160484,1.47333833 L98.9145321,1.47333833 L98.9145321,3.74367326 L101.318606,3.74367326 L101.318606,5.82403297 L98.9145321,5.82403297 L98.9145321,9.61979017 C98.9145321,10.0128552 99.01614,10.3189889 99.2193558,10.5385657 C99.434594,10.7465268 99.7336005,10.8506946 100.116375,10.8506946 C100.558874,10.8506946 100.935832,10.7349109 101.24686,10.5037182 L102,12.4105897 Z"  ></path></g></g></g></g></g></g></svg>