<svg xmlns="http://www.w3.org/2000/svg" xmlns:xlink="http://www.w3.org/1999/xlink" width="74px" height="26px" viewBox="0 0 74 26"><title>gateio</title><g   stroke="none" stroke-width="1" fill="none" fill-rule="evenodd"><g id="Home-ICO-Crypto-Light" transform="translate(-583.000000, -5747.000000)" fill="#DE5959" fill-rule="nonzero"><g id="body" transform="translate(-0.111111, 1161.000000)"><g id="partner" transform="translate(135.111111, 4395.000000)"><g id="lg-1" transform="translate(400.000000, 144.000000)"><g id="gateio" transform="translate(48.000000, 47.000000)"><path d="M52.3589774,16.9680789 C51.9247768,16.9680789 51.5501575,17.1228474 51.2361516,17.4339579 C50.926136,17.7453421 50.7678259,18.1129684 50.7678259,18.5386158 C50.7678259,19.1875211 51.0988256,19.6922632 51.7561465,20.0529105 C52.4771768,20.2486632 53.0566155,20.1212632 53.4928113,19.6774842 C53.8080556,19.3641842 53.9632698,18.9885526 53.9632698,18.5508632 C53.9632698,18.1078368 53.8080556,17.7374737 53.4928113,17.4340947 C53.1801125,17.1249 52.8043925,16.9704053 52.3580142,16.9704053 L52.3589774,16.9684895 L52.3589774,16.9680789 L52.3589774,16.9680789 Z M26.7657042,4.92836842 L25.5782058,4.92836842 C25.0652973,4.92836842 24.6481593,5.34012632 24.6481593,5.85020526 L24.6481593,6.50889474 C23.3850491,5.20246316 21.9547534,4.54890526 20.3574098,4.54890526 C18.5126593,4.54890526 16.9733835,5.23161053 15.7460495,6.59325789 C14.5152068,7.95490526 13.9022622,9.65694737 13.9022622,11.7004789 C13.9022622,13.7789737 14.5152068,15.5142 15.7424719,16.9049263 C16.9833596,18.2672579 18.5480228,18.9482526 20.443273,18.9482526 C21.9420941,18.9482526 23.3447319,18.3396474 24.6482969,17.1255842 L24.6482969,18.4279105 C24.6482969,19.0605316 25.1654022,19.5747158 25.8005694,19.5747158 L27.8280543,19.5747158 L27.8280543,5.98383158 C27.8280543,5.40238947 27.3514725,4.92836842 26.7657042,4.92836842 L26.7657042,4.92836842 Z M23.7646908,14.9307737 C23.0421469,15.7332158 22.0961386,16.1338211 20.9227444,16.1338211 C19.8236548,16.1338211 18.9131476,15.7190526 18.1931493,14.8895158 C17.488012,14.0700368 17.1364409,13.0036947 17.1364409,11.6984263 C17.1364409,10.4773842 17.4982632,9.44901579 18.2200504,8.61982105 C18.9511943,7.79822105 19.8612199,7.38967895 20.949783,7.38967895 C22.1037755,7.38967895 23.0404269,7.79445789 23.7629708,8.60969474 C24.4857899,9.43909474 24.8471306,10.4914789 24.8471306,11.7697895 C24.8471306,13.0481684 24.4857899,14.1004158 23.7629708,14.9318684 L23.764966,14.9308421 L23.7646908,14.9307737 Z M13.9011614,7.228 L13.9011614,5.88044737 C13.9011614,5.35442632 13.4730841,4.93069474 12.9438699,4.93069474 L11.6924557,4.93069474 C11.1652367,4.93069474 10.736265,5.35244211 10.736265,5.88044737 L10.736265,6.46907368 C9.59169818,5.18987368 8.15665525,4.54911053 6.43086097,4.54911053 C4.46123737,4.54911053 2.87421391,5.28812632 1.67446903,6.76013684 C0.557904073,8.14792105 0,9.83792105 0,11.8250737 C0,13.8675789 0.601592455,15.5716737 1.80278215,16.9322263 C2.99413335,18.2788211 4.5224699,18.9465421 6.38944301,18.9465421 C8.02896133,18.9465421 9.4791404,18.3100211 10.7361962,17.0315737 L10.7361962,18.9345684 C10.7361962,21.7622053 9.57821327,23.1760579 7.26204103,23.1760579 C6.00464125,23.1760579 5.04948251,22.7503421 4.39305597,21.9008947 C4.22566411,21.6859158 4.0866869,21.4168842 3.97612433,21.0955105 C3.82097898,20.6456421 3.39083762,20.3464368 2.91418706,20.3464368 L1.71457978,20.3464368 C1.10961609,20.3464368 0.660004165,20.9187789 0.813016702,21.5011789 C1.14112677,22.7402158 1.7746427,23.7484 2.71789894,24.5286053 C3.89954926,25.5088737 5.40600722,26 7.23376399,26 C9.40008851,26 11.1029034,25.2890368 12.3419334,23.8731316 C12.9983599,23.1361 13.4375142,22.2544263 13.663249,21.2282474 C13.7385168,20.8567211 13.7974101,20.4240947 13.8388969,19.9329684 C13.880246,19.4449211 13.9007486,18.8784632 13.9007486,18.2339368 L13.9007486,16.2537632 C13.0149409,14.9834579 12.569113,13.4661526 12.569113,11.6989737 C12.569113,9.96272105 13.0140465,8.47558947 13.9007486,7.22943684 L13.9007486,7.22841053 L13.9011614,7.228 L13.9011614,7.228 Z M9.8915312,14.8233526 C9.18838906,15.6969526 8.23309272,16.1336842 7.02144533,16.1336842 C5.81138036,16.1336842 4.86427129,15.6996895 4.1781917,14.8312895 C3.55107422,14.0401368 3.23693068,13.0217579 3.23693068,11.7827211 C3.23693068,10.5224737 3.55093662,9.49629474 4.1781917,8.70411579 C4.87397217,7.81936316 5.82004924,7.37674737 7.02144533,7.37674737 C8.14640396,7.37674737 9.07074003,7.78221053 9.79211434,8.59265789 C10.5053014,9.38497368 10.8632021,10.4435842 10.8632021,11.7699947 C10.8632021,13.0100579 10.5386009,14.0262474 9.8913936,14.8215053 L9.8913936,14.8236263 L9.8915312,14.8233526 Z M40.2170473,4.93842632 L40.2170473,4.92843684 L33.6518188,4.92843684 L33.6518188,0.930868421 C33.6518188,0.416821053 33.2339239,6.84210517e-05 32.7158554,6.84210517e-05 L31.4343066,6.84210517e-05 C30.9112844,6.84210517e-05 30.4870599,0.421815789 30.4870599,0.942021053 L30.4870599,4.92850526 L29.1354033,4.92850526 L29.1354033,7.86465789 L30.4853399,7.86465789 L30.4853399,19.5730085 L32.2905301,19.5730085 C32.6512604,19.5737884 32.997446,19.4316401 33.2525408,19.1779911 C33.5076357,18.924342 33.6506251,18.5800878 33.6498923,18.2213474 L33.6498923,7.86657368 L36.8961799,7.86657368 C37.1507401,7.38046887 37.4651441,6.92775992 37.8321433,6.51888421 C38.5046691,5.78992632 39.3002105,5.26171579 40.2150521,4.93842632 L40.2171849,4.93842632 L40.2170473,4.93842632 L40.2170473,4.93842632 Z M56.3703964,0 C55.8089835,0 55.3262785,0.200884211 54.9224878,0.602515789 C54.5205546,1.00305263 54.3165609,1.48008421 54.3165609,2.02936842 C54.3165609,2.60896316 54.5187658,3.09482105 54.9224878,3.4996 C55.3262785,3.90013684 55.815038,4.10006316 56.3864957,4.10006316 C56.9589167,4.10006316 57.440521,3.90020526 57.8334412,3.49843684 C58.2362687,3.09482105 58.4405377,2.61293158 58.4405377,2.04353158 C58.4405377,1.47604737 58.2383327,0.994226316 57.8344732,0.604636842 C57.4295129,0.201021053 56.9421294,0 56.3703964,0 Z M57.011618,6.47071579 L55.8634736,6.47071579 C55.2748844,6.47071579 54.7952066,6.94480526 54.7952066,7.53308947 L54.7952066,17.5283789 C55.0374536,17.8106158 55.1526258,18.1430053 55.1526258,18.5295158 C55.1526258,18.9160263 55.0374536,19.2523842 54.7952066,19.5366737 L54.7952066,20.0991632 L56.832874,20.0991632 C57.4570331,20.0991632 57.9617543,19.5959947 57.9617543,18.9743211 L57.9617543,7.41266842 C57.9617543,6.89239474 57.5358098,6.47071579 57.0105172,6.47071579 L57.011618,6.47071579 L57.011618,6.47071579 Z M71.889748,8.40087368 C70.4639931,7.01199474 68.7282916,6.31711053 66.6836065,6.31711053 C64.6480719,6.31711053 62.9213144,7.00604211 61.5058109,8.38876316 C60.0903073,9.76840526 59.3813171,11.4434211 59.3813171,13.4114842 C59.3813171,15.5001737 60.0740016,17.2354 61.4633609,18.6169579 C62.852789,20.0148684 64.5752121,20.7146789 66.6267772,20.7146789 C68.6989825,20.7146789 70.448857,20.0297842 71.8756438,18.6580789 C73.2891522,17.2753579 74,15.5662684 74,13.5229421 C74,11.4975421 73.2962387,9.79043684 71.889748,8.39868421 L71.889748,8.40087368 L71.889748,8.40087368 Z M69.650082,16.7131421 C68.9110259,17.5073737 67.9214669,17.9000421 66.6838817,17.9000421 C65.4529701,17.9000421 64.4642367,17.5014211 63.7132093,16.6969947 C62.982203,15.9058421 62.6156334,14.8254053 62.6156334,13.4657421 C62.6156334,12.1985158 62.9930735,11.1622105 63.743344,10.3608632 C64.4925138,9.55951579 65.4722343,9.15678947 66.6836065,9.15678947 C67.9104588,9.15678947 68.9010499,9.55951579 69.650082,10.3608632 C70.3915461,11.1520842 70.7628629,12.2126105 70.7628629,13.5340263 C70.7628629,14.8615316 70.3913397,15.9178158 69.650082,16.7110211 L69.650082,16.7131421 Z"  ></path><path d="M41.0286415,16.3134752 C40.3609409,15.6608616 39.9881579,14.7709959 39.9021961,13.6595815 L49.1868518,13.6595815 C49.6105361,13.6595815 49.959875,13.332323 49.9659296,12.9243036 C49.9659296,10.6865191 49.3706737,8.94247745 48.1814993,7.68123386 C46.9800045,6.41244442 45.3472219,5.77777778 43.2849116,5.77777778 C41.2432293,5.77777778 39.6005903,6.43222677 38.3629084,7.73731783 C37.1333229,9.06416268 36.5194805,10.7960358 36.5194805,12.937152 C36.5194805,15.096283 37.1539509,16.8301275 38.4185971,18.1352866 C39.3029271,19.0430992 40.38699,19.631607 41.6732498,19.9060446 C42.2126764,20.0286135 42.7727309,20.0924473 43.3377841,20.0844256 C45.6449555,20.1304484 47.6503803,20.1762674 49.9566365,20.2222222 L49.9599454,19.8959155 C49.67763,19.5997241 49.5361203,19.2425542 49.5361203,18.8253574 C49.5361203,18.4203971 49.6839663,18.0722006 49.9718435,17.7709787 L49.974026,17.3748559 C48.153479,17.3309404 43.745839,17.2889964 43.5702543,17.2889964 C42.5370222,17.2889964 41.6875416,16.9667685 41.028571,16.3153786 L41.028571,16.3134752 L41.0286415,16.3134752 L41.0286415,16.3134752 Z M40.5779225,10.0600101 C40.7817387,9.75464137 41.022446,9.49325607 41.3065919,9.27578621 C41.5906673,9.05532521 41.9028335,8.89060827 42.2499899,8.77497332 C42.5949638,8.6592024 42.9648603,8.60128295 43.3593978,8.60128295 C45.0851121,8.60128295 46.1741032,9.43438489 46.6286239,11.1016085 L40.1184032,11.1016085 C40.2245706,10.7133714 40.3776264,10.3661946 40.5779225,10.0598742 L40.5779225,10.0600101 L40.5779225,10.0600101 Z"  ></path></g></g></g></g></g></g></svg>