<svg width="584" height="600" xmlns="http://www.w3.org/2000/svg">
    <g fill-rule="nonzero" fill="none">
        <path d="M466.555 147.892c-3.402 0-6.35-2.862-6.627-6.32l-4.932-61.942a6.615 6.615 0 0 1 2.815-5.998 6.577 6.577 0 0 1 6.59-.532 6.609 6.609 0 0 1 3.736 5.47l4.997 62.183c.292 3.638-2.413 6.824-6.042 7.118-.181.014-.36.021-.537.021z" fill="#131B5F"/>
        <path d="M534.02 95.467c-10.71-3.376-56.373-18.39-96.554-13.852-3.556.4-7.069.956-10.51 1.684l-4.957-22.06a136.518 136.518 0 0 0 9.865-3.305c42.13-15.932 73.157-50.715 78.633-56.253l23.523 93.786z" fill="#0057FC"/>
        <path d="M537.865 95.617c-7.742 2.01-18.095-11.144-25.261-30.844a135.172 135.172 0 0 1-3.867-12.5 134.61 134.61 0 0 1-2.854-14.038c-2.478-16.804-.984-30.676 3.988-35.952a7.051 7.051 0 0 1 3.365-2.081C522.52-2.207 535.56 17.2 542.36 43.547c6.8 26.346 4.789 49.66-4.496 52.07z" fill="#FFDD0F"/>
        <path d="M512.605 64.773a135.172 135.172 0 0 1-3.866-12.5 134.61 134.61 0 0 1-2.854-14.038c7.258-1.578 14.485 2.86 16.265 10.072 1.737 7.167-2.474 14.431-9.545 16.466z" fill="#FF1F25"/>
        <path d="M429.493 71.013c-1.51-6.053.205-11.798 2.371-13.078a135.621 135.621 0 0 1-9.863 3.304h-.002c-2.408.56-4.395 6.206-3 12.244 1.394 6.037 5.34 10.111 7.841 9.824 3.495-.402 7.07-1.29 10.626-1.692-2.471-.323-6.495-4.678-7.973-10.602zM438.208 61.793a.66.66 0 0 1-.236-1.278c23.96-9.203 41.06-22.116 51.836-31.029a.658.658 0 0 1 .928.09.662.662 0 0 1-.089.93c-22.65 18.732-40.641 26.802-52.203 31.243a.655.655 0 0 1-.236.044zM494.21 27.303a.66.66 0 0 1-.43-1.163 368.822 368.822 0 0 0 4.009-3.487.658.658 0 0 1 1.095.36.662.662 0 0 1-.225.632 381.643 381.643 0 0 1-4.023 3.5.656.656 0 0 1-.426.158z" fill="#131B5F"/>
        <g>
            <path d="M480.238 102.563c0-4.257-5.04-4.788-13.264.531-6.309 4.081-15.394 12.998-3.449 10.107 1.438-.348 2.997-.752 4.593-1.214-6.788 4.274-12.73 10.986-6.184 9.992 1.847-.28 4.937-.922 6.599-1.365-.178.108-.346.212-.498.301-5.868 3.53-13.185 10.852-3.714 9.043a23.905 23.905 0 0 0 3.534-.852c-.647.445-2.29 1.617-2.738 1.916-3.184 2.128-5.04 5.054-2.123 5.32 4.334.394 12.57-3.012 15.917-6.916 1.772-2.065 1.592-4.787-1.591-5.053a21.178 21.178 0 0 0 1.74-1.269c3.008-2.688 3.299-7.241.38-8.04-.026-.007 1.062-1.063 1.592-2.127 1.434-2.874.302-6.144-3.713-5.585 1.57-1.197 2.92-2.928 2.92-4.79z" fill="#FCB6B1"/>
            <g fill="#131B5F">
                <path d="M464.134 114.6a.6.6 0 0 1-.42-.207.681.681 0 0 1-.074-.893.657.657 0 0 1 .425-.283c.152-.106.385-.277.613-.445 10.227-7.499 15.157-7.334 16.776-7.28a.66.66 0 0 1-.044 1.322c-6.083-.203-13.515 5.238-15.952 7.026-.686.501-1.04.76-1.324.76zM463.128 123.57a.66.66 0 0 1-.28-1.26c2.901-1.357 5.329-3.095 7.47-4.629 3.692-2.643 6.879-4.923 10.536-3.64a.66.66 0 1 1-.436 1.247c-3.012-1.058-5.664.841-9.334 3.469-2.188 1.567-4.667 3.343-7.678 4.751a.658.658 0 0 1-.278.062zM463.659 131.55a.661.661 0 0 1-.306-1.247 47.973 47.973 0 0 0 4.768-3.035c3.907-2.703 7.946-5.499 11.496-3.613a.661.661 0 0 1-.617 1.168c-2.844-1.51-6.383.94-10.131 3.533a48.992 48.992 0 0 1-4.906 3.119.658.658 0 0 1-.304.074z"/>
            </g>
        </g>
        <g>
            <path d="M335.867 83.822s-10.552 18.475-25.755 25.464c-13.155 6.048-24.833 2.321-43.608 4.775-22.63 2.958-37.75 22.28-36.69 44.887.782 16.664-2.64 22.288-7.958 28.99-18.57 23.406-2.653 59.045 31.834 56.386 0 0 24.07-1.296 46.423-28.99 29.479-36.526 58.509-103.733 50.599-123.457l-14.845-8.055z" fill="#131B5F"/>
            <path d="M401.22 95.144c-2.262 2.701-11.749 4.498-16.462 4.886-1.65.921-4.136 4.107-6.763 8.656-4.99 8.636-11.591 29.938-12.888 37.761 0 0-10.86 14.929-33.155 2.23 0 0 5.887-10.208-2.953-23.688 0 0 25.965-12.986 23.2-41.183a145.957 145.957 0 0 1-3.226 1.613l-.327.16-.235.113-.405.193c-.298.142-.582.277-.856.405-.105.05-.208.097-.31.144a91.216 91.216 0 0 1-2.615 1.164c-.105.045-.207.087-.307.132-.1.044-.197.079-.292.12-.096.042-.187.08-.276.116l-.264.11-.372.152c-.002 0-.002.003-.004 0-.063.026-.127.053-.187.08l-.69.286c-14.965-9.675-16.398-33.96 1.635-45.907.2-.132.402-.264.604-.392.014-.007.027-.018.04-.026a32.809 32.809 0 0 1 10.238-4.376c8.19-1.868 16.518.303 23.154 5.36a49.962 49.962 0 0 1 7.462 7.2c.687.799 1.33 1.627 1.948 2.474l.02.03c.835 1.142 1.626 2.316 2.428 3.482a83.7 83.7 0 0 0 1.754 2.48c.787 1.062 1.723 2.365 2.801 3.166 1.066.79 2.393 1.03 3.681 1.18 2.757.273 1.703 4.117.286 5.79 1.971 4.732 8.885 19.458 3.336 26.089z" fill="#F4ADA2"/>
            <path d="M384.758 100.03c-1.65.921-4.136 4.107-6.763 8.656-6.656-2.326-9.683-7.87-8.574-9.5 1.026-1.506 3.935-.507 5.669-.123 3.461.77 6.147 1.159 9.668.967zM396.95 81.573c-.29.418-.666.77-1.104 1.027a4.717 4.717 0 0 1-1.368.548 5.208 5.208 0 0 1-2.94-.149 5.314 5.314 0 0 1-1.314-.725 4.898 4.898 0 0 1-1.032-1.087 4.12 4.12 0 0 1-.75-2.83.593.593 0 0 1 1.165-.057l.009.038a4.023 4.023 0 0 0 1.68 2.468c.273.19.57.345.882.46a4.5 4.5 0 0 0 1.996.214 3.922 3.922 0 0 0 1.898-.689l.034-.026a.591.591 0 0 1 .759.049.595.595 0 0 1 .085.758zM383.23 69.814c.868-1.319 3.022-4.434 4.24-8.108a.977.977 0 0 1 1.24-.618c1.324.451 3.333 1.558 2.183 3.955-1.413 2.944-5.613 5.744-7.315 5.548a.501.501 0 0 1-.348-.777z" fill="#131B5F"/>
            <path d="M341.569 88.594s-47.557 9.713-49.414.936c-.991-4.686 23.037-16.284 33.6-21.088 2.81-1.277 4.6-2.05 4.6-2.05l11.147 22.073.053.106a.244.244 0 0 0 .014.023z" fill="#FF1F25"/>
            <path d="M341.502 88.464c-2.021-.835-12.733-5.883-15.746-20.022 2.809-1.277 4.6-2.05 4.6-2.05l11.146 22.072z" fill="#131B5F"/>
            <path d="M386.936 52.957a55.245 55.245 0 0 1-2.449 3.38.119.119 0 0 1-.026.036c-1.374 1.745-3.093 3.758-5.036 5.874l-.444.48a.04.04 0 0 1-.01.012c-6.375 6.893-14.926 14.762-21.248 18.165a295.743 295.743 0 0 1-5.524 2.902 145.957 145.957 0 0 1-3.226 1.613l-.327.16-.236.113-.405.193c-.298.142-.582.277-.855.405-.106.047-.209.097-.31.144a91.216 91.216 0 0 1-2.615 1.164l-.308.132c-.1.042-.197.079-.292.12-.096.042-.187.08-.276.116-.089.036-.177.074-.263.11-.13.053-.253.102-.372.152-.003 0-.002.003-.005 0-.063.026-.127.053-.187.08l-.69.286c-14.965-9.675-16.398-33.96 1.636-45.907.2-.132.4-.264.603-.392.014-.007.027-.018.041-.026a32.809 32.809 0 0 1 10.238-4.376c8.19-1.868 16.518.303 23.154 5.36.465.354.919.719 1.363 1.094a52.646 52.646 0 0 1 6.1 6.106 39.645 39.645 0 0 1 1.97 2.504z" fill="#FF1F25"/>
            <path d="M357.725 80.904s-7.835-2.81-13.181 2.244c-5.043 4.767-.145 13.602 12.726 14.04a23.934 23.934 0 0 0 7.67-1.184l-7.215-15.1z" fill="#F4ADA2"/>
            <path d="M355.78 98.128a22.308 22.308 0 0 1-8.762-1.88.66.66 0 1 1 .515-1.217c7.825 3.329 13.44.91 13.495.885a.662.662 0 0 1 .539 1.206c-.147.065-2.301 1.006-5.786 1.006zM361.31 90.343a.656.656 0 0 1-.403-.138c-6.084-4.71-11.252-1.794-11.47-1.668a.658.658 0 0 1-.899-.237.662.662 0 0 1 .232-.903c.247-.146 6.13-3.513 12.942 1.762a.662.662 0 0 1-.404 1.184h.001zM386.936 52.957a55.245 55.245 0 0 1-2.449 3.38.119.119 0 0 1-.026.036c-1.374 1.745-3.093 3.758-5.036 5.874l-.444.48c-2.274-1.533-5.036-5.355-5.191-8.862-.156-3.506 1.48-6.846 5.076-9.518a52.646 52.646 0 0 1 6.1 6.106 39.37 39.37 0 0 1 1.97 2.504z" fill="#131B5F"/>
            <path d="M148.476 413.893s13.907 33.356-6.826 40.721c-20.3 7.213-31.147-26.65-18.798-61.718 10.477-29.748 21.917-46.79 26.052-52.56 0 0-13.794 27.13-.428 73.557zM338.048 477.842c-3.55-2.475-22.813-14.895-31.302-7.182-8.067 7.33-3.027 25.754 20.956 35.374 22.673 9.094 45.343 3.239 81.441-8.245 0 0-43.24-.532-71.095-19.947z" fill="#101A6F"/>
            <path d="M220.795 410.552c-11.768 7.123-35.935 2.473-52.183-2.665-.138-.04-.273-.085-.409-.127-11.86-3.788-23.784-9.81-35.404-15.666l-3.07-1.545a639.043 639.043 0 0 1-15.584-8.112 660.623 660.623 0 0 1-5.635-3.056c-24.724-13.565-43.268-25.565-43.699-25.852a.04.04 0 0 1-.008-.005c-.003-.003 15.001-26.709 18.89-33.632l.916-1.622c11.531 10.67 23.458 15.918 40.664 19.096 1.709.317 3.472.614 5.29.891.517.083 1.043.159 1.57.237 5.459.795 11.426 1.447 18.02 2.042.868.08 1.746.158 2.635.234 33.69 2.913 54.735 12.363 54.735 12.363l13.272 57.42zM409.143 497.789c-1.17 4.615-2.777 10.288-4.602 16.384-4.383 14.63-10.036 31.692-13.967 42.395-.022.055-2.682 2.202-7.56 4.005-.159.059-.322.115-.484.173-5.57 1.97-12.608 3.668-17.845 2.242l-.002.003c-3.773-1.027-10.453-19.19-10.718-21.051l.048-.306a366.362 366.362 0 0 0 2.934-23.073c.196-2.059.37-4.075.52-6.048.294-3.798.512-7.42.66-10.82.285-6.622.299-12.391.084-16.936l50.932 13.032z" fill="#FCB6B1"/>
            <path d="M.862 375.513c-.952-4.887 1.268-14.418 11.425-25.913l49.4-55.909c8.13 10.141 22.158 26.464 40.727 37.153-6.312 4.745-10.796 1.439-17.258 5.656-7.485 4.884-12.042 15.537-30.444 26.845-.298.183-.58.381-.867.57-.08.053-.158.106-.237.156a90.21 90.21 0 0 1-15.57 8.155c-21.023 8.408-35.604 3.825-37.056 3.33a.002.002 0 0 1-.004 0c-.033-.01-.06-.022-.079-.029l-.037-.014z" fill="#131B5F"/>
            <path d="M14.386 378.05c-7.636 0-12.573-1.516-13.58-1.855a1.607 1.607 0 0 1-.14-.05l-.027-.01a.668.668 0 0 1-.424-.495c-1.032-5.297 1.467-15.035 11.578-26.478l49.4-55.91a.658.658 0 0 1 .984-.002c1.76 1.976 3.432 3.882 5.049 5.725 10.692 12.19 19.138 21.818 35.193 31.06a.661.661 0 1 1-.656 1.146c-16.245-9.35-24.754-19.052-35.527-31.333a1064.473 1064.473 0 0 0-4.548-5.162L12.78 350.039C3.227 360.85.661 369.944 1.444 375.013c2.558.817 17.157 4.804 37.017-3.139a90.006 90.006 0 0 0 15.456-8.095l.237-.156c.095-.061.19-.125.285-.19.197-.132.393-.264.597-.389 3.904-2.399 10.069-6.93 12.216-8.979a.658.658 0 0 1 .932.023.662.662 0 0 1-.023.935c-2.197 2.096-8.473 6.713-12.436 9.148-.188.116-.369.238-.55.36l-.3.2-.242.158A91.312 91.312 0 0 1 38.95 373.1c-9.63 3.852-18.074 4.95-24.565 4.95z" fill="#101A6F"/>
            <path d="M71.687 343.275a.662.662 0 0 1-.544-1.033c3.95-5.82 4.106-8.089 4.416-12.61.083-1.207.177-2.577.36-4.2.87-7.787 4.262-11.074 4.406-11.21a.658.658 0 0 1 .927.031.662.662 0 0 1-.02.93c-.033.03-3.191 3.134-4.003 10.396-.18 1.596-.272 2.95-.355 4.146-.316 4.607-.49 7.145-4.642 13.262a.66.66 0 0 1-.545.288zM5.448 377.271a.659.659 0 0 1-.656-.734c1.062-9.585 5.416-18.16 12.94-25.483 4.895-4.766 11.161-9.002 18.623-12.591 4.556-2.191 6.105-4.692 7.604-7.11 1.283-2.07 2.61-4.21 5.69-6.036 2.429-1.439 4.645-1.838 6.787-2.224 2.827-.51 5.496-.99 8.701-3.762 2.962-2.563 4.878-5.633 5.696-9.126a13.4 13.4 0 0 0 .342-4.518.66.66 0 0 1 1.303-.198c.051.333 1.154 8.238-6.48 14.842-3.476 3.009-6.45 3.544-9.327 4.063-2.122.382-4.125.743-6.35 2.062-2.802 1.66-3.987 3.571-5.241 5.596-1.599 2.578-3.251 5.245-8.153 7.602-7.333 3.528-13.482 7.682-18.275 12.348-7.3 7.106-11.52 15.412-12.548 24.683a.66.66 0 0 1-.656.586z" fill="#101A6F"/>
            <path d="M54.776 319.012a3.947 3.947 0 0 1-2.69-.946c-2.273-2.02-1.496-6.496 1.77-10.192 1.514-1.715 3.34-2.984 5.14-3.574 1.923-.63 3.605-.423 4.739.585 2.273 2.02 1.496 6.496-1.769 10.192-2.23 2.522-4.958 3.935-7.19 3.935zm-1.814-1.935c1.663 1.476 5.334.158 8.017-2.877 2.682-3.035 3.544-6.85 1.881-8.327-.769-.683-1.995-.796-3.454-.317-1.58.518-3.201 1.652-4.563 3.194-2.683 3.036-3.545 6.849-1.882 8.327z" fill="#101A6F"/>
            <path d="M51.858 367.905c-.668 0-1.29-.34-1.655-.9a1.988 1.988 0 0 1-.154-1.882c2.02-4.602 2.79-9.332 2.287-14.06-.378-3.552-1.374-5.773-1.384-5.795a1.987 1.987 0 0 1 .179-1.975 1.976 1.976 0 0 1 3.411.31c.195.419 4.7 10.423-.873 23.117a1.977 1.977 0 0 1-1.811 1.185zM42.325 372.603a1.977 1.977 0 0 1-1.697-.969 1.987 1.987 0 0 1-.04-1.958c5.455-10.096 1.75-19.938 1.712-20.036a1.987 1.987 0 0 1 .293-1.96 1.975 1.975 0 0 1 3.387.51c.185.468 4.444 11.607-1.914 23.375a1.977 1.977 0 0 1-1.74 1.038zM33.003 376.136c-.701 0-1.35-.373-1.704-.98a1.987 1.987 0 0 1-.022-1.968c5.036-9.061 2.03-17.515 1.998-17.6a1.987 1.987 0 0 1 .336-1.953 1.975 1.975 0 0 1 3.376.583c.152.414 3.657 10.265-2.255 20.9a1.977 1.977 0 0 1-1.73 1.018z" fill="#FFDD0F"/>
            <path d="M439.385 590.903c-3.144 4.005-12 8.647-27.678 8.429l-76.326-1.061c3.258-15.467 10.626-33.192 18.584-57.13 6.229 2.082 10 10.928 18.304 11.97 8.02 1.004 12.723 1.831 21.727 4.049.346.085.682.195 1.02.293l.28.079a92.292 92.292 0 0 1 16.71 6.66c20.549 10.728 26.746 25.129 27.334 26.588a.002.002 0 0 1 .002.002c.014.034.023.062.03.081l.013.04z" fill="#131B5F"/>
            <path d="M412.763 600c-.352 0-.706-.003-1.065-.007l-75.914-1.14a.659.659 0 0 1-.63-.82c3.685-14.987 8.851-29.67 13.847-43.872 1.48-4.209 3.011-8.56 4.473-12.835a.66.66 0 1 1 1.247.428c-1.463 4.28-2.995 8.635-4.477 12.848-4.895 13.916-9.954 28.296-13.61 42.942l75.083 1.128c14.76.201 23.516-3.884 26.911-7.884-1.067-2.512-7.73-16.553-27.17-26.703-3.923-2.046-14.732-5.993-20.653-7.542a.661.661 0 0 1 .333-1.279c5.99 1.567 16.943 5.57 20.929 7.648 20.48 10.693 27.11 25.72 27.87 27.585l.015.035.037.098.015.044c.08.216.04.457-.1.638-3.328 4.238-12.186 8.688-27.14 8.688z" fill="#101A6F"/>
            <path d="M344.776 570.933c-.166 0-.264-.007-.288-.01a.66.66 0 0 1-.482-1.037.659.659 0 0 1 .598-.28c.058.005 4.008.25 9.89-4.282 1.3-1.002 2.362-1.895 3.3-2.683 3.61-3.037 5.598-4.71 13.04-5.987a.658.658 0 0 1 .736.882.66.66 0 0 1-.514.42c-7.09 1.217-8.87 2.714-12.415 5.697-.948.797-2.02 1.7-3.344 2.72-5.5 4.237-9.447 4.56-10.521 4.56zM413.775 594.321c-1.503 0-3.03-.07-4.582-.208-6.955-.622-14.416-2.664-22.177-6.067-4.742-2.08-7.714-1.615-10.587-1.164-2.457.385-4.998.784-8.464-.39-2.718-.922-4.494-2.39-6.213-3.812-2.283-1.889-4.44-3.673-8.755-4.23-4.298-.555-7.234.165-8.94.867-1.838.757-2.682 1.655-2.69 1.664a.658.658 0 0 1-.921.032.662.662 0 0 1-.053-.923c.153-.168 3.832-4.106 12.773-2.95 4.691.606 7.098 2.596 9.426 4.521 1.7 1.407 3.307 2.736 5.795 3.579 3.16 1.07 5.432.714 7.839.337 3.06-.48 6.225-.975 11.319 1.26 7.63 3.346 14.953 5.352 21.766 5.96 10.379.93 19.626-1.337 27.488-6.735a.658.658 0 0 1 1.036.492.661.661 0 0 1-.291.598c-6.943 4.764-14.922 7.168-23.769 7.17z" fill="#101A6F"/>
            <path d="M351.867 594.872c-.07 0-.14 0-.211-.002-5.032-.07-8.939-2.56-8.897-5.668.021-1.548 1.022-2.963 2.817-3.984 1.683-.958 3.895-1.472 6.233-1.434 2.336.032 4.535.603 6.191 1.607 1.767 1.07 2.727 2.511 2.706 4.06-.021 1.55-1.022 2.964-2.817 3.985-1.632.928-3.764 1.436-6.022 1.436zm-.27-9.768c-2.032 0-3.933.446-5.37 1.264-1.37.78-2.136 1.793-2.149 2.853-.031 2.288 3.448 4.27 7.597 4.327 2.107.033 4.082-.418 5.563-1.262 1.371-.78 2.135-1.793 2.15-2.853.014-1.06-.721-2.093-2.07-2.91-1.46-.885-3.422-1.388-5.528-1.417a9.335 9.335 0 0 0-.193-.002z" fill="#101A6F"/>
            <path d="M384.607 574.588a1.976 1.976 0 0 1-1.66-.909 1.987 1.987 0 0 1-.14-1.891c.194-.431 4.915-10.6 18.437-14.74a1.974 1.974 0 0 1 1.927.446 1.986 1.986 0 0 1-.772 3.346c-11.83 3.623-15.949 12.492-15.989 12.583a1.977 1.977 0 0 1-1.803 1.165zM393.821 578.286a1.976 1.976 0 0 1-1.689-.957 1.987 1.987 0 0 1-.059-1.945c.237-.456 6-11.191 19.33-14.105a1.983 1.983 0 0 1 .844 3.874c-11.477 2.51-16.623 11.984-16.674 12.08a1.982 1.982 0 0 1-1.752 1.053zM404.472 581.292a1.977 1.977 0 0 1-1.7-.977 1.987 1.987 0 0 1-.027-1.965c.218-.394 5.487-9.684 17.643-12.187a1.983 1.983 0 0 1 .796 3.884c-10.32 2.126-14.939 10.152-14.984 10.234a1.981 1.981 0 0 1-1.728 1.01z" fill="#FFDD0F"/>
            <path d="M255.945 244.585a.656.656 0 0 1-.2-.031c-5.908-1.877-12.663-8.77-14.75-15.049-.926-2.784-.523-5.523 1.079-7.327 1.573-1.773 4.097-2.405 7.108-1.774a.66.66 0 0 1 .367 1.093.658.658 0 0 1-.636.2c-2.529-.528-4.608-.045-5.854 1.36-1.283 1.446-1.587 3.701-.813 6.03 1.938 5.83 8.433 12.47 13.899 14.207a.661.661 0 0 1-.2 1.291z" fill="#131B5F"/>
            <path d="M268.398 236.444c-22.136 11.337-33.85 20.617-48.93 51.232-10.61 21.543-14.59 44.15-25.698 60.654-12.502-4.535-32.132-7.195-43.615-7.792-7.617 8.842-11.597 29.322-5.76 58.312 6.643 33 11.407 48.406-2.745 55.765 14.152-4.7 108.591-38.211 143.077-114.81 0 0 54.117 48.673 64.198 74.205-6.102 24.735-35.813 51.597-42.18 56.651 10.612-7.979 32.461 10.199 51.779 18.663 19.317 8.465 41.865 10.061 50.62 8.466 6.1-19.682 20.956-85.11-8.224-141.495-31.592-61.043-54.891-88.175-54.891-88.175l-77.63-31.676z" fill="#131B5F"/>
            <path d="M325.315 125.17c-8.489 11.17-56.373 71.146-83.43 97.21 10.876-6.382 21.222 15.427 49.077 29.257 27.854 13.83 46.423 16.224 59.952 16.756l-25.6-143.223z" fill="#0057FC"/>
            <path d="M383.146 199.64c-7.693 10.639-27.006 19.443-41.755 22.754-14.75 3.31-44.489 2.505-47.909 15.014-4.51 16.49 67.646 17.553 89.664-37.768z" fill="#101A6F"/>
            <path d="M520.03 209.215s3.714 8.512-7.163 12.767c-10.16 3.976-18.214 5.224-45.803 20.384-25.974 14.272-104.734 75.882-140.39-.894a98.748 98.748 0 0 1-1.12-2.492c-.064-.15-.13-.298-.194-.447a136.64 136.64 0 0 1-4.82-13.054l62.606-25.839c19.1-21.277 35.813-55.32 44.036-69.948 8.224-14.627 14.32-22.423 21.753-28.458 5.571-4.52 19.572-21.03 13.73-2.851-3.65 11.362-4.976 14.022-4.976 14.022l1.976 25.731s-12.438 49.68-24.453 68.564c8.868-1.903 17.419-3.862 23.804-5.729 19.101-5.587 32.725-17.102 39.792-31.916 5.836-12.235 5.836 4.787 4.509 13.032-.812 5.051-.475 6.288 3.714 4.788 11.141-3.99 13.794 1.063 12.202 5.319 0 0 3.184 2.926.796 8.512.001-.002 2.92 2.658.001 8.51z" fill="#FCB6B1"/>
            <g fill="#131B5F">
                <path d="M377.443 223.573a.66.66 0 0 1-.33-1.233 112.267 112.267 0 0 1 14.933-6.926c-3.054-4.281-7.015-11.459-9.637-17.505a.662.662 0 0 1 .679-.925.66.66 0 0 1 .53.397c2.653 6.12 6.685 13.398 9.715 17.563 5.477-1.923 13.318-3.55 23.174-5.596 6.014-1.247 12.83-2.662 20.001-4.346a.658.658 0 0 1 .782.835.66.66 0 0 1-.48.452c-7.189 1.688-14.014 3.104-20.036 4.354-10.084 2.093-18.05 3.746-23.454 5.71a110.774 110.774 0 0 0-15.547 7.132.654.654 0 0 1-.33.088zM515.122 196.179a.66.66 0 0 1-.129-1.309c.198-.04 4.887-1.061 5.848-6.125a.66.66 0 0 1 1.079-.376.662.662 0 0 1 .217.624c-1.132 5.953-6.828 7.162-6.885 7.173a.66.66 0 0 1-.13.013zM515.918 205.222a.66.66 0 0 1-.206-1.289 10.288 10.288 0 0 0 4.7-3.73.658.658 0 0 1 .915-.18.662.662 0 0 1 .178.918 11.448 11.448 0 0 1-5.38 4.247.654.654 0 0 1-.207.034zM515.387 214.265a.66.66 0 0 1-.198-1.291c.034-.011 3.512-1.152 5.074-4.087a.659.659 0 1 1 1.163.622c-1.82 3.42-5.677 4.673-5.84 4.725a.66.66 0 0 1-.199.03zM448.23 133.214a.662.662 0 0 1-.536-1.045c5.609-7.872 7.36-12.652 9.053-17.275.712-1.945 1.386-3.782 2.325-5.824a.659.659 0 1 1 1.197.556c-.917 1.992-1.582 3.806-2.284 5.724-1.724 4.706-3.507 9.57-9.218 17.588a.659.659 0 0 1-.537.276z"/>
            </g>
            <path d="M383.143 199.645c0 .002-.003.005-.006.01a1.032 1.032 0 0 1-.116.151c.043-.053.082-.108.122-.161z" fill="#21A0AA"/>
            <path d="M383.143 199.645c0 .002-.003.005-.006.01a.998.998 0 0 1-.11.143l.116-.153z" fill="#5B2448"/>
            <path d="M383.146 199.64a.008.008 0 0 1-.003.006l-.005.01c-.382.697-18.826 19.933-51.987 24.985-22.458 3.423-31.482 5.032-35.194 8.796a10.299 10.299 0 0 0-2.436 3.856l-.002.008c-.014.035-.024.072-.037.106.093-.436.21-.905.35-1.405l.026-.098c2.258-8.04 9.919-23.764 13.153-39.722l.254-1.264c4.147-20.71 6.15-36.671 9.418-49.31 1.496-5.793 3.258-10.886 5.613-15.418a45.311 45.311 0 0 1 3.019-5.022c13.524-19.47 30.507-.799 38.2 17.021 7.694 17.82 14.06 46.28 19.63 57.451z" fill="#0057FC"/>
            <path d="m294.653 238.291-1.293-.254.044-.23c.094-.484.211-1.084.315-1.46l.02-.077c.807-2.873 2.31-6.737 4.049-11.211 3.24-8.334 7.272-18.705 9.36-29.008l.255-1.263c1.728-8.63 3.102-16.545 4.314-23.527 1.717-9.887 3.2-18.426 5.111-25.817 1.404-5.437 3.755-14.538 6.189-19.219.18-.349.364-.71.55-1.078a37.793 37.793 0 0 1 2.474-4.388c4.105-5.91 8.425-5.873 12.604-5.838l.617.004-.007 1.322-.621-.005c-4.187-.034-7.803-.065-11.511 5.273a36.804 36.804 0 0 0-2.38 4.232c-.189.37-.374.735-.557 1.088-2.364 4.55-4.692 13.559-6.082 18.941-1.898 7.34-3.376 15.854-5.089 25.712-1.213 6.99-2.59 14.914-4.32 23.563l-.256 1.263c-2.109 10.416-6.165 20.845-9.423 29.226-1.727 4.441-3.217 8.278-4.002 11.068l-.021.081c-.095.339-.206.91-.294 1.37l-.046.232z" fill="#131B5F"/>
        </g>
        <g fill="#FFDD0F">
            <path d="M560.615 41.465a.654.654 0 0 1-.64-.587.66.66 0 0 1 .495-.717l20.312-4.778a.642.642 0 0 1 .628.188.67.67 0 0 1 .147.65.654.654 0 0 1-.483.45l-20.311 4.777a.64.64 0 0 1-.148.017zM552.263 18.427a.65.65 0 0 1-.6-.407.67.67 0 0 1 .14-.72l14.742-15a.642.642 0 0 1 .632-.18c.227.06.404.24.464.471a.668.668 0 0 1-.177.643l-14.742 15a.64.64 0 0 1-.459.193zM583.351 71.329a.645.645 0 0 1-.17-.023l-20.127-5.522a.662.662 0 0 1-.459-.81.648.648 0 0 1 .796-.466l20.128 5.522a.66.66 0 0 1 .475.725.653.653 0 0 1-.643.574z"/>
        </g>
        <g>
            <path d="M149.22 154.56a.664.664 0 0 1-.285-1.26c3.437-1.66 5.99-4.918 7.587-9.684 3.954-11.802 1.301-31.755-6.17-46.413a.666.666 0 0 1 .323-.91c.095-.042 9.633-4.215 19.058-8.316 5.536-2.409 9.95-4.322 13.12-5.686a651.57 651.57 0 0 1 4.341-1.854c.53-.223.946-.395 1.231-.51.499-.201.97-.39 1.261.126 7.993 14.16 10.938 33.639 7.003 46.318-1.722 5.55-4.714 9.493-8.651 11.405-.498.242-14.336 6.237-29.705 12.894-4.045 1.751-7.332 3.175-8.853 3.835a.649.649 0 0 1-.26.055zm2.622-57.332c7.373 14.881 9.928 34.876 5.93 46.811-.97 2.892-2.274 5.268-3.915 7.126l3.955-1.713c10.896-4.72 29.13-12.616 29.654-12.87 3.6-1.747 6.356-5.414 7.965-10.607 3.79-12.216 1.005-30.954-6.618-44.779-3.666 1.49-26.962 11.654-36.971 16.032z" fill="#0057FC"/>
            <g fill="#0057FC">
                <path d="M126.46 149.486a83.58 83.58 0 0 1-.704-.424l38.026-16.458c9.591 5.862 16.795 7.173 21.998 5.43-7.887 3.422-36.62 15.966-37.457 16.252-6.199 2.117-12.272.908-21.862-4.8z"/>
                <path d="M142.627 155.927c-4.684 0-9.778-1.869-16.502-5.87-.236-.14-.473-.284-.712-.43a.664.664 0 0 1 .082-1.175l38.025-16.458a.656.656 0 0 1 .604.042c8.803 5.38 16.02 7.187 21.448 5.368.335-.114.7.06.827.392a.664.664 0 0 1-.358.846c-2.253.978-6.209 2.7-10.729 4.669-14.819 6.453-26.2 11.405-26.778 11.602a18.035 18.035 0 0 1-5.907 1.014zm-15.424-6.77c9.007 5.295 14.897 6.556 20.908 4.5.647-.228 15.691-6.78 26.678-11.563l6.161-2.683c-4.87-.057-10.637-2.085-17.22-6.065l-36.527 15.81z"/>
            </g>
            <g fill="#FF1F25">
                <path d="M171.201 126.584a.658.658 0 0 1-.53-.268.666.666 0 0 1-.1-.588l8.476-27.975a.657.657 0 0 1 1.113-.26c.161.173.218.42.149.646l-8.477 27.975a.66.66 0 0 1-.63.47zM166.744 113.205a3.204 3.204 0 0 1-2.304-.921 3.276 3.276 0 0 1-.906-2.649 4.39 4.39 0 0 1 1.29-2.693c1.57-1.58 3.954-1.752 5.313-.386a3.277 3.277 0 0 1 .906 2.649 4.391 4.391 0 0 1-1.29 2.693 4.295 4.295 0 0 1-3.009 1.307zm1.087-6.25a2.993 2.993 0 0 0-2.074.925 3.062 3.062 0 0 0-.909 1.871c-.072.584.12 1.17.525 1.596.844.848 2.392.675 3.448-.387.512-.497.833-1.16.909-1.871a1.969 1.969 0 0 0-.525-1.596 1.901 1.901 0 0 0-1.375-.539zM182.829 121.729a3.204 3.204 0 0 1-2.304-.921 3.276 3.276 0 0 1-.906-2.65 4.39 4.39 0 0 1 1.29-2.692c1.57-1.58 3.954-1.753 5.313-.386a3.276 3.276 0 0 1 .905 2.648 4.39 4.39 0 0 1-1.29 2.693 4.295 4.295 0 0 1-3.008 1.308zm1.086-6.25a2.992 2.992 0 0 0-2.074.924 3.062 3.062 0 0 0-.909 1.872c-.071.584.121 1.17.525 1.595.844.849 2.392.676 3.448-.386.512-.498.833-1.16.909-1.871a1.969 1.969 0 0 0-.525-1.596 1.902 1.902 0 0 0-1.374-.539z"/>
            </g>
            <path d="M230.632 527.622c-.545 0-1.1-.016-1.667-.05-13.187-.786-30.265-10.45-40.608-22.976-.377-.457-.034-.833.329-1.23.208-.228.516-.559.91-.977.743-.79 1.84-1.942 3.26-3.426 2.392-2.5 5.734-5.974 9.933-10.327 7.15-7.413 14.406-14.906 14.479-14.98a.702.702 0 0 1 .484-.2.656.656 0 0 1 .477.217c10.991 12.213 28.614 21.768 40.99 22.227 4.999.183 8.932-1.064 11.693-3.71.26-.251.67-.246.924.01.254.257.256.671.005.93-1.156 1.2-3.656 3.801-6.73 6.999-11.616 12.083-22.076 22.96-22.476 23.343-2.86 2.73-6.986 4.15-12.003 4.15zm-40.901-23.442c10.163 12.06 26.607 21.311 39.312 22.068 5.4.32 9.784-.97 12.685-3.739.422-.403 14.202-14.737 22.435-23.302l3.022-3.144c-2.302.884-4.98 1.273-8.014 1.16-12.516-.462-30.212-9.94-41.445-22.14-7.615 7.864-25.313 26.175-27.995 29.097z" fill="#0057FC"/>
            <g fill="#0057FC">
                <path d="M275.317 469.706c-.047-.269-.095-.54-.146-.814l-28.765 29.938c2.058 11.094.73 18.333-2.733 22.61 5.974-6.207 27.81-28.79 28.372-29.475 4.164-5.08 5.188-11.22 3.272-22.259z"/>
                <path d="M243.672 522.102a.66.66 0 0 1-.596-.378.666.666 0 0 1 .085-.703c3.613-4.462 4.486-11.888 2.596-22.07a.665.665 0 0 1 .174-.584l28.765-29.937a.657.657 0 0 1 1.122.339c.052.276.1.55.148.822 1.92 11.065.964 17.455-3.413 22.793-.386.472-8.982 9.384-20.18 20.986-3.467 3.592-6.505 6.74-8.228 8.529a.655.655 0 0 1-.473.203zm3.443-23.057c1.373 7.598 1.219 13.738-.452 18.34 1.407-1.46 3.033-3.143 4.764-4.938 8.3-8.6 19.669-20.379 20.11-20.906 4.037-4.925 4.948-10.91 3.21-21.254l-27.632 28.758z"/>
            </g>
            <g fill="#FF1F25">
                <path d="M227.685 518.217a.66.66 0 0 1-.627-.458l-8.993-27.813a.666.666 0 0 1 .134-.653.657.657 0 0 1 1.12.244l8.993 27.812a.666.666 0 0 1-.093.595.658.658 0 0 1-.534.273zM214.914 510.32a3.07 3.07 0 0 1-.54-.049 3.25 3.25 0 0 1-2.252-1.649 4.402 4.402 0 0 1-.477-2.95c.387-2.2 2.242-3.715 4.134-3.377a3.25 3.25 0 0 1 2.252 1.649 4.543 4.543 0 0 1-.98 5.556 3.31 3.31 0 0 1-2.137.82zm.33-6.746c-1.067 0-2.063.978-2.3 2.33a3.07 3.07 0 0 0 .32 2.057 1.853 1.853 0 0 0 2.94.524 3.214 3.214 0 0 0 .684-3.879 1.953 1.953 0 0 0-1.339-1.005 1.749 1.749 0 0 0-.305-.027zM232.944 508.039c-.178 0-.355-.016-.53-.047a3.25 3.25 0 0 1-2.252-1.65 4.404 4.404 0 0 1-.477-2.95c.388-2.199 2.242-3.715 4.135-3.377a3.25 3.25 0 0 1 2.251 1.65c.498.896.667 1.94.477 2.95-.35 1.994-1.907 3.424-3.604 3.424zm.34-6.745c-1.067 0-2.062.978-2.3 2.33a3.071 3.071 0 0 0 .321 2.057c.274.52.765.89 1.339 1.006 1.178.208 2.346-.824 2.606-2.304a3.07 3.07 0 0 0-.322-2.057 1.955 1.955 0 0 0-1.339-1.005 1.753 1.753 0 0 0-.305-.027z"/>
            </g>
            <g>
                <g fill="#0057FC">
                    <path d="M445.851 383.797c-.262-.07-.527-.14-.793-.215l32.083-26.307c10.822 2.995 18.108 2.27 22.637-.84-6.653 5.465-30.866 25.447-31.594 25.953-5.383 3.745-11.553 4.255-22.333 1.41z"/>
                    <path d="M457.449 386.283c-3.306 0-7.131-.62-11.765-1.845-.265-.07-.532-.142-.802-.217a.665.665 0 0 1-.242-1.153l32.084-26.307a.657.657 0 0 1 .591-.125c9.933 2.748 17.366 2.497 22.09-.748a.657.657 0 0 1 .9.15.665.665 0 0 1-.11.91c-1.912 1.57-5.272 4.339-9.11 7.499-12.456 10.26-22.025 18.137-22.526 18.485-3.23 2.25-6.71 3.35-11.11 3.35zm-10.973-3.008c10.104 2.61 16.113 2.201 21.333-1.432.56-.398 13.207-10.814 22.443-18.42 1.91-1.575 3.703-3.05 5.258-4.33-4.701 1.287-10.799.926-18.214-1.088l-30.82 25.27z"/>
                </g>
                <path d="M468.94 382.431a.665.665 0 0 1-.438-1.159c2.856-2.543 4.423-6.38 4.66-11.402.585-12.44-7.405-30.898-18.586-42.936a.665.665 0 0 1 .063-.964c.08-.066 8.115-6.707 16.06-13.248 4.669-3.843 8.393-6.9 11.07-9.085 1.59-1.3 2.825-2.301 3.669-2.98.448-.36.801-.64 1.044-.83.425-.33.827-.641 1.247-.225 10.934 10.81 21.675 27.916 21.023 41.766-.28 5.926-2.6 10.71-6.896 14.22-6.81 5.563-18.64 15.294-26.467 21.733-2.637 2.17-4.773 3.928-6.032 4.962a.657.657 0 0 1-.416.148zm-12.924-55.885c11.147 12.279 19.055 30.804 18.463 43.384-.143 3.043-.752 5.69-1.818 7.921l1.895-1.558c7.827-6.44 19.657-16.172 26.47-21.737 3.992-3.261 6.149-7.72 6.41-13.253.625-13.275-9.647-29.744-20.233-40.363-3.118 2.44-22.754 18.637-31.187 25.606z" fill="#0057FC"/>
                <g fill="#FF1F25">
                    <path d="M485.31 351.022h-.038a.658.658 0 0 1-.62-.7l1.703-29.196a.66.66 0 0 1 .697-.623.662.662 0 0 1 .62.701l-1.703 29.195a.66.66 0 0 1-.658.623zM477.182 339.158a3.09 3.09 0 0 1-1.63-.457 3.267 3.267 0 0 1-1.5-2.36 4.401 4.401 0 0 1 .625-2.922c1.158-1.906 3.434-2.638 5.074-1.63 1.64 1.007 2.033 3.376.875 5.282a4.365 4.365 0 0 1-2.3 1.894 3.563 3.563 0 0 1-1.144.193zm.931-6.501c-.844 0-1.753.534-2.31 1.452a3.066 3.066 0 0 0-.446 2.034c.053.59.38 1.118.882 1.427a1.85 1.85 0 0 0 1.666.137 3.043 3.043 0 0 0 1.595-1.327c.78-1.283.583-2.835-.436-3.461a1.799 1.799 0 0 0-.95-.262zM494.809 343.643a3.092 3.092 0 0 1-1.63-.457 3.268 3.268 0 0 1-1.5-2.36 4.401 4.401 0 0 1 .625-2.922c1.157-1.906 3.433-2.638 5.074-1.63a3.267 3.267 0 0 1 1.499 2.36 4.402 4.402 0 0 1-.625 2.922 4.363 4.363 0 0 1-2.3 1.893 3.555 3.555 0 0 1-1.143.194zm.93-6.5c-.843 0-1.753.533-2.31 1.451a3.066 3.066 0 0 0-.446 2.034c.053.59.38 1.118.883 1.427a1.85 1.85 0 0 0 1.665.137 3.044 3.044 0 0 0 1.596-1.327 3.07 3.07 0 0 0 .446-2.034 1.965 1.965 0 0 0-.883-1.427 1.803 1.803 0 0 0-.95-.262z"/>
                </g>
            </g>
            <g>
                <g fill="#0057FC">
                    <path d="M162.478 290.733c.27-.029.543-.059.818-.091l-27.753-30.89c-11.148 1.313-18.24-.511-22.25-4.275 5.754 6.414 26.68 29.852 27.322 30.463 4.757 4.522 10.78 5.965 21.863 4.793z"/>
                    <path d="M155.845 291.786c-7.122 0-11.788-1.663-15.683-5.364-.443-.421-8.724-9.673-19.504-21.725-3.308-3.699-6.204-6.937-7.854-8.777a.666.666 0 0 1 .03-.915.657.657 0 0 1 .91-.013c4.182 3.926 11.49 5.308 21.723 4.102a.657.657 0 0 1 .565.214l27.752 30.89a.666.666 0 0 1-.412 1.102c-.278.033-.553.063-.825.092-2.226.249-4.462.38-6.702.394zm-38.73-33.034 4.524 5.058c7.99 8.934 18.935 21.17 19.43 21.649 4.612 4.384 10.49 5.705 20.871 4.663l-26.658-29.672c-7.633.862-13.716.29-18.168-1.698z"/>
                </g>
                <path d="M139.961 285.874a.653.653 0 0 1-.49-.22l-5.155-5.753c-6.784-7.576-17.036-19.025-22.949-25.58-3.719-4.124-5.291-9.207-4.675-15.107 1.44-13.788 14.634-29.063 27.07-38.084.48-.347.828.023 1.198.413.211.225.52.557.908.98.732.799 1.801 1.977 3.178 3.503 2.317 2.569 5.538 6.157 9.573 10.665 6.87 7.676 13.812 15.464 13.881 15.541a.665.665 0 0 1-.082.963c-12.865 10.197-23.543 27.226-24.838 39.611-.523 5.002.448 9.033 2.888 11.982a.666.666 0 0 1 .09.705.66.66 0 0 1-.597.382v-.001zm-5.88-83.339c-12.064 8.886-24.696 23.6-26.078 36.818-.575 5.51.885 10.245 4.341 14.076 5.914 6.558 16.166 18.007 22.952 25.584l1.577 1.76c-.718-2.366-.92-5.076-.604-8.106 1.31-12.524 11.915-29.632 24.784-40.073-7.287-8.172-24.257-27.172-26.972-30.059z" fill="#0057FC"/>
                <g fill="#FF1F25">
                    <path d="M127.239 252.248a.659.659 0 0 1-.655-.744l3.57-29.024a.656.656 0 0 1 1.054-.453c.188.144.285.38.254.616l-3.57 29.023a.66.66 0 0 1-.653.582zM120.06 239.888a3.11 3.11 0 0 1-1.814-.568 3.27 3.27 0 0 1-1.345-2.453 4.524 4.524 0 0 1 3.227-4.616 3.16 3.16 0 0 1 2.751.442c.8.566 1.297 1.47 1.345 2.453a4.399 4.399 0 0 1-.81 2.875 4.36 4.36 0 0 1-2.416 1.74 3.627 3.627 0 0 1-.938.127zm1-6.437c-.2 0-.399.027-.592.08a3.201 3.201 0 0 0-2.253 3.222c.015.591.308 1.14.79 1.48a1.85 1.85 0 0 0 1.653.246 3.04 3.04 0 0 0 1.677-1.222 3.069 3.069 0 0 0 .576-2 1.967 1.967 0 0 0-.789-1.48 1.816 1.816 0 0 0-1.061-.326zM137.362 245.506a3.112 3.112 0 0 1-1.813-.569c-1.572-1.111-1.812-3.502-.535-5.33 1.278-1.828 3.596-2.41 5.17-1.299a3.271 3.271 0 0 1 1.344 2.453 4.396 4.396 0 0 1-.81 2.876 4.36 4.36 0 0 1-2.417 1.74 3.629 3.629 0 0 1-.939.129zm.998-6.439c-.92.045-1.762.53-2.267 1.304-.86 1.23-.763 2.79.214 3.482a1.943 1.943 0 0 0 1.653.245 3.04 3.04 0 0 0 1.678-1.222 3.068 3.068 0 0 0 .575-2 1.967 1.967 0 0 0-.79-1.482 1.823 1.823 0 0 0-1.063-.327z"/>
                </g>
            </g>
        </g>
    </g>
</svg>
