<svg width="484" height="600" xmlns="http://www.w3.org/2000/svg">
    <g fill-rule="nonzero" fill="none">
        <path d="M326.821 283.388h-44.813v299.737h44.813z" fill="#FFDD0F"/>
        <path d="M387.978 414.703H342.9v168.684h45.077z" fill="#0057FC"/>
        <path d="M448.871 533.65h-45.077v49.475h45.077z" fill="#FF1F25"/>
        <path d="M181.127 502.75c9.213-14.99 20.269-26.56 26.392-50.095 5.617-21.59 16.05-23.87 21.648-18.934 6.713 5.917 8.292 33.265-48.04 69.028z" fill="#101A6F"/>
        <path d="M178.758 501.697c.737.334 1.532.684 2.371 1.049h.003c5.724 2.49 13.667 5.635 21.685 8.649 8.082 3.042 16.236 5.953 22.27 7.92l9.668-17.52s1.443-14.837-.85-19.005a396.028 396.028 0 0 1-14.37-8.999 200.16 200.16 0 0 1-1.549-1.023c-6.11-4.056-10.761-7.408-13.749-9.635-2.553-1.902-3.893-2.985-3.893-2.985s-17.459 26.153-21.586 41.55z" fill="#F4ADA2"/>
        <path d="M120.057 524.049c15.268.526 30.857-.45 57.649-21.037 13.688-10.518 26.586-12.36 28.429-2.63 2.93 15.48-27.377 34.712-86.078 23.667z" fill="#101A6F"/>
        <path d="M120.057 524.312s.58 2.08 1.593 5.404l.521 1.696c.295.942.616 1.956.96 3.03 2.08 6.471 5.047 15.049 8.382 22.685.135.31.275.618.411.928l19.72.18 14.478-12.36c-.318-3.823-.637-9.043-.926-14.463-.03-.563-.061-1.13-.09-1.696-.05-.989-.102-1.983-.15-2.969-.25-4.991-.466-9.862-.629-13.692l-.02-.487c-.183-4.32-.29-7.19-.29-7.19l-43.96 18.934z" fill="#F4ADA2"/>
        <path d="M75.325 590.392c2.446 2.916 7.568 6.963 18.298 7.91 19.77 1.746 79.383.844 79.383.844-1.142-6.472-1.885-10.686-2.482-14.416.025.019.05.043.073.064-.787-6.125-1.605-12.51-2.345-18.305-1.037-8.113-1.885-15.073-2.327-18.534-.003-.029-.005-.058-.01-.087-.185-1.443-.298-2.256-.319-2.256-7.107.526-10.219 6.91-16.007 9.004-.19.068-.382.137-.577.2-4.935 1.617-15.686 3.147-23.38 4.02-9.456 1.073-17.874 4.22-22.122 6.092-.775.337-1.419.641-1.943.902a78.22 78.22 0 0 0-2.666 1.388 64.565 64.565 0 0 0-2.116 1.21 65.796 65.796 0 0 0-8.084 5.617c-.203.163-.4.329-.598.494a6.838 6.838 0 0 0-.21.176c-.07.06-.14.116-.209.175-.018.019-.04.034-.058.05-.034.032-.07.06-.105.092a.96.96 0 0 0-.037.032c-.179.152-.355.307-.529.46a22.698 22.698 0 0 0-.55.493c-.126.113-.25.223-.375.337-.01.01-.025.02-.034.031l-.125.118-.134.124c-.085.076-.169.158-.253.237-.045.04-.087.081-.132.126a1.23 1.23 0 0 0-.058.052c-.018.019-.042.037-.063.058l-.368.358a47.19 47.19 0 0 0-.713.705c-.09.086-.174.176-.261.263-.155.157-.308.316-.458.474l-.292.305c-.05.055-.1.108-.15.16-.092.098-.184.198-.271.295a34.723 34.723 0 0 0-.833.923c-.095.108-.192.215-.282.32-.155.18-.305.356-.453.532l-.357.429-.174.213c-.058.068-.113.139-.169.21-.113.14-.223.276-.331.416-.23.286-.445.568-.653.846-.071.095-.14.184-.206.276-.426.575-.81 1.12-1.158 1.639-.07.105-.142.207-.208.31a41.059 41.059 0 0 0-1.032 1.643 31.673 31.673 0 0 0-1.229 2.283c-.129.27-.216.468-.263.581v.003c-.016.031-.024.057-.032.075a.267.267 0 0 1-.013.033z" fill="#101A6F"/>
        <path d="M77.49 586.4c17.03 12.13 37.06 5.762 46.934 1.668 8.515-3.532 11.327 1.03 18.27-1.17 5.8-1.836 7.621-5.98 15.005-6.838 4.435-.512 10.158 2.314 12.824 4.67.025.018.05.042.074.063-.787-6.125-1.605-12.51-2.345-18.305-1.037-8.113-1.885-15.073-2.327-18.534-.003-.029-.005-.058-.01-.087-.185-1.443-.298-2.256-.32-2.256-7.106.526-10.218 6.91-16.006 9.004-.19.068-.382.137-.577.2-4.936 1.617-15.686 3.147-23.38 4.02-9.456 1.073-17.874 4.22-22.123 6.092-.774.337-1.418.641-1.942.902a78.22 78.22 0 0 0-2.667 1.388l-.84.468c-.431.245-.857.492-1.276.742a65.796 65.796 0 0 0-8.084 5.617c-.203.163-.4.329-.597.494a6.838 6.838 0 0 0-.211.176c-.069.06-.14.116-.208.175-.018.019-.04.034-.058.05-.034.032-.071.06-.105.092a71.248 71.248 0 0 0-1.49 1.321c-.012.011-.026.022-.035.032l-.125.118c-.045.043-.09.082-.135.124-.084.076-.168.158-.252.237-.045.04-.087.081-.132.126a1.23 1.23 0 0 0-.058.052c-.018.019-.042.037-.063.058l-.369.358c-.17.166-.337.329-.5.492l-.097.094-.116.119c-.09.086-.173.176-.26.263-.108.105-.21.21-.308.315l-.15.158-.074.074c-.074.079-.148.155-.218.231-.05.055-.1.108-.15.16-.092.098-.185.198-.271.295a34.723 34.723 0 0 0-.833.923c-.095.108-.192.215-.282.32-.155.18-.305.356-.453.532l-.358.429-.173.213c-.058.068-.114.139-.169.21-.113.14-.224.276-.332.416-.228.286-.444.568-.652.846-.071.095-.14.184-.206.276-.426.575-.81 1.12-1.158 1.639-.071.105-.142.207-.208.31a21.88 21.88 0 0 0-.345.529c-.018.033-.039.066-.06.1z" fill="#101A6F"/>
        <path d="M157.888 595.673c2.175 0 4.224-.495 5.786-1.398 1.682-.974 2.613-2.31 2.62-3.764.007-1.454-.91-2.8-2.582-3.79-1.568-.927-3.643-1.444-5.843-1.455h-.072c-2.175 0-4.224.495-5.785 1.398-1.683.974-2.614 2.31-2.62 3.764-.008 1.454.91 2.8 2.582 3.79 1.568.927 3.643 1.444 5.843 1.455h.071zm-.092-9.159h.066c1.982.01 3.833.465 5.213 1.282 1.274.755 1.974 1.717 1.97 2.71-.005.992-.715 1.947-1.997 2.689-1.373.794-3.203 1.23-5.159 1.23h-.066c-1.981-.01-3.832-.465-5.212-1.282-1.275-.755-1.975-1.717-1.97-2.71.005-.992.714-1.947 1.997-2.69 1.372-.793 3.202-1.229 5.158-1.229z" fill="#131B5F"/>
        <path d="M140.01 600c17.509 0 32.705-.225 33.005-.228a.625.625 0 0 0 .607-.733c-1.192-6.752-1.896-10.75-2.481-14.407-1.095-6.826-1.723-12.196-3.4-26.547-.348-2.978-.742-6.347-1.195-10.203a1.528 1.528 0 0 0-.012-.101l-.185-1.583a.625.625 0 0 0-1.241.144l.186 1.598a.726.726 0 0 0 .006.04l.003.031c.455 3.87.85 7.241 1.197 10.218 1.68 14.37 2.308 19.748 3.407 26.6.566 3.533 1.24 7.378 2.357 13.703-6.9.095-60.256.767-78.586-.852-9.875-.871-15.017-4.441-17.625-7.4a15.366 15.366 0 0 1 .235-.498 31.185 31.185 0 0 1 1.314-2.379 41.022 41.022 0 0 1 .811-1.281 41.26 41.26 0 0 1 1.55-2.194c.225-.303.436-.574.647-.838.16-.206.323-.412.493-.618l.176-.216c.082-.1.166-.2.252-.302l.101-.12c.146-.175.293-.347.446-.523l.08-.091a36.655 36.655 0 0 1 .814-.913c.066-.075.129-.145.196-.215l.017-.018c.083-.093.171-.189.26-.282.052-.055.105-.111.158-.17l.283-.295c.147-.154.297-.31.45-.465l.105-.106c.048-.05.095-.098.145-.146a57.371 57.371 0 0 1 .712-.704l.018-.019c.153-.147.307-.296.464-.443.13-.125.257-.243.385-.363l.135-.125c.168-.158.342-.316.52-.473.046-.043.08-.075.113-.103.15-.137.29-.26.435-.387l.043-.038c.158-.138.318-.279.48-.416l.027-.024c.132-.114.253-.217.375-.32.075-.066.14-.118.204-.17a37.1 37.1 0 0 1 .596-.493 65.469 65.469 0 0 1 7.936-5.523l.07-.04a62.966 62.966 0 0 1 2.105-1.204 77.064 77.064 0 0 1 2.64-1.375c.603-.3 1.247-.599 1.916-.889 3.861-1.673 10.637-3.936 20.98-5.201a.624.624 0 1 0-.152-1.24c-10.492 1.284-17.388 3.59-21.327 5.296-.688.3-1.351.608-1.972.916a77.768 77.768 0 0 0-3.534 1.871c-.452.257-.886.509-1.291.75l-.063.036c-.11.064-.22.128-.329.196a66.644 66.644 0 0 0-7.766 5.436c-.203.164-.404.332-.605.5-.07.056-.148.12-.223.186a21.58 21.58 0 0 0-.367.313l-.023.019c-.175.15-.34.294-.502.436l-.043.038c-.15.13-.294.26-.44.391-.034.03-.08.072-.124.114-.174.153-.357.32-.536.487l-.134.123-.389.368c-.156.146-.316.3-.472.452l-.02.018a38.922 38.922 0 0 0-.728.72c-.044.042-.1.099-.155.156l-.098.1c-.161.164-.316.324-.469.484l-.293.306a7.43 7.43 0 0 1-.15.16c-.094.1-.187.2-.275.3a35.062 35.062 0 0 0-.844.937c-.066.072-.135.152-.204.23l-.078.09c-.159.184-.311.363-.461.542l-.1.118c-.09.106-.178.211-.264.316l-.174.214c-.174.21-.343.426-.507.635a32.588 32.588 0 0 0-.875 1.144 42.297 42.297 0 0 0-1.384 1.975c-.116.171-.232.352-.346.53a43.623 43.623 0 0 0-.696 1.131 32.73 32.73 0 0 0-1.159 2.132l-.098.2c-.135.284-.226.491-.275.61l-.005.012a1.002 1.002 0 0 0-.03.075.505.505 0 0 0 .088.668c4.85 5.783 12.858 7.614 18.72 8.131 9.713.86 29.199 1.078 46.441 1.078z" fill="#131B5F"/>
        <path d="M131.258 575.5a1.875 1.875 0 0 0 1.728-2.595c-.184-.436-4.624-10.726-16.618-14.94a1.876 1.876 0 0 0-2.473 2.112c.125.66.594 1.202 1.23 1.422 10.377 3.645 14.366 12.768 14.405 12.86a1.878 1.878 0 0 0 1.728 1.141zM122.362 578.355a1.875 1.875 0 0 0 1.715-2.623c-.194-.442-4.899-10.871-17.229-14.479a1.876 1.876 0 0 0-2.372 2.241 1.874 1.874 0 0 0 1.319 1.353c10.604 3.103 14.81 12.302 14.85 12.394a1.879 1.879 0 0 0 1.717 1.114zM112.164 580.464a1.875 1.875 0 0 0 1.697-2.661c-.179-.384-4.516-9.428-15.771-12.574a1.872 1.872 0 0 0-1.01 3.607c9.543 2.667 13.348 10.477 13.386 10.556a1.88 1.88 0 0 0 1.698 1.072z" fill="#FFDD0F"/>
        <path d="M223.037 583.096c3.775-.516 9.93-2.696 16.44-11.267 12-15.795 42.954-66.696 42.954-66.696-6.093-2.477-10.06-4.092-13.54-5.57l.093-.03a21628.44 21628.44 0 0 1-16.762-7.755c-7.428-3.44-13.778-6.426-16.946-7.893a.795.795 0 0 0-.08-.037c-1.321-.613-2.07-.95-2.081-.932-3.336 6.293.42 12.32-.886 18.33-.043.197-.087.396-.137.594-1.256 5.036-5.679 14.943-9.033 21.916-4.121 8.568-5.932 17.363-6.606 21.953a43.7 43.7 0 0 0-.27 2.122 78.682 78.682 0 0 0-.241 2.994 63.606 63.606 0 0 0-.1 2.433c-.004.15-.01.296-.012.443a65.65 65.65 0 0 0 .471 9.383c.03.258.066.513.1.769.011.09.022.181.037.271.015.09.024.18.037.269.006.025.008.051.011.075.009.045.014.092.022.138l.007.048c.034.232.072.464.109.692a21.501 21.501 0 0 0 .124.727c.029.167.056.33.086.495.004.015.006.032.009.046l.033.17.033.18c.02.111.044.226.066.339.01.059.023.117.037.178l.014.077c.006.026.01.056.016.085.036.169.07.336.107.501a92.868 92.868 0 0 0 .217.979c.025.122.057.24.084.36.051.215.104.429.158.64l.103.409.056.212c.033.13.069.261.105.386l.081.297c.084.306.171.607.259.898.04.138.08.278.122.41.069.226.138.447.21.665.057.18.115.355.172.53l.088.261c.027.085.058.17.089.254.058.17.115.337.175.502.12.346.245.679.37 1.003.042.11.082.216.125.32.26.666.518 1.282.772 1.852.052.116.1.23.153.34.087.198.176.388.264.574a40.325 40.325 0 0 0 .58 1.174 31.774 31.774 0 0 0 1.28 2.254c.161.254.282.432.353.532l.002.001c.018.03.036.05.045.066a.25.25 0 0 1 .025.033z" fill="#131B5F"/>
        <path d="M220.805 579.143c19.344-7.952 24.603-28.282 26.386-38.812 1.538-9.082 6.9-9.032 8.73-16.077 1.53-5.881-1.014-9.627 2.189-16.33 1.924-4.024 7.366-7.36 10.782-8.362.028-.01.062-.02.092-.029-5.61-2.593-11.456-5.297-16.762-7.755-7.428-3.44-19.096-8.88-19.108-8.862-3.336 6.292.42 12.32-.886 18.33-.042.197-.087.396-.137.594-1.255 5.035-5.678 14.943-9.032 21.915-4.122 8.569-5.933 17.364-6.607 21.954a43.7 43.7 0 0 0-.269 2.122 78.682 78.682 0 0 0-.242 2.994l-.05.96c-.022.495-.04.986-.05 1.473-.004.15-.009.295-.011.443a65.65 65.65 0 0 0 .47 9.383c.03.258.066.513.1.768.012.091.023.182.038.272.015.09.024.18.036.268.006.025.008.052.012.075.008.046.013.093.022.138l.007.048a20.538 20.538 0 0 0 .108.692l.03.187a21.501 21.501 0 0 0 .095.54c.028.168.056.331.086.496l.008.046.033.17.034.179c.02.112.044.226.066.34.01.058.023.116.037.178.004.025.008.052.014.077.006.026.009.055.015.084l.107.502.15.685.029.133.038.16c.025.123.057.241.084.361.032.147.067.29.104.428l.054.211.023.102.08.308c.02.071.038.142.056.212.034.13.07.26.106.386a35.892 35.892 0 0 0 .34 1.195c.04.138.08.277.122.41.068.226.138.446.209.665l.173.53.088.26c.027.086.058.17.088.255.058.17.115.336.175.502.121.346.245.678.37 1.003.043.11.082.216.125.32.26.666.519 1.282.773 1.852.051.115.1.23.152.34.087.198.176.387.265.573.02.037.036.072.053.108z" fill="#101A6F"/>
        <path d="M264.434 521.015c2.287 0 5.031-1.831 6.971-4.882 1.18-1.855 1.866-3.878 1.932-5.698.07-1.94-.567-3.439-1.796-4.22-1.228-.78-2.857-.72-4.586.169-1.62.832-3.163 2.312-4.343 4.167-1.18 1.854-1.866 3.878-1.932 5.698-.07 1.94.567 3.439 1.796 4.22a3.602 3.602 0 0 0 1.958.546zm5.155-14.093c.452-.01.897.112 1.282.35.838.531 1.27 1.64 1.217 3.12-.058 1.601-.675 3.403-1.738 5.074-2.093 3.291-5.392 5.1-7.204 3.95-.838-.532-1.27-1.64-1.217-3.12.058-1.602.675-3.404 1.738-5.074s2.433-2.994 3.86-3.727a4.603 4.603 0 0 1 2.062-.573z" fill="#131B5F"/>
        <path d="M222.978 583.726c.048 0 .097-.004.144-.011 7.482-1.024 13.294-6.824 16.853-11.509 11.882-15.639 42.68-66.24 42.99-66.749a.624.624 0 0 0-.299-.902c-6.36-2.585-10.122-4.12-13.53-5.568-6.37-2.707-11.258-5.035-24.323-11.255-2.705-1.29-5.766-2.747-9.269-4.412-.025-.012-.058-.029-.094-.044l-1.44-.685a.625.625 0 0 0-.537 1.127l1.454.692a.75.75 0 0 0 .04.018l.026.012c3.518 1.673 6.578 3.13 9.284 4.418 13.082 6.23 17.977 8.56 24.371 11.278 3.292 1.398 6.912 2.876 12.869 5.298-3.591 5.887-31.411 51.374-42.536 66.017-5.993 7.89-11.755 10.34-15.651 10.97a17.2 17.2 0 0 1-.297-.463 31.35 31.35 0 0 1-1.317-2.377 40.459 40.459 0 0 1-.654-1.368 42.21 42.21 0 0 1-1.035-2.477 31.772 31.772 0 0 1-.367-.992 31.03 31.03 0 0 1-.261-.747l-.09-.264c-.04-.118-.078-.238-.117-.36l-.053-.163c-.07-.215-.138-.432-.206-.655l-.037-.125c-.027-.09-.055-.18-.081-.273a35.321 35.321 0 0 1-.334-1.174l-.007-.025a10.8 10.8 0 0 1-.1-.368 6.777 6.777 0 0 0-.06-.225l-.1-.396a39.399 39.399 0 0 1-.154-.628l-.034-.146c-.016-.066-.033-.133-.047-.2a37.1 37.1 0 0 1-.217-.978c-.045-.214-.091-.433-.134-.652-.036-.175-.069-.345-.102-.516l-.035-.184a25.997 25.997 0 0 1-.125-.69l-.027-.153c-.035-.2-.066-.382-.096-.572l-.006-.036a38.936 38.936 0 0 1-.107-.686c-.027-.171-.05-.328-.07-.486-.017-.1-.026-.18-.036-.26-.037-.265-.072-.516-.102-.77a65.296 65.296 0 0 1-.466-9.298c0-.125.004-.24.008-.353l.003-.082a69.245 69.245 0 0 1 .1-2.42c.066-1.056.144-2.028.24-2.965.066-.667.155-1.371.265-2.093.635-4.157 2.324-11.09 6.754-20.513a.624.624 0 1 0-1.131-.53c-4.495 9.557-6.21 16.616-6.859 20.855a42.649 42.649 0 0 0-.273 2.156c-.097.952-.175 1.94-.244 3.017-.018.33-.035.649-.05.968-.024.52-.04 1.02-.05 1.49l-.003.074c-.004.126-.009.254-.009.382-.067 3.161.092 6.323.475 9.461a38.08 38.08 0 0 0 .142 1.066c.02.148.044.314.07.476l.004.03c.034.236.07.46.106.679l.005.035a35.855 35.855 0 0 0 .128.745c.037.229.081.473.128.713l.033.18.105.524a42.087 42.087 0 0 0 .29 1.36c.02.097.044.202.07.305.011.059.03.136.05.213l.031.137c.054.224.107.44.162.654l.103.41.056.212c.034.133.07.266.107.393a36.443 36.443 0 0 0 .345 1.213c.025.09.055.19.085.286l.037.122c.07.233.141.457.213.68l.052.16c.041.127.082.254.124.378l.088.26c.086.26.178.518.268.768a31.9 31.9 0 0 0 .504 1.348 41.728 41.728 0 0 0 .938 2.222c.083.189.175.383.265.574a38.959 38.959 0 0 0 .588 1.191 32.39 32.39 0 0 0 1.305 2.298c.173.271.3.458.373.563l.009.012.032.044.014.021c.073.19.263.31.466.293z" fill="#131B5F"/>
        <path d="M217.317 536.124a1.87 1.87 0 0 0 1.24-.469c8.248-7.27 18.166-6.299 18.265-6.287a1.873 1.873 0 1 0 .416-3.723c-.47-.053-11.628-1.201-21.162 7.202a1.871 1.871 0 0 0 1.241 3.277zM215.617 545.961c.492.001.964-.192 1.314-.536 7.934-7.782 17.97-6.915 18.07-6.904a1.873 1.873 0 1 0 .36-3.728c-.48-.046-11.89-1.032-21.057 7.96a1.871 1.871 0 0 0 1.313 3.208zM214.835 555.522c.5 0 .978-.198 1.33-.552 6.986-7.02 15.667-6.528 15.754-6.523a1.873 1.873 0 0 0 .268-3.736c-.423-.031-10.441-.661-18.681 7.618a1.871 1.871 0 0 0 1.33 3.193z" fill="#FFCF2D"/>
        <path d="M85.178 408.213c4.27 15.216 12.36 29.602 23.33 42.603 1.02 17.485 4.441 51.933 11.548 73.496 23.954 3.156 42.254-9.55 56.858-20.774 13.689-10.518 26.85-13.148 29.218-3.155-1.842-12.623-3.685-17.882-6.844-25.771 2.896-7.363 5.244-10.453 7.766-20.117 7.239-27.742 18.82-23.798 22.111-20.773-10.134-10.387-33.825-11.176-43.09-10.862-.87-32.266 14.66-58.036 25.716-87.225 8.387-22.141 10.595-43.089 8.792-59.217a70.744 70.744 0 0 0-2.585-12.914 48.78 48.78 0 0 0-1.577-4.418c-6.735-16.277-89.257-7.204-89.257-7.204s-1.256 4.478-4.49 12.44c-3.244 7.982-9.31 19.024-16.437 33.447-15.4 31.16-31.719 72.446-21.059 110.444z" fill="#131B5F"/>
        <path d="M122.673 264.323c1.382.729 2.775 1.424 4.18 2.085a126.52 126.52 0 0 0 23.072 8.167c16.336 4.142 31.878 5.097 42.376 5.186 9.533.108 19.04-1.015 28.284-3.342A70.744 70.744 0 0 0 218 263.505c-20.493 5.398-44.013 3.024-63.352-1.867l-.143-.037a154.443 154.443 0 0 1-22.543-7.518 54.39 54.39 0 0 1-.658-.287 94.725 94.725 0 0 1-4.14-1.914s-1.256 4.478-4.49 12.441z" fill="#131B5F"/>
        <path d="M238.38 254.643c-15.4 1.183-51.988 12.228-72.521 25.902-20.533 13.674-25.533 25.77-27.64 31.293-2.105 5.523.264 7.363 5.002 2.367 5.889-6.21 8.95-9.467 8.95-9.467s-5.264 10.256-4.738 22.09c.526 11.832 4.738 9.466 5.528 4.732 0 0 1.58 9.73 7.107-2.892 0 0-1.843 9.467 7.108-.526 17.134-19.131 31.061-26.822 78.311-28.424 48.152-1.632 56.464-12.334 56.464-12.334l-63.571-32.741z" fill="#F4ADA2"/>
        <g>
            <path d="M25.545 111.985c7.705 21.305 14.494 54.397 26.587 81.111a131.722 131.722 0 0 0 8.545 16.083c5.123 8.107 11.063 14.96 18.081 19.775 9.818-33.344 21.346-65.21 21.704-66.199a.131.131 0 0 1 .008-.025l.008-.02c-.6-.852-27.216-38.201-34.092-52.888-6.71-14.329-4.323-20.88-.48-25.92 3.844-5.04 15.372-13.68 8.166-13.921-7.444-.245-16.112 6.76-25.465 2.4C37.664 67.28 30.354 54.632 24 48.462c-6.078-5.9-8.408-4.078-5.525 2.402 2.935 6.597 6.588 15.52 6.588 15.52a2.503 2.503 0 0 0-1.203 1.677s-2.88 0-4.322 4.56c-3.364.725-6.354 5.18 6.007 39.365z" fill="#F4ADA2"/>
            <g fill="#131B5F">
                <path d="M44.506 86.968c.313.003.623-.067.904-.203 1.552-.764 1.68-3.36.342-6.948-3.076-8.252-6.991-13.363-11.634-15.19-4.733-1.863-8.915.226-10.29.913a.624.624 0 1 0 .56 1.116c1.25-.624 5.057-2.526 9.272-.867 4.3 1.691 7.974 6.558 10.923 14.464 1.143 3.067 1.005 5.034.276 5.393-1.138.56-4.798-1.751-10.217-10.412a.625.625 0 0 0-1.06.662c4.426 7.075 8.4 11.072 10.924 11.072z"/>
                <path d="M38.383 92.868c.284.004.564-.065.814-.2 1.791-.989 1.15-5.03-1.909-12.014-3.758-8.58-6.857-13.08-13.369-13.86a.625.625 0 1 0-.15 1.24c5.294.634 8.301 3.822 12.373 13.12 3.284 7.5 3.038 10.096 2.449 10.421-.884.49-4.371-1.991-9.048-8.861a.625.625 0 0 0-1.033.702c3.245 4.764 7.36 9.451 9.873 9.452z"/>
                <path d="M29.772 95.175c.18.002.359-.028.528-.088 1.636-.581 1.731-3.468.292-8.825-2.35-8.746-5.144-14.632-11.153-14.916a.625.625 0 0 0-.06 1.247c4.555.216 7.36 4.14 10.006 13.993 1.818 6.77.55 7.306.496 7.325-1.354.483-6.114-4.729-9.413-12.063a.625.625 0 0 0-1.14.511c2.86 6.358 7.658 12.816 10.444 12.816zM44.643 101.208a.631.631 0 0 0 .537-.303.624.624 0 0 0 .07-.473c-.695-2.776-3.14-17.203 17-28.585a.624.624 0 1 0-.616-1.086c-20.928 11.828-18.33 27.044-17.596 29.974.07.278.319.473.605.473z"/>
            </g>
        </g>
        <path d="M55.829 206.547c13.46-19.976 33.167-38.288 45.539-44.336 2.353-1.15 4.655-.871 6.054.526 9.213-18.933 43.17-57.326 78.707-46.019 0 0 4.211-2.63 8.16-2.892 5.075-.338 39.484 4.207 39.484 4.207a109.013 109.013 0 0 0 11.32 13.148s38.168 118.334-25.008 133.06c-33.014 7.696-75.81-2.893-92.921-12.36 0 0-6.054-7.626-5.791-19.985-4.6 4.95-24.782 11.68-43.515.548-10.711-5.807-18.507-14.191-21.93-18.989a6.058 6.058 0 0 1-.1-6.908z" fill="#0057FC"/>
        <path d="M284.196 286.528c9.595 7.428 16.965 15.843 15.254 17.29-1.71 1.446-20.137.13-61.07-49.175 0 0 22.644 13.945 45.816 31.885z" fill="#101A6F"/>
        <path d="M143.221 314.204c5.889-6.208 8.95-9.467 8.95-9.467s-5.264 10.256-4.738 22.09c.526 11.833 4.738 9.466 5.528 4.733 0 0 1.58 9.73 7.107-2.893 0 0-1.843 9.467 7.108-.526 17.133-19.13 31.061-26.822 78.311-28.424 15.294-.52 26.566-1.95 34.831-3.668.13-.026.253-.053.38-.079a87.681 87.681 0 0 0 10.618-2.871 55.05 55.05 0 0 0 2.954-1.115c6.041-2.49 7.68-4.602 7.68-4.602l-40.116-20.662-6.294-3.24-17.12-8.82c-.026-.013-.04-.018-.04-.018-15.4 1.183-51.988 12.228-72.52 25.902-20.534 13.674-25.534 25.771-27.64 31.294-2.106 5.523.263 7.362 5.001 2.366z" fill="#F4ADA2"/>
        <g fill="#131B5F">
            <path d="M158.883 333.104c.346 0 .625-.28.625-.624 0-7.777 8.3-20.003 13.53-25.882a.624.624 0 1 0-.933-.83c-3.851 4.329-13.847 17.565-13.847 26.712a.624.624 0 0 0 .625.624zM152.302 335.47h.02a.625.625 0 0 0 .605-.642c-.385-12.709 3.446-24.017 11.713-34.57a.624.624 0 1 0-.984-.77c-8.454 10.793-12.372 22.365-11.978 35.378.01.337.287.605.624.605zM148.617 310.49c.229 0 .44-.124.55-.325a389.208 389.208 0 0 0 1.82-3.385c2.343-4.395 4.367-8.19 7.066-11.51a.624.624 0 0 0-.97-.786c-2.774 3.412-4.825 7.256-7.198 11.71a383.696 383.696 0 0 1-1.814 3.374.624.624 0 0 0 .548.924l-.002-.002z"/>
        </g>
        <path d="M242.329 249.647c-10.53-26.034-26.85-112.023 1.052-118.86 27.903-6.837 83.972 58.115 70.81 144.104 0 0 3.554 3.024 1.053 9.204-2.63 6.498-10.397 15.646-15.794 19.722 3.29-4.076-37.774-36.947-61.07-49.174 0 0-1.184-3.024 3.949-4.996z" fill="#0057FC"/>
        <g transform="matrix(-1 0 0 1 229.005 252.227)">
            <path d="M17.05 50.54c2.675-11.349 8.63-24.989 15.855-35.92l-3.75-2.472-10.529-6.947c-.623.944-1.238 1.902-1.842 2.874C8.929 20.709 2.75 35.63 0 48.408l17.05 2.133z" fill="#131B5F"/>
            <ellipse fill="#131B5F" transform="rotate(-71.68 21.76 14.446)" cx="21.76" cy="14.446" rx="10.316" ry="14.78"/>
            <path d="M25.02 26.55a22.05 22.05 0 0 1-6.891-1.145c-4.091-1.353-7.575-3.744-9.81-6.732-2.284-3.054-3.001-6.37-2.017-9.338C8.304 3.293 16.868.671 25.392 3.492c8.525 2.822 13.83 10.027 11.827 16.07-.983 2.967-3.54 5.201-7.198 6.29a17.558 17.558 0 0 1-5 .697zM18.49 3.596c-5.303 0-9.719 2.259-11.002 6.13-.851 2.57-.2 5.48 1.832 8.199 2.084 2.785 5.351 5.02 9.202 6.294 3.85 1.273 7.807 1.428 11.143.435 3.255-.969 5.516-2.917 6.368-5.486 1.786-5.388-3.164-11.89-11.034-14.493a20.834 20.834 0 0 0-6.508-1.08z" fill="#FFF"/>
            <ellipse fill="#FFF" transform="rotate(-71.68 22.257 12.919)" cx="22.257" cy="12.919" rx="8.846" ry="14.348"/>
            <path d="M20.698 17.76a.625.625 0 0 1-.585-.842l1.921-5.144a.624.624 0 0 1 .816-.362l7.97 3.16a.624.624 0 1 1-.461 1.16l-7.377-2.924-1.7 4.548a.625.625 0 0 1-.584.405z" fill="#131B5F"/>
        </g>
        <g fill="#131B5F">
            <path d="M237.591 255.53c.29 0 .542-.2.608-.482a8.947 8.947 0 0 1 3.88-5.064.624.624 0 0 0 .256-.768c-8.869-21.928-22.66-85.736-9.094-109.806 2.921-5.183 6.987-8.231 12.084-9.059a.624.624 0 1 0-.2-1.232c-5.49.892-9.855 4.148-12.972 9.678-4.25 7.538-8.394 23.47-4.014 56.565 2.939 22.21 8.673 43.317 12.845 53.841a10.052 10.052 0 0 0-4.002 5.562.624.624 0 0 0 .61.765h-.001zM190.14 144.388c3.435 0 8.63-2.957 13.34-5.64l.33-.187c6.44-3.664 22.806-12.312 35.678-13.463a.625.625 0 1 0-.112-1.244c-5.427.486-17.345 2.902-36.185 13.622l-.33.188c-5.173 2.946-12.258 6.978-14.413 4.933-1.458-1.384-1.51-6.378 6.529-22.31a.624.624 0 1 0-1.116-.562c-9.092 18.02-7.935 22.2-6.274 23.777.654.62 1.525.886 2.554.886zM172.57 133.778c.233 0 .447-.13.555-.337 10.174-19.564 19.607-19.654 19.701-19.648a.625.625 0 1 0 .03-1.249c-.417-.007-10.252-.04-20.84 20.322a.624.624 0 0 0 .554.912zM76.756 235.81a.624.624 0 0 0 .616-.528c2.619-16.484 12.741-49.343 29.893-72.302a.624.624 0 1 0-1.002-.746c-17.286 23.139-27.487 56.245-30.125 72.851a.624.624 0 0 0 .618.724z"/>
            <path d="M315.244 275.515a.625.625 0 0 0 .392-1.11c-9.024-7.262-21.725-13.848-35.763-18.546-11.752-3.933-23.544-6.281-33.742-6.753 23.252-5.132 48.924 2.114 49.197 2.192a.625.625 0 0 0 .347-1.198c-.075-.021-7.475-2.132-17.805-3.308-9.545-1.086-23.626-1.576-36.51 2.258a.624.624 0 0 0 .186 1.223c11.023-.13 24.495 2.275 37.93 6.772 13.901 4.65 26.465 11.161 35.376 18.332.111.09.25.138.392.138zM95.708 207.408a.624.624 0 0 0 .62-.555c2.593-23.044 10.93-43.806 11.015-44.013a.624.624 0 1 0-1.159-.469c-.084.209-8.486 21.122-11.097 44.342a.624.624 0 0 0 .621.695z"/>
        </g>
        <g>
            <path d="M178.412 37.074a10.684 10.684 0 0 1 9.708.365c3.64-10.631 17.81-8.325 19.505-.107 10.067-7.218 21.82 4.152 17.512 13.022-1.58 3.256-3.976 9.11-2.65 14.749-4.873 2.038-14.459 14.497-14.459 14.497s-15.786-23.187-24.304-24.2c-13.396-1.59-11.904-15.093-5.312-18.326z" fill="#131B5F"/>
            <path d="M170.078 87.014c-.396 2.953 1.018 6.122 4.044 8.037 7.878 4.985 18.675 3.073 18.675 3.073s2.544 8.076.965 21.75c0 0 15.59 4.797 40.011-1.84 0 0-8.423-11.834-12.52-32.098 5.768-.464 12.475-5.911 11.482-13.739-.567-4.465-5.135-7.725-9.74-7.247-4.729.49-8.024 4.17-11.831 7.882-4.305 4.196-5.331.45-6.71-4.276-.886-3.036-1.914-6.476-4.051-8.474-4.83-4.519-16.68-4.681-16.68-4.681s-.139 1.535-.449 3.454c-.41 2.538-1.125 5.745-2.214 6.96-1.915 2.131-3.665 1.634-3.816 3.1-.13 1.256 1.186 2.874 1.96 3.588-1.096 8.565-8.203 7.622-9.126 14.511z" fill="#F4ADA2"/>
            <g fill="#131B5F">
                <path d="M220.039 87.26c1.162.01 2.323-.092 3.466-.303a.624.624 0 0 0-.257-1.222c-.049.01-4.883.986-9.446-.852a.625.625 0 0 0-.468 1.158 18.104 18.104 0 0 0 6.705 1.22zM192.797 98.124s6.492-1.39 10.705-5.598c1.369.91 2.016 8.817-5.899 12.092-8.271 3.424-4.806-6.494-4.806-6.494z"/>
            </g>
            <path d="m199.194 62.807.014-.48a6.064 6.064 0 0 0-.146-1.282 7.109 7.109 0 0 0-.567-1.605 7.584 7.584 0 0 0-2.265-2.733 6.92 6.92 0 0 0-1.645-.93 6.282 6.282 0 0 0-1.862-.423 5.504 5.504 0 0 0-1.86.18 4.32 4.32 0 0 0-1.63.819 1.445 1.445 0 0 0 .114 2.324l.228.15c.44.288.815.472 1.15.678.337.186.626.378.9.54l1.524.954c.518.328 1.058.73 1.666 1.183l.955.724a23.838 23.838 0 0 0 .794.582c.086.066.18.122.279.165l.969.222a1.131 1.131 0 0 0 1.382-1.068zM193.056 66.716c-1.24-.584-4.25-1.915-6.814-4.085a.849.849 0 0 0-1.202.105c-.78.933-1.772 2.661.166 3.915 2.38 1.541 6.766 1.714 7.942.798a.435.435 0 0 0-.092-.733zM180.93 80.63c.353.396.786.712 1.272.926.472.211.974.348 1.489.405a5.517 5.517 0 0 0 3.04-.494 5.57 5.57 0 0 0 1.286-.899c.38-.362.702-.78.956-1.239a4.338 4.338 0 0 0 .486-3.016.56.56 0 0 0-1.106.074l-.002.029a4.28 4.28 0 0 1-1.493 2.883c-.274.24-.579.444-.906.606a4.842 4.842 0 0 1-2.146.458 4.142 4.142 0 0 1-2.128-.557l-.028-.017a.56.56 0 0 0-.72.84zM216.421 78.972a.625.625 0 0 0 .586-.408c2.723-7.365 8.907-6.66 9.17-6.627a.625.625 0 1 0 .163-1.238c-.075-.009-7.428-.892-10.505 7.433a.624.624 0 0 0 .586.84z" fill="#131B5F"/>
        </g>
        <path d="M126.853 266.408a126.52 126.52 0 0 0 23.072 8.167l4.581-12.973a154.443 154.443 0 0 1-22.543-7.518 54.39 54.39 0 0 1-.658-.287l-4.452 12.611z" fill="#FFCF2D"/>
        <path d="M193.762 119.873s-12.635-.262-20.532 10.52c0 0-40.284 48.522-53.074 98.735a8.859 8.859 0 0 0-.22 3.093c.41 3.997 2.211 12.218 6.44 19.186a1.318 1.318 0 0 0 1.76.45l20.453-10.146a3.975 3.975 0 0 0 2.015-3.364c.232-9.902 2.758-53.026 32.11-104.561 0 0 4.837.495 5.257-.764 1.842-5.522 5.791-13.149 5.791-13.149z" fill="#FF1F25"/>
        <path d="M182.839 135.093a.625.625 0 0 0 .083-1.243 25.142 25.142 0 0 1-9.733-3.578.625.625 0 0 0-.708 1.03 25.938 25.938 0 0 0 10.273 3.785.658.658 0 0 0 .085.006z" fill="#131B5F"/>
        <g>
            <path fill="#131B5F" d="m40.37 37.134 14.21-13.08L.07 1.935z"/>
            <path fill="#0057FC" d="m.07 1.936 80.922 32.978-18.143-22.356z"/>
            <path fill="#0057FC" d="M57.133 11.623 47.7 0 .07 1.936z"/>
            <path fill="#0057FC" d="M57.38 10.775.145 1.508 0 2.371l57.237 9.267z"/>
        </g>
        <g fill="#FF1F25">
            <path d="M481.507 537.46a2.493 2.493 0 0 0 2.065-3.89c-19.65-29.071-42.088-70.465-63.181-116.556-22.115-48.325-41.677-99.138-56.57-146.948a2.495 2.495 0 0 0-4.766 1.483c14.957 48.007 34.597 99.026 56.798 147.539 21.205 46.333 43.786 87.982 63.585 117.274a2.495 2.495 0 0 0 2.07 1.097z"/>
            <path d="m356.311 252.642 36.742 57.545a1.658 1.658 0 0 1-.878 2.469L361.28 322.88a1.66 1.66 0 0 1-2.177-1.457l-4.881-68.09a1.135 1.135 0 0 1 2.09-.691z"/>
        </g>
    </g>
</svg>
