<?xml version="1.0" encoding="UTF-8"?>
<svg width="76px" height="64px" viewBox="0 0 76 64" version="1.1" xmlns="http://www.w3.org/2000/svg" xmlns:xlink="http://www.w3.org/1999/xlink">
    <title>layers</title>
    <g   stroke="none" stroke-width="1" fill="none" fill-rule="evenodd">
        <g id="About-Me---Light" transform="translate(-232.000000, -920.000000)" fill="#0057FC" fill-rule="nonzero">
            <g id="body" transform="translate(135.000000, 160.000000)">
                <g id="skill" transform="translate(0.000000, 514.000000)">
                    <g id="do" transform="translate(0.000000, 206.000000)">
                        <g id="Group-3" transform="translate(30.000000, 40.000000)">
                            <g id="layers" transform="translate(67.000000, 0.000000)">
                                <path d="M75.8409032,32.0053889 C75.7789774,31.5637605 75.4589784,31.2018356 75.0283129,31.0862804 C74.9564613,31.0670212 68.3444804,29.2800634 59.7197646,25.8600733 C68.971886,21.737863 75.2093494,18.023059 75.312164,17.9614295 C75.6945332,17.7319487 75.9026808,17.2960981 75.8409032,16.8544697 C75.7789774,16.4128414 75.4591265,16.0509165 75.0284611,15.9353613 C74.826832,15.8812874 54.6837792,10.4082662 38.5204186,0.172443945 C38.1573085,-0.0574813152 37.6946432,-0.0574813152 37.3315331,0.172443945 C30.7842928,4.31880232 22.8847601,8.16175416 13.8521936,11.5949294 C13.2787138,11.8130029 12.9904184,12.4546306 13.2083437,13.0282586 C13.4265653,13.6020347 14.0684893,13.8900339 14.641821,13.6721086 C23.5423878,10.2891554 31.372143,6.50605525 37.9261981,2.42325225 C50.8317904,10.4589327 65.9966354,15.5315106 71.9121738,17.3386165 C66.7013741,20.2169785 53.1159319,27.2600693 37.9257536,31.4353164 C22.7403161,27.2612545 9.15917019,20.2215711 3.9451112,17.3417276 C5.38007001,16.9052844 7.36213835,16.2758048 9.74213147,15.4513627 C11.1151645,14.9218827 10.4209443,12.9180367 9.01472616,13.3515169 C4.12585142,15.0449935 0.855786809,15.9267687 0.823194311,15.9355094 C0.392528891,16.0510647 0.0726779641,16.4129895 0.0107522174,16.8546179 C-0.0510253816,17.2962462 0.157122164,17.7320968 0.539491428,17.9615777 C0.642305946,18.0232071 6.87976938,21.7380112 16.1318908,25.8602215 C7.51413791,29.2771005 0.895194103,31.0670212 0.823194311,31.0862804 C0.392528891,31.2018356 0.0726779641,31.5637605 0.0107522174,32.0053889 C-0.0510253816,32.4470172 0.157122164,32.8828678 0.539491428,33.1123486 C0.642305946,33.1739781 6.87976938,36.8887822 16.1318908,41.0109924 C7.51413791,44.4278714 0.895194103,46.2177922 0.823194311,46.2370514 C0.392528891,46.3526066 0.0726779641,46.7145315 0.0109003651,47.1561598 C-0.0510253816,47.5977882 0.157122164,48.0336388 0.539491428,48.2631196 C0.675935478,48.3448972 3.94333343,50.2986693 9.31857714,52.9665134 C9.85635336,53.2367348 10.533981,53.020291 10.807758,52.4651815 C11.0806461,51.9155535 10.8562023,51.2487406 10.3064261,50.9758525 C7.61161911,49.6383749 5.43236616,48.4696375 3.93874085,47.642677 C7.01339862,46.7063834 12.5822714,44.8921664 18.9878825,42.2535074 C24.5294961,44.6066857 30.9316998,46.9865307 37.6341989,48.810081 C37.8251613,48.8620808 38.0264941,48.8620808 38.2176046,48.810081 C39.4854528,48.4651931 40.7858935,48.0884534 42.0829268,47.6903805 C43.4744783,47.2102338 42.8510727,45.1829804 41.4310768,45.5659422 C40.2559691,45.9265338 39.0783429,46.2693476 37.9260499,46.5859393 C22.7383902,42.4112847 9.15472576,35.3696754 3.94244454,32.4907208 C7.01784305,31.5541309 12.5847899,29.7402102 18.9880306,27.1025882 C24.5297924,29.4557666 30.9318479,31.8356116 37.6343471,33.6591619 C37.8253095,33.7111617 38.0266422,33.7111617 38.2177528,33.6591619 C44.9202519,31.8356116 51.3224556,29.4557666 56.8642173,27.1025882 C63.2680507,29.7405065 68.8360346,31.5547235 71.9111368,32.4911652 C67.6767786,34.8323437 57.9142884,39.9246252 46.2726924,43.9786876 C44.8950668,44.5154267 45.6060277,46.5142358 47.0036533,46.0773482 C50.4898654,44.8632776 53.8111891,43.5566147 56.871921,42.2564703 C63.2732358,44.8929071 68.8384049,46.7060871 71.9123219,47.6422325 C69.050108,49.2257835 63.6650866,52.0660716 56.908958,54.9783594 C55.5735544,55.6121354 56.4257001,57.555389 57.788511,57.0189461 C68.0732219,52.5859219 75.2414975,48.305638 75.3126084,48.2629715 C75.6949777,48.0334906 75.9031252,47.5976401 75.8411995,47.1560117 C75.7794219,46.7143833 75.4595709,46.3524585 75.0289055,46.2369032 C74.9569057,46.217644 68.3415175,44.4287603 59.7273202,41.013511 C68.9751453,36.8910044 75.2252012,33.1644966 75.3126084,33.1120523 C75.6943851,32.8828678 75.9026808,32.4470172 75.8409032,32.0053889 L75.8409032,32.0053889 Z" id="Path"></path>
                                <path d="M52.4046747,56.8430948 C47.4338743,58.8161261 42.5642587,60.4620473 37.9257536,61.7370065 C30.4786641,59.6906421 22.6057979,56.7513913 14.5188584,52.998217 C13.9624156,52.7398474 13.3016767,52.9817726 13.0433071,53.5383636 C12.7849375,54.0949546 13.0268627,54.7556934 13.5834537,55.0139149 C21.8890593,58.8685704 29.9807396,61.8786358 37.6341989,63.9610001 C37.8251613,64.013 38.0264941,64.013 38.2176046,63.9610001 C43.0235166,62.6534483 48.0725391,60.9536014 53.2246723,58.9085703 C53.7951892,58.6822006 54.073855,58.0362765 53.8474853,57.4659078 C53.6208193,56.8955391 52.9744508,56.6171695 52.4046747,56.8430948 Z" id="Path"></path>
                            </g>
                        </g>
                    </g>
                </g>
            </g>
        </g>
    </g>
</svg>