<svg width="574" height="500" xmlns="http://www.w3.org/2000/svg">
    <g fill="none" fill-rule="evenodd">
        <g transform="matrix(-1 0 0 1 487.964 164.758)">
            <path d="M71.419 172.547c16.523 3.91 77.249 92.699 49.87 110.97-9.915 6.616-59.183-24.359-49.87-110.97zM408.189 171.645c-27.94 25.863-45.007 104.862-28.543 112.47 15.625 7.221 33.05-55.932 28.543-112.47z" fill="#131B5F" fill-rule="nonzero"/>
            <path d="M458.96 70.298c-.13-.27-.261-.535-.394-.798a13.416 13.416 0 0 0-.421-1.198c4.48-9.848 2.263-21.379-5.193-19.657 0 0-3.304-8.721-10.016-6.116-.799-3.207-4.404-10.424-11.013-5.913-3.304-5.413-9.696-4.696-11.115 2.406-.601 3.007 1.072 9.888 2.689 14.322C415.7 41.729 407.6 38.04 411.194 50.75c13.519 47.817 7.21 91.724 10.988 134.88l-13.992-13.985s-38.803 25.2-34.873 80.115c25.86 14.315 107.553 32.715 114.024-42.974 4.665-54.584-18.067-116.926-28.381-138.488z" fill="#F4ADA2" fill-rule="nonzero"/>
            <g fill="#9B3C82" fill-rule="nonzero">
                <path d="M433.574 72.463a.81.81 0 0 1-.776-.578c-1.351-4.508-3.95-9.907-7.725-16.048a.812.812 0 0 1 .667-1.237.81.81 0 0 1 .714.386c3.849 6.262 6.506 11.79 7.897 16.432a.812.812 0 0 1-.777 1.045zM438.741 67.01c-2.306 0-4.356-3.44-6.25-10.485a.812.812 0 0 1 .992-.995c.28.074.499.293.574.573 2.497 9.281 4.484 9.345 4.856 9.265 1.082-.234 2.594-2.886 3.54-8.282.89-5.091.978-10.84.235-15.377a.812.812 0 0 1 1.09-.905c.273.106.469.352.51.643 1.615 9.862-.62 24.553-5.032 25.507a2.4 2.4 0 0 1-.515.056z"/>
                <path d="M447.484 69.404a2.26 2.26 0 0 1-.997-.232c-2.329-1.145-3.51-6.584-3.51-16.166a.811.811 0 1 1 1.622 0c0 2.243.126 13.492 2.603 14.71.117.058.43.212 1.059-.274 2.787-2.156 5.907-12.04 4.345-19.687a.812.812 0 0 1 1.052-.932c.274.092.48.323.537.607.74 3.63.532 8.228-.574 12.615-1.04 4.122-2.673 7.369-4.37 8.682a2.874 2.874 0 0 1-1.767.677z"/>
                <path d="M454.974 72.388c-.258 0-.514-.034-.762-.101-1.686-.462-3.546-2.579-2.819-10.037a.811.811 0 1 1 1.614.157c-.55 5.649.483 7.999 1.633 8.314 1.118.306 2.83-1.078 3.736-3.022a.81.81 0 1 1 1.469.687c-.966 2.07-2.913 4.002-4.871 4.002zM444.389 89.905a.811.811 0 0 1-.799-.678c-1.27-7.621.72-16.225 3.107-20.995a.81.81 0 1 1 1.45.727c-2.272 4.542-4.167 12.738-2.958 20.001a.812.812 0 0 1-.8.945zM424.862 203.282a.81.81 0 0 1-.776-.577 116.44 116.44 0 0 1-3.8-19.693.811.811 0 1 1 1.613-.16 114.527 114.527 0 0 0 3.74 19.383.812.812 0 0 1-.777 1.047z"/>
            </g>
            <path d="M487.34 208.785c-5.401 63.184-61.336 64.573-96.29 51.831a91.634 91.634 0 0 1-2.06-.775c-6.072-2.364-11.429-5.15-15.674-8.081-3.9-54.508 34.3-79.74 34.867-80.112l.006-.003 13.994 13.984c-3.78-43.155 2.529-87.063-10.99-134.88-3.593-12.708 4.508-9.021 12.302 2.593-1.616-4.433-3.29-11.313-2.688-14.32 1.417-7.104 7.81-7.82 11.115-2.407 6.61-4.512 10.215 2.707 11.014 5.913 6.712-2.605 10.015 6.117 10.015 6.117 7.457-1.724 9.674 9.81 5.192 19.656.161.392.303.793.423 1.2.133.262.265.527.394.798 10.313 21.561 33.046 83.903 28.38 138.486z" fill="#F4ADA2" fill-rule="nonzero"/>
            <g fill-rule="nonzero">
                <path d="M438.741 67.01c-2.306 0-4.356-3.44-6.25-10.485a.812.812 0 0 1 .992-.995c.28.074.499.293.574.573 2.497 9.281 4.484 9.345 4.856 9.265 1.082-.234 2.594-2.886 3.54-8.282.89-5.091.978-10.84.235-15.377a.812.812 0 0 1 1.09-.905c.273.106.469.352.51.643 1.615 9.862-.62 24.553-5.032 25.507a2.4 2.4 0 0 1-.515.056z" fill="#9B3C82"/>
                <path d="M447.484 69.404a2.26 2.26 0 0 1-.997-.232c-2.329-1.145-3.51-6.584-3.51-16.166a.811.811 0 1 1 1.622 0c0 2.243.126 13.492 2.603 14.71.117.058.43.212 1.059-.274 2.787-2.156 5.907-12.04 4.345-19.687a.812.812 0 0 1 1.052-.932c.274.092.48.323.537.607.74 3.63.532 8.228-.574 12.615-1.04 4.122-2.673 7.369-4.37 8.682a2.874 2.874 0 0 1-1.767.677z" fill="#9B3C82"/>
                <path d="M454.974 72.388c-.258 0-.514-.034-.762-.101-1.686-.462-3.546-2.579-2.819-10.037a.811.811 0 1 1 1.614.157c-.55 5.649.483 7.999 1.633 8.314 1.118.306 2.83-1.078 3.736-3.022a.81.81 0 1 1 1.469.687c-.966 2.07-2.913 4.002-4.871 4.002z" fill="#131B5F"/>
                <path d="M424.862 203.281a.81.81 0 0 1-.77-.555c-.031-.093-3.114-9.464-3.808-19.74a.812.812 0 1 1 1.617-.108c.68 10.06 3.7 19.244 3.73 19.336a.812.812 0 0 1-.77 1.067h.001z" fill="#9B3C82"/>
            </g>
            <path d="M116.428 239.358c.02 3.3-.162 6.598-.547 9.876l-.187.12c-3.858 2.451-8.79 4.704-14.428 6.557-.686.226-1.382.444-2.088.656-.094.03-.187.06-.283.087-35.33 10.57-94.878 5.544-98.613-59.191C-3.686 128.64 35.5 58.8 35.678 58.413c-4.04-10.035-1.316-21.457 6.056-19.406 0 0 3.69-8.565 10.278-5.666.94-3.167 4.86-10.216 11.265-5.416 3.542-5.263 9.896-4.261 10.999 2.896.465 3.031-1.511 9.83-3.323 14.188 8.304-11.256 16.56-14.582 12.405-2.045-15.625 47.17-11.266 91.316-16.953 134.26l5.014-4.677s9.123 3.951 19.154 12.66c12.167 10.565 25.668 28.132 25.855 54.15z" fill="#F4ADA2" fill-rule="nonzero"/>
            <g fill="#131B5F" fill-rule="nonzero">
                <path d="M60.073 63.663a.81.81 0 0 1-.765-1.079c1.596-4.577 4.495-9.981 8.617-16.064a.81.81 0 1 1 1.342.91c-4.043 5.967-6.879 11.246-8.429 15.69a.81.81 0 0 1-.765.543zM48.497 80.608a.812.812 0 0 1-.795-.98c1.53-7.202 0-15.474-2.069-20.111a.812.812 0 0 1 1.48-.662c2.174 4.869 3.78 13.554 2.174 21.112a.81.81 0 0 1-.79.641zM62.979 194.739a.81.81 0 0 1-.765-1.082 114.713 114.713 0 0 0 4.594-19.196.811.811 0 1 1 1.605.23 116.423 116.423 0 0 1-4.67 19.506.81.81 0 0 1-.764.542z"/>
            </g>
            <path d="M379.646 284.116c-.357-.18-21.928-9.02-35.446-22.552 0 0 3.92 14.095 9.406 34.474a5112.775 5112.775 0 0 1 7.922 29.782c-26.883 5.72-69.698 9.422-117.924 9.422-28.405 0-54.929-1.287-77.43-3.51a76.957 76.957 0 0 1-.86-.087c-10.85-1.088-20.753-2.397-29.455-3.888 0 0 1.961-15.335 3.911-32.76 1.058-9.427 2.108-19.469 2.848-28.022 0 0-12.317 11.73-21.33 16.54 8.412-6.615-17.124-76.385-49.87-110.97 0 0 79.011-86.91 140.297-38.192L273 137.059c12.919-9.923 48.067-46.01 135.189 34.586-26.136 24.96-43.861 100.745-28.543 112.47z" fill="#0057FC" fill-rule="nonzero"/>
            <path d="M259.06 178.453a8.364 8.364 0 0 1-4.665-1.47c-4.154-2.74-7.653-9.261-10.406-19.38a118.065 118.065 0 0 1-2.52-11.799c-1.04 2.07-2.149 4.486-3.304 7.003-5.254 11.444-11.707 25.506-19.811 25.506-.574 0-1.146-.07-1.703-.206-2.997-.728-5.416-3.057-7.186-6.923-2.177-4.753-3.247-11.816-2.934-19.383.307-7.422 1.879-14.408 4.313-19.168a.81.81 0 1 1 1.444.739c-4.977 9.738-5.632 27.784-1.348 37.136 1.554 3.392 3.604 5.417 6.094 6.022.433.105.876.159 1.322.16 7.064 0 13.282-13.548 18.337-24.56 1.605-3.497 3.12-6.8 4.507-9.296l1.206-2.173.307 2.467c.033.264 3.393 26.444 12.577 32.503a6.595 6.595 0 0 0 5.755.909c3.959-1.145 7.855-6.16 10.168-13.09 2.748-8.234 3.154-18.457 1.144-28.787a.812.812 0 1 1 1.591-.31c2.063 10.6 1.638 21.116-1.197 29.61-2.517 7.542-6.725 12.826-11.256 14.136-.79.233-1.61.352-2.434.354z" fill="#131B5F" fill-rule="nonzero"/>
            <path d="M245.813 215.612a.805.805 0 0 1-.107-.007 19.994 19.994 0 0 1-5.913-1.941c-4.048-2.082-6.503-5.288-7.1-9.27-1.803-12.034 8.002-59.326 8.42-61.334a.812.812 0 1 1 1.589.332c-.102.488-10.164 49.013-8.403 60.762 1.255 8.378 11.517 9.828 11.621 9.841a.811.811 0 0 1-.105 1.617h-.002z" fill="#FCB6B1" fill-rule="nonzero"/>
            <path d="M141.266 270.645a.81.81 0 0 1-.62-1.335c14.5-17.179 27.123-39.939 27.249-40.167a.81.81 0 1 1 1.419.785c-.127.23-12.825 23.126-27.428 40.43a.81.81 0 0 1-.62.287z" fill="#131B5F" fill-rule="nonzero"/>
            <path d="M345.551 264.12c-14.12-14.736-31.142-36.755-31.142-36.755"/>
            <path d="M245.813 215.612a.805.805 0 0 1-.107-.007 19.994 19.994 0 0 1-5.913-1.941c-4.048-2.082-6.503-5.288-7.1-9.27-1.803-12.034 8.002-59.326 8.42-61.334a.812.812 0 1 1 1.589.332c-.102.488-10.164 49.013-8.403 60.762 1.255 8.378 11.517 9.828 11.621 9.841a.811.811 0 0 1-.105 1.617h-.002z" fill="#131B5F" fill-rule="nonzero"/>
            <g fill-rule="nonzero">
                <path d="M224.45 26.322c9.577 8.883 24.442 51.364 24.442 51.364s16.73-8.399 25.774-9.71a14.01 14.01 0 0 1 2.394-.17c.613-3.12 2.036-6.126 3.808-8.865v-.005c3.15-4.872 7.393-8.888 10.104-11.149 11.535-9.621 2.38-32.795-16.113-29.086 2.81-12.483-15.392-24.58-27.11-12.092-3.518-4.785-9-6.739-13.234-6.602-11.165.355-22.02 15.227-10.066 26.315z" fill="#131B5F"/>
                <path d="M191.29 65.248c-2.401 3.854-2.432 9.145.564 13.705 7.795 11.871 27.255 16.183 27.255 16.183s-3.717 21.582-7.394 39.218c0 0 24.634 18.345 61.285 2.707 0 0-5.407-24.36-10.427-42.333 8.29 2.975 21.233.123 24.9-10.742 2.194-6.503-1.817-14.757-8.958-16.183-6.935-1.386-11.093 1.035-18.7 3.81-7.058 2.577-6.946-.866-6.887-8.374.053-6.664-1.63-13.397-3.34-17.514-3.861-9.311-16.368-15.962-25.139-19.405a161.413 161.413 0 0 1-11.02 18.27c-7.1 10.283-16.534 11.664-22.139 20.658z" fill="#F4ADA2"/>
                <path d="m247.727 52.12.316-.656a9.295 9.295 0 0 0 .594-1.869c.174-.848.246-1.715.215-2.58a11.58 11.58 0 0 0-1.426-5.204 10.526 10.526 0 0 0-1.69-2.318 9.549 9.549 0 0 0-2.307-1.753 8.373 8.373 0 0 0-2.682-.918 6.58 6.58 0 0 0-2.765.103 2.17 2.17 0 0 0-1.282 3.267l.218.339c.432.67.84 1.158 1.179 1.652.354.468.639.917.918 1.313.54.811 1.016 1.5 1.532 2.294.515.786 1.013 1.688 1.568 2.705l.862 1.613c.147.282.308.572.471.867.35.695.879 1.285 1.532 1.707.34.22.73.356 1.133.396a1.662 1.662 0 0 0 1.421-.645c.075-.098.14-.202.193-.313zM241.669 55.925c-1.618-1.32-5.573-4.394-8.565-8.547a1.29 1.29 0 0 0-1.813-.286c-1.494 1.095-3.594 3.289-1.192 5.856 2.95 3.154 9.365 5.019 11.437 4.095a.664.664 0 0 0 .133-1.118zM218.744 39.515c1.719 1.183 3.15 1.748 6.725 3.074a1.298 1.298 0 0 1 .784 1.66c-.628 1.743-2.282 2.978-5.055 1.91-3.087-1.188-3.803-4.295-3.488-6.202a.667.667 0 0 1 1.034-.442z" fill="#131B5F"/>
                <g fill="#131B5F">
                    <path d="M264.712 96.993a.835.835 0 0 1-.094-.006c-.146-.017-3.638-.464-8.407-4.74a.812.812 0 1 1 1.082-1.208c4.341 3.895 7.485 4.334 7.516 4.338a.811.811 0 0 1-.097 1.617v-.001zM215.47 29.168l.46-.47c.146-.143.294-.277.447-.4.302-.25.621-.478.955-.683a9.805 9.805 0 0 1 2.123-.98 10.436 10.436 0 0 1 4.855-.395 9.481 9.481 0 0 1 2.489.722 8.623 8.623 0 0 1 2.2 1.42 7.584 7.584 0 0 1 1.607 1.996c.422.73.683 1.542.768 2.382a1.963 1.963 0 0 1-2.377 2.1l-.355-.082c-.702-.16-1.242-.357-1.765-.491-.507-.156-.975-.26-1.398-.375-.853-.209-1.586-.4-2.42-.594-.825-.195-1.745-.339-2.778-.497l-1.635-.235c-.285-.037-.58-.085-.881-.133a3.94 3.94 0 0 1-1.922-.775 2.3 2.3 0 0 1-.685-.84c-.2-.458-.16-.986.108-1.408.059-.094.128-.182.204-.262z"/>
                </g>
                <path d="M260.99 83.104a.81.81 0 0 1-.577-1.381c4.9-4.976 9.807-5.731 13.063-5.488 2.105.137 4.153.744 5.995 1.775a.812.812 0 0 1-.857 1.378c-.346-.213-8.566-5.134-17.047 3.474a.808.808 0 0 1-.577.242zM217.398 55.48a.648.648 0 0 1-.572-.343c-1.175-2.196-1.5-3.685-1.056-4.825.566-1.449 2.25-2.036 4.201-2.715 4.329-1.508 4.798-3.782 4.802-3.805a.654.654 0 0 1 .746-.526.645.645 0 0 1 .534.733c-.02.123-.521 3.035-5.656 4.824-1.911.666-3.095 1.13-3.42 1.961-.286.735.038 1.958.991 3.74a.65.65 0 0 1-.571.956h.001z" fill="#131B5F"/>
            </g>
            <path d="M218.833 71.853a5.951 5.951 0 0 0 .557-1.217c.127-.396.217-.803.268-1.217.099-.825.062-1.662-.11-2.475a6.97 6.97 0 0 0-1.003-2.418 4.862 4.862 0 0 0-2.192-1.85 1.596 1.596 0 0 0-2.173 1.354l-.04.513c-.057.613-.058 1.23-.004 1.843.042.572.133 1.138.272 1.694.14.606.32 1.201.54 1.782.123.305.255.617.413.933.083.159.162.317.262.478a2.7 2.7 0 0 0 .316.461l.394.411a1.577 1.577 0 0 0 2.5-.292z" fill="#131B5F" fill-rule="nonzero"/>
            <ellipse fill="#FFDD0F" fill-rule="nonzero" cx="242.358" cy="175.554" rx="1.803" ry="1.805"/>
            <ellipse fill="#FFDD0F" fill-rule="nonzero" cx="240.555" cy="198.41" rx="1.803" ry="1.805"/>
        </g>
        <g transform="matrix(-1 0 0 1 574 0)" fill-rule="nonzero">
            <path d="M257.54 151.689 87.672 245.461a8.303 8.303 0 0 1-11.286-3.262L6.493 115.484l-4.832-8.759a8.313 8.313 0 0 1 3.26-11.29L174.79 1.661a8.304 8.304 0 0 1 11.286 3.262l4.857 8.807L260.8 140.398a8.313 8.313 0 0 1-3.26 11.291z" fill="#FFF"/>
            <path d="M83.671 247.129c-.843 0-1.682-.12-2.492-.355a8.879 8.879 0 0 1-5.345-4.27L5.942 115.787 1.11 107.03c-2.378-4.324-.81-9.757 3.506-12.148L174.486 1.11a8.946 8.946 0 0 1 12.141 3.51l4.857 8.806 69.869 126.667c2.384 4.324.813 9.762-3.508 12.147L87.976 246.013a8.873 8.873 0 0 1-4.305 1.116zM178.79 1.259a7.629 7.629 0 0 0-3.695.955L5.224 95.986a7.692 7.692 0 0 0-3.011 10.435l4.832 8.758 69.892 126.715a7.677 7.677 0 0 0 10.43 3.015l169.868-93.772a7.682 7.682 0 0 0 3.014-10.435L190.382 14.035l-4.857-8.807a7.685 7.685 0 0 0-6.736-3.969z" fill="#0057FC"/>
            <path d="M191.311 13.73 6.871 115.485l-4.832-8.759a8.313 8.313 0 0 1 3.26-11.29L175.168 1.661a8.304 8.304 0 0 1 11.286 3.262l4.857 8.807z" fill="#0057FC"/>
            <ellipse fill="#FFF" cx="178.334" cy="10.001" rx="2.573" ry="2.574"/>
            <ellipse fill="#FFF" cx="170.673" cy="14.233" rx="2.573" ry="2.574"/>
            <ellipse fill="#FFF" cx="163.012" cy="18.466" rx="2.573" ry="2.574"/>
        </g>
        <path d="M417.67 217.117s1.951-14.415 1.495-24.89c-.456-10.475-3.742-15.684-7.525-5.77-3.122 8.182-6.987 12.995-6.987 12.995s-.576 6.976 3.175 12.399c2.829 4.09 9.841 5.266 9.841 5.266z" fill="#F4ADA2" fill-rule="nonzero"/>
        <g transform="rotate(52.556 -50.084 221.882)" fill-rule="nonzero">
            <rect fill="#131B5F" x="8.118" y="17.437" width="10.756" height="113.563" rx="5.378"/>
            <path d="M23.007 111.741v44.554a9.25 9.25 0 0 1-18.5 0v-44.554a9.25 9.25 0 0 1 18.5 0z" fill="#FFDD0F"/>
            <path d="M9.598 34.295h8.317c2.86 0 5.104-3.322 4.852-7.187L21.387 6.02C21.164 2.613 19.06 0 16.536 0h-5.559c-2.52 0-4.628 2.613-4.851 6.02l-1.38 21.088c-.253 3.862 1.991 7.187 4.852 7.187z" fill="#131B5F"/>
            <rect fill="#FFDD0F" y="97.72" width="27.601" height="15.296" rx="7.648"/>
        </g>
        <g fill-rule="nonzero">
            <path d="M56.198 234.45c6.432 3.015 16.087 2.262 16.087 2.262.235-5.905.58-11.827-.834-18.495-2.751-12.961-4.749-7.564-6.233-2.473a75.405 75.405 0 0 1-2.925 7.953s-2.547 6.038-6.095 10.752z" fill="#F4ADA2"/>
            <path d="M40.352 232.086c.163-.1.308-.228.427-.378.286-.35.984-1.213-.664-4.585 5.241 4.03 7.082 4.079 8.017 3.7.083-.034.164-.074.24-.12.536-.342.865-.93.879-1.566.128-1.334-.56-3.448-1.716-5.834 3.385 3.46 5.875 4.981 7.548 4.633.228-.044.447-.129.647-.248a2.443 2.443 0 0 0 1.057-1.518c.545-1.946-.155-5.262-1.53-8.495 9.516 11.01 8.633 2.933 8.36 1.613-1.073-5.186-3.83-10.474-7.843-13.786-6.523-5.385-11.308 1.46-11.308 1.46-.659-.421-5.807-2.238-8.182 3.24a.903.903 0 0 0-.013.032c-6.225-1.581-7.298 2.734-7.536 3.693-4.25-.315-7.716 3.392-5.02 7.9 4.188 6.998 15.31 11.049 16.637 10.259z" fill="#F4ADA2"/>
            <g fill="#131B5F">
                <path d="M58.005 222.123a.698.698 0 0 0 .297-.833c-2.501-7.009-8.858-14.018-14.786-16.304a.695.695 0 0 0-.937.762c.04.246.208.454.44.544 5.586 2.153 11.592 8.802 13.969 15.464a.7.7 0 0 0 1.017.367zM50.41 227.076a.698.698 0 0 0 .275-.89c-2.731-5.97-9.947-15.23-14.811-17.775a.696.696 0 0 0-1.018.65c.011.25.155.475.376.59 4.5 2.356 11.56 11.38 14.186 17.114a.703.703 0 0 0 .925.348.755.755 0 0 0 .067-.037zM42.215 230.347a.697.697 0 0 0 .322-.75c-1.003-4.507-8.263-14.655-14.223-17.504a.696.696 0 0 0-1.004.684.703.703 0 0 0 .408.578c5.535 2.647 12.532 12.386 13.457 16.54.049.22.2.403.406.493.207.089.443.074.635-.042l-.001.001z"/>
            </g>
        </g>
        <path d="M430.833 117.896c-3.163-1.21-5.408-4.238-5.408-7.79 0-3.463 2.132-6.434 5.17-7.702.89-.372 1.345-1.357 1.02-2.257a30.609 30.609 0 0 0-1.62-3.71c-.42-.813-1.402-1.205-2.257-.862-3.058 1.229-6.694.62-9.175-1.83a8.276 8.276 0 0 1-1.912-8.9c.331-.854-.08-1.818-.912-2.218a31.297 31.297 0 0 0-3.806-1.534c-.87-.286-1.841.103-2.216.93A8.456 8.456 0 0 1 402 86.968a8.456 8.456 0 0 1-7.717-4.945c-.374-.827-1.345-1.216-2.215-.93-1.309.431-2.58.944-3.806 1.534-.833.4-1.243 1.364-.912 2.217a8.276 8.276 0 0 1-1.913 8.9c-2.48 2.452-6.116 3.06-9.174 1.83-.856-.343-1.837.05-2.257.863a30.751 30.751 0 0 0-1.62 3.71c-.324.9.129 1.885 1.02 2.257 3.038 1.268 5.17 4.239 5.17 7.703 0 3.552-2.246 6.58-5.408 7.789a1.79 1.79 0 0 0-1.08 2.227c.427 1.3.94 2.56 1.528 3.778.419.867 1.466 1.265 2.352.868 3.115-1.394 6.907-.832 9.469 1.699a8.276 8.276 0 0 1 1.665 9.47 1.785 1.785 0 0 0 .817 2.375c1.228.61 2.5 1.14 3.815 1.59a1.826 1.826 0 0 0 2.304-1.11c1.167-3.233 4.288-5.548 7.962-5.548 3.673 0 6.794 2.315 7.961 5.547a1.826 1.826 0 0 0 2.304 1.11 31.376 31.376 0 0 0 3.815-1.589 1.784 1.784 0 0 0 .817-2.375 8.276 8.276 0 0 1 1.665-9.47c2.562-2.53 6.354-3.093 9.47-1.699a1.81 1.81 0 0 0 2.351-.868c.59-1.217 1.101-2.478 1.527-3.778a1.787 1.787 0 0 0-1.077-2.227zm-28.83 1.018c-4.675 0-8.463-3.743-8.463-8.36 0-4.617 3.789-8.359 8.462-8.359s8.463 3.743 8.463 8.36c0 4.616-3.789 8.36-8.463 8.36z" fill="#0057FC" fill-rule="nonzero"/>
        <g fill="#FF1F25" fill-rule="nonzero">
            <path d="M162.434 110.213a1.3 1.3 0 0 1-1.297-1.268l-1.085-41.82a1.3 1.3 0 0 1 1.263-1.336 1.3 1.3 0 0 1 1.33 1.269l1.087 41.818a1.3 1.3 0 0 1-1.263 1.337h-.035zM136.434 122.618c-.306 0-.602-.108-.836-.307l-31.816-26.99a1.307 1.307 0 0 1-.15-1.832 1.293 1.293 0 0 1 1.824-.16l31.816 26.99c.416.354.568.93.38 1.444a1.298 1.298 0 0 1-1.218.855z"/>
        </g>
        <path d="M471.144 166.89c-2.32-.881-3.965-3.088-3.965-5.677 0-2.524 1.563-4.69 3.791-5.614.653-.27.986-.989.748-1.644a22.237 22.237 0 0 0-1.188-2.705 1.33 1.33 0 0 0-1.656-.628c-2.242.896-4.908.453-6.728-1.333a6.005 6.005 0 0 1-1.402-6.487c.243-.622-.058-1.325-.669-1.617-.9-.43-1.831-.804-2.791-1.117-.638-.208-1.35.075-1.625.678A6.204 6.204 0 0 1 450 144.35a6.204 6.204 0 0 1-5.659-3.604c-.274-.603-.987-.886-1.624-.678-.96.314-1.893.688-2.792 1.117-.61.292-.911.995-.669 1.617a6.005 6.005 0 0 1-1.402 6.487c-1.82 1.786-4.485 2.229-6.728 1.333a1.328 1.328 0 0 0-1.655.628 22.34 22.34 0 0 0-1.188 2.705c-.238.656.095 1.373.748 1.644 2.228.925 3.791 3.09 3.791 5.614 0 2.59-1.646 4.796-3.966 5.677-.66.251-1.01.962-.79 1.624.312.946.687 1.865 1.119 2.753a1.33 1.33 0 0 0 1.725.633c2.284-1.017 5.065-.607 6.943 1.237a6.004 6.004 0 0 1 1.222 6.902 1.297 1.297 0 0 0 .599 1.732c.9.444 1.834.83 2.797 1.158a1.341 1.341 0 0 0 1.69-.81c.856-2.355 3.145-4.042 5.839-4.042 2.693 0 4.982 1.687 5.838 4.043a1.341 1.341 0 0 0 1.69.809 23.088 23.088 0 0 0 2.797-1.158c.648-.32.909-1.089.6-1.732a6.004 6.004 0 0 1 1.22-6.902c1.88-1.844 4.66-2.254 6.945-1.237a1.33 1.33 0 0 0 1.724-.633c.433-.887.808-1.806 1.12-2.753a1.3 1.3 0 0 0-.79-1.624zm-21.142.742c-3.428 0-6.206-2.728-6.206-6.092 0-3.365 2.779-6.093 6.206-6.093 3.427 0 6.205 2.728 6.205 6.093 0 3.364-2.778 6.092-6.205 6.092z" fill="#FFDD0F" fill-rule="nonzero"/>
        <path d="M487.339 114.637c-1.793-.677-3.065-2.37-3.065-4.357 0-1.937 1.208-3.6 2.93-4.308.505-.208.762-.76.578-1.262a17.006 17.006 0 0 0-.918-2.076 1.03 1.03 0 0 0-1.28-.482c-1.732.687-3.792.347-5.198-1.023a4.586 4.586 0 0 1-1.084-4.979c.188-.477-.045-1.016-.517-1.24a17.87 17.87 0 0 0-2.157-.858c-.492-.16-1.043.058-1.255.52-.748 1.63-2.422 2.766-4.373 2.766-1.95 0-3.624-1.136-4.373-2.766-.212-.462-.762-.68-1.255-.52-.742.241-1.462.528-2.157.858-.472.224-.704.763-.517 1.24a4.586 4.586 0 0 1-1.083 4.979c-1.406 1.37-3.467 1.71-5.2 1.023a1.03 1.03 0 0 0-1.279.482c-.35.668-.657 1.361-.918 2.076-.183.503.074 1.054.578 1.262 1.722.709 2.93 2.37 2.93 4.308 0 1.987-1.272 3.68-3.064 4.357a.998.998 0 0 0-.612 1.246c.242.726.532 1.431.866 2.113.237.484.83.707 1.332.485 1.766-.78 3.915-.465 5.366.95a4.585 4.585 0 0 1 .944 5.297.993.993 0 0 0 .463 1.329c.696.34 1.417.637 2.161.888.536.18 1.115-.1 1.306-.62.662-1.808 2.43-3.103 4.512-3.103 2.081 0 3.85 1.295 4.511 3.103.191.52.77.8 1.306.62a17.91 17.91 0 0 0 2.162-.888.992.992 0 0 0 .463-1.33 4.585 4.585 0 0 1 .943-5.296c1.452-1.415 3.6-1.73 5.366-.95a1.031 1.031 0 0 0 1.333-.485c.334-.681.624-1.387.865-2.113a.996.996 0 0 0-.61-1.246zm-16.338.57c-2.648 0-4.795-2.094-4.795-4.676 0-2.583 2.147-4.676 4.795-4.676s4.796 2.093 4.796 4.676c0 2.582-2.147 4.675-4.796 4.675z" fill="#FF1F25" fill-rule="nonzero"/>
    </g>
</svg>
