<svg xmlns="http://www.w3.org/2000/svg" width="181" height="154" viewBox="0 0 181 154"><g fill-rule="nonzero" fill="none"><path d="M9.363 28.307c2.453-2.192 3.834-5.618 3.614-8.972-.22-3.351-2.032-6.552-4.748-8.379.767 1.846 1.405 3.789 1.587 5.792.178 2.002-.335 4.177-1.79 5.501.194-3.737-.026-7.387-1.223-10.914C5.606 7.807 3.263 4.575 0 3a15.455 15.455 0 0 1 2.84 4.628c.661 1.686.924 3.565.562 5.346-.424 2.076-1.65 3.875-2.284 5.893-.765 2.446-.57 5.29.865 7.385 1.432 2.097 5.504 3.732 7.38 2.055" fill="#AC372B"></path><path d="M177 104.768c-4.883 3.49-9.204 6.097-14.898 8.232 0 0-46.867-3.77-65.1-8.162l-.002-.005c7.248-2.949 14.51-6.395 21.3-9.833l58.7 9.768" fill="#874E29"></path><path d="m111 20.26.659-.26c12.073 2.712 29.27 7.554 40.909 10.956.994 5.879 4.182 11.363 8.806 15.143 4.624 3.78 10.642 5.826 16.619 5.646 4.194 17.095 4.078 35.902-.833 52.806-.217.154-.427.297-.642.449l-58.61-9.617-.305.15c1.95-24.704-.927-50.34-6.603-75.273" fill="#B77433"></path><path d="M89.63 28.791 111.786 20c5.677 24.99 8.554 50.685 6.605 75.446-6.697 3.345-13.836 6.687-20.967 9.554-6.69-23.985-9.872-50.934-7.796-76.209" fill="#E8B935"></path><path d="M65.323 23.27C66.396 16.51 70.465 10.036 76.715 7c3.767 1.675 7.36 3.75 10.459 6.48 3.9 3.436 6.997 7.94 8.212 13.03 1.114 4.66.61 9.597-.695 14.208C92.453 48.6 87.79 55.72 81.6 61c-4.635-5.05-9.443-11.773-12.514-17.8-3.128-6.14-4.842-13.145-3.764-19.93" fill="#465E5B"></path><path d="M94.307 40.83c1.33-4.621 1.842-9.569.708-14.241-1.237-5.1-4.39-9.615-8.364-13.06C83.495 10.794 79.836 8.713 76 7.035L76.063 7c20.822 2.945 60.993 14.769 60.993 14.769 7.34 6.47 11.455 16.209 10.893 25.79-.56 9.578-5.78 18.807-13.828 24.441-17.37-1.64-52.881-10.547-52.881-10.547l-.265-.294c6.305-5.292 11.053-12.429 13.332-20.328" fill="#263542"></path><path d="M25.88 27.828C41.527 31.754 57.523 35.254 73.143 37c3.962-2.41 6.606-6.844 6.84-11.463.235-4.62-1.948-9.296-5.647-12.09C69.682 10.267 44.174 2.39 27.965.072c-3.357-.478-6.843 1.472-8.454 4.445-1.61 2.974-1.696 6.53-1.337 9.89.275 2.562.795 5.13 1.934 7.442 1.138 2.314 3.266 5.35 5.773 5.98" fill="#263542"></path><path d="M27.978.072C43.133 2.232 66.4 9.224 73.21 12.72c2.982 2.842 4.418 7.253 3.528 11.273-.12-.05-29.478-8.415-46.06-11.23 1.534 6.105-.725 11.943-1.505 13.164-.559.877-1.355 1.623-2.287 2.073-.331-.082-.665-.16-.996-.244-2.51-.628-4.64-3.655-5.78-5.964-1.141-2.305-1.661-4.867-1.937-7.422-.359-3.351-.274-6.899 1.339-9.864C21.126 1.54 24.616-.405 27.978.072" fill="#465E5B"></path><path d="M25.557 17.529c-.073.287-.15.528-.229.707-.14.326-.393.62-.728.724-.338.103-.716-.002-1.006-.21-2.179-1.534-2.74-6.246-2.563-8.677.091-1.283.713-2.903 2.127-3.06 3.315-.373 3.136 7.556 2.399 10.516" fill="#141A25"></path><path d="M122 151.224c-1.586 2.28-5.226 2.667-8.098 2.765-3 .105-5.986-.579-8.777-1.666-5.49-2.14-10.312-5.883-13.687-10.624-3.374-4.74-7.296-11.824-7.438-17.598.231-.365.492-.734.733-1.101 7.757.385 15.407 2.519 21.878 6.667 7.692 4.933 13.516 12.811 15.389 21.557" fill="#465E5B"></path><path d="M104.72 99.13c7.12-2.316 15.303-1.017 21.368 3.393 6.064 4.408 9.861 11.818 9.912 19.346-3.365 11.939-8.913 19.42-14.082 28.826l-.223.305c-1.844-8.869-7.578-16.857-15.152-21.859-6.372-4.207-13.905-6.37-21.543-6.76 5.208-8.174 12.655-16.696 19.72-23.251" fill="#263542"></path><path d="M101.552 134.451a7.774 7.774 0 0 0-2.052-.435c-.874-.062-1.805.046-2.496.576-1.01.777-1.21 2.27-.813 3.475.804 2.436 2.782 4.591 5.08 5.658 1.57.729 4.891 2.217 6.295.427 1.292-1.646-.616-4.967-1.61-6.345-1.093-1.514-2.647-2.733-4.404-3.356" fill="#263542"></path><path d="M100.702 138.286a5.32 5.32 0 0 0-1.369-.276c-.58-.04-1.203.028-1.664.365-.673.496-.806 1.446-.542 2.213.537 1.55 1.855 2.92 3.387 3.6 1.047.464 3.262 1.412 4.197.273.86-1.048-.411-3.162-1.073-4.04a6.253 6.253 0 0 0-2.936-2.135" fill="#738D87"></path><path d="M59.266 18.853c-.478.635-.522 1.52-.275 2.275.247.755.75 1.397 1.298 1.968.477.504 1.015.975 1.663 1.219.647.241 1.43.222 1.978-.202 2.054-1.588-.245-5.487-2.204-6.008-.878-.232-1.913.02-2.46.748zm-14.275-3.564c-.477.633-.522 1.52-.275 2.275.247.755.75 1.397 1.298 1.968.48.502 1.015.973 1.665 1.217.646.243 1.428.224 1.976-.2 2.054-1.588-.245-5.487-2.204-6.007-.878-.232-1.912.018-2.46.747zm-8.814 6.966c.267.748.79 1.373 1.353 1.93.494.488 1.044.943 1.7 1.168.655.222 1.435.178 1.971-.263 2.006-1.647-.407-5.476-2.38-5.937-.886-.206-1.91.077-2.44.82-.456.649-.475 1.535-.204 2.282zm14.808 1.476c-.457.647-.475 1.535-.205 2.283.268.745.79 1.373 1.353 1.928.494.487 1.046.944 1.7 1.167.655.225 1.436.18 1.971-.26 2.006-1.65-.407-5.476-2.38-5.938-.885-.208-1.91.075-2.44.82zM65.59 27.49c-.458.646-.477 1.534-.207 2.282.268.745.79 1.373 1.354 1.928.493.488 1.045.942 1.7 1.167.655.225 1.435.18 1.97-.26 2.006-1.65-.407-5.476-2.38-5.94-.885-.206-1.91.078-2.437.823zM42.224 11.092c2.054-1.588-.247-5.487-2.204-6.007-.88-.235-1.912.018-2.462.747-.475.635-.522 1.52-.275 2.275.247.755.75 1.397 1.298 1.97.48.502 1.015.973 1.665 1.217.648.244 1.428.223 1.978-.202zm14.487 4.19c2.052-1.586-.247-5.485-2.206-6.005-.879-.235-1.913.018-2.46.747-.475.633-.522 1.52-.275 2.275.247.755.75 1.397 1.297 1.968.48.502 1.016.973 1.666 1.216.647.244 1.428.223 1.978-.201zm12.506 4.393c-.647-.243-1.185-.714-1.663-1.216-.547-.574-1.05-1.216-1.297-1.97-.247-.755-.203-1.64.275-2.273.547-.731 1.581-.982 2.46-.748 1.958.52 4.258 4.417 2.203 6.006-.547.424-1.33.445-1.978.201z" fill="#141A25"></path><path d="M154.123 95.455a50.675 50.675 0 0 0 .29-19.278c-1.17-.564-2.66-.966-3.943-1.177.826 6.505.633 13.217-.47 19.683 1.19.126 2.933.645 4.123.772zm8.4 1.771a50.579 50.579 0 0 0 .289-19.277c-1.167-.562-2.658-.965-3.94-1.178.826 6.508.633 13.217-.47 19.685 1.19.127 2.93.644 4.12.77zm4.28 1.002c1.101-6.466 1.296-13.177.47-19.683 1.28.213 2.772.613 3.94 1.177A50.675 50.675 0 0 1 170.925 99c-1.19-.126-2.933-.644-4.12-.772zM80 55 7.083 42.688 5 25l3.243 2.68 1.747 9.6L80 47.48V55" fill="#263542"></path><path d="M7.971 25.362c-.863-.667-1.33-1.762-1.536-2.858-.206-1.093-.187-2.22-.272-3.33-.088-1.112-.296-2.252-.903-3.174-1.605 1.684-2.443 4.355-2.226 6.713.096 1.064.411 2.131 1.06 2.962.648.833 1.66 1.396 2.688 1.318.362-.03.726-.14 1.014-.371.285-.234.195-.885.175-1.26" fill="#E8B935"></path><path d="M85 10c5.593 3.295 11.487 9.96 12.8 16.395C113.017 30.036 128.78 34.36 144 38c-.62-5.625-3.382-10.976-7.58-14.69C122.57 18.493 101.493 13.957 85 10M88 121.335c6.386.494 13.114 2.162 19.029 4.665A246.99 246.99 0 0 0 118 102.764c-3.89-1.475-8.602-2.273-12.66-1.405-6.294 5.946-11.971 13.516-17.34 19.976" fill="#465E5B"></path></g></svg>