<svg xmlns="http://www.w3.org/2000/svg" xmlns:xlink="http://www.w3.org/1999/xlink" width="133" height="154" viewBox="0 0 133 154"><defs><path d="M6.79 9C4.52 9 2.254 8.886.01 8.645-.115 5.724 1.109 2.392 2.588 0 9.175.581 15.615 3.236 21 7.59 16.34 8.497 11.553 9 6.79 9" id="22z1vbw5oa"></path><path d="M22 16c-7.675-2.022-15.223-5.008-22-9.037C1.233 4.135 4.036 1.562 6.663 0 13.144 3.702 18.507 9.296 22 16" id="dcziykwhyc"></path><path d="M22 16c-7.675-2.02-15.22-5.009-22-9.036C1.233 4.134 4.038 1.562 6.666 0 13.146 3.702 18.509 9.298 22 16" id="2cfioxgi0e"></path><path d="M23 12c-7.774-.302-15.636-1.548-23-3.952C.543 5.093 2.645 2.046 4.805 0 11.812 2.155 18.173 6.35 23 12" id="9khhjq1f7g"></path><path d="M8.277 9C5.506 9 2.74 8.86.005 8.566-.096 5.66 1.28 2.365 2.927 0 10.134.654 17.152 3.365 23 7.754 18.165 8.558 13.212 9 8.277 9" id="kntnbqfpqi"></path><path d="M.442 9C-.38 6.355.037 3.011.932.458A35.633 35.633 0 0 1 6.646 0C11.515 0 16.423.978 21 2.888 14.498 5.802 7.513 7.976.442 9" id="swkykvwhck"></path></defs><g fill="none" fill-rule="evenodd"><path d="M56.473 26.456c-3.967-1.013-8.346-.318-11.8 1.88-1.922 14.055-6.842 28.064-14.082 40.277-3.376-1.482-6.632-2.245-10.32-2.245C16.29 73.153 12.959 80.316 10 87.602c.938 1.214 2.304 3.215 3.242 4.429-3.765 10.608.401 24.01 7.82 32.492 7.422 8.484 17.545 14.067 27.446 19.477 7.875-2.233 15.895-4.375 23.77-6.606 1.92-18.891 4.833-38.303 3.285-57.227-1.544-18.923-7.911-38.337-19.09-53.711" fill="#263542" fill-rule="nonzero"></path><path d="m49 127-1.109 4.47C41.181 136.728 34.202 140.475 27 143l1.44-4.041L49 127M36 109l-3.753 4.692A141.904 141.904 0 0 1 12 126l4.88-5.658L36 109" fill="#874E29" fill-rule="nonzero"></path><path d="M36 81.05C54.217 58.283 65.52 29.99 68.128.874c.395-.29.812-.586 1.193-.874C90.738 5.867 110.177 17.693 125 34.334c-.19 37.254-14.31 74.266-38.93 102.06a57.12 57.12 0 0 0-1.768.606C71.36 115.915 54.826 96.933 36 81.05" fill="#B77433" fill-rule="nonzero"></path><path d="M84 137.056c-4.994 1.789-10.382 4.373-15.265 5.944C56.19 121.737 40.413 101.142 23 83.749l.213-.256c4.36-.227 8.599-.952 12.707-2.493C54.657 96.926 71.113 115.941 84 137.056" fill="#874E29" fill-rule="nonzero"></path><path d="M68 1c-2.625 29.191-14.002 57.556-32.337 80.381l.147.13C31.669 83.051 27.396 83.774 23 84c17.686-20.2 25.044-47.884 32.128-73.825C59.113 7.165 63.874 4.033 68 1" fill="#E8B935" fill-rule="nonzero"></path><path d="M108.914 54c-2.117-3.487-3.141-7.723-2.872-11.874.268-4.15 2.154-7.986 4.702-11.126 8.26.686 16.265 4.518 22.256 10.655-6.348 7.216-15.313 10.324-24.086 12.345" fill="#95A8A3" fill-rule="nonzero"></path><g transform="translate(109 33)"><mask id="4mzyvmd4rb" fill="#fff"><use xlink:href="#22z1vbw5oa"></use></mask><path d="M6.79 9C4.52 9 2.254 8.886.01 8.645-.115 5.724 1.109 2.392 2.588 0 9.175.581 15.615 3.236 21 7.59 16.34 8.497 11.553 9 6.79 9" mask="url(#4mzyvmd4rb)"></path></g><path d="M109 48.448c7.352-1.36 14.955-3.057 22-5.448-6.138 4.096-13.056 7.157-20.33 9-.977-1.144-1.424-2.103-1.67-3.552" fill="#51645F" fill-rule="nonzero"></path><path d="M82.112 116.977c-.464-4.48.52-9.181 2.754-13.175 2.233-3.996 5.932-6.905 9.962-8.802 7.923 4.647 14.097 12.296 17.172 21.27-9.75 4.124-20.173 2.91-29.888.707" fill="#95A8A3" fill-rule="nonzero"></path><g transform="translate(87 97)"><mask id="6dxukou8gd" fill="#fff"><use xlink:href="#dcziykwhyc"></use></mask><path d="M22 16c-7.675-2.022-15.223-5.008-22-9.037C1.233 4.135 4.036 1.562 6.663 0 13.144 3.702 18.507 9.296 22 16" mask="url(#6dxukou8gd)"></path></g><path d="M84.405 112c7.984 2.154 16.39 4.063 24.595 4.92a67.049 67.049 0 0 1-24.736-.144c-.392-1.757-.35-3.045.141-4.776" fill="#51645F" fill-rule="nonzero"></path><path d="M52.112 89.977c-.463-4.482.518-9.181 2.754-13.175 2.234-3.996 5.93-6.905 9.961-8.802C72.75 72.647 78.927 80.296 82 89.27c-9.752 4.124-20.174 2.91-29.888.707" fill="#95A8A3" fill-rule="nonzero"></path><g transform="translate(57 70)"><mask id="bbtit2l30f" fill="#fff"><use xlink:href="#2cfioxgi0e"></use></mask><path d="M22 16c-7.675-2.02-15.22-5.009-22-9.036C1.233 4.134 4.038 1.562 6.666 0 13.146 3.702 18.509 9.298 22 16" mask="url(#bbtit2l30f)"></path></g><path d="M54.404 84c7.986 2.155 16.39 4.064 24.596 4.921a67.042 67.042 0 0 1-24.737-.146c-.39-1.756-.35-3.046.141-4.775" fill="#51645F" fill-rule="nonzero"></path><path d="M98.14 86c-1.436-4.219-1.518-8.97-.232-13.312 1.288-4.347 4.24-7.968 7.733-10.688 8.715 2.73 16.396 8.74 21.359 16.712-8.554 6.134-18.943 7.263-28.86 7.288" fill="#95A8A3" fill-rule="nonzero"></path><g transform="translate(100 64)"><mask id="m1t28jatlh" fill="#fff"><use xlink:href="#9khhjq1f7g"></use></mask><path d="M23 12c-7.774-.302-15.636-1.548-23-3.952C.543 5.093 2.645 2.046 4.805 0 11.812 2.155 18.173 6.35 23 12" mask="url(#m1t28jatlh)"></path></g><path d="M99.026 79.836c8.227.21 16.808.12 24.974-.836a74.41 74.41 0 0 1-24.1 5c-.752-1.442-.985-2.564-.874-4.164" fill="#51645F" fill-rule="nonzero"></path><path d="M74.008 67c-2.23-3.818-3.283-8.437-2.947-12.95.339-4.511 2.404-8.664 5.175-12.05 8.859.847 17.408 5.112 23.764 11.86C93.108 61.634 83.447 64.906 74.008 67" fill="#95A8A3" fill-rule="nonzero"></path><g transform="translate(73 44)"><mask id="yqk8rz52kj" fill="#fff"><use xlink:href="#kntnbqfpqi"></use></mask><path d="M8.277 9C5.506 9 2.74 8.86.005 8.566-.096 5.66 1.28 2.365 2.927 0 10.134.654 17.152 3.365 23 7.754 18.165 8.558 13.212 9 8.277 9" mask="url(#yqk8rz52kj)"></path></g><path d="M74 60.94c8.013-1.46 16.305-3.303 24-5.94a70.13 70.13 0 0 1-22.227 10c-1.05-1.313-1.524-2.411-1.773-4.06" fill="#51645F" fill-rule="nonzero"></path><path d="M84.888 35c-2.872-2.826-4.875-6.64-5.621-10.694-.744-4.05.135-8.2 1.819-11.841 8.087-1.376 16.687.33 23.914 4.75-4.342 8.49-12.19 13.684-20.112 17.785" fill="#95A8A3" fill-rule="nonzero"></path><g transform="translate(81 14)"><mask id="dtzxlv8t7l" fill="#fff"><use xlink:href="#swkykvwhck"></use></mask><path d="M.442 9C-.38 6.355.037 3.011.932.458A35.633 35.633 0 0 1 6.646 0C11.515 0 16.423.978 21 2.888 14.498 5.802 7.513 7.976.442 9" mask="url(#dtzxlv8t7l)"></path></g><path d="M83 29.812c6.804-3.148 13.765-6.696 20-10.812a63.865 63.865 0 0 1-17.435 14c-1.253-.919-1.943-1.783-2.565-3.188" fill="#51645F" fill-rule="nonzero"></path><path d="M48.02 131.439 49.111 127A290.868 290.868 0 0 0 60 139.66c-.13 1.846-.24 3.495-.368 5.34-4.69-3.742-8.807-8.113-12.632-12.76l.592-.454.427-.347" fill="#B77433" fill-rule="nonzero"></path><path d="m59 144.811-.002.042c-4.797 4.576-10.96 7.752-17.433 9.147A121.025 121.025 0 0 1 27 142.69c7.41-2.75 13.931-6.328 19.448-10.69 3.8 4.666 7.892 9.054 12.552 12.811M44 129.1c-5.614 4.513-12.35 8.163-20.063 10.9-4.36-4.289-8.367-8.911-11.937-13.865 6.881-3.98 14.673-9.037 19.654-12.514l.22-.152.345-.469a830.801 830.801 0 0 0 5.483 7.62c2.065 2.842 4.149 5.69 6.298 8.48M10.414 124C6.264 118.022 2.74 111.6 0 104.741 5.723 100.678 13.056 95.835 19.492 93l.14.016c3.332 6.209 7.244 12.103 11.368 17.861l-.657.858c-5.116 3.448-13.01 8.404-19.929 12.265" fill="#E8B935" fill-rule="nonzero"></path><path d="m46 123.048-1.484 5.841-.153.111c-2.255-2.757-4.442-5.568-6.61-8.376A823.756 823.756 0 0 1 32 113.098L35.23 109c3.447 4.78 7.03 9.472 10.77 14.048M25.915 92.683c2.58 4.45 5.28 8.82 8.085 13.121L30.936 110c-3.967-5.803-7.73-11.743-10.936-18 2.104.269 3.792.41 5.915.683" fill="#B77433" fill-rule="nonzero"></path><path d="M0 86c3.223-8.74 5.026-18.513 6-27.76C11.163 56.946 21.88 57 21.88 57l.119.088c-1.332 9.705-4.349 19.175-8.922 27.837C8.817 85.569 4.338 85.99 0 86" fill="#E8B935" fill-rule="nonzero"></path><path d="M13.208 85.02C17.77 76.3 20.78 66.77 22.11 57A23.764 23.764 0 0 1 28 62.778c-.888 9.919-5.657 19.186-12.944 25.895C11.205 89.37 7.302 89.87 3.395 90 2.133 88.929 1.065 87.822 0 86.554l.159-.452c4.328-.01 8.797-.434 13.049-1.083" fill="#B77433" fill-rule="nonzero"></path></g></svg>