<svg xmlns="http://www.w3.org/2000/svg" xmlns:xlink="http://www.w3.org/1999/xlink" width="506" height="624" viewBox="0 0 506 624"><defs><path d="M69.312 102C50.245 67.72 26.885 35.96 0 7.72c26.066 9.943 50.66 23.937 72.595 41.475C75.904 32.959 77.57 16.49 77.715 0a273.58 273.58 0 0 1 13.522 21.84c13.68 24.573-4.752 58.017-21.925 80.16" id="l5dgyonx7a"></path><path d="M82.907 81C61.083 63.518 36.615 49.569 10.682 39.657A449.231 449.231 0 0 0 0 28.787C18.61 15.3 40.01 5.052 62.243 0A266.557 266.557 0 0 1 88 31.962C87.856 48.4 86.198 64.816 82.907 81" id="bzz9y96h4c"></path><path d="M15.02 29C9.95 29 4.797 28.637 0 28.063A575.609 575.609 0 0 1 33.719.386 169.01 169.01 0 0 1 45.248 0c9.134 0 18.284.712 27.308 2.042L73 3.132c-2.156 3.542-5.882 6.082-9.285 8.402-11.977 8.154-25.05 15.484-39.358 17.005-3.011.319-6.157.461-9.337.461" id="qwqhgl2wue"></path><path d="M26.246 32c-3.183 0-6.442-.075-9.702-.15-3.256-.08-6.512-.155-9.694-.155-2.331 0-4.626.041-6.85.154 7.598-6.728 16.577-13.882 26.536-19.865C35.518 6.875 45.073 2.834 54.962 0L61 14.188C50.972 19.937 41.046 26.27 33.095 31.849c-2.224.11-4.518.151-6.85.151" id="xqic667oag"></path><path d="M5 1.655a209.294 209.294 0 0 0-4.99-.286L0 1.345c1.636.076 3.314.183 5 .31" id="s3gmuo0hsi"></path><path d="M4.186 10 0 0c1.746.086 3.59.21 5.494.355 5.821.49 11.721 1.201 16.447 1.557.02.003.04.003.059.007C16.463 4.126 10.393 6.91 4.186 10" id="2l9f7rpn4k"></path><path d="M4.503 56C.556 44.567-.745 32.362.399 20.346 7.335 12.798 14.957 4.993 24 0c-5.14 14.717-6.332 32.03-5.288 47.544C13.91 49.95 8.804 52.816 4.502 56" id="in5jvcs8xm"></path><path d="M10.557 35c-.801 0-1.573-.062-2.287-.228C3.26 25.254.593 14.863 0 4.415 3.797 2.792 9.347.732 13.495 0 14.667 11.474 15.832 22.943 17 34.413c-1.965.138-4.306.587-6.443.587" id="hxjgnadu4p"></path><path d="M48.364 61C32.154 61 15.931 60.176 0 58.465c3.03-19.92 9.666-39.36 19.915-56.864C22.498.963 25.003.43 27.495 0c3.95 20.705 16.536 39.428 32.013 57.492a630.403 630.403 0 0 1 28.437-19.404A150.505 150.505 0 0 0 88 59.378 487.462 487.462 0 0 1 48.364 61" id="s05dtdwnws"></path><path d="M31.498 61C16.271 42.287 3.888 22.89 0 1.44 4.818.561 9.579.092 14.74 0c.545 7.224 1.022 15.862 2.21 23.008 14.169 1.607 29.884 2.198 44.05 3.804-.711 4.669-1.22 9.37-1.523 14.086A619.837 619.837 0 0 0 31.498 61" id="9gnn2d6unu"></path><path d="M.969 49A178.3 178.3 0 0 1 2.43 1.097 51.157 51.157 0 0 1 13.03 0c3.576 0 7.16.358 10.758 1.03C29.055 15.16 31.816 32.21 32 47.415c-4.064-.444-8.11-.712-12.135-.712-6.345 0-12.64.66-18.896 2.296" id="f2mo5wiasw"></path><path d="M14.755 61C7.535 46.604 1.205 31.732 0 14.897a20.797 20.797 0 0 1 5.89-9.601C19.863 2.27 35.292 0 50.19 0c5.953 0 11.824.364 17.482 1.185 4.292 5 7.982 10.315 10.328 16.436a113.238 113.238 0 0 1-15.22 16.824 84.3 84.3 0 0 0 1.059-8.463 17.181 17.181 0 0 0-6.99-3.934 9.636 9.636 0 0 1-.19.202 139.558 139.558 0 0 0-16.283-.948c-9.72 0-19.45.995-28.953 2.915a123.295 123.295 0 0 0 10.64 33.26c-.096.1-.19.201-.286.306.128.292.264.565.407.828A122.726 122.726 0 0 1 14.754 61" id="0lpfcdbu5y"></path><path d="M12.687 32c-1.206 0-2.387-.018-3.514-.043A125.145 125.145 0 0 1 0 1.91C8.164.604 16.42 0 24.685 0 29.792 0 34.903.232 40 .669c-.264 5.432-.963 10.993-2.482 16.214-.867 2.983-2.02 5.955-4.006 8.34-2.714 3.254-6.78 5.143-10.928 5.997-3.042.626-6.566.78-9.897.78" id="b2f7npmgvA"></path><path d="M18.108 56C11.9 56 6.034 54.963.01 52.896-.219 34.73 3.827 16.526 11.735.138A43.737 43.737 0 0 1 15.267 0C23.63 0 32.378 2.241 40 5.389c-2.61 18.108-8.422 34.962-18.173 50.49-1.255.081-2.496.121-3.719.121" id="rtduhjavmC"></path><path d="M25.198 91c-6.314 0-12.633-.5-18.748-1.406C.335 60.333-.816 30.944.47 1.524 7.16.541 13.88 0 20.586 0c8.048 0 16.076.78 24.003 2.522 1.278 28.745 2.101 57.896.617 86.63C38.714 90.426 31.96 91 25.198 91" id="d39p3w7ynE"></path><path d="M54.69 8a206.944 206.944 0 0 0-34.195-2.852c-6.799 0-13.63.336-20.495 1.018.007-.016.015-.035.026-.05C.179 5.803 1.098 4 2.17 2.69c.564-.636 1.179-1.122 1.864-1.391A239.533 239.533 0 0 1 28.872 0C38.59.07 48.653.744 59 1.904 56.96 3.688 55.58 5.742 54.69 8" id="z2k8fg4xeG"></path><path d="M0 5c1.032-1.852 2.634-3.537 5-5L0 5" id="zxkmqjboaI"></path><path d="M17.403 8A392.043 392.043 0 0 0 0 6.108 100.54 100.54 0 0 0 7.737 0C12.42.287 17.181.63 22 1.026 19.864 2.723 18.38 5.094 17.403 8" id="wu2kmleawK"></path><path d="M0 5c1.063-2.084 2.677-3.784 5-5L0 5" id="ltgglidutM"></path><path d="m28.917 75-.243-.044A260.59 260.59 0 0 1 0 24.821C8.952 13.975 20.515 5.53 33.543.004 33.546 0 33.55 0 33.557 0c.694 0 8.17 17.53 8.68 18.98 2.544 7.207 3.997 14.825 3.732 22.476C45.523 54.41 39.676 67.542 28.917 75" id="0dasi0mhpO"></path><path d="M.443 5 0 .006C.523.003 1.045 0 1.572 0 5.31 0 9.125.078 13 .222A104.257 104.257 0 0 1 .443 5" id="ufmeoy4cwQ"></path><path d="M13.485 5A217.1 217.1 0 0 0 1.89 4.676c-.534 0-1.064.004-1.595.008L0 0c6.243.154 12.578.53 19 1.113A97.018 97.018 0 0 1 13.485 5" id="6wrq915tbS"></path><path d="M36.026 91a440.87 440.87 0 0 0-26.04-.796H8.914C6.775 60.962 4.248 31.484 0 2.582 10.348 1.056 20.81 0 31.235 0 39.04 0 46.82.593 54.523 2.021c3.569 16.19 5.117 34.367 4.234 50.906-.776 14.468-10.3 27.836-22.73 38.073" id="pf5837r5yU"></path><path d="M26.926 1.855C17.618 1.411 8.615 1.157 0 1.145h.882c8.526 0 17.237.224 26.118.66-.022.014-.052.032-.074.05" id="ohx2ed2eiW"></path><path d="M4.491 32c-4.449-9.588-5.64-20.437-3.36-30.654C8.102.478 15.187 0 22.252 0 26.519 0 30.777.176 35 .541c-.548 7.293-4.003 14.726-9.141 20.29C20.724 26.394 12.208 30.338 4.49 32" id="6f2w51w4wY"></path><path d="M18.096 35C10.59 28.608 4.387 20.629 0 11.71 14 10.492 27.304 6.504 39.834 0c.742 8.35-.949 17.442-6.2 23.892-3.85 4.724-10.337 8.012-15.538 11.108" id="8n1z7npz6aa"></path><linearGradient x1="54.868%" y1="3.58%" x2="40.091%" y2="128.657%" id="qj66ppi67n"><stop stop-color="#E7B935" offset="0%"></stop><stop stop-color="#FAEC9F" offset="100%"></stop></linearGradient><linearGradient x1="64.112%" y1="-10.493%" x2="32.23%" y2="138.508%" id="md0xcgrovq"><stop stop-color="#95A8A3" offset="0%"></stop><stop stop-color="#E4E7D4" offset="100%"></stop></linearGradient></defs><g fill="none" fill-rule="evenodd"><path d="M110.4 236.69c8.793 35.58-.937 59.853-11.665 67.293-10.736 7.443-23.977 10.496-36.747 8.477.117-1.635-.353-3.141-.232-4.78-6.633-4.313-13.145-11.592-17.754-18.405-6.77-.971-14.497-.267-19.709 4.38-1.965 1.752-3.71 3.892-4.635 6.498-.926 2.606-.94 5.725.378 8.191 5.715 10.706 16.205 15.895 26.922 19.494 2.626.88 5.26-2.004 6.806-4.423 16.737 6.142 35.307 2.825 49.977-7.187 14.67-10.017 31.62-43.959 16.09-81.228-3.75.557-5.681 1.132-9.431 1.69" fill="#1F2D2B" fill-rule="nonzero"></path><path d="M120 122.53C105.332 109.941 93.424 94.667 83.778 78 59.61 103.891 39.348 133.343 24 165.15c7.773 16.32 17.92 31.662 30.362 44.85 8.174-19.752 19.454-29.973 32.653-47.063 10.507-13.596 22.026-27.17 32.985-40.408" fill="#88602C" fill-rule="nonzero"></path><path d="M24.698 163.938C40.186 132.06 60.628 102.539 85 76.583l-.33-.548C79.18 74.406 74.372 73.738 68.69 73 42.349 98.109 22.077 129.336 10 163.4l.111.18c4.861.314 9.74.533 14.587.358" fill="#E8B935" fill-rule="nonzero"></path><path d="M24.846 163.37c-4.932.182-9.899-.045-14.846-.37 10.492 17.63 21.838 34.056 35.89 49 3.47-.178 6.368-1.142 9.838-1.32l.272-.64c-12.782-13.699-23.206-29.638-31.192-46.59l.038-.08" fill="#AC7B31" fill-rule="nonzero"></path><path d="M95 140a19.557 19.557 0 0 1 7.613-2.26c5.662-9.651 12.537-18.342 19.387-27.16-2.19-2.752-5.543-4.476-8.845-5.58-8.24 10.216-14.355 22.351-18.155 35" fill="#364947" fill-rule="nonzero"></path><path d="M84.305 123c10.64 4.916 18.115 13.507 24.695 23.27-3.02 9.725-8.018 18.542-14.396 26.45 2.383 1.176 4.954 2.593 6.764 4.55-3.45 6.348-8.214 11.676-14.268 15.562-1.357-2.07-2.59-4.034-4.391-5.721-1.556.99-2.829 1.905-4.385 2.895 1.376 2.058 2.623 4.39 4.002 6.448-3.899 4.223-8.67 7.467-14.132 9.184-1.463-1.78-2.427-3.574-3.891-5.358-2.578 1.828-4.734 3.456-7.316 5.28 1.056 1.62 2.354 3.1 3.406 4.72-3.546 5.38-6.926 9.659-10.913 14.72-5.315-.756-10.214-3.574-14.065-7.349-3.848-3.774-6.713-8.468-8.957-13.385-3.376-7.39-4.844-15.891-5.458-24.004 15.507-19.517 33.887-38.39 53.124-54.185 3.126-1.434 6.459-3.077 10.18-3.077M170.656 125c2.14-2.673 4.038-5.286 5.344-7.51-11.176-23.58-33.538-39.41-56.74-51.49-7.372 1.054-14.566 3.292-21.26 6.554 27.032 13.113 51.715 30.958 72.656 52.446" fill="#364947" fill-rule="nonzero"></path><path d="m100.784 76-.769.352C90.885 92.93 82.985 110.359 78 128.659c6.355 5.714 11.866 9.328 19.444 13.221 5.783-11.343 12.882-22.7 18.66-34.047 15.568 8.99 30.02 20.246 41.524 34.167 3.877-3.375 9.148-9.041 13.372-14.425-20.238-21.13-44.091-38.68-70.216-51.575M72.891 147.034C62.393 160.647 50.481 173.2 38.067 185c-1.703-1.696-2.368-3.422-4.067-5.114C45.902 166.259 57.803 152.627 69.705 139c1.71.161 2.85 1.21 3.793 2.677.939 1.475.46 3.98-.607 5.357M77.044 152A435.037 435.037 0 0 0 37 199.184c.712 1.85 1.9 2.981 3.676 3.816 13.453-13.312 25.884-27.133 37.269-42.31.935-1.25 1.9-2.594 2.046-4.159.142-1.564-1.399-4.513-2.947-4.531" fill="#465E5B" fill-rule="nonzero"></path><path d="M425 131.85c40.885-.697 56.353 17.383 61.783 30.808 5.434 13.424 5.471 28.472.107 41.753-1.75-.532-3.507-.396-5.257-.925-6.335 6.087-15.866 11.322-24.424 14.61-2.731 7.067-3.887 15.58-.121 22.353 1.417 2.552 3.311 4.967 5.914 6.612 2.61 1.64 5.998 2.43 9.007 1.615 13.061-3.52 21.308-13.56 27.88-24.24 1.605-2.617-.88-6.174-3.128-8.44 10.843-16.544 11.836-37.414 4.582-55.72-7.258-18.304-31.45-46.57-75.845-39.023-.324 4.185-.177 6.41-.498 10.598" fill="#1F2D2B" fill-rule="nonzero"></path><path d="M434.92 172.882c12.465 16.14 20.732 32.01 20.04 57.258-2.754 6.527-10.065 9.744-16.87 11.734-17.411 5.09-36.568 6.596-54.46 3.583-7.894-11.204-13.822-24.247-18.401-37.158 1.473-1.188 2.709-2.914 4.183-4.102-5.173-7.397-9.53-15.288-13.195-23.53 3.134-1.598 6.17-5.116 7.325-8.436-1.529-1.949-2.515-3.627-4.048-5.569-3.934 2.026-7.673 3.23-11.611 5.255-4.194-2.98-7.432-7.642-9.368-12.4 2.882-2.362 5.082-5.1 7.454-7.978-.931-2.062-2.508-4.019-4.572-4.947-2.713 1.514-4.502 2.684-7.215 4.201-6.853-5.393-13.137-11.134-18.182-18.235a29.402 29.402 0 0 1 10.435-14.462c6.79-5.005 14.474-8.603 22.573-10.995 8.1-2.387 16.906-2.994 24.968-.482 10.424 3.258 18.582 11.298 25.757 19.514 12.44 14.243 23.626 31.787 35.186 46.75" fill="#364947" fill-rule="nonzero"></path><path d="M369.283 108.136c-9.147-14.935-20.43-27.784-33.606-39.136-6.069.661-15.294 2.725-19.677 4.639 18.709 13.054 34.182 30.885 44.758 51.361 1.51-.83 3.025-1.655 4.454-2.524 2.303-1.402 4.64-2.896 6.25-5.095 1.604-2.199-.754-6.922-2.179-9.245" fill="#364947" fill-rule="nonzero"></path><path d="M315.133 74c-24.396 12.375-66.15 36.54-83.133 54.45 3.4 6.55 6.438 13.259 11.6 18.55 23.063-16.655 47.84-30.485 73.982-41.795 9.6 8.48 17.078 18.317 23.198 29.54 6.549-2.968 13.675-6.124 20.22-9.608-10.838-20.386-26.695-38.14-45.867-51.137" fill="#465E5B" fill-rule="nonzero"></path><path d="m316.997 91-.044.03c-1.732 8.01-2.402 14.548-1.644 22.512 30.118 24.33 54.863 55.18 71.994 89.77 6.54.866 12.365 1.803 18.697 2.688-13.952-29.38-35.118-55.412-55.94-80.778-10.08-12.286-20.35-24.683-33.063-34.222" fill="#AC7B31" fill-rule="nonzero"></path><path d="M457 180.989C451.304 129.769 408.377 75.242 389.67 62c-25.56 4.327-50.036 15.75-71.67 29.933 12.566 9.428 22.717 21.679 32.681 33.821 20.58 25.07 41.501 50.795 55.292 79.832.988.138 1.957.28 2.978.414 17.098-2.98 33.98-15.257 48.049-25.011" fill="#E8B935" fill-rule="nonzero"></path><path d="M391 226.521c-2.865-7.716-7.388-14.456-13.277-20.521-1.925.847-3.79 2.215-5.723 3.07 1.808 7.74 5.833 15.033 11.544 20.93 2.209-1.27 5.248-2.212 7.456-3.479M355 162.664c-1.638-2.642-3.518-4.408-5.658-6.664-1.89.613-3.31 2.165-4.342 3.861a25.92 25.92 0 0 0 4.605 6.139c1.368-1.107 4.03-2.228 5.395-3.336M333.347 142A82.328 82.328 0 0 1 320 130.982c1.901-1.65 3.167-4.327 5.065-5.982 5.086 3.303 8.823 7.889 11.935 13.276-.94.866-2.717 2.858-3.653 3.724" fill="#465E5B" fill-rule="nonzero"></path><path d="M348.778 350c-12.453 2.94-24.337 8.075-35.778 14.914 9.188 29.145 28.078 49.937 52.56 68.086 15.843-.288 34.062-6.988 48.794-12.856.221-.343.425-.697.646-1.044-17.425-26.832-40.263-50.86-66.222-69.1" fill="#AC7B31" fill-rule="nonzero"></path><path d="M409 418.393c-13.61 6.633-29.646 10.734-44.422 12.607-20.926-15.971-38.573-37.892-48.578-63.098 9.49-4.54 20.938-9.371 31.17-11.902 23.666 17.618 44.655 38.578 61.83 62.393" fill="#465E5B" fill-rule="nonzero"></path><path d="M409.159 215.387c-1.23 4.735-2.548 9.499-3.778 14.23-13.03 43.607-34.335 82.53-58.381 121.165 26.112 18.271 49.085 42.34 66.612 69.218 34.831-54.556 54.975-119.693 56.388-184.406-16.826-18.413-37.74-29.582-60.841-20.207" fill="#88602C" fill-rule="nonzero"></path><path d="M406 230c-8.144 3.78-24.312 8.815-34.006 9.977C356.387 281.282 334.88 328.784 313 367c11.341-6.895 23.121-12.073 35.466-15.037C372.163 313.073 393.16 273.894 406 230" fill="#E8B935" fill-rule="nonzero"></path><path d="M332.006 377.08c-.12 3.73 1.552 7.285 3.546 10.429a48.342 48.342 0 0 0 9.59 11.004c3.195 2.704 6.918 5.05 11.072 5.44 4.157.39 8.755-1.67 10.242-5.593 1.096-2.882.373-6.131-.73-9.01-2.295-5.993-6.282-11.277-11.27-15.261-3.532-2.824-12.457-9.098-16.998-6.452-3.209 1.874-5.336 5.76-5.452 9.443M374.456 416.75c1.56.419 3.43.393 4.572-.716 1.342-1.302 1.084-3.454.48-5.191-.63-1.827-1.565-3.598-3.018-4.917-1.454-1.32-3.48-2.145-5.464-1.875-8.63 1.168-1.427 11.417 3.43 12.7" fill="#364947" fill-rule="nonzero"></path><path d="M365.67 389.528c-2.395-6.25-6.556-11.76-11.763-15.914-2.32-1.856-6.87-5.127-11.11-6.614-1.643 2.057-2.704 4.644-2.79 7.187-.125 3.889 1.623 7.596 3.704 10.875a50.598 50.598 0 0 0 10.007 11.478c3.074 2.591 6.635 4.796 10.562 5.46.929-.854 1.695-1.867 2.152-3.077 1.144-3.006.39-6.394-.763-9.395" fill="#1F2D2B" fill-rule="nonzero"></path><path d="m378.605 417.897.601.103c1.1-1.101.892-2.853.366-4.281-.56-1.537-1.39-3.028-2.682-4.138-1.007-.868-2.326-1.463-3.688-1.581-3.597 2.396 1.673 8.964 5.403 9.897" fill="#6DBFA8" fill-rule="nonzero"></path><path d="M468.964 286.744c-11.479-16.257-26.928-29.504-44.075-39.744l-.902.326c-9.731 32.723-23.514 64.263-40.987 93.65 20.915 15.668 40.888 33.734 58.804 53.024 15.56-29.087 27.957-90.105 27.16-107.256" fill="#364947" fill-rule="nonzero"></path><path d="m383.645 340.289.169-.289c-4.878 1.655-9.822 3.062-14.814 4.6a408.718 408.718 0 0 1 55.815 56.4c5.27-1.838 12.19-4.747 17.031-7.513l.154-.296c-17.779-19.245-37.6-37.27-58.355-52.902" fill="#465E5B" fill-rule="nonzero"></path><path d="M423 247c-4.348 1.367-8.448 3.119-12.607 4.995-11.273 30.468-25.603 61.42-43.393 90.84l.196.165c5.035-1.51 10.023-2.892 14.944-4.518A402.155 402.155 0 0 0 423 247" fill="#738D87" fill-rule="nonzero"></path><path fill="#E8B935" fill-rule="nonzero" d="m409 214-5.892 2.667L399 233l6.839-3.495L409 214"></path><path d="M426.014 278.26c6.541 2.572 12.685 6.28 18.313 10.756 5.628 4.476 10.732 9.72 15.204 15.365L463 302.08a99.318 99.318 0 0 0-6.687-9.129 94.91 94.91 0 0 0-7.787-8.382 85.2 85.2 0 0 0-8.925-7.437A71.438 71.438 0 0 0 429.446 271l-3.432 7.26zm-5.53 17.815.115.537a69.531 69.531 0 0 1 9.4 4.642 82.588 82.588 0 0 1 9.58 6.626c5.92 4.735 11.282 10.25 15.974 16.223l3.477-2.305c-2.16-3.307-4.51-6.51-7.054-9.58a100.188 100.188 0 0 0-8.199-8.79c-2.93-2.77-6.05-5.391-9.385-7.786a75.182 75.182 0 0 0-10.675-6.413l-3.234 6.846zm-7.41 17.915.528.461a72.533 72.533 0 0 1 9.748 4.88c3.439 2.049 6.743 4.372 9.894 6.897 6.208 4.991 11.824 10.78 16.745 17.074l3.473-2.304a110.549 110.549 0 0 0-7.41-10.027 105.06 105.06 0 0 0-8.614-9.198 94.333 94.333 0 0 0-9.848-8.14c-3.495-2.496-7.219-4.758-11.185-6.695l-3.33 7.052zm-5.643 10.16c4.143 2.016 8.034 4.372 11.698 6.98 3.656 2.603 7.087 5.46 10.31 8.49a110.832 110.832 0 0 1 9.021 9.601 115.848 115.848 0 0 1 7.776 10.481L442.76 362c-5.146-6.619-11.02-12.674-17.52-17.919-3.249-2.618-6.657-5.035-10.205-7.174-3.551-2.135-7.24-3.996-11.035-5.496l3.431-7.26z" fill="#1F2D2B" fill-rule="nonzero"></path><path d="M33.383 259.479c4.41-7.002 6.467-15.278 7.657-23.518-.36-.11-.747-.171-1.108-.288.883-.763 1.501-1.876 2.387-2.64.919-4.227.869-8.09.086-12.342-2.683-2.618-6.624-3.713-10.287-3.092.315-2.793.125-5.611-.09-8.415-1.69-2.23-4.426-3.76-6.81-5.184-6.645 3.172-13.991 7.947-19.519 11.38a15.228 15.228 0 0 0-1.869 5.661c-.196 1.596.704 3.056 1.68 4.312-2.323 7.757-4.288 15.486-5.51 23.499 4.68 7.754 14.835 15.836 22.675 20.184l.053.964c4.288-2.512 7.968-6.25 10.655-10.521" fill="#95A8A3" fill-rule="nonzero"></path><path d="M118.934 187.075c-2.557-1.923-5.495-3.442-8.668-3.923-3.173-.48-6.595.164-9.094 2.164-12.754 10.195-13.913 30.412-21.679 44.731.107 1.658.019 3.76.125 5.417-1.38-.248-3.015-.517-4.391-.765-1.731 1.479-3.47 3.213-5.198 4.692-8.914 1.264-18.554.459-27.23-2.077-1.22 8.222-3.334 16.48-7.86 23.466-2.759 4.262-6.537 7.992-10.939 10.498.055 1.053.051 2.142.18 3.147 23.656 8.608 46.304 8.007 70.892 2.55 17.318-18.788 29.511-41.573 35.494-66.343 2.179-9.03-4.182-17.947-11.632-23.557" fill="#364947" fill-rule="nonzero"></path><path d="M41.814 231.925c-3.1-1.457-6.104-2.642-9.467-3.155-.586-4.133-.296-8.29.735-12.263l-.576.032c.303-2.78.12-5.586-.086-8.378-1.632-2.22-4.273-3.743-6.574-5.161l-.069.036c1.125 3.857 1.052 8.095-.286 11.879-3.749 2.827-8.16 5.055-12.491 6.71 3.438.32 6.546.526 9.99.355.339 7.343-1.189 14.94-4.638 21.333l-.827.12c1.541 2.093 3.083 4.19 4.624 6.288-.73.854-1.596 1.464-2.327 2.319 3.355 4.125 8.256 6.666 13.38 6.96l.525-.763c4.255-6.972 6.242-15.212 7.39-23.415-.348-.11-.72-.17-1.069-.287.72-.644 1.286-1.509 1.952-2.228l-.186-.382" fill="#738D87" fill-rule="nonzero"></path><path d="M253.669 293.004c18.91 25.11 32.704 55.105 42.034 85.118 3.2.4 10.355 4.312 11.832 7.181 3.325 6.45 4.204 9.293 4.935 16.515 3.417 2.479 8.055 5.641 10.708 9.583.654 4.345-.662 7.228-2.047 10.858 5.049 3.305 13.07 6.439 14.904 12.187 13.582 42.612 22.834 86.41 25.965 131.028-27.93 5.528-58.04 1.804-84.204-9.425 1.33-40.845-3.759-81.731-14.97-121.03-31.987-28.173-42.357-75.248-74.826-102.87.68-13.546 5.023-28.004 12.001-39.637 16.26-6.527 36.405-2.512 53.668.492" fill="#364947" fill-rule="nonzero"></path><path d="M236.797 323c-13.82 4.481-28.363 14.97-36.797 26.762A184.042 184.042 0 0 0 228.921 404c14.421-2.865 28.983-9.174 40.079-18.583-7.898-22.135-18.782-43.18-32.203-62.417" fill="#E8B935" fill-rule="nonzero"></path><path d="M247.986 327.072c-2.13-2.47-6.197-2.7-9.13-4.072l-.872.32a272.166 272.166 0 0 1 32.645 63.914C259.38 396.87 244.62 403.33 230 406.263l.073.093c2.4.7 3.844 1.941 6.244 2.644 13.996-2.272 30.096-9.412 42.683-18.642a139.44 139.44 0 0 0-31.014-63.286M235 414.48c1.213-1.329 2.429-2.657 3.642-3.984 14.452-2.251 28.444-7.224 41.127-14.496 7.714 6.738 13.184 16.272 14.231 26.45-.9 1.743-2.204 3.807-3.104 5.55-18.355-.125-39.1-6.154-55.896-13.52" fill="#88602C" fill-rule="nonzero"></path><path d="M291 427.898c-9.96 7.36-21.736 11.793-34.205 13.102-9.994-6.142-17.787-15.547-21.795-26.3 15.348-1.96 30.09-7.487 44.177-13.7 5.809 7.926 10.114 17.327 11.823 26.898M322.67 444.06a22.859 22.859 0 0 0-6.785-1.873c-18.002-2.056-36.397-1.687-53.885 3.065a2508.049 2508.049 0 0 1 9.286 114.987c20.364 7.008 41.936 11.424 63.497 12.761 1.238-43.267-2.828-86.67-12.114-128.94" fill="#E8B935" fill-rule="nonzero"></path><path d="M329.495 450.842c-2.956-2.865-6.023-5.262-9.495-6.842 9.123 42.154 13.118 85.44 11.902 128.588 3.309.21 6.618.357 9.92.412 1.111-40.206-2.98-83.086-12.327-122.158" fill="#88602C" fill-rule="nonzero"></path><path d="M323 560.646c-16.784-1.927-37.366-3.023-53.87-2.527A207.613 207.613 0 0 0 232 588.042c.63 11.145 2.44 21.698 6.432 32.153 18.047 3.11 36.49 4.273 54.879 3.637-2.893-10.903-5.277-21.937-7.08-33.068 10.704-11.829 23.153-21.778 36.769-30.118" fill="#E8B935" fill-rule="nonzero"></path><path d="m233 587 53.956 2.804L294 623.867c-19.079.543-37.356-.551-54.6-3.747-3.606-9.644-5.741-20.682-6.4-33.12" fill="#AC7B31" fill-rule="nonzero"></path><path d="M344.671 571.03c-5.794-3.977-12.383-6.86-18.18-10.832-.552-.07-1.143-.128-1.705-.198-13.254 8.448-25.369 18.525-35.786 30.506 1.755 11.275 4.075 22.45 6.89 33.494a269.05 269.05 0 0 0 52.015-7.012c.508-15.654-1.089-30.448-3.234-45.959M372.184 557c-5.952 2.162-11.619 4.906-17.018 8.438-.588 18.555.396 37.154 2.796 55.562 4.044-.23 8.078-2.003 11.993-3.064 8.181-19.139 9.297-40.827 3.032-60.684l-.803-.252" fill="#88602C" fill-rule="nonzero"></path><path d="M354.51 564.936c5.548-3.305 11.373-5.873 17.49-7.896-3.753-1.175-8.221-1.73-12.107-2.04-6.19 2.312-11.42 4.941-16.893 8.368 3.893.14 7.756.68 11.51 1.632v-.064" fill="#AC7B31" fill-rule="nonzero"></path><path d="m344.091 563-.687.437a195.264 195.264 0 0 0 1.55 57.207c4.088 1.158 8.374 1.199 12.629 1.354.471.015.942-.077 1.417-.103-2.553-18.919-3.602-38.026-2.979-57.1a53.87 53.87 0 0 0-11.93-1.795" fill="#E8B935" fill-rule="nonzero"></path><path d="M247.236 575.05 237 544.861s2.722-5.498 4.963-5.69c21.332-1.81 44.095-1.465 68.022.643l14.17 42.52 20.215 1.815c8.386 2.082 6.572 14.909 0 17.851l-21.85-5.407-19.23-46.924c-20.213-2.31-39.097-2.758-55.894-.275l7.798 19.2-7.958 6.456" fill="#95A8A3" fill-rule="nonzero"></path><path d="M174.07 334.262c-7.04 24.374-11.386 49.96-13.807 74.765 1.61 4.1 3.411 9.36 5.022 13.459-1.207 3.435-1.967 6.414-3.173 9.845 2.953 3.588 7.204 7.713 8.077 12.27 7.04 36.78 11.423 73.325 13.811 110.691-26.334 5.195-61.696-1.705-83.445-17.372-9.035-68.22-6.739-204.538 26.411-234.011 17.938-5.57 38.931 15.693 47.104 30.353" fill="#364947" fill-rule="nonzero"></path><path d="M138.41 338.345c-9.078-5.68-22.29-9.055-33.92-8.218-10.638 19.112-15.258 41.221-14.387 64.546 10.935 2.339 28.428.907 30.19.752 10.195-17.162 16.628-36.499 18.707-56.324l-.59-.756" fill="#E8B935" fill-rule="nonzero"></path><path d="M138.903 340c-2.1 19.71-8.6 38.936-18.903 56l.18-.015s5.924-2.705 8.674-4.797c7.299-13.793 11.426-28.881 13.146-44.324-.448-2.19-1.65-5.039-3.097-6.864" fill="#88602C" fill-rule="nonzero"></path><path d="M89.36 401.778c-2.582 12.369-1.465 25.503 3.162 37.248 8.913 2.384 18.6 2.717 27.539.403a177.899 177.899 0 0 0 4.939-37.77c-11.96-1.013-23.659-.766-35.64.119" fill="#E8B935" fill-rule="nonzero"></path><path d="M129.907 405.987c-1.724-1.702-3.033-3.006-5.308-3.959l-.408-.028A199.797 199.797 0 0 1 120 439l.74-.203c2.644-1.659 4.724-3.293 6.77-5.82 2.11-8.613 2.754-18.04 2.397-26.99" fill="#88602C" fill-rule="nonzero"></path><path d="M146.513 450.611c-4.99-2.225-9.855-3.437-15.598-4.924-12.102-1.684-25.503.07-37.623 1.594a615.673 615.673 0 0 0 4.618 96.569c14.865 9.456 32.13 14.691 49.473 14.106a710.798 710.798 0 0 0-.87-107.345" fill="#E8B935" fill-rule="nonzero"></path><path d="M155.213 454.44A52.629 52.629 0 0 0 147 450a671.644 671.644 0 0 1 .881 105c3.449-.112 6.897-.363 10.33-.932 3.22-31.02 2.018-68.84-2.998-99.628" fill="#88602C" fill-rule="nonzero"></path><path d="M136 547.193c-12.474-1.057-33.072-4.007-41.684-2.979-21.09 5.74-40.661 16.815-56.316 31.873 2.604 9.243 6.02 18.815 11.27 26.887 12.9 1.44 25.471 2.504 38.316 1.807-4.04-8.907-7.1-18.247-8.957-27.833 17.776-12.104 37.184-22.13 57.371-29.755" fill="#E8B935" fill-rule="nonzero"></path><path d="m34 576 41.788.865L85 604.828c-12.562.51-25.705-.115-39.408-1.816C40.78 595.962 37.096 586.585 34 576" fill="#AC7B31" fill-rule="nonzero"></path><path d="M155.652 557.556c-6.008-4.648-12.697-8.435-18.702-11.45-.405-.03-.846-.07-1.272-.106-20.296 7.812-39.807 18.083-57.678 30.484 1.867 9.821 4.944 19.39 9.005 28.516 1.659-.091 3.32-.201 4.987-.355 21.006-1.947 41.065-4.592 61.925-7.757 1.692-13.06 2.636-26.189 1.735-39.332" fill="#88602C" fill-rule="nonzero"></path><path d="M156.787 600c12.355-.204 24.355-1.561 36.213-5.04-.441-13.858-2.524-27.967-7.164-41.036-7.55-2.234-15.775-3.038-23.672-2.911-5.522 15.634-7.39 32.53-5.377 48.987" fill="#88602C" fill-rule="nonzero"></path><path d="m163 551.007-1.007-.007c-3.404.076-7.124.67-10.488 1.156-5.636 14.327-6.982 29.99-3.865 44.919 2.976 1.344 5.931 2.646 9.247 2.925l-.04-.189.193-.007c-2.231-16.392-.161-33.223 5.96-48.797" fill="#E8B935" fill-rule="nonzero"></path><path d="M47.453 566.885 39 538.846s2.293-4.44 4.05-4.616a253.85 253.85 0 0 1 55.174.574l15.343 38.44 39.39-2.84c1.569 4.715 1.201 10.438 0 16.596l-42.8-1.546-18.85-42.913c-14.02-.592-27.75-.468-41.16.431l6.618 17.444-9.312 6.469" fill="#95A8A3" fill-rule="nonzero"></path><path d="M131 237.86a183.53 183.53 0 0 0 7.448 33c32.46 7.052 65.615 9.705 98.703 7.238 5.469-14.504 9.977-29.12 13.849-44.164-38.943-9.406-81.509-7.285-120 3.926" fill="#364947" fill-rule="nonzero"></path><path d="M151.552 113.666c8.678-.903 17.498-.873 26.448 0L170.214 145l-18.355-1.572c-2.799-10.542-4.574-20.854-.307-29.762" fill="#88602C" fill-rule="nonzero"></path><path d="M241.93 34A60.69 60.69 0 0 1 254 45.02c-1.62 17.167-5.097 31.585-12.91 46.933-2.02 2.463-6.05 5.719-8.315 7.32 1.573 3.006 2.908 5.957 4.177 9.105-9.162 17.717-23.887 32.446-41.775 41.17-9.487 4.625-21.657 1.489-32.147.391-.25-8.395 1.057-17.253 4.047-25.097 1.562-4.09 6.652-5.284 10.703-6.91.324-5.73 1.31-11.286 2.683-16.856 6.623-2.709 13.325-4.907 20.28-6.587l-.555.029c4.678-11.336 9.76-23.128 16.07-33.638 6.302-10.507 15.46-20.144 25.672-26.88" fill="#364947" fill-rule="nonzero"></path><path d="M152 64.547c2.539 1.544 4.758 3.303 7.336 4.823 3.519-3.051 8.395-5.31 12.742-6.45 15.71-.42 31.97 4.302 46.243 12.919 2.751.428 5.751-.024 8.679-1.032-18.385-12.986-43.181-21.16-60.32-20.795-5.327 2.683-10.265 6.273-14.68 10.535" fill="#88602C" fill-rule="nonzero"></path><path d="M245 23.6C224.658 7.886 199.072-.296 173.49.009a98.48 98.48 0 0 0-26.116 22.894c-1.067 13.525.12 27.42 3.933 40.427l.392.235c4.452-3.92 9.43-7.222 14.801-9.689 17.281-.335 42.282 7.182 60.82 19.125l.366-.103C236.99 57.953 243.068 41.156 245 23.601" fill="#E8B935" fill-rule="nonzero"></path><path d="M176.833 18.174c-1.25-1.18-6.822-3.002-8.136-3.135-3.202-.33-6.69 1.461-7.909 4.337-1.873 4.42-.143 10.592 2.425 14.464 1.008 1.512 2.52 3.027 4.472 3.041.854.007 3.759.115 4.672.119 2.099.014 3.603-1.818 4.472-3.549A20.087 20.087 0 0 0 179 24.396c0-2.235-.464-4.617-2.167-6.222" fill="#95A8A3" fill-rule="nonzero"></path><path d="M166.263 37c-1.134-.007-2.138-1.454-2.637-2.309-2.103-3.627-3.472-9.352-2.03-13.268.735-1.984 2.796-3.423 4.902-3.423.787 0 1.928.216 2.883 1.246 1.071 1.169 1.619 3.065 1.619 5.647a22.91 22.91 0 0 1-1.92 9.188c-.3.687-1.388 2.919-2.806 2.919h-.01" fill="#465E5B" fill-rule="nonzero"></path><path d="M168.867 34.175A24.04 24.04 0 0 0 171 24.28c0-2.782-.608-4.824-1.798-6.083l-.241-.197c-2.286.063-4.5 1.57-5.296 3.663-1.606 4.222-.086 10.383 2.25 14.29.187.307.449.681.741 1.047 1.115-.65 1.946-2.239 2.211-2.825" fill="#6DBFA8" fill-rule="nonzero"></path><path d="M168.404 32c-1.97-3.143-3.208-7.722-1.799-10.776.501-1.094 1.808-1.953 3.273-2.224.766.934 1.122 2.291 1.122 4.027 0 2.844-.745 5.716-2.172 8.303l-.424.67" fill="#EEF7F6" fill-rule="nonzero"></path><path d="M188.342 32.008c1.309.093 2.493 1.004 3.247 2.198.751 1.195 1.116 2.646 1.287 4.093.27 2.28.098 4.616-.503 6.815-.368 1.32-.951 2.678-2.03 3.361-3.2 2.024-5.609-2.272-6.677-4.934-1.104-2.747-.761-5.852.481-8.518.795-1.71 2.388-3.141 4.195-3.015" fill="#88602C" fill-rule="nonzero"></path><path d="M192.853 37.856c-.202-1.242-.634-2.488-1.522-3.514l-.363-.342c-1.984.038-3.722 1.17-4.61 2.551-1.47 2.293-1.876 4.96-.57 7.319.54.97 1.376 2.177 2.437 3.13a4.566 4.566 0 0 0 1.63-.405c1.277-.586 1.967-1.752 2.403-2.886.712-1.888.914-3.895.595-5.853" fill="#6DBFA8" fill-rule="nonzero"></path><path d="M188.451 45a13.72 13.72 0 0 1-.978-2.107c-.675-1.847-.543-4.126.363-6.258.282-.662.795-1.331 1.413-1.635.33.739.51 1.522.612 2.469a15.592 15.592 0 0 1-.369 5.446c-.273 1.083-.624 1.785-1.04 2.085" fill="#EEF7F6" fill-rule="nonzero"></path><path d="M157.275 38.006c1.043.071 1.994.768 2.593 1.684.602.912.893 2.022 1.031 3.128.219 1.74.08 3.53-.406 5.21-.288 1.013-.756 2.052-1.619 2.57-2.557 1.549-4.486-1.736-5.342-3.77-.882-2.103-.61-4.475.388-6.516.636-1.311 1.91-2.406 3.355-2.306" fill="#88602C" fill-rule="nonzero"></path><path d="M160.907 43.966c-.128-.956-.397-1.914-.954-2.702l-.227-.264c-1.237.026-2.322.897-2.879 1.962-.918 1.763-1.17 3.815-.354 5.629.336.743.861 1.676 1.524 2.409a2.471 2.471 0 0 0 1.018-.315c.798-.447 1.23-1.345 1.496-2.22.45-1.45.578-2.997.376-4.5" fill="#6DBFA8" fill-rule="nonzero"></path><path d="M156.53 49c-.182-.428-.353-.9-.503-1.38-.501-1.638-.4-3.67.276-5.565.156-.435.375-.803.609-1.055.153.524.246 1.091.306 1.755a16.685 16.685 0 0 1-.276 4.906c-.135.655-.282 1.075-.411 1.339" fill="#EEF7F6" fill-rule="nonzero"></path><path d="M173.85 62.023c-4.363 1.04-9.256 3.099-12.787 5.88l-.007-.004c-.466 11.365 1.984 22.839 7.047 33.004 2.154 1.137 7.543 3.386 11.384 4.097 12.017-.08 19.252-1.418 30.661-4.523 4.41-8.278 7.951-17.572 9.852-26.775l-.069-.066c-14.25-7.745-30.433-11.992-46.081-11.613" fill="#95A8A3" fill-rule="nonzero"></path><path d="M180.5 110.817a21.673 21.673 0 0 0-.353 10.077c2.73 1.41 5.252 2.841 7.983 4.248-3.415-.481-7.296-.478-10.967-.474-1.286 0-2.546 0-3.753-.018-4.134 6.93-7.528 14.99-7.407 23.056 7.428 2.646 15.144 3.785 22.996 3.098 6.189-7.474 9.874-16.22 12.057-25.673 1.32-5.733 1.866-11.252 1.944-17.131-6.833 1.77-15.443 2.959-22.5 2.817" fill="#465E5B" fill-rule="nonzero"></path><path d="M289.486 136.915c-.737-5.239-2.16-10.903-4.487-15.78-14.64-8.823-32.3-11.719-49.223-14.135-12.214 9.739-23.17 20.905-32.436 33.474-16.56 2.405-33.51 2.185-50.015-.571a71.81 71.81 0 0 1-2.291-27.144c-10.66.234-21.506 2.054-31.527 5.697C105.461 138.31 95.132 161.416 90 185.18c8.027 20.279 19.141 39.188 33.546 55.58 34.269 4.99 83.723 3.96 131.268-1.333 13.672-12.792 24.559-28.107 30.72-45.78 6.158-17.671 6.547-38.203 3.952-56.732" fill="#E8B935" fill-rule="nonzero"></path><path d="M132 155.69c-1.382 2.428-2.92 4.86-5.203 6.52-2.283 1.662-5.48 2.408-8.036 1.181-2.924-1.402-4.173-5.004-3.642-8.125.535-3.122 2.475-5.838 4.559-8.266 3.091 3.943 7.44 7.228 12.322 8.69" fill="#FBDF8C" fill-rule="nonzero"></path><path d="M118.53 185.896c-9.087-.31-18.177-.616-27.264-.927-.08.365-.186.725-.266 1.086 7.976 19.978 19.018 38.608 33.332 54.755 30.406 4.394 72.84 4.044 115.218.206.95-3.751 1.544-7.621 2.003-11.444 1.868-15.55 1.77-30.954.6-46.572-40.873 5.692-82.374 4.3-123.623 2.896" fill="#AC7B31" fill-rule="nonzero"></path><path d="M285.24 120c-22.714 14.253-40.958 35.634-51.253 60.5-3.446 21.79-1.95 40.415.999 59.5a789.994 789.994 0 0 0 20.022-1.97c13.6-12.822 24.427-28.165 30.556-45.874 6.125-17.709 6.511-38.283 3.93-56.85-.707-5.074-2.07-10.53-4.255-15.306" fill="#88602C" fill-rule="nonzero"></path><path d="M175.84 199.453c-10.053-1.972-20.553-2.005-30.528.32a214.342 214.342 0 0 0-2.23 59.044c14.735-.74 29.979-.565 44.918.183a186.835 186.835 0 0 0-12.032-59.385l-.129-.162" fill="#95A8A3" fill-rule="nonzero"></path><path d="M199.852 243.206C194.648 228.001 186.367 213.414 176 201a180.189 180.189 0 0 1 12.078 58.348c3.817.191 7.633.393 11.398.652.416-5.474.718-10.761.376-16.794" fill="#738D87" fill-rule="nonzero"></path><path d="M214.153 274.176a116.403 116.403 0 0 1 42.18 1.692c4.255 10.076 5.964 21.176 5.625 32.132-17.862-3.007-35.852-3.613-53.958-3.705 1.996-10.195 4.153-19.92 6.153-30.119" fill="#AC7B31" fill-rule="nonzero"></path><path d="M183.93 342.052c10.204-20.215 18.013-41.356 24.07-63.187-2.594-6.957-6.479-13.776-11.415-19.39-21.549-4.012-43.994-3.14-65.16 2.575-3.416 4.157-5.632 8.726-6.425 13.002 2.558 24.707 12.853 48.59 28.604 67.77 10.114.388 20.247.145 30.325-.77" fill="#E8B935" fill-rule="nonzero"></path><path d="M211.143 263.676c-1.477-.736-7.661-2.832-11.544-3.571l-.634-.105c4.934 5.598 8.817 12.397 11.41 19.334-6.054 21.768-13.86 42.847-24.06 63.003a236.206 236.206 0 0 1-30.315.768c1.023 1.241 1.992 2.525 3.058 3.726 10.377 1.53 21.263 1.508 31.669.228 10.41-22.476 22.113-44.857 34.273-66.434-3.54-6.395-8.133-12.405-13.857-16.95" fill="#88602C" fill-rule="nonzero"></path><path d="M126 137.105c3.59-.178 6.977-.214 9.2.585 0 0 1.42 5.793.476 9.701-.948 3.909-6.073 8.609-6.073 8.609L126 137.105" fill="#B56B2F" fill-rule="nonzero"></path><path d="M117.028 143.849c-.12-1.897.109-3.973 1.473-5.375 1.596-1.654 4.433-1.872 6.554-.875 2.122.997 3.57 2.983 4.335 5.097 1.29 3.54.842 12.386-4.363 13.241-5.6.92-7.774-8.503-8-12.088" fill="#E8B935" fill-rule="nonzero"></path><path d="M125.784 156c-3.545 0-5.53-7.566-5.758-11.427-.128-2.118.217-3.598 1.058-4.51.62-.672 1.614-1.063 2.722-1.063.734 0 1.454.166 2.084.48 2.131 1.055 3.157 3.277 3.578 4.51.78 2.251.848 7.16-.791 10.058-.631 1.11-1.411 1.734-2.395 1.908l-.498.044" fill="#88602C" fill-rule="nonzero"></path><path d="M129.385 143.251c-.42-1.137-1.4-3.014-3.207-4.251-1.186.044-2.252.422-2.927 1.102-.967.986-1.366 2.576-1.222 4.863.201 3.153 1.572 8.59 4.01 11.035.966-.262 1.782-.843 2.432-1.913 1.894-3.121 1.815-8.41.914-10.836" fill="#51261F" fill-rule="nonzero"></path><path d="M227 155.69c-1.378 2.428-2.917 4.86-5.2 6.52-2.285 1.662-5.487 2.408-8.044 1.181-2.925-1.402-4.17-5.004-3.635-8.125.527-3.122 2.471-5.838 4.556-8.266 3.093 3.947 7.442 7.228 12.323 8.69" fill="#FBDF8C" fill-rule="nonzero"></path><path d="M222 137.105c3.587-.178 6.98-.214 9.203.585 0 0 1.417 5.793.472 9.701-.944 3.909-6.071 8.609-6.071 8.609L222 137.105" fill="#B56B2F" fill-rule="nonzero"></path><path d="M214.028 143.849c-.12-1.897.109-3.973 1.47-5.375 1.6-1.654 4.432-1.872 6.557-.875 2.122.997 3.57 2.983 4.335 5.094 1.29 3.544.842 12.39-4.363 13.244-5.603.92-7.777-8.503-8-12.088" fill="#E8B935" fill-rule="nonzero"></path><path d="M222.78 156c-3.541 0-5.526-7.566-5.754-11.427-.128-2.118.22-3.595 1.058-4.51.62-.672 1.61-1.063 2.722-1.063.734 0 1.454.166 2.085.48 2.13 1.055 3.153 3.277 3.58 4.51.774 2.251.845 7.16-.794 10.058-.634 1.11-1.414 1.734-2.394 1.908l-.503.044" fill="#88602C" fill-rule="nonzero"></path><path d="M226.39 143.251c-.424-1.137-1.404-3.014-3.21-4.251-1.186.044-2.257.422-2.928 1.102-.967.986-1.37 2.576-1.222 4.863.197 3.153 1.572 8.59 4.01 11.035.962-.258 1.782-.843 2.432-1.913 1.894-3.121 1.811-8.41.918-10.836" fill="#51261F" fill-rule="nonzero"></path><path d="m299.775 262-.104.187c-5.19-.036-9.942.56-14.976 1.786-1.155 3.958-1.686 8.501-1.337 12.603-3.604 3.16-6.758 6.456-10.358 9.615.84 3.828 2.4 7.168 5.788 9.31 1.52-.56 2.307-.464 3.823-1.028 3.712 5.474 9.704 10.072 16.053 12.318 5.807 2.053 11.35.845 17.532.953 4.849-5.837 8.426-12.7 10.068-20.018l.736-.597c-6.394-10.532-16.083-19.41-27.225-25.129" fill="#738D87" fill-rule="nonzero"></path><path d="M354.486 196.092c-17.91-24.757-44.806-44.77-71.478-59.092-9.677 4.692-17.47 13.31-21.287 23.537-3.817 10.235-3.608 21.961.562 32.049 16.548 3.476 32.162 9.781 46.709 18.558-1.6 2.427-3.46 5.325-3.98 8.202 1.68.95 3.486 1.955 5.407 2.029.09 13.829-3.824 28.045-10.838 39.878 10.81 5.86 20.21 14.956 26.412 25.747 1.002-.777 1.875-.947 3.417-1.105 19.05-25.625 27.898-57.751 25.076-89.803" fill="#364947" fill-rule="nonzero"></path><path d="M179 222.17s-7.245-.558-16.02-.342c-8.773.153-15.98 1.014-15.98 1.014s1.684-.594 4.53-1.254a56.916 56.916 0 0 1 11.401-1.419c4.52-.093 8.595.4 11.472.94 2.882.536 4.597 1.061 4.597 1.061M181 242.76l-17.498.404c-9.588.195-17.502.354-17.502.354s7.663-1.812 17.447-2.013c9.78-.225 17.553 1.254 17.553 1.254" fill="#738D87" fill-rule="nonzero"></path><path d="M292.936 275.13c.42-2.703 1.165-5.125 1.053-7.865-3.102-.75-6.062-1.425-9.227-1.232a31.659 31.659 0 0 0-.614 9.965c3.193.048 5.596-.916 8.788-.868M296.944 288.393c-1.43-.273-2.154.348-3.587.075-.936-2.26-1.32-5.086-1.878-7.467-.018-.078-10.108 3.528-11.019 3.886-2.676 1.072-4.869 2.221-7.46 2.708.854 3.293 2.309 6.16 5.193 8.059 1.444-.554 2.193-.458 3.633-1.015 3.527 5.404 9.222 9.943 15.256 12.161 5.27 1.938 10.323.947 15.883.944.046-.575.053-1.132-.02-1.608-6.508-4.354-12.287-10.83-16.001-17.743" fill="#95A8A3" fill-rule="nonzero"></path><path d="M313.128 220.728c1.255 13.026-2.297 26.472-9.806 37.109 3.775.551 7.121 1.468 9.857 4.163 8.82-12.993 13.54-29.385 12.732-45.146-4.044 2.42-8.092 3.801-12.783 3.874zm12.261-12.638c-.168-2.626-1.067-5.284-2.376-7.56a68.257 68.257 0 0 1-11.732 11.043c4.676-.208 9.637-2.074 14.108-3.483zm-17.437-2.191c-13.45-7.044-27.894-12.993-42.14-18.182-1.628-7.23-.79-15.012 2.34-21.717 17.27 5.992 33.517 15.268 47.316 27.395-1.459 4.291-4.335 9.316-7.516 12.504zM79.74 243c-.749-3.193-2.568-6.16-5.137-8.38-1.516.794-3.37 1.563-4.603 2.71a33.557 33.557 0 0 1 9.74 5.67zm22.139-24.234.121-.357c-1.626 6.652-4.796 12.516-9.173 17.985-3.77-.2-7.56-.857-11.14-1.993-.457-2.269-.457-4.301-.91-6.574 5.302-7.392 8.665-15.984 9.713-24.827 5.197 4.104 9.4 9.693 11.389 15.766z" fill="#465E5B" fill-rule="nonzero"></path><path d="M181.458 337.962c.57-.125.917-.694 1.204-1.215.435-.792.87-1.587 1.127-2.458.252-.874.313-1.83-.012-2.676-.905-2.372-3.997-2-4.631.278-.41 1.458-.054 6.6 2.312 6.071M195.459 272.962c.57-.125.917-.697 1.204-1.218.435-.792.871-1.591 1.127-2.46.253-.867.31-1.822-.011-2.669-.906-2.378-3.995-1.998-4.633.275-.41 1.457-.054 6.6 2.313 6.072M155.054 337.911c.547-.199.826-.808 1.047-1.359.336-.836.676-1.68.825-2.57.15-.895.088-1.848-.328-2.645-1.188-2.234-4.206-1.476-4.565.852-.23 1.492.737 6.539 3.021 5.722M137.057 278.91c.546-.199.825-.804 1.047-1.359.336-.836.676-1.68.821-2.57.15-.895.092-1.848-.328-2.645-1.185-2.234-4.204-1.472-4.563.852-.233 1.496.737 6.543 3.023 5.722" fill="#AC7B31" fill-rule="nonzero"></path><path d="M182.855 284a17.752 17.752 0 0 1 7.145 3.874c-.858 11.34-4.361 23.163-9.55 33.418-9.79 2.859-20.607 3.558-30.64 1.6-1.236-1.14-2.12-2.21-2.81-3.707 11.172-11.497 24.683-23.692 35.855-35.185" fill="#88602C" fill-rule="nonzero"></path><path d="M185 284.977c-15.277-1.791-30.922-1.088-46 1.854a116.827 116.827 0 0 0 10.776 32.445c8.667 1.994 17.923 2.369 26.627.54 5.312-10.605 8.435-23.098 8.597-34.84" fill="#E8B935" fill-rule="nonzero"></path><path fill="#AC7B31" fill-rule="nonzero" d="M51 566.316 94.403 568l7.597-4.753L59.233 560 51 566.316"></path><path fill="#738D87" fill-rule="nonzero" d="M59 558.852 52.063 563 46 541.396l5.97-.396L59 558.852M97.247 536c-2.01 1.653-3.37 3.557-4.247 5.65l18.254 41.483-2.291 2.356L150.985 587c1.328-5.503 1.378-10.91 0-16.216l-38.673 2.775L97.247 536M250.48 549l-3.48 2.23 6.15 21.77 3.85-3.909L250.48 549M312.532 539c-2.106 1.531-3.568 3.672-4.532 6.295l19.872 45.906-2.358 3.495L348.145 600c7.873-3.715 7.74-15.288 0-17.51l-20.938-1.78L312.532 539"></path><path fill="#AC7B31" fill-rule="nonzero" d="M252 571.404 302.61 576l5.39-4.526L256.59 568l-4.59 3.404M95.244 430.725c.48.508 1.223.991 1.879.706.476-.205.671-.73.78-1.204.348-1.514-.169-9.27-3.244-8.083-1.177.455-1.582 2.582-1.604 3.573-.034 1.81.915 3.671 2.19 5.008m-2.198-16.898c.634.045 1.163-.421 1.549-.891 1.39-1.695 2.148-4.002 1.826-6.131-.218-1.424-1.35-3.484-3.184-2.586-2.373 1.162-3.46 9.368-.19 9.608m18.96 17.827c.184.518.462 1.086 1.017 1.28.64.223 1.338-.16 1.86-.57 2.22-1.744 3.64-4.343 3.843-7.036.078-1.055-.03-2.151-.54-3.094-1.249-2.321-4.905-2.6-6.018-.1-1.245 2.783-1.148 6.722-.162 9.52m1.077-17.535c.307.466.727.922 1.3 1.044.507.111 1.032-.063 1.49-.289 2.301-1.13 3.558-3.553 4-5.936.116-.644.191-1.312.041-1.952-.622-2.715-4.495-1.817-6.014-.293-1.905 1.918-2.261 5.216-.817 7.426m-11.523.3c.48-.829 1.283-1.612 2.295-1.643 1.245-.035 2.164 1.065 2.677 2.116a10.416 10.416 0 0 1-.176 9.37c-.352.662-.945 1.375-1.736 1.31-.514-.046-.919-.415-1.245-.787-2.272-2.568-3.6-7.308-1.815-10.367M259.34 438.945c.747-.2.978-1.091.996-1.833.056-2.308-.706-5.226-2.522-6.863-1.237-1.117-3.336-1.523-4.18.193-.665 1.37.026 3.342.688 4.583.713 1.345 3.139 4.423 5.019 3.92m-10.142-13.051c.535.239 1.103.428 1.694.428.587.003 1.196-.21 1.56-.657.494-.61.416-1.476.264-2.232a16.274 16.274 0 0 0-1.378-3.988c-.465-.935-1.033-1.844-1.858-2.519-2.221-1.812-5.877-.574-5.446 2.397.401 2.768 2.563 5.411 5.164 6.57m32.829 4.766c.813-.09 1.463-.745 1.746-1.484.278-.742.252-1.551.17-2.333-.204-2.043-.854-4.362-2.871-5.421-1.345-.706-2.842-.657-3.518.785-1.115 2.382 1.274 8.817 4.473 8.453m-10.74-17.346c.342.949 1.029 1.759 1.787 2.45.754.693 1.764 1.335 2.771 1.078 1.122-.29 1.63-1.52 1.872-2.608.253-1.148.39-2.34.186-3.495-.204-1.156-.776-2.287-1.742-3.007-.966-.72-2.348-.97-3.451-.467-1.82.827-1.995 4.451-1.423 6.05m-10.205 8.67c-.773-2.39 1.504-4.819 4.105-4.03 1.036.31 1.898 1.023 2.59 1.83 1.715 2.011 2.47 4.669 2.477 7.269 0 .902-.152 1.93-.929 2.443-.984.642-2.325.075-3.265-.624-2.125-1.59-4.168-4.39-4.978-6.888"></path><path d="M110.4 236.69c8.793 35.58-.937 59.853-11.665 67.293-10.736 7.443-23.977 10.496-36.747 8.477.117-1.635-.353-3.141-.232-4.78-6.633-4.313-13.145-11.592-17.754-18.405-6.77-.971-14.497-.267-19.709 4.38-1.965 1.752-3.71 3.892-4.635 6.498-.926 2.606-.94 5.725.378 8.191 5.715 10.706 16.205 15.895 26.922 19.494 2.626.88 5.26-2.004 6.806-4.423 16.737 6.142 35.307 2.825 49.977-7.187 14.67-10.017 31.62-43.959 16.09-81.228-3.75.557-5.681 1.132-9.431 1.69" fill="#141A25" fill-rule="nonzero"></path><path d="M120 122.53C105.332 109.941 93.424 94.667 83.778 78 59.61 103.891 39.348 133.343 24 165.15c7.773 16.32 17.92 31.662 30.362 44.85 8.174-19.752 19.454-29.973 32.653-47.063 10.507-13.596 22.026-27.17 32.985-40.408" fill="#874E29" fill-rule="nonzero"></path><path d="M24.698 163.938C40.186 132.06 60.628 102.539 85 76.583l-.33-.548C79.18 74.406 74.372 73.738 68.69 73 42.349 98.109 22.077 129.336 10 163.4l.111.18c4.861.314 9.74.533 14.587.358" fill="#E8B935" fill-rule="nonzero"></path><path d="M24.846 163.37c-4.932.182-9.899-.045-14.846-.37 10.492 17.63 21.838 34.056 35.89 49 3.47-.178 6.368-1.142 9.838-1.32l.272-.64c-12.782-13.699-23.206-29.638-31.192-46.59l.038-.08" fill="#B77433" fill-rule="nonzero"></path><path d="M95 140a19.557 19.557 0 0 1 7.613-2.26c5.662-9.651 12.537-18.342 19.387-27.16-2.19-2.752-5.543-4.476-8.845-5.58-8.24 10.216-14.355 22.351-18.155 35" fill="#263542" fill-rule="nonzero"></path><path d="M84.305 123c10.64 4.916 18.115 13.507 24.695 23.27-3.02 9.725-8.018 18.542-14.396 26.45 2.383 1.176 4.954 2.593 6.764 4.55-3.45 6.348-8.214 11.676-14.268 15.562-1.357-2.07-2.59-4.034-4.391-5.721-1.556.99-2.829 1.905-4.385 2.895 1.376 2.058 2.623 4.39 4.002 6.448-3.899 4.223-8.67 7.467-14.132 9.184-1.463-1.78-2.427-3.574-3.891-5.358-2.578 1.828-4.734 3.456-7.316 5.28 1.056 1.62 2.354 3.1 3.406 4.72-3.546 5.38-6.926 9.659-10.913 14.72-5.315-.756-10.214-3.574-14.065-7.349-3.848-3.774-6.713-8.468-8.957-13.385-3.376-7.39-4.844-15.891-5.458-24.004 15.507-19.517 33.887-38.39 53.124-54.185 3.126-1.434 6.459-3.077 10.18-3.077M170.656 125c2.14-2.673 4.038-5.286 5.344-7.51-11.176-23.58-33.538-39.41-56.74-51.49-7.372 1.054-14.566 3.292-21.26 6.554 27.032 13.113 51.715 30.958 72.656 52.446" fill="#263542" fill-rule="nonzero"></path><path d="m100.784 76-.769.352C90.885 92.93 82.985 110.359 78 128.659c6.355 5.714 11.866 9.328 19.444 13.221 5.783-11.343 12.882-22.7 18.66-34.047 15.568 8.99 30.02 20.246 41.524 34.167 3.877-3.375 9.148-9.041 13.372-14.425-20.238-21.13-44.091-38.68-70.216-51.575M72.891 147.034C62.393 160.647 50.481 173.2 38.067 185c-1.703-1.696-2.368-3.422-4.067-5.114C45.902 166.259 57.803 152.627 69.705 139c1.71.161 2.85 1.21 3.793 2.677.939 1.475.46 3.98-.607 5.357M77.044 152A435.037 435.037 0 0 0 37 199.184c.712 1.85 1.9 2.981 3.676 3.816 13.453-13.312 25.884-27.133 37.269-42.31.935-1.25 1.9-2.594 2.046-4.159.142-1.564-1.399-4.513-2.947-4.531" fill="#465E5B" fill-rule="nonzero"></path><path d="M425 131.85c40.885-.697 56.353 17.383 61.783 30.808 5.434 13.424 5.471 28.472.107 41.753-1.75-.532-3.507-.396-5.257-.925-6.335 6.087-15.866 11.322-24.424 14.61-2.731 7.067-3.887 15.58-.121 22.353 1.417 2.552 3.311 4.967 5.914 6.612 2.61 1.64 5.998 2.43 9.007 1.615 13.061-3.52 21.308-13.56 27.88-24.24 1.605-2.617-.88-6.174-3.128-8.44 10.843-16.544 11.836-37.414 4.582-55.72-7.258-18.304-31.45-46.57-75.845-39.023-.324 4.185-.177 6.41-.498 10.598" fill="#141A25" fill-rule="nonzero"></path><path d="M434.92 172.882c12.465 16.14 20.732 32.01 20.04 57.258-2.754 6.527-10.065 9.744-16.87 11.734-17.411 5.09-36.568 6.596-54.46 3.583-7.894-11.204-13.822-24.247-18.401-37.158 1.473-1.188 2.709-2.914 4.183-4.102-5.173-7.397-9.53-15.288-13.195-23.53 3.134-1.598 6.17-5.116 7.325-8.436-1.529-1.949-2.515-3.627-4.048-5.569-3.934 2.026-7.673 3.23-11.611 5.255-4.194-2.98-7.432-7.642-9.368-12.4 2.882-2.362 5.082-5.1 7.454-7.978-.931-2.062-2.508-4.019-4.572-4.947-2.713 1.514-4.502 2.684-7.215 4.201-6.853-5.393-13.137-11.134-18.182-18.235a29.402 29.402 0 0 1 10.435-14.462c6.79-5.005 14.474-8.603 22.573-10.995 8.1-2.387 16.906-2.994 24.968-.482 10.424 3.258 18.582 11.298 25.757 19.514 12.44 14.243 23.626 31.787 35.186 46.75" fill="#263542" fill-rule="nonzero"></path><path d="M369.283 108.136c-9.147-14.935-20.43-27.784-33.606-39.136-6.069.661-15.294 2.725-19.677 4.639 18.709 13.054 34.182 30.885 44.758 51.361 1.51-.83 3.025-1.655 4.454-2.524 2.303-1.402 4.64-2.896 6.25-5.095 1.604-2.199-.754-6.922-2.179-9.245" fill="#263542" fill-rule="nonzero"></path><path d="M315.133 74c-24.396 12.375-66.15 36.54-83.133 54.45 3.4 6.55 6.438 13.259 11.6 18.55 23.063-16.655 47.84-30.485 73.982-41.795 9.6 8.48 17.078 18.317 23.198 29.54 6.549-2.968 13.675-6.124 20.22-9.608-10.838-20.386-26.695-38.14-45.867-51.137" fill="#465E5B" fill-rule="nonzero"></path><path d="m316.997 91-.044.03c-1.732 8.01-2.402 14.548-1.644 22.512 30.118 24.33 54.863 55.18 71.994 89.77 6.54.866 12.365 1.803 18.697 2.688-13.952-29.38-35.118-55.412-55.94-80.778-10.08-12.286-20.35-24.683-33.063-34.222" fill="#B77433" fill-rule="nonzero"></path><path d="M457 180.989C451.304 129.769 408.377 75.242 389.67 62c-25.56 4.327-50.036 15.75-71.67 29.933 12.566 9.428 22.717 21.679 32.681 33.821 20.58 25.07 41.501 50.795 55.292 79.832.988.138 1.957.28 2.978.414 17.098-2.98 33.98-15.257 48.049-25.011" fill="#E8B935" fill-rule="nonzero"></path><path d="M391 226.521c-2.865-7.716-7.388-14.456-13.277-20.521-1.925.847-3.79 2.215-5.723 3.07 1.808 7.74 5.833 15.033 11.544 20.93 2.209-1.27 5.248-2.212 7.456-3.479M355 162.664c-1.638-2.642-3.518-4.408-5.658-6.664-1.89.613-3.31 2.165-4.342 3.861a25.92 25.92 0 0 0 4.605 6.139c1.368-1.107 4.03-2.228 5.395-3.336M333.347 142A82.328 82.328 0 0 1 320 130.982c1.901-1.65 3.167-4.327 5.065-5.982 5.086 3.303 8.823 7.889 11.935 13.276-.94.866-2.717 2.858-3.653 3.724" fill="#465E5B" fill-rule="nonzero"></path><path d="M413.961 88.01C404.4 75.257 395.194 65.64 388.831 61c-25.26 4.403-49.45 16.027-70.831 30.46 3.178 2.452 6.197 5.1 9.096 7.878 29.469 10.029 57.27 25.148 81.764 44.662 3.778-18.465 5.42-37.234 5.101-55.99" fill="#B64042" fill-rule="nonzero"></path><g transform="translate(337 93)"><mask id="beaf4jqoub" fill="#fff"><use xlink:href="#l5dgyonx7a"></use></mask><path d="M69.312 102C50.245 67.72 26.885 35.96 0 7.72c26.066 9.943 50.66 23.937 72.595 41.475C75.904 32.959 77.57 16.49 77.715 0a273.58 273.58 0 0 1 13.522 21.84c13.68 24.573-4.752 58.017-21.925 80.16" mask="url(#beaf4jqoub)"></path></g><g transform="translate(327 61)"><mask id="rgpqzld6fd" fill="#fff"><use xlink:href="#bzz9y96h4c"></use></mask><path d="M82.907 81C61.083 63.518 36.615 49.569 10.682 39.657A449.231 449.231 0 0 0 0 28.787C18.61 15.3 40.01 5.052 62.243 0A266.557 266.557 0 0 1 88 31.962C87.856 48.4 86.198 64.816 82.907 81" mask="url(#rgpqzld6fd)"></path></g><path d="M348.778 350c-12.453 2.94-24.337 8.075-35.778 14.914 9.188 29.145 28.078 49.937 52.56 68.086 15.843-.288 34.062-6.988 48.794-12.856.221-.343.425-.697.646-1.044-17.425-26.832-40.263-50.86-66.222-69.1" fill="#B77433" fill-rule="nonzero"></path><path d="M409 418.393c-13.61 6.633-29.646 10.734-44.422 12.607-20.926-15.971-38.573-37.892-48.578-63.098 9.49-4.54 20.938-9.371 31.17-11.902 23.666 17.618 44.655 38.578 61.83 62.393" fill="#465E5B" fill-rule="nonzero"></path><path d="M409.159 215.387c-1.23 4.735-2.548 9.499-3.778 14.23-13.03 43.607-34.335 82.53-58.381 121.165 26.112 18.271 49.085 42.34 66.612 69.218 34.831-54.556 54.975-119.693 56.388-184.406-16.826-18.413-37.74-29.582-60.841-20.207" fill="#874E29" fill-rule="nonzero"></path><path d="M406 230c-8.144 3.78-24.312 8.815-34.006 9.977C356.387 281.282 334.88 328.784 313 367c11.341-6.895 23.121-12.073 35.466-15.037C372.163 313.073 393.16 273.894 406 230" fill="#E8B935" fill-rule="nonzero"></path><path d="M332.006 377.08c-.12 3.73 1.552 7.285 3.546 10.429a48.342 48.342 0 0 0 9.59 11.004c3.195 2.704 6.918 5.05 11.072 5.44 4.157.39 8.755-1.67 10.242-5.593 1.096-2.882.373-6.131-.73-9.01-2.295-5.993-6.282-11.277-11.27-15.261-3.532-2.824-12.457-9.098-16.998-6.452-3.209 1.874-5.336 5.76-5.452 9.443M374.456 416.75c1.56.419 3.43.393 4.572-.716 1.342-1.302 1.084-3.454.48-5.191-.63-1.827-1.565-3.598-3.018-4.917-1.454-1.32-3.48-2.145-5.464-1.875-8.63 1.168-1.427 11.417 3.43 12.7" fill="#263542" fill-rule="nonzero"></path><path d="M365.67 389.528c-2.395-6.25-6.556-11.76-11.763-15.914-2.32-1.856-6.87-5.127-11.11-6.614-1.643 2.057-2.704 4.644-2.79 7.187-.125 3.889 1.623 7.596 3.704 10.875a50.598 50.598 0 0 0 10.007 11.478c3.074 2.591 6.635 4.796 10.562 5.46.929-.854 1.695-1.867 2.152-3.077 1.144-3.006.39-6.394-.763-9.395" fill="#141A25" fill-rule="nonzero"></path><path d="m378.605 417.897.601.103c1.1-1.101.892-2.853.366-4.281-.56-1.537-1.39-3.028-2.682-4.138-1.007-.868-2.326-1.463-3.688-1.581-3.597 2.396 1.673 8.964 5.403 9.897" fill="#6DBFA8" fill-rule="nonzero"></path><path d="M468.964 286.744c-11.479-16.257-26.928-29.504-44.075-39.744l-.902.326c-9.731 32.723-23.514 64.263-40.987 93.65 20.915 15.668 40.888 33.734 58.804 53.024 15.56-29.087 27.957-90.105 27.16-107.256" fill="#263542" fill-rule="nonzero"></path><path d="m383.645 340.289.169-.289c-4.878 1.655-9.822 3.062-14.814 4.6a408.718 408.718 0 0 1 55.815 56.4c5.27-1.838 12.19-4.747 17.031-7.513l.154-.296c-17.779-19.245-37.6-37.27-58.355-52.902" fill="#465E5B" fill-rule="nonzero"></path><path d="M423 247c-4.348 1.367-8.448 3.119-12.607 4.995-11.273 30.468-25.603 61.42-43.393 90.84l.196.165c5.035-1.51 10.023-2.892 14.944-4.518A402.155 402.155 0 0 0 423 247" fill="#738D87" fill-rule="nonzero"></path><path fill="#E8B935" fill-rule="nonzero" d="m409 214-5.892 2.667L399 233l6.839-3.495L409 214"></path><path d="M426.014 278.26c6.541 2.572 12.685 6.28 18.313 10.756 5.628 4.476 10.732 9.72 15.204 15.365L463 302.08a99.318 99.318 0 0 0-6.687-9.129 94.91 94.91 0 0 0-7.787-8.382 85.2 85.2 0 0 0-8.925-7.437A71.438 71.438 0 0 0 429.446 271l-3.432 7.26zm-5.53 17.815.115.537a69.531 69.531 0 0 1 9.4 4.642 82.588 82.588 0 0 1 9.58 6.626c5.92 4.735 11.282 10.25 15.974 16.223l3.477-2.305c-2.16-3.307-4.51-6.51-7.054-9.58a100.188 100.188 0 0 0-8.199-8.79c-2.93-2.77-6.05-5.391-9.385-7.786a75.182 75.182 0 0 0-10.675-6.413l-3.234 6.846zm-7.41 17.915.528.461a72.533 72.533 0 0 1 9.748 4.88c3.439 2.049 6.743 4.372 9.894 6.897 6.208 4.991 11.824 10.78 16.745 17.074l3.473-2.304a110.549 110.549 0 0 0-7.41-10.027 105.06 105.06 0 0 0-8.614-9.198 94.333 94.333 0 0 0-9.848-8.14c-3.495-2.496-7.219-4.758-11.185-6.695l-3.33 7.052zm-5.643 10.16c4.143 2.016 8.034 4.372 11.698 6.98 3.656 2.603 7.087 5.46 10.31 8.49a110.832 110.832 0 0 1 9.021 9.601 115.848 115.848 0 0 1 7.776 10.481L442.76 362c-5.146-6.619-11.02-12.674-17.52-17.919-3.249-2.618-6.657-5.035-10.205-7.174-3.551-2.135-7.24-3.996-11.035-5.496l3.431-7.26z" fill="#141A25" fill-rule="nonzero"></path><path d="M33.383 259.479c4.41-7.002 6.467-15.278 7.657-23.518-.36-.11-.747-.171-1.108-.288.883-.763 1.501-1.876 2.387-2.64.919-4.227.869-8.09.086-12.342-2.683-2.618-6.624-3.713-10.287-3.092.315-2.793.125-5.611-.09-8.415-1.69-2.23-4.426-3.76-6.81-5.184-6.645 3.172-13.991 7.947-19.519 11.38a15.228 15.228 0 0 0-1.869 5.661c-.196 1.596.704 3.056 1.68 4.312-2.323 7.757-4.288 15.486-5.51 23.499 4.68 7.754 14.835 15.836 22.675 20.184l.053.964c4.288-2.512 7.968-6.25 10.655-10.521" fill="#95A8A3" fill-rule="nonzero"></path><path d="M118.934 187.075c-2.557-1.923-5.495-3.442-8.668-3.923-3.173-.48-6.595.164-9.094 2.164-12.754 10.195-13.913 30.412-21.679 44.731.107 1.658.019 3.76.125 5.417-1.38-.248-3.015-.517-4.391-.765-1.731 1.479-3.47 3.213-5.198 4.692-8.914 1.264-18.554.459-27.23-2.077-1.22 8.222-3.334 16.48-7.86 23.466-2.759 4.262-6.537 7.992-10.939 10.498.055 1.053.051 2.142.18 3.147 23.656 8.608 46.304 8.007 70.892 2.55 17.318-18.788 29.511-41.573 35.494-66.343 2.179-9.03-4.182-17.947-11.632-23.557" fill="#263542" fill-rule="nonzero"></path><path d="M41.814 231.925c-3.1-1.457-6.104-2.642-9.467-3.155-.586-4.133-.296-8.29.735-12.263l-.576.032c.303-2.78.12-5.586-.086-8.378-1.632-2.22-4.273-3.743-6.574-5.161l-.069.036c1.125 3.857 1.052 8.095-.286 11.879-3.749 2.827-8.16 5.055-12.491 6.71 3.438.32 6.546.526 9.99.355.339 7.343-1.189 14.94-4.638 21.333l-.827.12c1.541 2.093 3.083 4.19 4.624 6.288-.73.854-1.596 1.464-2.327 2.319 3.355 4.125 8.256 6.666 13.38 6.96l.525-.763c4.255-6.972 6.242-15.212 7.39-23.415-.348-.11-.72-.17-1.069-.287.72-.644 1.286-1.509 1.952-2.228l-.186-.382" fill="#738D87" fill-rule="nonzero"></path><path d="M253.669 293.004c18.91 25.11 32.704 55.105 42.034 85.118 3.2.4 10.355 4.312 11.832 7.181 3.325 6.45 4.204 9.293 4.935 16.515 3.417 2.479 8.055 5.641 10.708 9.583.654 4.345-.662 7.228-2.047 10.858 5.049 3.305 13.07 6.439 14.904 12.187 13.582 42.612 22.834 86.41 25.965 131.028-27.93 5.528-58.04 1.804-84.204-9.425 1.33-40.845-3.759-81.731-14.97-121.03-31.987-28.173-42.357-75.248-74.826-102.87.68-13.546 5.023-28.004 12.001-39.637 16.26-6.527 36.405-2.512 53.668.492" fill="#263542" fill-rule="nonzero"></path><path d="M236.797 323c-13.82 4.481-28.363 14.97-36.797 26.762A184.042 184.042 0 0 0 228.921 404c14.421-2.865 28.983-9.174 40.079-18.583-7.898-22.135-18.782-43.18-32.203-62.417" fill="#E8B935" fill-rule="nonzero"></path><path d="M247.986 327.072c-2.13-2.47-6.197-2.7-9.13-4.072l-.872.32a272.166 272.166 0 0 1 32.645 63.914C259.38 396.87 244.62 403.33 230 406.263l.073.093c2.4.7 3.844 1.941 6.244 2.644 13.996-2.272 30.096-9.412 42.683-18.642a139.44 139.44 0 0 0-31.014-63.286M235 414.48c1.213-1.329 2.429-2.657 3.642-3.984 14.452-2.251 28.444-7.224 41.127-14.496 7.714 6.738 13.184 16.272 14.231 26.45-.9 1.743-2.204 3.807-3.104 5.55-18.355-.125-39.1-6.154-55.896-13.52" fill="#874E29" fill-rule="nonzero"></path><path d="M291 427.898c-9.96 7.36-21.736 11.793-34.205 13.102-9.994-6.142-17.787-15.547-21.795-26.3 15.348-1.96 30.09-7.487 44.177-13.7 5.809 7.926 10.114 17.327 11.823 26.898M322.67 444.06a22.859 22.859 0 0 0-6.785-1.873c-18.002-2.056-36.397-1.687-53.885 3.065a2508.049 2508.049 0 0 1 9.286 114.987c20.364 7.008 41.936 11.424 63.497 12.761 1.238-43.267-2.828-86.67-12.114-128.94" fill="#E8B935" fill-rule="nonzero"></path><path d="M329.495 450.842c-2.956-2.865-6.023-5.262-9.495-6.842 9.123 42.154 13.118 85.44 11.902 128.588 3.309.21 6.618.357 9.92.412 1.111-40.206-2.98-83.086-12.327-122.158" fill="#874E29" fill-rule="nonzero"></path><path d="M323 560.646c-16.784-1.927-37.366-3.023-53.87-2.527A207.613 207.613 0 0 0 232 588.042c.63 11.145 2.44 21.698 6.432 32.153 18.047 3.11 36.49 4.273 54.879 3.637-2.893-10.903-5.277-21.937-7.08-33.068 10.704-11.829 23.153-21.778 36.769-30.118" fill="#E8B935" fill-rule="nonzero"></path><g transform="translate(237 558)"><mask id="4re3suucsf" fill="#fff"><use xlink:href="#qwqhgl2wue"></use></mask><path d="M15.02 29C9.95 29 4.797 28.637 0 28.063A575.609 575.609 0 0 1 33.719.386 169.01 169.01 0 0 1 45.248 0c9.134 0 18.284.712 27.308 2.042L73 3.132c-2.156 3.542-5.882 6.082-9.285 8.402-11.977 8.154-25.05 15.484-39.358 17.005-3.011.319-6.157.461-9.337.461" mask="url(#4re3suucsf)"></path></g><path d="m233 587 53.956 2.804L294 623.867c-19.079.543-37.356-.551-54.6-3.747-3.606-9.644-5.741-20.682-6.4-33.12" fill="#B77433" fill-rule="nonzero"></path><path d="M344.671 571.03c-5.794-3.977-12.383-6.86-18.18-10.832-.552-.07-1.143-.128-1.705-.198-13.254 8.448-25.369 18.525-35.786 30.506 1.755 11.275 4.075 22.45 6.89 33.494a269.05 269.05 0 0 0 52.015-7.012c.508-15.654-1.089-30.448-3.234-45.959M372.184 557c-5.952 2.162-11.619 4.906-17.018 8.438-.588 18.555.396 37.154 2.796 55.562 4.044-.23 8.078-2.003 11.993-3.064 8.181-19.139 9.297-40.827 3.032-60.684l-.803-.252" fill="#874E29" fill-rule="nonzero"></path><path d="M354.51 564.936c5.548-3.305 11.373-5.873 17.49-7.896-3.753-1.175-8.221-1.73-12.107-2.04-6.19 2.312-11.42 4.941-16.893 8.368 3.893.14 7.756.68 11.51 1.632v-.064" fill="#B77433" fill-rule="nonzero"></path><path d="m344.091 563-.687.437a195.264 195.264 0 0 0 1.55 57.207c4.088 1.158 8.374 1.199 12.629 1.354.471.015.942-.077 1.417-.103-2.553-18.919-3.602-38.026-2.979-57.1a53.87 53.87 0 0 0-11.93-1.795" fill="#E8B935" fill-rule="nonzero"></path><path d="M247.236 575.05 237 544.861s2.722-5.498 4.963-5.69c21.332-1.81 44.095-1.465 68.022.643l14.17 42.52 20.215 1.815c8.386 2.082 6.572 14.909 0 17.851l-21.85-5.407-19.23-46.924c-20.213-2.31-39.097-2.758-55.894-.275l7.798 19.2-7.958 6.456" fill="#95A8A3" fill-rule="nonzero"></path><path d="M174.07 334.262c-7.04 24.374-11.386 49.96-13.807 74.765 1.61 4.1 3.411 9.36 5.022 13.459-1.207 3.435-1.967 6.414-3.173 9.845 2.953 3.588 7.204 7.713 8.077 12.27 7.04 36.78 11.423 73.325 13.811 110.691-26.334 5.195-61.696-1.705-83.445-17.372-9.035-68.22-6.739-204.538 26.411-234.011 17.938-5.57 38.931 15.693 47.104 30.353" fill="#263542" fill-rule="nonzero"></path><path d="M138.41 338.345c-9.078-5.68-22.29-9.055-33.92-8.218-10.638 19.112-15.258 41.221-14.387 64.546 10.935 2.339 28.428.907 30.19.752 10.195-17.162 16.628-36.499 18.707-56.324l-.59-.756" fill="#E8B935" fill-rule="nonzero"></path><path d="M138.903 340c-2.1 19.71-8.6 38.936-18.903 56l.18-.015s5.924-2.705 8.674-4.797c7.299-13.793 11.426-28.881 13.146-44.324-.448-2.19-1.65-5.039-3.097-6.864" fill="#874E29" fill-rule="nonzero"></path><path d="M89.36 401.778c-2.582 12.369-1.465 25.503 3.162 37.248 8.913 2.384 18.6 2.717 27.539.403a177.899 177.899 0 0 0 4.939-37.77c-11.96-1.013-23.659-.766-35.64.119" fill="#E8B935" fill-rule="nonzero"></path><path d="M129.907 405.987c-1.724-1.702-3.033-3.006-5.308-3.959l-.408-.028A199.797 199.797 0 0 1 120 439l.74-.203c2.644-1.659 4.724-3.293 6.77-5.82 2.11-8.613 2.754-18.04 2.397-26.99" fill="#874E29" fill-rule="nonzero"></path><path d="M146.513 450.611c-4.99-2.225-9.855-3.437-15.598-4.924-12.102-1.684-25.503.07-37.623 1.594a615.673 615.673 0 0 0 4.618 96.569c14.865 9.456 32.13 14.691 49.473 14.106a710.798 710.798 0 0 0-.87-107.345" fill="#E8B935" fill-rule="nonzero"></path><path d="M155.213 454.44A52.629 52.629 0 0 0 147 450a671.644 671.644 0 0 1 .881 105c3.449-.112 6.897-.363 10.33-.932 3.22-31.02 2.018-68.84-2.998-99.628" fill="#874E29" fill-rule="nonzero"></path><path d="M136 547.193c-12.474-1.057-33.072-4.007-41.684-2.979-21.09 5.74-40.661 16.815-56.316 31.873 2.604 9.243 6.02 18.815 11.27 26.887 12.9 1.44 25.471 2.504 38.316 1.807-4.04-8.907-7.1-18.247-8.957-27.833 17.776-12.104 37.184-22.13 57.371-29.755" fill="#E8B935" fill-rule="nonzero"></path><path d="m34 576 41.788.865L85 604.828c-12.562.51-25.705-.115-39.408-1.816C40.78 595.962 37.096 586.585 34 576" fill="#B77433" fill-rule="nonzero"></path><g transform="translate(37 543)"><mask id="xtbatwxsyh" fill="#fff"><use xlink:href="#xqic667oag"></use></mask><path d="M26.246 32c-3.183 0-6.442-.075-9.702-.15-3.256-.08-6.512-.155-9.694-.155-2.331 0-4.626.041-6.85.154 7.598-6.728 16.577-13.882 26.536-19.865C35.518 6.875 45.073 2.834 54.962 0L61 14.188C50.972 19.937 41.046 26.27 33.095 31.849c-2.224.11-4.518.151-6.85.151" mask="url(#xtbatwxsyh)"></path></g><g transform="translate(102 542)"><mask id="n121663o8j" fill="#fff"><use xlink:href="#s3gmuo0hsi"></use></mask><path d="M5 1.655a209.294 209.294 0 0 0-4.99-.286L0 1.345c1.636.076 3.314.183 5 .31" mask="url(#n121663o8j)"></path></g><g transform="translate(101 544)"><mask id="pvg3bsf5yl" fill="#fff"><use xlink:href="#2l9f7rpn4k"></use></mask><path d="M4.186 10 0 0c1.746.086 3.59.21 5.494.355 5.821.49 11.721 1.201 16.447 1.557.02.003.04.003.059.007C16.463 4.126 10.393 6.91 4.186 10" mask="url(#pvg3bsf5yl)"></path></g><path d="M155.652 557.556c-6.008-4.648-12.697-8.435-18.702-11.45-.405-.03-.846-.07-1.272-.106-20.296 7.812-39.807 18.083-57.678 30.484 1.867 9.821 4.944 19.39 9.005 28.516 1.659-.091 3.32-.201 4.987-.355 21.006-1.947 41.065-4.592 61.925-7.757 1.692-13.06 2.636-26.189 1.735-39.332" fill="#874E29" fill-rule="nonzero"></path><path d="M156.787 600c12.355-.204 24.355-1.561 36.213-5.04-.441-13.858-2.524-27.967-7.164-41.036-7.55-2.234-15.775-3.038-23.672-2.911-5.522 15.634-7.39 32.53-5.377 48.987" fill="#874E29" fill-rule="nonzero"></path><path d="m163 551.007-1.007-.007c-3.404.076-7.124.67-10.488 1.156-5.636 14.327-6.982 29.99-3.865 44.919 2.976 1.344 5.931 2.646 9.247 2.925l-.04-.189.193-.007c-2.231-16.392-.161-33.223 5.96-48.797" fill="#E8B935" fill-rule="nonzero"></path><path d="M47.453 566.885 39 538.846s2.293-4.44 4.05-4.616a253.85 253.85 0 0 1 55.174.574l15.343 38.44 39.39-2.84c1.569 4.715 1.201 10.438 0 16.596l-42.8-1.546-18.85-42.913c-14.02-.592-27.75-.468-41.16.431l6.618 17.444-9.312 6.469" fill="#95A8A3" fill-rule="nonzero"></path><path d="M131 237.86a183.53 183.53 0 0 0 7.448 33c32.46 7.052 65.615 9.705 98.703 7.238 5.469-14.504 9.977-29.12 13.849-44.164-38.943-9.406-81.509-7.285-120 3.926" fill="#263542" fill-rule="nonzero"></path><path d="M151.552 113.666c8.678-.903 17.498-.873 26.448 0L170.214 145l-18.355-1.572c-2.799-10.542-4.574-20.854-.307-29.762" fill="#874E29" fill-rule="nonzero"></path><path d="M241.93 34A60.69 60.69 0 0 1 254 45.02c-1.62 17.167-5.097 31.585-12.91 46.933-2.02 2.463-6.05 5.719-8.315 7.32 1.573 3.006 2.908 5.957 4.177 9.105-9.162 17.717-23.887 32.446-41.775 41.17-9.487 4.625-21.657 1.489-32.147.391-.25-8.395 1.057-17.253 4.047-25.097 1.562-4.09 6.652-5.284 10.703-6.91.324-5.73 1.31-11.286 2.683-16.856 6.623-2.709 13.325-4.907 20.28-6.587l-.555.029c4.678-11.336 9.76-23.128 16.07-33.638 6.302-10.507 15.46-20.144 25.672-26.88" fill="#263542" fill-rule="nonzero"></path><path d="M152 64.547c2.539 1.544 4.758 3.303 7.336 4.823 3.519-3.051 8.395-5.31 12.742-6.45 15.71-.42 31.97 4.302 46.243 12.919 2.751.428 5.751-.024 8.679-1.032-18.385-12.986-43.181-21.16-60.32-20.795-5.327 2.683-10.265 6.273-14.68 10.535" fill="#874E29" fill-rule="nonzero"></path><path d="M245 23.6C224.658 7.886 199.072-.296 173.49.009a98.48 98.48 0 0 0-26.116 22.894c-1.067 13.525.12 27.42 3.933 40.427l.392.235c4.452-3.92 9.43-7.222 14.801-9.689 17.281-.335 42.282 7.182 60.82 19.125l.366-.103C236.99 57.953 243.068 41.156 245 23.601" fill="#E8B935" fill-rule="nonzero"></path><g transform="translate(147 3)"><mask id="yokn8it8ao" fill="#fff"><use xlink:href="#in5jvcs8xm"></use></mask><path d="M4.503 56C.556 44.567-.745 32.362.399 20.346 7.335 12.798 14.957 4.993 24 0c-5.14 14.717-6.332 32.03-5.288 47.544C13.91 49.95 8.804 52.816 4.502 56" fill="url(#qj66ppi67n)" fill-rule="nonzero" mask="url(#yokn8it8ao)"></path></g><path d="M176.833 18.174c-1.25-1.18-6.822-3.002-8.136-3.135-3.202-.33-6.69 1.461-7.909 4.337-1.873 4.42-.143 10.592 2.425 14.464 1.008 1.512 2.52 3.027 4.472 3.041.854.007 3.759.115 4.672.119 2.099.014 3.603-1.818 4.472-3.549A20.087 20.087 0 0 0 179 24.396c0-2.235-.464-4.617-2.167-6.222" fill="#95A8A3" fill-rule="nonzero"></path><path d="M166.263 37c-1.134-.007-2.138-1.454-2.637-2.309-2.103-3.627-3.472-9.352-2.03-13.268.735-1.984 2.796-3.423 4.902-3.423.787 0 1.928.216 2.883 1.25 1.071 1.165 1.619 3.06 1.619 5.643a22.91 22.91 0 0 1-1.92 9.188c-.3.687-1.388 2.919-2.806 2.919h-.01" fill="#465E5B" fill-rule="nonzero"></path><path d="M168.867 34.175A24.04 24.04 0 0 0 171 24.28c0-2.782-.608-4.824-1.798-6.08l-.241-.2c-2.286.063-4.5 1.57-5.296 3.663-1.606 4.222-.086 10.383 2.25 14.29.187.307.449.681.741 1.047 1.115-.65 1.946-2.239 2.211-2.825" fill="#6DBFA8" fill-rule="nonzero"></path><path d="M168.404 32c-1.97-3.143-3.208-7.722-1.799-10.776.501-1.094 1.808-1.953 3.273-2.224.766.934 1.122 2.291 1.122 4.027.004 2.844-.745 5.716-2.172 8.303l-.424.67" fill="#EEF7F6" fill-rule="nonzero"></path><path d="M188.342 32.008c1.309.093 2.493 1.004 3.247 2.198.751 1.195 1.116 2.646 1.287 4.093.27 2.28.098 4.616-.503 6.815-.368 1.32-.951 2.678-2.03 3.361-3.2 2.024-5.609-2.272-6.677-4.934-1.104-2.747-.761-5.852.481-8.518.795-1.71 2.388-3.141 4.195-3.015" fill="#874E29" fill-rule="nonzero"></path><path d="M192.853 37.856c-.202-1.242-.634-2.488-1.522-3.514l-.363-.342c-1.984.038-3.722 1.17-4.61 2.551-1.47 2.293-1.876 4.96-.57 7.319.54.97 1.376 2.177 2.437 3.13a4.566 4.566 0 0 0 1.63-.405c1.277-.586 1.967-1.752 2.403-2.886.712-1.888.914-3.895.595-5.853" fill="#6DBFA8" fill-rule="nonzero"></path><path d="M188.451 45a13.72 13.72 0 0 1-.978-2.107c-.675-1.847-.543-4.126.363-6.258.282-.662.795-1.331 1.413-1.635.33.739.51 1.522.612 2.469a15.592 15.592 0 0 1-.369 5.446c-.273 1.083-.624 1.785-1.04 2.085" fill="#EEF7F6" fill-rule="nonzero"></path><path d="M157.276 38.006c1.043.071 1.994.768 2.592 1.684.602.912.894 2.022 1.032 3.128.219 1.74.077 3.53-.403 5.21-.291 1.013-.76 2.052-1.622 2.57-2.558 1.549-4.487-1.736-5.343-3.77-.882-2.103-.61-4.475.388-6.516.636-1.311 1.91-2.406 3.356-2.306" fill="#874E29" fill-rule="nonzero"></path><path d="M160.907 43.966c-.127-.956-.397-1.914-.953-2.702l-.227-.264c-1.238.029-2.323.897-2.88 1.962-.918 1.763-1.17 3.815-.354 5.629.336.746.861 1.676 1.524 2.409a2.472 2.472 0 0 0 1.018-.315c.798-.447 1.23-1.345 1.5-2.22.443-1.45.575-2.997.372-4.5" fill="#6DBFA8" fill-rule="nonzero"></path><path d="M156.53 49c-.182-.428-.353-.9-.503-1.38-.501-1.638-.4-3.67.276-5.565.156-.435.375-.803.609-1.055.153.524.246 1.091.306 1.755a16.685 16.685 0 0 1-.276 4.906c-.135.655-.282 1.075-.411 1.339" fill="#EEF7F6" fill-rule="nonzero"></path><path d="M173.85 62.023c-4.363 1.04-9.256 3.099-12.787 5.88l-.007-.004c-.466 11.365 1.984 22.839 7.047 33.004 2.154 1.137 7.543 3.386 11.384 4.097 12.017-.08 19.252-1.418 30.661-4.523 4.41-8.278 7.951-17.572 9.852-26.775l-.069-.066c-14.25-7.745-30.433-11.992-46.081-11.613" fill="#95A8A3" fill-rule="nonzero"></path><g transform="translate(159 64)"><mask id="pz4sza51jr" fill="#fff"><use xlink:href="#hxjgnadu4p"></use></mask><path d="M10.557 35c-.801 0-1.573-.062-2.287-.228C3.26 25.254.593 14.863 0 4.415 3.797 2.792 9.347.732 13.495 0 14.667 11.474 15.832 22.943 17 34.413c-1.965.138-4.306.587-6.443.587" fill="url(#md0xcgrovq)" fill-rule="nonzero" mask="url(#pz4sza51jr)"></path></g><path d="M180.5 110.817a21.673 21.673 0 0 0-.353 10.077c2.73 1.41 5.252 2.841 7.983 4.248-3.415-.481-7.296-.478-10.967-.474-1.286 0-2.546 0-3.753-.018-4.134 6.93-7.528 14.99-7.407 23.056 7.428 2.646 15.144 3.785 22.996 3.098 6.189-7.474 9.874-16.22 12.057-25.673 1.32-5.733 1.866-11.252 1.944-17.131-6.833 1.77-15.443 2.959-22.5 2.817" fill="#465E5B" fill-rule="nonzero"></path><path d="M289.486 136.915c-.737-5.239-2.16-10.903-4.487-15.78-14.64-8.823-32.3-11.719-49.223-14.135-12.214 9.739-23.17 20.905-32.436 33.474-16.56 2.405-33.51 2.185-50.015-.571a71.81 71.81 0 0 1-2.291-27.144c-10.66.234-21.506 2.054-31.527 5.697C105.461 138.31 95.132 161.416 90 185.18c8.027 20.279 19.141 39.188 33.546 55.58 34.269 4.99 83.723 3.96 131.268-1.333 13.672-12.792 24.559-28.107 30.72-45.78 6.158-17.671 6.547-38.203 3.952-56.732" fill="#E8B935" fill-rule="nonzero"></path><path d="M146.583 113.21a103.358 103.358 0 0 0-6.705.884c-.913.151-1.824.29-2.748.466a90.164 90.164 0 0 0-5.13 1.149c2.699 23.363 15.837 44.222 32.292 64.291 32.91-24.886 68.662-46.58 106.708-65.707l-.55-.198c-7.531-2.128-14.778-3.948-21.573-5.283-3.84-.671-7.69-1.258-11.498-1.812-12.037 9.758-22.834 20.946-31.97 33.54-16.318 2.41-33.022 2.19-49.289-.573a73.18 73.18 0 0 1-2.257-27.197c-2.42.055-4.852.217-7.28.44" fill="#B64042" fill-rule="nonzero"></path><g transform="translate(102 120)"><mask id="2p1zjx2jot" fill="#fff"><use xlink:href="#s05dtdwnws"></use></mask><path d="M48.364 61C32.154 61 15.931 60.176 0 58.465c3.03-19.92 9.666-39.36 19.915-56.864C22.498.963 25.003.43 27.495 0c3.95 20.705 16.536 39.428 32.013 57.492a630.403 630.403 0 0 1 28.437-19.404A150.505 150.505 0 0 0 88 59.378 487.462 487.462 0 0 1 48.364 61" mask="url(#2p1zjx2jot)"></path></g><g transform="translate(132 118)"><mask id="rx5s6txi7v" fill="#fff"><use xlink:href="#9gnn2d6unu"></use></mask><path d="M31.498 61C16.271 42.287 3.888 22.89 0 1.44 4.818.561 9.579.092 14.74 0c.545 7.224 1.022 15.862 2.21 23.008 14.169 1.607 29.884 2.198 44.05 3.804-.711 4.669-1.22 9.37-1.523 14.086A619.837 619.837 0 0 0 31.498 61" mask="url(#rx5s6txi7v)"></path></g><path d="M132 155.69c-1.382 2.428-2.92 4.86-5.203 6.52-2.283 1.662-5.48 2.408-8.036 1.181-2.924-1.402-4.173-5.004-3.642-8.125.535-3.122 2.475-5.838 4.559-8.266 3.091 3.947 7.44 7.228 12.322 8.69" fill="#FBDF8C" fill-rule="nonzero"></path><path d="M118.53 185.896c-9.087-.31-18.177-.616-27.264-.927-.08.365-.186.725-.266 1.086 7.976 19.978 19.018 38.608 33.332 54.755 30.406 4.394 72.84 4.044 115.218.206.95-3.751 1.544-7.621 2.003-11.444 1.868-15.55 1.77-30.954.6-46.572-40.873 5.692-82.374 4.3-123.623 2.896" fill="#B77433" fill-rule="nonzero"></path><path d="M285.24 120c-22.714 14.253-40.958 35.634-51.253 60.5-3.446 21.79-1.95 40.415.999 59.5a789.994 789.994 0 0 0 20.022-1.97c13.6-12.822 24.427-28.165 30.556-45.874 6.125-17.709 6.511-38.283 3.93-56.85-.707-5.074-2.07-10.53-4.255-15.306" fill="#874E29" fill-rule="nonzero"></path><path d="M175.84 199.453c-10.053-1.972-20.553-2.005-30.528.32a214.342 214.342 0 0 0-2.23 59.044c14.735-.74 29.979-.565 44.918.183a186.835 186.835 0 0 0-12.032-59.385l-.129-.162" fill="#95A8A3" fill-rule="nonzero"></path><g transform="translate(147 203)"><mask id="hi85l0twux" fill="#fff"><use xlink:href="#f2mo5wiasw"></use></mask><path d="M.969 49A178.3 178.3 0 0 1 2.43 1.097 51.157 51.157 0 0 1 13.03 0c3.576 0 7.16.358 10.758 1.03C29.055 15.16 31.816 32.21 32 47.415c-4.064-.444-8.11-.712-12.135-.712-6.345 0-12.64.66-18.896 2.296" mask="url(#hi85l0twux)"></path></g><path d="M199.852 243.206C194.648 228.001 186.367 213.414 176 201a180.189 180.189 0 0 1 12.078 58.348c3.817.191 7.633.393 11.398.652.416-5.474.718-10.761.376-16.794" fill="#738D87" fill-rule="nonzero"></path><path d="M214.153 274.176a116.403 116.403 0 0 1 42.18 1.692c4.255 10.076 5.964 21.176 5.625 32.132-17.862-3.007-35.852-3.613-53.958-3.705 1.996-10.195 4.153-19.92 6.153-30.119" fill="#B77433" fill-rule="nonzero"></path><path d="M183.93 342.052c10.204-20.215 18.013-41.356 24.07-63.187-2.594-6.957-6.479-13.776-11.415-19.39-21.549-4.012-43.994-3.14-65.16 2.575-3.416 4.157-5.632 8.726-6.425 13.002 2.558 24.707 12.853 48.59 28.604 67.77 10.114.388 20.247.145 30.325-.77" fill="#E8B935" fill-rule="nonzero"></path><g transform="translate(125 260)"><mask id="3aw32nh8wz" fill="#fff"><use xlink:href="#0lpfcdbu5y"></use></mask><path d="M14.755 61C7.535 46.604 1.205 31.732 0 14.897a20.797 20.797 0 0 1 5.89-9.601C19.863 2.27 35.292 0 50.19 0c5.953 0 11.824.364 17.482 1.185 4.292 5 7.982 10.315 10.328 16.436a113.238 113.238 0 0 1-15.22 16.824 84.3 84.3 0 0 0 1.059-8.463 17.181 17.181 0 0 0-6.99-3.934 9.636 9.636 0 0 1-.19.202 139.558 139.558 0 0 0-16.283-.948c-9.72 0-19.45.995-28.953 2.915a123.295 123.295 0 0 0 10.64 33.26c-.096.1-.19.201-.286.306.128.292.264.565.407.828A122.726 122.726 0 0 1 14.754 61" mask="url(#3aw32nh8wz)"></path></g><path d="M211.143 263.676c-1.477-.736-7.661-2.832-11.544-3.571l-.634-.105c4.934 5.598 8.817 12.397 11.41 19.334-6.054 21.768-13.86 42.847-24.06 63.003a236.206 236.206 0 0 1-30.315.768c1.023 1.241 1.992 2.525 3.058 3.726 10.377 1.53 21.263 1.508 31.669.228 10.41-22.476 22.113-44.857 34.273-66.434-3.54-6.395-8.133-12.405-13.857-16.95" fill="#874E29" fill-rule="nonzero"></path><path d="M126 137.105c3.59-.178 6.977-.214 9.2.585 0 0 1.42 5.793.476 9.701-.948 3.909-6.073 8.609-6.073 8.609L126 137.105" fill="#B56B2F" fill-rule="nonzero"></path><path d="M117.028 143.849c-.12-1.897.109-3.973 1.473-5.375 1.596-1.654 4.433-1.872 6.554-.875 2.122.997 3.57 2.983 4.335 5.094 1.29 3.544.842 12.39-4.363 13.244-5.6.92-7.774-8.503-8-12.088" fill="#E8B935" fill-rule="nonzero"></path><path d="M125.784 156c-3.546 0-5.53-7.566-5.758-11.427-.128-2.118.22-3.595 1.058-4.51.62-.672 1.614-1.063 2.722-1.063.734 0 1.454.166 2.084.48 2.131 1.055 3.157 3.277 3.578 4.51.78 2.251.848 7.16-.791 10.058-.631 1.11-1.411 1.734-2.395 1.908l-.498.044" fill="#874E29" fill-rule="nonzero"></path><path d="M129.385 143.251c-.42-1.137-1.4-3.014-3.207-4.251-1.186.044-2.252.422-2.927 1.102-.967.986-1.366 2.576-1.222 4.863.201 3.153 1.572 8.59 4.01 11.035.966-.258 1.782-.843 2.432-1.913 1.894-3.121 1.815-8.41.914-10.836" fill="#51261F" fill-rule="nonzero"></path><path d="M227 155.69c-1.378 2.428-2.917 4.86-5.2 6.52-2.285 1.662-5.487 2.408-8.044 1.181-2.925-1.402-4.17-5.004-3.635-8.125.527-3.122 2.471-5.838 4.556-8.266 3.093 3.947 7.442 7.228 12.323 8.69" fill="#FBDF8C" fill-rule="nonzero"></path><path d="M222 137.105c3.587-.178 6.98-.214 9.203.585 0 0 1.417 5.793.472 9.701-.944 3.909-6.071 8.609-6.071 8.609L222 137.105" fill="#B56B2F" fill-rule="nonzero"></path><path d="M214.028 143.849c-.12-1.897.109-3.973 1.47-5.375 1.6-1.654 4.432-1.872 6.557-.875 2.122.997 3.57 2.983 4.335 5.094 1.29 3.544.842 12.39-4.363 13.244-5.603.92-7.777-8.503-8-12.088" fill="#E8B935" fill-rule="nonzero"></path><path d="M222.78 156c-3.541 0-5.526-7.566-5.754-11.427-.128-2.118.22-3.595 1.058-4.51.62-.672 1.61-1.063 2.722-1.063.734 0 1.454.166 2.085.48 2.13 1.055 3.153 3.277 3.58 4.51.774 2.251.845 7.16-.794 10.058-.634 1.11-1.414 1.734-2.394 1.908l-.503.044" fill="#874E29" fill-rule="nonzero"></path><path d="M226.39 143.251c-.424-1.137-1.404-3.014-3.21-4.251-1.186.044-2.257.422-2.928 1.102-.967.986-1.37 2.576-1.222 4.863.197 3.153 1.572 8.59 4.01 11.035.962-.258 1.782-.843 2.432-1.913 1.894-3.121 1.811-8.41.918-10.836" fill="#51261F" fill-rule="nonzero"></path><path d="m299.775 262-.104.187c-5.19-.036-9.942.56-14.976 1.786-1.155 3.958-1.686 8.501-1.337 12.603-3.604 3.16-6.758 6.456-10.358 9.615.84 3.828 2.4 7.168 5.788 9.31 1.52-.56 2.307-.464 3.823-1.028 3.712 5.474 9.704 10.072 16.053 12.318 5.807 2.053 11.35.845 17.532.953 4.849-5.837 8.426-12.7 10.068-20.018l.736-.597c-6.394-10.532-16.083-19.41-27.225-25.129" fill="#738D87" fill-rule="nonzero"></path><path d="M354.486 196.092c-17.91-24.757-44.806-44.77-71.478-59.092-9.677 4.692-17.47 13.31-21.287 23.537-3.817 10.235-3.608 21.961.562 32.049 16.548 3.476 32.162 9.781 46.709 18.558-1.6 2.427-3.46 5.325-3.98 8.202 1.68.95 3.486 1.955 5.407 2.029.09 13.829-3.824 28.045-10.838 39.878 10.81 5.86 20.21 14.956 26.412 25.747 1.002-.777 1.875-.947 3.417-1.105 19.05-25.625 27.898-57.751 25.076-89.803" fill="#263542" fill-rule="nonzero"></path><path d="M179 222.17s-7.245-.558-16.02-.342c-8.773.153-15.98 1.014-15.98 1.014s1.684-.594 4.53-1.254a56.916 56.916 0 0 1 11.401-1.419c4.52-.093 8.595.4 11.472.94 2.882.536 4.597 1.061 4.597 1.061M181 242.76l-17.498.404c-9.588.195-17.502.354-17.502.354s7.663-1.812 17.447-2.013c9.78-.225 17.553 1.254 17.553 1.254" fill="#738D87" fill-rule="nonzero"></path><path d="M292.936 275.13c.42-2.703 1.165-5.125 1.053-7.865-3.102-.75-6.062-1.425-9.227-1.232a31.659 31.659 0 0 0-.614 9.965c3.193.048 5.596-.916 8.788-.868M296.944 288.393c-1.43-.273-2.154.348-3.587.075-.936-2.26-1.32-5.086-1.878-7.467-.018-.078-10.108 3.528-11.019 3.886-2.676 1.072-4.869 2.221-7.46 2.708.854 3.293 2.309 6.16 5.193 8.059 1.444-.554 2.193-.458 3.633-1.015 3.527 5.404 9.222 9.943 15.256 12.161 5.27 1.938 10.323.947 15.883.944.046-.575.053-1.132-.02-1.608-6.508-4.354-12.287-10.83-16.001-17.743" fill="#95A8A3" fill-rule="nonzero"></path><path d="M313.128 220.728c1.255 13.026-2.297 26.472-9.806 37.109 3.775.551 7.121 1.468 9.857 4.163 8.82-12.993 13.54-29.385 12.732-45.146-4.044 2.42-8.092 3.801-12.783 3.874zm12.261-12.638c-.168-2.626-1.067-5.284-2.376-7.56a68.257 68.257 0 0 1-11.732 11.043c4.676-.208 9.637-2.074 14.108-3.483zm-17.437-2.191c-13.45-7.044-27.894-12.993-42.14-18.182-1.628-7.23-.79-15.012 2.34-21.717 17.27 5.992 33.517 15.268 47.316 27.395-1.459 4.291-4.335 9.316-7.516 12.504zM79.74 243c-.749-3.193-2.568-6.16-5.137-8.38-1.516.794-3.37 1.563-4.603 2.71a33.557 33.557 0 0 1 9.74 5.67zm22.139-24.234.121-.357c-1.626 6.652-4.796 12.516-9.173 17.985-3.77-.2-7.56-.857-11.14-1.993-.457-2.269-.457-4.301-.91-6.574 5.302-7.392 8.665-15.984 9.713-24.827 5.197 4.104 9.4 9.693 11.389 15.766z" fill="#465E5B" fill-rule="nonzero"></path><path d="M181.458 337.962c.57-.125.917-.694 1.204-1.215.435-.792.87-1.587 1.127-2.458.252-.874.313-1.83-.012-2.676-.905-2.372-3.997-2-4.631.278-.41 1.458-.054 6.6 2.312 6.071M195.458 272.962c.57-.125.917-.697 1.204-1.218.435-.792.87-1.591 1.127-2.457.252-.87.313-1.825-.012-2.672-.905-2.378-3.993-1.998-4.631.275-.41 1.457-.054 6.6 2.312 6.072M155.054 337.911c.547-.199.826-.808 1.047-1.359.336-.836.676-1.68.825-2.57.15-.895.088-1.848-.328-2.645-1.188-2.234-4.206-1.476-4.565.852-.23 1.492.737 6.539 3.021 5.722M137.057 278.91c.546-.199.825-.804 1.047-1.359.336-.836.676-1.68.821-2.57.15-.895.092-1.848-.328-2.645-1.185-2.234-4.204-1.472-4.563.852-.233 1.496.737 6.543 3.023 5.722" fill="#B77433" fill-rule="nonzero"></path><path d="M182.855 284a17.752 17.752 0 0 1 7.145 3.874c-.858 11.34-4.361 23.163-9.55 33.418-9.79 2.859-20.607 3.558-30.64 1.6-1.236-1.14-2.12-2.21-2.81-3.707 11.172-11.497 24.683-23.692 35.855-35.185" fill="#874E29" fill-rule="nonzero"></path><path d="M185 284.977c-15.277-1.791-30.922-1.088-46 1.854a116.827 116.827 0 0 0 10.776 32.445c8.667 1.994 17.923 2.369 26.627.54 5.312-10.605 8.435-23.098 8.597-34.84" fill="#E8B935" fill-rule="nonzero"></path><g transform="translate(141 284)"><mask id="5hggj03zvB" fill="#fff"><use xlink:href="#b2f7npmgvA"></use></mask><path d="M12.687 32c-1.206 0-2.387-.018-3.514-.043A125.145 125.145 0 0 1 0 1.91C8.164.604 16.42 0 24.685 0 29.792 0 34.903.232 40 .669c-.264 5.432-.963 10.993-2.482 16.214-.867 2.983-2.02 5.955-4.006 8.34-2.714 3.254-6.78 5.143-10.928 5.997-3.042.626-6.566.78-9.897.78" mask="url(#5hggj03zvB)"></path></g><g transform="translate(94 333)"><mask id="o40xvjdbwD" fill="#fff"><use xlink:href="#rtduhjavmC"></use></mask><path d="M18.108 56C11.9 56 6.034 54.963.01 52.896-.219 34.73 3.827 16.526 11.735.138A43.737 43.737 0 0 1 15.267 0C23.63 0 32.378 2.241 40 5.389c-2.61 18.108-8.422 34.962-18.173 50.49-1.255.081-2.496.121-3.719.121" mask="url(#o40xvjdbwD)"></path></g><g transform="translate(93 450)"><mask id="lvi9eo9fgF" fill="#fff"><use xlink:href="#d39p3w7ynE"></use></mask><path d="M25.198 91c-6.314 0-12.633-.5-18.748-1.406C.335 60.333-.816 30.944.47 1.524 7.16.541 13.88 0 20.586 0c8.048 0 16.076.78 24.003 2.522 1.278 28.745 2.101 57.896.617 86.63C38.714 90.426 31.96 91 25.198 91" mask="url(#lvi9eo9fgF)"></path></g><path fill="#B77433" fill-rule="nonzero" d="M51 566.316 94.403 568l7.597-4.753L59.233 560 51 566.316"></path><path fill="#738D87" fill-rule="nonzero" d="M59 558.851 52.063 563 46 541.393l5.97-.393L59 558.851M97.247 536c-2.01 1.653-3.37 3.557-4.247 5.65l18.254 41.483-2.291 2.356L150.985 587c1.328-5.503 1.378-10.91 0-16.216l-38.673 2.775L97.247 536"></path><g transform="translate(39 533)"><mask id="ezzvkjx0nH" fill="#fff"><use xlink:href="#z2k8fg4xeG"></use></mask><path d="M54.69 8a206.944 206.944 0 0 0-34.195-2.852c-6.799 0-13.63.336-20.495 1.018.007-.016.015-.035.026-.05C.179 5.803 1.098 4 2.17 2.69c.564-.636 1.179-1.122 1.864-1.391A239.533 239.533 0 0 1 28.872 0C38.59.07 48.653.744 59 1.904 56.96 3.688 55.58 5.742 54.69 8" mask="url(#ezzvkjx0nH)"></path></g><g transform="translate(93 533)"><mask id="uxh6v2uyyJ" fill="#fff"><use xlink:href="#zxkmqjboaI"></use></mask><path d="M0 5c1.032-1.852 2.634-3.537 5-5L0 5" mask="url(#uxh6v2uyyJ)"></path></g><path fill="#738D87" fill-rule="nonzero" d="m250.48 549-3.48 2.23 6.15 21.77 3.85-3.909L250.48 549M312.532 539c-2.106 1.531-3.568 3.672-4.532 6.295l19.872 45.906-2.358 3.495L348.145 600c7.873-3.715 7.74-15.288 0-17.51l-20.938-1.78L312.532 539"></path><g transform="translate(291 538)"><mask id="6kr1hkew4L" fill="#fff"><use xlink:href="#wu2kmleawK"></use></mask><path d="M17.403 8A392.043 392.043 0 0 0 0 6.108 100.54 100.54 0 0 0 7.737 0C12.42.287 17.181.63 22 1.026 19.864 2.723 18.38 5.094 17.403 8" mask="url(#6kr1hkew4L)"></path></g><g transform="translate(308 541)"><mask id="typ6n3f0zN" fill="#fff"><use xlink:href="#ltgglidutM"></use></mask><path d="M0 5c1.063-2.084 2.677-3.784 5-5L0 5" mask="url(#typ6n3f0zN)"></path></g><g transform="translate(200 329)"><mask id="5sfq9z5c5P" fill="#fff"><use xlink:href="#0dasi0mhpO"></use></mask><path d="m28.917 75-.243-.044A260.59 260.59 0 0 1 0 24.821C8.952 13.975 20.515 5.53 33.543.004 33.546 0 33.55 0 33.557 0c.694 0 8.17 17.53 8.68 18.98 2.544 7.207 3.997 14.825 3.732 22.476C45.523 54.41 39.676 67.542 28.917 75" mask="url(#5sfq9z5c5P)"></path></g><path fill="#B77433" fill-rule="nonzero" d="M252 571.403 302.61 576l5.39-4.527L256.59 568l-4.59 3.403"></path><g transform="translate(273 549)"><mask id="zo2tzfpuoR" fill="#fff"><use xlink:href="#ufmeoy4cwQ"></use></mask><path d="M.443 5 0 .006C.523.003 1.045 0 1.572 0 5.31 0 9.125.078 13 .222A104.257 104.257 0 0 1 .443 5" mask="url(#zo2tzfpuoR)"></path></g><g transform="translate(272 543)"><mask id="hy0s8xufkT" fill="#fff"><use xlink:href="#6wrq915tbS"></use></mask><path d="M13.485 5A217.1 217.1 0 0 0 1.89 4.676c-.534 0-1.064.004-1.595.008L0 0c6.243.154 12.578.53 19 1.113A97.018 97.018 0 0 1 13.485 5" mask="url(#hy0s8xufkT)"></path></g><g transform="translate(262 447)"><mask id="9oczx64shV" fill="#fff"><use xlink:href="#pf5837r5yU"></use></mask><path d="M36.026 91a440.87 440.87 0 0 0-26.04-.796H8.914C6.775 60.962 4.248 31.484 0 2.582 10.348 1.056 20.81 0 31.235 0 39.04 0 46.82.593 54.523 2.021c3.569 16.19 5.117 34.367 4.234 50.906-.776 14.468-10.3 27.836-22.73 38.073" mask="url(#9oczx64shV)"></path></g><g transform="translate(271 536)"><mask id="bnlths6ieX" fill="#fff"><use xlink:href="#ohx2ed2eiW"></use></mask><path d="M26.926 1.855C17.618 1.411 8.615 1.157 0 1.145h.882c8.526 0 17.237.224 26.118.66-.022.014-.052.032-.074.05" mask="url(#bnlths6ieX)"></path></g><g transform="translate(88 401)"><mask id="qi9qu4w31Z" fill="#fff"><use xlink:href="#6f2w51w4wY"></use></mask><path d="M4.491 32c-4.449-9.588-5.64-20.437-3.36-30.654C8.102.478 15.187 0 22.252 0 26.519 0 30.777.176 35 .541c-.548 7.293-4.003 14.726-9.141 20.29C20.724 26.394 12.208 30.338 4.49 32" mask="url(#qi9qu4w31Z)"></path></g><g transform="translate(239 404)"><mask id="pe4bfqasgab" fill="#fff"><use xlink:href="#8n1z7npz6aa"></use></mask><path d="M18.096 35C10.59 28.608 4.387 20.629 0 11.71 14 10.492 27.304 6.504 39.834 0c.742 8.35-.949 17.442-6.2 23.892-3.85 4.724-10.337 8.012-15.538 11.108" mask="url(#pe4bfqasgab)"></path></g><path d="M95.245 430.725c.48.508 1.222.991 1.878.706.476-.205.671-.73.78-1.204.349-1.514-.169-9.267-3.243-8.083-1.178.455-1.583 2.582-1.605 3.573-.034 1.81.915 3.671 2.19 5.008zm-2.198-16.898c.634.045 1.163-.421 1.549-.891 1.391-1.695 2.149-4.002 1.826-6.131-.217-1.424-1.35-3.484-3.183-2.586-2.374 1.162-3.462 9.368-.192 9.608zm18.963 17.827c.183.518.46 1.086 1.016 1.28.641.223 1.335-.16 1.86-.57 2.22-1.744 3.64-4.343 3.843-7.036.079-1.055-.03-2.151-.54-3.094-1.248-2.321-4.904-2.6-6.018-.1-1.245 2.783-1.148 6.722-.161 9.52zm1.076-17.535c.307.466.727.922 1.301 1.044.506.111 1.031-.063 1.489-.289 2.302-1.13 3.558-3.553 4-5.936.117-.644.188-1.312.042-1.952-.623-2.715-4.496-1.817-6.015-.293-1.905 1.918-2.26 5.216-.817 7.426zm-11.523.3c.48-.829 1.282-1.612 2.295-1.643 1.245-.035 2.163 1.065 2.677 2.116a10.416 10.416 0 0 1-.176 9.37c-.353.662-.945 1.375-1.736 1.31-.514-.046-.919-.415-1.245-.787-2.273-2.568-3.6-7.308-1.815-10.367z" fill="#B77433" fill-rule="nonzero"></path></g></svg>