<?xml version="1.0" encoding="UTF-8"?>
<svg width="64px" height="64px" viewBox="0 0 64 64" version="1.1" xmlns="http://www.w3.org/2000/svg" xmlns:xlink="http://www.w3.org/1999/xlink">
    <title>rgb</title>
    <g   stroke="none" stroke-width="1" fill="none" fill-rule="evenodd">
        <g id="About-Me---Light" transform="translate(-531.000000, -920.000000)" fill="#0057FC" fill-rule="nonzero">
            <g id="body" transform="translate(135.000000, 160.000000)">
                <g id="skill" transform="translate(0.000000, 514.000000)">
                    <g id="do" transform="translate(0.000000, 206.000000)">
                        <g id="1" transform="translate(300.000000, 0.000000)">
                            <g id="Group-3" transform="translate(30.000000, 40.000000)">
                                <g id="rgb" transform="translate(66.000000, 0.000000)">
                                    <path d="M51.2588949,25.245597 C51.7005447,23.5911082 51.9374942,21.8534392 51.9374942,20.061066 C51.9374942,8.99933454 42.9656654,0 31.9377432,0 C20.909821,0 11.9379922,8.99945944 11.9379922,20.061066 C11.9379922,21.8694258 12.1791751,23.6220823 12.6285447,25.2899348 C5.2379144,28.2395883 0,35.4868909 0,43.9388091 C0,48.2744263 1.35757198,52.4024675 3.92578988,55.8764317 C4.10907393,56.124224 4.39097276,56.2552393 4.676607,56.2552393 C4.86985214,56.2552393 5.06496498,56.1952895 5.23206226,56.0708937 C5.64631907,55.7627769 5.73310506,55.1760185 5.42592996,54.7604917 C3.09814786,51.611755 1.86770428,47.8696405 1.86770428,43.9388091 C1.86770428,36.3203175 6.56236576,29.7820459 13.2018054,27.0788109 C15.1952685,32.4163387 19.3933696,36.6820145 24.6790973,38.7542782 C24.2374475,40.4087669 24.0004981,42.1464359 24.0004981,43.9388091 C24.0004981,49.7975251 26.5176654,55.0773512 30.523642,58.7484003 C30.089214,59.0597644 29.6418366,59.3536431 29.1802646,59.6260399 C26.4088405,61.2619192 23.2342412,62.1265697 19.999751,62.1265697 C15.5735409,62.1265697 11.3106926,60.5081758 7.99638911,57.5692633 C7.61002335,57.2266753 7.01982879,57.2630199 6.67828794,57.650695 C6.33662257,58.0382453 6.37298054,58.6302493 6.75947082,58.9728372 C10.4153152,62.214621 15.117572,64 19.999751,64 C23.5671907,64 27.0692607,63.0456746 30.1274397,61.240687 C30.7780233,60.8566338 31.4037043,60.4344875 32.004856,59.9809925 C35.3490428,62.5032541 39.5035642,64 44.000249,64 C55.0281712,64 64,55.0006655 64,43.938934 C64,35.4440518 58.7087938,28.1663996 51.2588949,25.245597 Z M14.967035,26.4645756 C16.5656654,26.0005893 18.25407,25.7511733 19.999751,25.7511733 C20.2979611,25.7511733 20.603642,25.7589168 20.9084514,25.7739043 C21.4216965,25.799258 21.8618521,25.4013415 21.8872529,24.8845245 C21.9127782,24.3678324 21.5158288,23.9282008 21.0005914,23.9027221 C20.6651518,23.8861111 20.3284669,23.8776182 19.9996265,23.8776182 C18.0559689,23.8776182 16.1766848,24.158258 14.3986304,24.6794463 C14.0122646,23.2040575 13.805572,21.6563543 13.805572,20.061066 C13.805572,10.032344 21.9395486,1.87343027 31.9376187,1.87343027 C41.9356887,1.87343027 50.0696654,10.032344 50.0696654,20.061066 C50.0696654,21.6439897 49.8665837,23.1800776 49.4859455,24.6449752 C47.7421323,24.1453938 45.9016965,23.8776182 44.0001245,23.8776182 C39.5045603,23.8776182 35.351035,25.3734898 32.0073463,27.8946274 C30.0062879,26.384143 27.7014163,25.2347311 25.1754086,24.5575485 C24.6772296,24.4241602 24.1652296,24.7209116 24.0321245,25.2207428 C23.8990195,25.7204491 24.1949883,26.2338939 24.6931673,26.3675319 C26.8326848,26.9410513 28.7972607,27.8883826 30.5257588,29.1272196 C28.1946148,31.2628052 26.368,33.9431843 25.2473774,36.965402 C20.5204669,35.0763598 16.7667549,31.2474431 14.967035,26.4645756 Z M32.0068482,30.3108528 C34.2133541,32.2715849 35.9234241,34.7531307 36.9690895,37.5357991 C35.3709572,37.9995355 33.6829261,38.2488267 31.9378677,38.2488267 C30.2330272,38.2488267 28.5827237,38.0111508 27.0173385,37.5678972 C28.0702257,34.752756 29.7999689,32.2672136 32.0068482,30.3108528 L32.0068482,30.3108528 Z M33.4876887,29.1279689 C36.4548482,27.0028745 40.0845447,25.7510484 44.000249,25.7510484 C45.7050895,25.7510484 47.355393,25.9887243 48.9207782,26.4319779 C47.1393619,31.1942376 43.4217588,35.0137873 38.73407,36.9218136 C37.6209183,33.9378138 35.8154708,31.2658027 33.4876887,29.1279689 Z M44.000249,62.1264448 C40.0836732,62.1264448 36.4532296,60.8741191 33.4856965,58.7480256 C34.9867082,57.3715539 36.2801556,55.7705204 37.3063969,53.9976309 C37.5653852,53.5502557 37.4137276,52.9769861 36.9677198,52.7172037 C36.5218366,52.4574214 35.9501946,52.6094191 35.6912062,53.0569191 C34.7104125,54.7512494 33.4622879,56.2743483 32.0063502,57.5663907 C28.2446693,54.231435 25.8680778,49.3586429 25.8680778,43.9388091 C25.8680778,42.3558854 26.0711595,40.8197975 26.4517977,39.3548999 C28.1956109,39.8544813 30.0360467,40.1222569 31.9376187,40.1222569 C33.8805292,40.1222569 35.7591907,39.841742 37.5366226,39.3210533 C37.9252296,40.8035611 38.1316732,42.3525132 38.1316732,43.9388091 C38.1316732,45.8654448 37.8317198,47.7646035 37.2401556,49.5837043 C37.0802802,50.0755422 37.3481089,50.6042242 37.8384436,50.7647147 C37.9345681,50.7961883 38.0321868,50.8111758 38.1281868,50.8111758 C38.5214008,50.8111758 38.8872218,50.5600112 39.0158444,50.1647175 C39.6685447,48.1577741 39.9993774,46.0630292 39.9993774,43.9388091 C39.9993774,42.1409405 39.7590661,40.3866604 39.3072062,38.7106897 C44.5553307,36.6166942 48.7174475,32.3553897 50.6903658,27.034598 C57.3869572,29.7106058 62.1322957,36.2789772 62.1322957,43.9388091 C62.1322957,53.9674062 53.9983191,62.1264448 44.000249,62.1264448 L44.000249,62.1264448 Z"  ></path>
                                </g>
                            </g>
                        </g>
                    </g>
                </g>
            </g>
        </g>
    </g>
</svg>