<?xml version="1.0" encoding="UTF-8"?>
<svg width="100px" height="100px" viewBox="0 0 100 100" version="1.1" xmlns="http://www.w3.org/2000/svg" xmlns:xlink="http://www.w3.org/1999/xlink">
    <title>pie-chart</title>
    <g   stroke="none" stroke-width="1" fill="none" fill-rule="evenodd">
        <g id="Services-3---Light" transform="translate(-783.000000, -1052.000000)">
            <g id="body" transform="translate(0.000000, 160.000000)">
                <g id="services" transform="translate(135.000000, 700.000000)">
                    <g id="1" transform="translate(600.000000, 144.000000)">
                        <g id="pie-chart" transform="translate(48.000000, 48.000000)">
                            <path d="M59.0417263,40.9582737 L100,29.9835082 C96.0789491,15.3504225 84.6493823,3.92085575 70.0164918,0 L59.0417263,40.9582737 Z" id="Path" fill="#FFDD0F"></path>
                            <g   transform="translate(0.000000, 14.049075)" fill="#0057FC" fill-rule="nonzero">
                                <path d="M84.4824917,31.8335458 C84.2310822,30.8154154 83.0995443,30.161907 82.0917593,30.4533311 L45.76348,40.1872503 L55.4975944,3.85916621 C55.7767213,2.81800304 55.1587381,1.74775601 54.1173797,1.46862903 C11.482197,-9.31992167 -18.0103991,41.8260966 12.638134,73.3127915 C44.1525464,103.974403 95.2700664,74.4408158 84.4824917,31.8335458 Z M44.9549877,50.2325034 L60.8051061,77.6861062 C56.0095874,80.1535497 50.6403945,81.6569315 44.9549877,81.9382056 L44.9549877,50.2325034 Z M43.0030508,3.90913579 C45.7619184,3.90913579 48.5139543,4.20212153 51.2089937,4.78145641 L41.7760632,39.9856152 L10.2224169,21.7681877 C17.1851712,11.0284354 29.2783965,3.90913579 43.0030508,3.90913579 Z M3.96431183,42.9478747 C3.96431183,36.5392753 5.51668728,30.4865141 8.26481931,25.1456242 L41.0511138,44.0747279 L41.0511138,81.9382056 C20.4283144,80.917733 3.96431183,63.8193509 3.96431183,42.9478747 Z M64.1827378,75.7285086 L45.9653103,44.1746671 L81.1694691,34.7419318 C84.7869938,50.5358344 77.2431479,67.5578958 64.1827378,75.7285086 Z"  ></path>
                                <path d="M25.7520272,53.3079753 L23.6484248,52.4368258 C22.6623062,52.0282854 22.192475,50.8938197 22.6010154,49.9075059 C22.7971851,49.4337708 23.1698098,49.0632932 23.6501815,48.8641956 C24.130358,48.6649029 24.6560146,48.6637317 25.1301401,48.8600965 L26.1820389,49.2955737 C27.177722,49.7082132 28.3199955,49.2348684 28.7322446,48.238795 C29.1446888,47.2427216 28.6715393,46.1010337 27.6754659,45.6887846 L26.6237623,45.2533075 C26.3877731,45.1557106 26.14788,45.0741196 25.9050591,45.0085346 L25.9050591,43.9400443 C25.8018016,41.3502143 22.1034667,41.3521663 22.0011852,43.9400443 L22.0011852,45.324358 C17.3510858,47.3774052 17.4555144,54.1131493 22.154217,56.0436149 L24.2580147,56.9147644 C25.2441332,57.3233048 25.7139645,58.4577705 25.305424,59.4440843 C25.1092544,59.9180145 24.7366296,60.288297 24.2562579,60.4873946 C23.7756911,60.6864921 23.2502296,60.6878585 22.7764945,60.491884 L21.7245957,60.0562117 C20.7289127,59.6437674 19.5868344,60.1167217 19.1741949,61.1124048 C18.7615554,62.1084782 19.2345098,63.2501661 20.2305832,63.6626104 L21.2826772,64.0984779 C21.5186664,64.1960748 21.7585594,64.2776657 22.0011852,64.3432508 L22.0011852,65.4115459 C22.1044426,68.0013758 25.8027776,67.9994239 25.9050591,65.4115459 L25.9050591,64.0272322 C27.274538,63.4147144 28.3385389,62.3231913 28.9122131,60.9379016 C30.1446661,57.9629545 28.7269743,54.5402331 25.7520272,53.3079753 L25.7520272,53.3079753 Z" id="Path"></path>
                            </g>
                        </g>
                    </g>
                </g>
            </g>
        </g>
    </g>
</svg>