<?xml version="1.0" encoding="UTF-8"?>
<svg width="100px" height="100px" viewBox="0 0 100 100" version="1.1" xmlns="http://www.w3.org/2000/svg" xmlns:xlink="http://www.w3.org/1999/xlink">
    <title>rocket</title>
    <g   stroke="none" stroke-width="1" fill="none" fill-rule="evenodd">
        <g id="Services-3---Light" transform="translate(-183.000000, -1052.000000)">
            <g id="body" transform="translate(0.000000, 160.000000)">
                <g id="services" transform="translate(135.000000, 700.000000)">
                    <g id="1" transform="translate(0.000000, 144.000000)">
                        <g id="rocket" transform="translate(48.000000, 48.000000)">
                            <g   transform="translate(0.000000, 26.581288)" fill="#FFDD0F">
                                <path d="M69.9821345,19.9850355 C74.5550878,15.4133039 74.5548927,8.00087159 69.9821345,3.42894497 C65.4091811,-1.14298166 57.9950842,-1.14298166 53.4223259,3.42894497 C42.8749705,14.8461782 58.5687766,30.5280719 69.9821345,19.9850355 L69.9821345,19.9850355 Z" id="Path"></path>
                                <path d="M29.5036432,50.2770001 L23.1235586,43.8983479 C17.700994,44.9863631 12.5783496,47.5958826 8.4302019,51.7429039 C2.53873155,57.6330515 -0.25031143,65.4889227 0.017606852,73.3779591 C13.7639807,74.145637 27.0272041,63.9800991 29.5036432,50.2770001 L29.5036432,50.2770001 Z" id="Path"></path>
                            </g>
                            <path d="M98.7647146,2.61359429 C98.5842161,1.94033981 98.0583314,1.41457312 97.3849257,1.23411517 C75.2616662,-5.40439642 48.2054321,15.8894469 33.5107094,37.5814683 C23.5032884,36.3180676 13.1276504,39.8720162 6.01991302,47.0499508 C3.9706211,49.0989777 2.19666254,51.4102051 0.74760124,53.9196437 C0.450803201,54.4335099 0.404166297,55.0542852 0.620569338,55.6065841 C0.836972379,56.1590781 1.29299935,56.5828129 1.85986214,56.7585887 L20.2143134,62.4462332 C19.6564267,64.007731 19.1672271,65.5444524 18.751983,67.0482036 C18.5650451,67.7251648 18.7562759,68.4503131 19.2530858,68.9470114 L31.0370022,80.7282821 C31.5342023,81.2269313 32.2669286,81.415583 32.9362364,81.2292724 C34.4403254,80.8141215 35.9773919,80.3248366 37.5392403,79.7672703 L43.2281621,98.1176006 C43.4037823,98.6843361 43.8278073,99.1402607 44.3804254,99.3566151 C44.9312872,99.5725794 45.5531777,99.5267333 46.0677447,99.2296118 C48.5777468,97.7808758 50.8894932,96.0073155 52.9389803,93.9584837 C56.7029102,90.1953989 59.4334131,85.7358439 61.0549724,80.7035057 C62.5237422,76.1448451 62.9885502,71.2416562 62.409394,66.4738596 C84.1111651,51.784192 105.407059,24.713158 98.7647146,2.61359429 Z M5.45090376,53.7863974 C6.43964516,52.3659495 7.55346712,51.0344624 8.77929571,49.808909 C14.6420814,43.9474396 22.7795383,40.8642424 31.0022684,41.2797834 C27.2026291,47.100479 23.995415,53.067687 21.6225918,58.7974709 L5.45090376,53.7863974 Z M22.8255898,67.0009919 C23.5298265,64.6417724 24.4364167,62.1633531 25.5246762,59.6098243 L40.3758959,74.4577096 C37.8217936,75.5457247 35.3428178,76.4521114 32.9830685,77.15619 L22.8255898,67.0009919 Z M50.1790122,91.1991353 C48.9533787,92.4244936 47.6213975,93.5382605 46.2006306,94.52678 L41.1882366,78.3587228 C46.9210634,75.985652 52.8913677,72.7781826 58.7151267,68.9778356 C59.1652997,77.2712929 56.1305837,85.2490952 50.1790122,91.1991353 L50.1790122,91.1991353 Z M44.1710472,72.7337021 L27.2490709,55.8155252 C35.5635138,38.5649154 51.3435689,18.9736197 68.7163035,9.58492887 C69.9241798,14.878102 72.5709705,19.6695046 76.4478827,23.5455463 C80.3247949,27.4217831 85.1172734,30.0681746 90.4118304,31.2757797 C81.0210312,48.6446138 61.4253358,64.421126 44.1710472,72.7337021 L44.1710472,72.7337021 Z M92.2037413,27.6646698 C82.0737764,25.7461579 74.2471672,17.9213059 72.3284196,7.79361544 C79.911307,4.3731081 87.715671,3.01528394 95.268703,4.72953695 C96.9831458,12.2808731 95.6250167,20.0834849 92.2037413,27.6646698 Z"   fill="#0057FC" fill-rule="nonzero"></path>
                        </g>
                    </g>
                </g>
            </g>
        </g>
    </g>
</svg>