<?xml version="1.0" encoding="UTF-8"?>
<svg width="100px" height="100px" viewBox="0 0 100 100" version="1.1" xmlns="http://www.w3.org/2000/svg" xmlns:xlink="http://www.w3.org/1999/xlink">
    <title>magnet</title>
    <g   stroke="none" stroke-width="1" fill="none" fill-rule="evenodd">
        <g id="Services-3---Light" transform="translate(-183.000000, -1504.000000)">
            <g id="body" transform="translate(0.000000, 160.000000)">
                <g id="services" transform="translate(135.000000, 700.000000)">
                    <g id="1" transform="translate(0.000000, 596.000000)">
                        <g id="magnet" transform="translate(48.000000, 48.000000)">
                            <path d="M80.4560429,39.0016638 C91.2204636,39.0016638 100,30.2191046 100,19.4509777 C98.8959619,-6.48750405 62.0122152,-6.47987929 60.9120859,19.4511732 C60.9120859,30.2191046 69.6916223,39.0016638 80.4560429,39.0016638 Z" id="Path" fill="#FFDD0F"></path>
                            <g   transform="translate(0.000000, 3.160959)" fill="#0057FC" fill-rule="nonzero">
                                <path d="M81.3490063,55.7319636 L69.2595054,45.2050922 C68.4453041,44.4963798 67.2114941,44.5816208 66.5028302,45.3957114 L42.1618089,73.3486958 C37.5895001,78.5992281 29.3829926,77.6521928 24.5863192,73.4730382 C19.2226756,69.0315133 17.838768,59.2886244 23.4105547,54.5950912 L51.3572407,30.2492083 C52.1710511,29.5403005 52.2564582,28.3054791 51.5479897,27.4911931 L41.0243506,15.3977252 C40.6838949,15.0067114 40.2021363,14.766629 39.6848078,14.7310468 C39.1670884,14.6950735 38.6575774,14.866533 38.2665028,15.207106 L10.3198168,39.5529888 C-2.99997622,50.6761562 -3.14323342,72.5924753 8.25753849,85.2761784 C11.4777963,88.9751682 15.4205942,91.8739484 19.9766815,93.8917747 C24.3293161,95.8196679 29.1257941,96.8390408 33.8474187,96.8390408 C43.0661078,96.8390408 51.3621267,93.1474801 57.198734,86.4437454 L81.5395599,58.4907609 C81.8802111,58.0997472 82.0514161,57.5892788 82.0158461,57.0719676 C81.9798853,56.554461 81.7400809,56.0725366 81.3490063,55.7319636 Z M39.3595963,19.440025 L47.316723,28.5842719 L41.4425913,33.701664 L33.4854646,24.5574171 L39.3595963,19.440025 Z M3.85389409,62.1342268 C4.0598874,54.3690853 7.26783251,47.3967241 12.8869156,42.5018188 L30.5376496,27.1253997 L38.4947762,36.2696466 L20.8436514,51.6464567 C14.3491945,57.0700126 14.6036568,67.8119415 19.8517956,74.1504695 L11.2479594,82.757268 C11.2336923,82.7410409 11.2192297,82.7246183 11.2051581,82.7083913 C6.33499944,77.1139625 3.65552292,69.6151013 3.85389409,62.1342268 Z M54.2513099,83.8755672 C49.1677312,89.7137931 41.9222,92.929099 33.8491776,92.929099 L33.8474187,92.929099 C26.4650798,92.9287079 19.4273008,90.2676641 14.0112795,85.522908 L22.6143339,76.9168915 C25.7386309,79.4015882 29.7386926,80.8295703 33.7094383,80.8567458 C38.259467,80.8837257 42.3078023,79.1337438 45.1090376,75.9168739 L60.4829006,58.2616269 L69.6240002,66.2214932 L54.2513099,83.8755672 Z M72.1912944,63.2732497 L63.0501948,55.3133834 L68.1666073,49.4376202 L77.3077069,57.397291 L72.1912944,63.2732497 Z"  ></path>
                                <path d="M78.6550673,17.6599351 L80.761515,18.5326777 C81.7488757,18.941678 82.2192987,20.0781594 81.8102437,21.0658601 C81.4011887,22.0535607 80.2643167,22.5239502 79.2779332,22.1151454 L78.2247094,21.6787741 C77.2273812,21.2656681 76.0844506,21.7393812 75.6710959,22.7368572 C75.2581321,23.7345287 75.7318776,24.8780484 76.7290103,25.2911544 L77.7822342,25.7275257 C78.0196932,25.8258656 78.2598885,25.907392 78.5018427,25.9724958 L78.5018427,27.0427003 C78.6050348,29.6366854 82.3082237,29.6347303 82.4106341,27.0427003 L82.4106341,25.6581207 C83.7261378,25.0686675 84.8280261,23.9957259 85.4217715,22.5616831 C86.6553861,19.5821585 85.2359085,16.1541412 82.2576049,14.9199064 L80.1509618,14.0471638 C79.1888128,13.6727681 78.6863376,12.4592571 79.102233,11.5137859 C79.2986498,11.0392907 79.6717439,10.6682187 80.1527207,10.4688017 C80.6336975,10.2695802 81.1600163,10.2680162 81.6345435,10.4646961 L82.6879628,10.9010674 C83.6856818,11.3139779 84.8286124,10.8404602 85.2413808,9.84278873 C85.6543446,8.84511722 85.1805991,7.70159759 84.1834664,7.28849159 L83.1300471,6.85231579 C82.8939561,6.75436685 82.6535655,6.67284049 82.4106341,6.60715018 L82.4106341,5.53714113 C82.307442,2.9431561 78.604253,2.94511117 78.5018427,5.53714113 L78.5018427,6.92348029 C77.1308341,7.53698081 76.0651021,8.63025518 75.4909006,10.0177674 C74.8946145,11.4572844 74.896178,13.0463642 75.4950049,14.4927239 C76.0936363,15.9388882 77.2160457,17.0636391 78.6550673,17.6599351 L78.6550673,17.6599351 Z" id="Path"></path>
                                <path d="M47.1740521,9.06662649 L50.4746356,10.9728184 L48.6668196,14.1050338 C48.1270155,15.0401431 48.4473409,16.2358631 49.3821284,16.7756575 C49.6899457,16.9535688 50.0259063,17.0380277 50.3573719,17.0380277 C51.032811,17.0380277 51.6898788,16.6872884 52.0518329,16.0601024 L54.8368468,11.2346021 C55.0959997,10.7855228 55.1663579,10.2519846 55.0320909,9.75109601 C54.897824,9.25020744 54.5704627,8.82322045 54.121538,8.56397835 L50.8209545,6.65778646 L52.9707898,2.93298975 C53.5105939,1.99788043 53.1902684,0.802160472 52.255481,0.262366029 C51.3203026,-0.277819428 50.1251896,0.043007331 49.5857764,0.97792114 L46.4587433,6.39600277 C46.1995904,6.84508203 46.1292322,7.37862026 46.2634992,7.87950883 C46.3975707,8.38039741 46.7251274,8.8073844 47.1740521,9.06662649 L47.1740521,9.06662649 Z" id="Path"></path>
                                <path d="M96.4740747,44.4961843 C95.9344661,43.561075 94.7391576,43.2408348 93.8043702,43.7806292 L90.08066,45.9312047 L88.1751242,42.6294848 C87.9159713,42.1804055 87.4891313,41.852736 86.9884151,41.7186183 C86.4880898,41.5843051 85.9543444,41.6544921 85.5054197,41.9139297 L80.6815802,44.6999025 C78.4873801,46.0862416 80.3411245,49.2937272 82.6359759,48.0860813 L85.7671133,46.2776428 L87.6726491,49.5793627 C87.931802,50.028442 88.358642,50.3561115 88.8593582,50.4902292 C89.3577291,50.6241514 89.8928426,50.5547464 90.3423536,50.2949178 L95.7585704,47.166808 C96.6935533,46.6270136 97.0136834,45.4310981 96.4740747,44.4961843 L96.4740747,44.4961843 Z" id="Path"></path>
                            </g>
                        </g>
                    </g>
                </g>
            </g>
        </g>
    </g>
</svg>