<?xml version="1.0" encoding="UTF-8"?>
<svg width="100px" height="100px" viewBox="0 0 100 100" version="1.1" xmlns="http://www.w3.org/2000/svg" xmlns:xlink="http://www.w3.org/1999/xlink">
    <title>full-moon</title>
    <g   stroke="none" stroke-width="1" fill="none" fill-rule="evenodd">
        <g id="Services-3---Light" transform="translate(-782.000000, -1278.000000)" fill-rule="nonzero">
            <g id="body" transform="translate(0.000000, 160.000000)">
                <g id="services" transform="translate(135.000000, 700.000000)">
                    <g id="1" transform="translate(600.000000, 370.000000)">
                        <g id="full-moon" transform="translate(47.000000, 48.000000)">
                            <g   transform="translate(1.953125, 1.953125)" fill="#FFDD0F">
                                <path d="M26.6560547,48.046875 C26.6560547,26.1357422 41.3230469,7.65019531 61.375,1.87265625 C57.1429687,0.653320312 52.6712891,-1.04083409e-15 48.046875,-1.04083409e-15 C21.5113281,-1.04083409e-15 0,21.5113281 0,48.046875 C0,74.5824219 21.5113281,96.09375 48.046875,96.09375 C52.6712891,96.09375 57.1429687,95.4404297 61.375,94.2210938 C41.3232422,88.4435547 26.6560547,69.9580078 26.6560547,48.046875 Z" id="Path"></path>
                                <circle id="Oval" cx="64.1796875" cy="24.6451172" r="7.18027344"></circle>
                            </g>
                            <g   fill="#0057FC">
                                <path d="M99.3779297,42.0980469 C97.5324219,30.4759766 91.5792969,19.8230469 82.615625,12.1017578 C73.5558594,4.29785156 61.9728516,2.77555756e-15 50,2.77555756e-15 C36.6447266,2.77555756e-15 24.0886719,5.20097656 14.6447266,14.6447266 C5.20078125,24.0884766 0,36.6447266 0,50 C0,63.3552734 5.20097656,75.9113281 14.6447266,85.3552734 C24.0884766,94.7992188 36.6447266,100 50,100 C72.5628906,100 92.4173828,84.8021484 98.2824219,63.0412109 C99.4220703,58.8095703 100,54.4220703 100,50 C100,47.3570312 99.7908203,44.6984375 99.3779297,42.0980469 Z M88.5996094,52.4589844 C88.5996094,48.3066406 91.7300781,44.871875 95.7548828,44.3900391 C95.9798828,46.2476562 96.09375,48.1279297 96.09375,50 C96.09375,53.5222656 95.6964844,57.0199219 94.9117187,60.4205078 C91.2804687,59.6652344 88.5996094,56.4003906 88.5996094,52.4589844 L88.5996094,52.4589844 Z M50,96.09375 C24.5837891,96.09375 3.90625,75.4162109 3.90625,50 C3.90625,24.5837891 24.5837891,3.90625 50,3.90625 C72.0625,3.90625 90.6978516,19.1796875 95.121875,40.5324219 C89.2427734,41.3193359 84.6933594,46.3677734 84.6933594,52.4589844 C84.6933594,58.2029297 88.5740234,62.978125 93.8689453,64.1925781 C87.7671875,83.0861328 70.0429688,96.09375 50,96.09375 Z"  ></path>
                                <path d="M51.953125,41.7515625 C51.953125,38.0441406 48.9369141,35.0277344 45.2294922,35.0277344 C41.5220703,35.0277344 38.5056641,38.0439453 38.5056641,41.7515625 C38.5056641,45.4587891 41.521875,48.4751953 45.2294922,48.4751953 C48.9369141,48.475 51.953125,45.4587891 51.953125,41.7515625 L51.953125,41.7515625 Z M45.2294922,44.56875 C43.6757812,44.56875 42.4119141,43.3048828 42.4119141,41.7513672 C42.4119141,40.1978516 43.6757812,38.9337891 45.2294922,38.9337891 C46.7830078,38.9337891 48.046875,40.1978516 48.046875,41.7513672 C48.046875,43.3048828 46.7830078,44.56875 45.2294922,44.56875 Z"  ></path>
                                <path d="M64.1947266,52.4560547 C56.271875,52.4560547 49.8259766,58.9019531 49.8259766,66.8248047 C49.8259766,74.7476563 56.271875,81.1935547 64.1947266,81.1935547 C72.1175781,81.1935547 78.5634766,74.7476563 78.5634766,66.8248047 C78.5634766,58.9019531 72.1175781,52.4560547 64.1947266,52.4560547 Z M64.1947266,77.2875 C58.4255859,77.2875 53.7322266,72.5941406 53.7322266,66.825 C53.7322266,61.0558594 58.4255859,56.3625 64.1947266,56.3625 C69.9638672,56.3625 74.6572266,61.0558594 74.6572266,66.825 C74.6572266,72.5941406 69.9638672,77.2875 64.1947266,77.2875 Z"  ></path>
                            </g>
                        </g>
                    </g>
                </g>
            </g>
        </g>
    </g>
</svg>