<?xml version="1.0" encoding="UTF-8"?>
<svg width="100px" height="100px" viewBox="0 0 100 100" version="1.1" xmlns="http://www.w3.org/2000/svg" xmlns:xlink="http://www.w3.org/1999/xlink">
    <title>travel</title>
    <g   stroke="none" stroke-width="1" fill="none" fill-rule="evenodd">
        <g id="Services-3---Light" transform="translate(-783.000000, -1504.000000)">
            <g id="body" transform="translate(0.000000, 160.000000)">
                <g id="services" transform="translate(135.000000, 700.000000)">
                    <g id="1" transform="translate(600.000000, 596.000000)">
                        <g id="travel" transform="translate(48.000000, 48.000000)">
                            <path d="M43.1327624,16.0234202 C23.2402537,12.4327069 8.45825943,34.5501577 19.1839366,51.5172688 C32.9572201,72.9715513 66.2163655,60.5171858 62.1143665,35.0050243 L57.5032292,30.393887 L44.1717325,33.9660543 L47.7438997,20.6345575 L43.1327624,16.0234202 Z" id="Path" fill="#FFDD0F"></path>
                            <g   fill="#0057FC" fill-rule="nonzero">
                                <path d="M35.6948145,38.7353212 C30.1555931,43.1045787 18.4317472,50.9735763 13.4822907,51.2666041 C13.1191783,48.8716239 9.66004441,49.072507 9.59308336,51.5119978 C9.59308336,52.9818222 10.2863157,54.1634993 11.4949335,54.7544355 C14.2315517,55.8945304 17.568672,54.6082144 23.2750032,51.6484578 C27.8271835,49.1867117 33.2283831,45.6030264 38.0931134,41.8163105 C38.9438897,41.1539232 39.0967483,39.9275403 38.4345562,39.0765687 C37.7719737,38.2257924 36.5452003,38.0729338 35.6948145,38.7353212 L35.6948145,38.7353212 Z" id="Path"></path>
                                <path d="M99.3381703,57.3104736 C95.1675017,48.9532266 87.5347892,35.2131307 84.6587733,26.55778 C83.8425509,24.3937471 82.8065678,22.2837907 81.5747349,20.2751543 L86.8765943,2.50431533 C87.0776611,1.83060513 86.8631174,1.11179872 86.3140421,0.618473405 C85.7647493,0.125148091 84.9641775,-0.0677309793 84.2142527,0.113239565 L64.4301504,4.87411192 C36.1179906,-9.53266616 -0.402476209,9.81615004 0.00335264467,39.0914056 C0.00291790568,46.7196947 2.49766764,52.2628206 5.38650828,58.6813206 C9.43957995,67.6870943 14.0334669,77.8944577 14.0310759,98.0475875 C14.0310759,98.5653155 14.2599659,99.0619596 14.6677511,99.4281955 C15.0753189,99.7942363 15.6283069,100 16.2047708,100 L63.1489746,100 C64.3495063,100 65.3226696,99.1259923 65.3226696,98.0477827 C65.3226696,88.3802073 67.0348891,85.1631484 77.1693073,85.1631484 C93.3961577,85.5530062 89.7530449,75.7805968 90.2114772,65.4457536 L93.7226467,65.4457536 C98.2745813,65.5123242 101.434916,60.9544825 99.3381703,57.3104736 Z M72.9479916,6.86654491 L53.4577729,18.1405999 L47.676179,12.9480923 L72.9479916,6.86654491 Z M55.0428313,21.8677732 L76.4259036,9.49891473 L62.6538069,28.7032668 L52.2570238,31.2052286 L55.0428313,21.8677732 Z M79.3571313,12.6222672 L72.5854193,35.3195265 L66.8038253,30.1270189 L79.3571313,12.6222672 Z M95.351179,60.7104553 C95.1796744,60.9603391 94.6784204,61.541319 93.7254725,61.541319 L88.0373474,61.541319 C86.8368157,61.541319 85.8636525,62.4153267 85.8636525,63.4935363 L85.8636525,74.4259532 C85.8636525,78.3352684 85.0246062,79.4816104 84.2935926,80.0436538 C83.1858776,80.895211 81.0552218,81.2587138 77.1688725,81.2587138 C65.1692067,81.1283057 61.067879,86.4422412 61.0020161,96.0955654 L18.3639021,96.0955654 C18.0676275,76.4410319 13.2841943,65.8112087 9.41697352,57.2181338 C6.58617054,50.92848 4.35030788,45.9602822 4.35030788,39.0910152 C3.95491276,14.6740476 32.8659255,-2.90371707 57.9442793,6.43490966 L42.9142654,10.0519779 C41.327468,10.3986917 40.7579599,12.3052271 41.9397979,13.3182327 C41.9397979,13.3182327 50.7360894,21.2182705 50.7360894,21.2182705 L47.0834123,33.4610157 C46.8823455,34.1347258 47.0968892,34.8535323 47.6459646,35.3468576 C48.1952573,35.8399877 48.9953944,36.0328667 49.745754,35.8520914 L63.3774299,32.5717807 L72.1737214,40.4718185 C72.5867235,40.8427397 73.1418852,41.0436229 73.7109585,41.0436229 C74.6769486,41.051627 75.5696851,40.4384355 75.8105305,39.5966394 C75.8105305,39.5966394 79.83817,26.0968615 79.83817,26.0968615 C82.0666421,31.6302263 83.4047687,35.6381284 86.2162258,41.006726 C86.2162258,41.006726 95.4026955,58.9692727 95.4026955,58.9692727 C95.8678663,59.697645 95.5402904,60.475994 95.351179,60.7104553 L95.351179,60.7104553 Z"  ></path>
                            </g>
                        </g>
                    </g>
                </g>
            </g>
        </g>
    </g>
</svg>