<?xml version="1.0" encoding="UTF-8"?>
<svg width="100px" height="100px" viewBox="0 0 100 100" version="1.1" xmlns="http://www.w3.org/2000/svg" xmlns:xlink="http://www.w3.org/1999/xlink">
    <title>cursor</title>
    <g   stroke="none" stroke-width="1" fill="none" fill-rule="evenodd">
        <g id="Services-3---Light" transform="translate(-183.000000, -1278.000000)">
            <g id="body" transform="translate(0.000000, 160.000000)">
                <g id="services" transform="translate(135.000000, 700.000000)">
                    <g id="1" transform="translate(0.000000, 370.000000)">
                        <g id="cursor" transform="translate(48.000000, 48.000000)">
                            <g   transform="translate(-0.000000, 0.000000)" fill="#0057FC" fill-rule="nonzero">
                                <path d="M80.5440224,32.5259183 C82.3797573,32.0800216 82.5649128,29.4608913 80.7508575,28.7956596 C80.7508575,28.7956596 2.62636238,0.119601353 2.62636238,0.119601353 C1.91171678,-0.142506983 1.11015745,0.0340548172 0.572073649,0.572138623 C0.0339898431,1.11022243 -0.142571957,1.91178175 0.119731691,2.62623205 C0.119731691,2.62623205 28.7957899,80.7509225 28.7957899,80.7509225 C29.4475452,82.5337279 32.0721441,82.4102909 32.5260486,80.5438921 C38.0246596,57.2963279 57.2966536,38.0249199 80.5440224,32.5259183 Z M30.4203929,73.8407936 L5.24021921,5.24028419 L73.8407287,30.4204579 C53.7536989,37.1116423 37.111382,53.7539592 30.4203929,73.8407936 Z"  ></path>
                                <path d="M98.0468827,43.1641574 L88.2812964,43.1641574 C87.2025898,43.1641574 86.3281792,44.038568 86.3281792,45.1172746 L86.3281792,48.5678469 C66.8809906,51.547132 51.5474576,66.8785165 48.5677819,86.3280488 L45.1172096,86.3280488 C44.038503,86.3280488 43.1640924,87.2024594 43.1640924,88.2811661 L43.1640924,98.0467524 C43.1640924,99.1254591 44.038503,99.9998697 45.1172096,99.9998697 L54.8829913,99.9998697 C55.9616979,99.9998697 56.8361085,99.1254591 56.8361085,98.0467524 L56.8361085,88.2811661 C56.8361085,87.2024594 55.9616979,86.3280488 54.8829913,86.3280488 L52.5240162,86.3280488 C55.4298641,69.0408126 69.0428961,55.4293431 86.3281792,52.5238859 L86.3281792,54.8828609 C86.3281792,55.9615676 87.2025898,56.8359782 88.2812964,56.8359782 L98.0468827,56.8359782 C99.1255894,56.8359782 100,55.9615676 100,54.8828609 L100,45.1172746 C100,44.038568 99.1255894,43.1641574 98.0468827,43.1641574 L98.0468827,43.1641574 Z M52.9296787,96.0938305 L47.0701316,96.0938305 L47.0701316,90.2344787 L52.9296787,90.2344787 L52.9296787,96.0938305 Z M96.0937655,52.9297437 L90.2344137,52.9297437 L90.2344137,47.0703919 L96.0937655,47.0703919 L96.0937655,52.9297437 Z"  ></path>
                                <path d="M98.0468827,91.2110373 L95.1172068,91.2110373 L95.1172068,88.2813614 C95.1172068,87.2026547 94.2427962,86.3282441 93.1640896,86.3282441 C92.0853829,86.3282441 91.2109723,87.2026547 91.2109723,88.2813614 L91.2109723,91.2110373 L88.2812964,91.2110373 C87.2025898,91.2110373 86.3281792,92.0854479 86.3281792,93.1641546 C86.3281792,94.2428612 87.2025898,95.1172718 88.2812964,95.1172718 L91.2109723,95.1172718 L91.2109723,98.0469477 C91.2109723,99.1256544 92.0853829,100.000065 93.1640896,100.000065 C94.2427962,100.000065 95.1172068,99.1256544 95.1172068,98.0469477 L95.1172068,95.1172718 L98.0468827,95.1172718 C100.634958,95.0215691 100.633982,91.3063494 98.0468827,91.2110373 L98.0468827,91.2110373 Z" id="Path"></path>
                            </g>
                            <path d="M18.3884093,18.3884743 L31.4600372,54.0004425 C37.2615767,45.0965716 45.0967019,37.2616417 54.0003776,31.4599069 L18.3884093,18.3884743 Z" id="Path" fill="#FFDD0F"></path>
                        </g>
                    </g>
                </g>
            </g>
        </g>
    </g>
</svg>