<?xml version="1.0" encoding="UTF-8"?>
<svg width="82px" height="64px" viewBox="0 0 82 64" version="1.1" xmlns="http://www.w3.org/2000/svg" xmlns:xlink="http://www.w3.org/1999/xlink">
    <title>shape-builder</title>
    <g   stroke="none" stroke-width="1" fill="none" fill-rule="evenodd">
        <g id="About-Me---Light" transform="translate(-529.000000, -1248.000000)" fill="#0057FC" fill-rule="nonzero">
            <g id="body" transform="translate(135.000000, 160.000000)">
                <g id="skill" transform="translate(0.000000, 514.000000)">
                    <g id="do" transform="translate(0.000000, 206.000000)">
                        <g id="1" transform="translate(300.000000, 328.000000)">
                            <g id="Group-3" transform="translate(30.000000, 40.000000)">
                                <g id="shape-builder" transform="translate(64.000000, 0.000000)">
                                    <path d="M79.46452,52.9619604 L73.6701437,48.1920468 C78.9795204,42.9154905 82,35.7080079 82,28.2048107 C82,12.6526537 69.3121925,0 53.7166289,0 C43.8971882,0 34.8114114,5.08590661 29.666957,13.3604844 C27.2909552,11.5927439 24.5119347,10.4046165 21.5631883,9.92799244 C20.9083027,9.82069213 20.2916855,10.265701 20.1855268,10.9184445 C20.0793681,11.5713477 20.5241779,12.1862487 21.1787433,12.2922716 C29.0335273,13.5618321 34.7343943,20.2540498 34.7343943,28.2048107 C34.7343943,37.0946088 27.4824572,44.3270005 18.5688081,44.3270005 C9.65435835,44.3270005 2.40178083,37.0946088 2.40178083,28.2048107 C2.40178083,20.2538902 8.10344841,13.5616725 15.959033,12.2922716 C16.6137585,12.186568 17.0584082,11.5713477 16.9524096,10.9184445 C16.846411,10.265701 16.2296337,9.82340658 15.5749082,9.92799244 C11.2718777,10.623209 7.32991486,12.8322859 4.47515817,16.1480569 C1.58933844,19.4997543 0,23.781707 0,28.2048107 C0,38.4152647 8.3300164,46.7220965 18.5689682,46.7220965 C22.7245294,46.7220965 26.5654573,45.3535386 29.6626338,43.044666 C31.6726041,46.2729362 34.3481879,49.1066541 37.4687417,51.2944945 C37.6788175,51.4417131 37.919636,51.5124483 38.158373,51.5124483 C38.5360931,51.5124483 38.9080489,51.3350515 39.1418222,51.0034105 C39.523225,50.4622785 39.3925681,49.7154875 38.8500859,49.3349866 C35.8920526,47.2613125 33.3709834,44.5540556 31.5112044,41.4682138 C34.9785753,38.1021459 37.1361751,33.4004127 37.1361751,28.2048107 C37.1361751,23.7818666 35.5469968,19.4999139 32.6613372,16.1482165 C32.2965867,15.7244442 31.9134226,15.3193536 31.514727,14.9326254 C36.1866711,7.17586741 44.6081153,2.39509604 53.7164688,2.39509604 C67.9875303,2.39509604 79.598059,13.9733096 79.598059,28.2048107 C79.598059,35.1491521 76.7698821,41.8158221 71.8073225,46.6587063 L66.107096,41.9663938 C65.2152347,41.2318977 63.9863235,41.1210846 62.976775,41.6828144 C61.9669062,42.2445443 61.416418,43.3454901 61.574135,44.4877912 L62.6707881,52.4267363 C59.8080255,53.4794608 56.8006756,54.0143656 53.7166289,54.0143656 C50.2111497,54.0143656 46.8108685,53.3276117 43.6097751,51.9731051 C42.9997227,51.7155524 42.2942396,51.9989721 42.0351675,52.6078055 C41.7760954,53.2166389 42.0611068,53.9196795 42.6716395,54.1780305 C46.1710341,55.6586789 49.8870694,56.4096213 53.7166289,56.4096213 C56.9084355,56.4096213 60.0257869,55.8852549 63.0057565,54.8516912 L63.9376474,61.5986767 C64.085437,62.6684863 64.8179802,63.5374271 65.8496251,63.8657149 C66.1331953,63.9559302 66.4218894,64 66.7070608,64 C67.459779,64 68.1873584,63.6935874 68.7255175,63.1232352 L72.5624424,59.0573201 C72.6168828,58.9996782 72.6866945,58.9608776 72.7648325,58.9449103 L78.2493791,57.8257618 C79.3104858,57.6094047 80.1323752,56.8239729 80.3941693,55.7758789 C80.6561236,54.7274655 80.2998594,53.6493529 79.46452,52.9619604 Z M78.0636413,55.1967447 C78.0418652,55.2840858 77.9744552,55.4370526 77.7680622,55.4792063 L72.2835156,56.5983549 C71.7171757,56.7139582 71.2086386,56.9967392 70.8131454,57.4162003 L66.9765407,61.481796 C66.8324338,61.6344435 66.6660705,61.6114506 66.5802468,61.5841465 C66.4941029,61.5566827 66.3455128,61.4798799 66.3166914,61.2718259 L63.9531789,44.1611001 C63.923557,43.9468189 64.0420448,43.8326526 64.1464422,43.7745316 C64.2506795,43.7164106 64.4103179,43.675694 64.5778021,43.8136515 L77.9352261,54.8092181 C78.0979067,54.9427048 78.0855776,55.1092438 78.0636413,55.1967447 L78.0636413,55.1967447 Z"  ></path>
                                    <path d="M6.63809524,26.9268293 C5.99115429,26.9268293 5.46666667,27.4508488 5.46666667,28.097561 C5.46666667,28.7442732 5.99115429,29.2682927 6.63809524,29.2682927 L11.3238095,29.2682927 C11.9707505,29.2682927 12.4952381,28.7442732 12.4952381,28.097561 C12.4952381,27.4508488 11.9707505,26.9268293 11.3238095,26.9268293 L6.63809524,26.9268293 Z" id="Path"></path>
                                    <path d="M30.847619,29.2682927 C31.49456,29.2682927 32.0190476,28.7442732 32.0190476,28.097561 C32.0190476,27.4508488 31.49456,26.9268293 30.847619,26.9268293 L26.1619048,26.9268293 C25.5149638,26.9268293 24.9904762,27.4508488 24.9904762,28.097561 C24.9904762,28.7442732 25.5149638,29.2682927 26.1619048,29.2682927 L30.847619,29.2682927 Z" id="Path"></path>
                                    <path d="M15.2285714,28.097561 C15.2285714,28.7442732 15.753059,29.2682927 16.4,29.2682927 L21.0857143,29.2682927 C21.7326552,29.2682927 22.2571429,28.7442732 22.2571429,28.097561 C22.2571429,27.4508488 21.7326552,26.9268293 21.0857143,26.9268293 L16.4,26.9268293 C15.753059,26.9268293 15.2285714,27.4508488 15.2285714,28.097561 Z" id="Path"></path>
                                    <g   transform="translate(40.609524, 26.926829)">
                                        <path d="M34.7263492,2.34146341 C35.3878263,2.34146341 35.9238095,1.8174439 35.9238095,1.17073171 C35.9238095,0.524019512 35.3878263,0 34.7263492,0 L29.9365079,0 C29.2750309,0 28.7390476,0.524019512 28.7390476,1.17073171 C28.7390476,1.8174439 29.2750309,2.34146341 29.9365079,2.34146341 L34.7263492,2.34146341 Z" id="Path"></path>
                                        <path d="M25.1466667,2.34146341 C25.8081437,2.34146341 26.344127,1.8174439 26.344127,1.17073171 C26.344127,0.524019512 25.8081437,0 25.1466667,0 L20.3568254,0 C19.6953483,0 19.1593651,0.524019512 19.1593651,1.17073171 C19.1593651,1.8174439 19.6953483,2.34146341 20.3568254,2.34146341 L25.1466667,2.34146341 Z" id="Path"></path>
                                        <path d="M15.5669841,2.34146341 C16.2284612,2.34146341 16.7644444,1.8174439 16.7644444,1.17073171 C16.7644444,0.524019512 16.2284612,0 15.5669841,0 L10.7771429,0 C10.1156658,0 9.57968254,0.524019512 9.57968254,1.17073171 C9.57968254,1.8174439 10.1156658,2.34146341 10.7771429,2.34146341 L15.5669841,2.34146341 Z" id="Path"></path>
                                        <path d="M7.1847619,1.17073171 C7.1847619,0.524019512 6.64877867,0 5.98730159,0 L1.19746032,0 C0.536142899,0 0,0.524019512 0,1.17073171 C0,1.8174439 0.536142899,2.34146341 1.19746032,2.34146341 L5.98730159,2.34146341 C6.64877867,2.34146341 7.1847619,1.8174439 7.1847619,1.17073171 Z" id="Path"></path>
                                    </g>
                                </g>
                            </g>
                        </g>
                    </g>
                </g>
            </g>
        </g>
    </g>
</svg>