<?xml version="1.0" encoding="utf-8"?>
<!-- Generator: Adobe Illustrator 21.0.0, SVG Export Plug-In . SVG Version: 6.00 Build 0)  -->
<svg version="1.1" id="Layer_1" xmlns="http://www.w3.org/2000/svg" xmlns:xlink="http://www.w3.org/1999/xlink" x="0px" y="0px"
	 width="14px" height="16px" viewBox="0 0 14 16" style="enable-background:new 0 0 14 16;" xml:space="preserve">
<style type="text/css">
	.st0{fill:#FFFFFF;}
</style>
<path class="st0" d="M11.9,0.1C11.5-0.1,10.1,0,8.5,0.5c-2.8,2-5.2,4.8-5.4,9.4c0,0.1-0.3,0-0.4,0C2,8.4,1.7,6.8,2.3,4.6
	C2.5,4.4,2.1,4.2,2,4.2C1.9,4.4,1.3,5,0.9,5.7C-1,9,0.2,13.3,3.6,15.1c3.4,1.9,7.6,0.7,9.5-2.7C15.2,8.5,13.2,0.8,11.9,0.1L11.9,0.1
	z"/>
</svg>
