<?xml version="1.0" encoding="UTF-8"?>
<svg width="100px" height="100px" viewBox="0 0 100 100" version="1.1" xmlns="http://www.w3.org/2000/svg" xmlns:xlink="http://www.w3.org/1999/xlink">
    <!-- Generator: Sketch 60 (88103) - https://sketch.com -->
    <title>w3c</title>
    <desc>Created with Sketch.</desc>
    <defs>
        <rect id="path-1" x="0" y="0" width="100" height="100" rx="20"></rect>
    </defs>
    <g id="Page-1" stroke="none" stroke-width="1" fill="none" fill-rule="evenodd">
        <g id="landing_wp" transform="translate(-177.000000, -4649.000000)">
            <g id="html" transform="translate(0.000000, 4458.000000)">
                <g id="Group-4" transform="translate(152.000000, 166.000000)">
                    <g id="1">
                        <g id="w3c" transform="translate(25.000000, 25.000000)">
                            <mask id="mask-2" fill="white">
                                <use xlink:href="#path-1"></use>
                            </mask>
                            <use id="Mask" fill="#0067B1" xlink:href="#path-1"></use>
                            <g id="w3c-blue" mask="url(#mask-2)" fill="#FFFFFF" fill-rule="nonzero">
                                <g transform="translate(10.000000, 30.000000)" id="Shape">
                                    <path d="M18.954,1.17533333 L25.731,24.22 L32.51,1.17533333 L50.8846667,1.17533333 L50.8846667,3.466 L43.967,15.3836667 C46.3986667,16.1653333 48.2376667,17.5836667 49.4823333,19.6393333 C50.7293333,21.698 51.354,24.1123333 51.354,26.8836667 C51.354,30.3136667 50.441,33.194 48.6186667,35.5313333 C46.7946667,37.869 44.4346667,39.0383333 41.537,39.0383333 C39.3553333,39.0383333 37.454,38.343 35.834,36.9576667 C34.2143333,35.571 33.0133333,33.693 32.2346667,31.3266667 L36.068,29.7346667 C36.6286667,31.1693333 37.3686667,32.3006667 38.2886667,33.1253333 C39.2086667,33.95 40.2916667,34.3633333 41.537,34.3633333 C42.8446667,34.3633333 43.9523333,33.6316667 44.8563333,32.1676667 C45.76,30.703 46.2123333,28.9423333 46.2123333,26.8836667 C46.2123333,24.6093333 45.7276667,22.847 44.763,21.6026667 C43.64,20.1373333 41.8793333,19.4026667 39.479,19.4026667 L37.61,19.4026667 L37.61,17.1596667 L44.1536667,5.849 L36.254,5.849 L35.8053333,6.61433333 L26.1983333,39.0383333 L25.731,39.0383333 L18.72,15.5723333 L11.7083333,39.0383333 L11.2416667,39.0383333 L0.0216666667,1.17533333 L4.93,1.17533333 L11.7083333,24.22 L16.29,8.70133333 L14.0463333,1.17533333 L18.954,1.17533333 Z M76.3506667,3.15233333 C77.066,3.15233333 77.3946667,3.35166667 77.3946667,3.84833333 C77.3946667,4.32533333 77.0656667,4.49433333 76.37,4.49433333 L75.724,4.49433333 L75.724,3.152 L76.3506667,3.152 L76.3506667,3.15233333 Z M76.4893333,2.656 L74.9616667,2.656 L74.9616667,6.71 L75.7246667,6.71 L75.7246667,4.98066667 L76.48,4.98066667 L77.3046667,6.71 L78.1593333,6.71 L77.2546667,4.86233333 C77.841,4.74333333 78.1783339,4.34533333 78.1783339,3.76933333 C78.179,3.033 77.623,2.656 76.4893333,2.656 L76.4893333,2.656 Z M79.5006667,4.78233333 C79.5006667,5.607 79.183,6.37266667 78.596,6.93866667 C77.9806667,7.535 77.2143333,7.85266667 76.3696667,7.85266667 C75.575,7.85266667 74.79,7.525 74.2043333,6.928 C73.6173333,6.33166667 73.2906667,5.56633333 73.2906667,4.752 C73.2906667,3.93733333 73.6283333,3.142 74.236,2.52566667 C74.7996667,1.94933333 75.566,1.641 76.4,1.641 C77.255,1.641 78.0196667,1.96033333 78.6153333,2.56466667 C79.192,3.14233333 79.5006667,3.91766667 79.5006667,4.78233333 L79.5006667,4.78233333 Z M76.3916667,1.17533333 C75.4283333,1.17533333 74.5623333,1.523 73.906,2.18833333 C73.213,2.89366667 72.824,3.80733333 72.824,4.752 C72.824,5.69666667 73.1916667,6.57066667 73.8676667,7.256 C74.5533333,7.95133333 75.4376667,8.33 76.3916667,8.33 C77.3246667,8.33 78.2293333,7.95233333 78.9353333,7.267 C79.6106667,6.611 79.9776667,5.73633333 79.9776667,4.75233333 C79.9776667,3.79866667 79.6006667,2.90466667 78.9453333,2.23833333 C78.2586667,1.543 77.363,1.17533333 76.3916667,1.17533333 L76.3916667,1.17533333 Z M70.373,0.961666667 L71.167,5.79533333 L68.354,11.179 C68.354,11.179 67.2733333,8.89433333 65.4786667,7.63066667 C63.9663333,6.56533333 62.9823333,6.33366667 61.441,6.652 C59.4623333,7.05966667 57.2203333,9.425 56.2396667,12.341 C55.068,15.831 55.058,17.518 55.0163333,19.0703333 C54.9503333,21.561 55.3426667,23.03 55.3426667,23.03 C55.3426667,23.03 53.635,19.8686667 53.6512169,15.2363333 C53.6613333,11.9323333 54.1806667,8.93566667 55.71,5.97866667 C57.0543333,3.378 59.0543333,1.818 60.829,1.635 C62.6626667,1.445 64.114,2.32966667 65.235,3.28566667 C66.4096667,4.291 67.6013333,6.488 67.6013333,6.488 L70.373,0.961666667 L70.373,0.961666667 Z M70.72,28.313 C70.72,28.313 69.4773333,30.535 68.7003333,31.3896667 C67.9266667,32.2473333 66.5383333,33.7576667 64.826,34.512 C63.1133333,35.2666667 62.216,35.4086667 60.5236667,35.245 C58.8313333,35.081 57.2613333,34.1016667 56.709,33.6956667 C56.157,33.286 54.7513333,32.0836667 53.956,30.9613333 C53.1596667,29.8406667 51.917,27.5973333 51.917,27.5973333 C51.917,27.5973333 52.61,29.845 53.043,30.7986667 C53.2936667,31.3486667 54.0606667,33.028 55.149,34.4903333 C56.1643333,35.8543333 58.1376667,38.2026667 61.1343333,38.7333333 C64.132,39.2626667 66.192,37.9166667 66.702,37.5933333 C67.2126667,37.266 68.2866667,36.3673333 68.966,35.639 C69.675,34.8806667 70.3476667,33.9096667 70.719,33.328 C70.9913333,32.9043333 71.4343333,32.042 71.4343333,32.042 L70.72,28.313 L70.72,28.313 Z"></path>
                                </g>
                            </g>
                        </g>
                    </g>
                </g>
            </g>
        </g>
    </g>
</svg>